<?xml version="1.0" encoding="UTF-8"?><svg id="_レイヤー_2" xmlns="http://www.w3.org/2000/svg" viewBox="0 0 300 60"><defs><style>.cls-1{fill:none;}.cls-2{fill:#ea4add;}.cls-3{fill:#8c4eff;}.cls-4{fill:#251755;}</style></defs><g id="_レイヤー_1-2"><path class="cls-2" d="m129.99,15.16c-1.83.44-2.58,1.17-3.03,2.96-.12.48-.82.48-.94,0-.45-1.79-1.2-2.52-3.03-2.96-.49-.12-.49-.8,0-.92,1.83-.44,2.58-1.17,3.03-2.96.12-.48.82-.48.94,0,.45,1.79,1.2,2.52,3.03,2.96.49.12.49.8,0,.92Z"/><path class="cls-2" d="m134.91,18.66c-1.29.34-1.87.9-2.22,2.16-.12.42-.72.42-.83,0-.35-1.26-.92-1.82-2.22-2.16-.43-.12-.43-.7,0-.82,1.29-.34,1.87-.9,2.22-2.16.12-.42.72-.42.83,0,.35,1.26.92,1.82,2.22,2.16.43.12.43.7,0,.82Z"/><path class="cls-4" d="m170.47,24.58c.52-1.44,1.09-3,1.73-4.67h-5.57c-1.06,3.02-2.02,5.98-2.9,8.87s-1.65,5.52-2.31,7.89c-.66,2.37-1.35,4.99-2.08,7.85h5.21c.27-1.04.54-2.12.84-3.24.3-1.11.59-2.2.87-3.26.06-.16.11-.33.17-.5l2.42-8.02,1.61-4.92h0Z"/><path class="cls-4" d="m181.67,35.19c-.44.48-.99,1.03-1.63,1.66-.65.62-1.27,1.17-1.86,1.64-.59.47-1.11.71-1.55.71-.51-.06-.82-.54-.92-1.43-.11-.89-.13-1.92-.07-3.08.07-1.22-.02-2.42-.25-3.57-.23-1.15-.87-1.94-1.91-2.35-.9-.35-1.89-.42-2.82-.12-.27.09-.55.18-.81.29l-1.52,4.97c.25-.17.83-.29,1.1-.37.88-.2,1.38.04,1.5.72.12.68.14,1.61.05,2.78-.11,2.31.19,4.17.91,5.58s2.05,2.16,4.01,2.27c.95,0,1.81-.19,2.61-.57.79-.38,1.48-.82,2.06-1.33s1.18-1.16,1.8-1.96v-6.56s-.25.24-.69.72h0Z"/><polygon class="cls-4" points="119.69 27.79 125.27 27.79 129.83 24.2 129.83 20.64 111.95 20.64 111.95 25.33 116.23 25.33 116.23 25.33 121.93 25.33 119.69 27.79"/><path class="cls-4" d="m126.3,39.4c-1.25.1-2.77.15-4.55.15-1.56-.02-2.71-.11-3.45-.27s-1.21-.39-1.43-.69-.33-.65-.33-1.06c-.02-.55.16-1.12.56-1.72.4-.59.86-1.14,1.4-1.64.54-.5,1.24-1.07,2.1-1.7h-6.24c-.97.9-1.7,1.77-2.19,2.61s-.76,1.85-.81,3.03c-.02,2.08.76,3.68,2.34,4.78s4.02,1.66,7.32,1.66c3.15-.02,6.41-.24,9.8-.64v-5c-1.76.22-3.27.39-4.52.49h0Z"/><path class="cls-4" d="m139.1,36.16c-.12-1.47-.18-2.95-.18-4.44,0-1.27.05-2.57.15-3.91s.21-2.59.35-3.74c.13-1.15.3-2.45.49-3.88h-4.55c-.33,2.35-.57,4.41-.73,6.18s-.23,3.6-.23,5.5c0,2.04.08,4.01.25,5.89.16,1.88.44,4.07.81,6.56h4.68c-.24-1.51-.45-2.88-.61-4.11-.16-1.22-.31-2.57-.43-4.05h0Z"/><path class="cls-4" d="m153.61,33.55v-4.94h3.63v-4.72h-3.63v-3.98l-4.49-.03v4.02h-6.93v4.72h6.93v4.38c-2.38-.14-4.17.34-5.39,1.45s-1.84,2.67-1.86,4.67c0,1.51.31,2.69.94,3.54.63.85,1.42,1.44,2.39,1.78.97.34,1.98.49,3.03.44.82,0,1.65-.13,2.51-.4s1.55-.77,2.08-1.5c.53-.74.79-1.83.79-3.28v-1.26c-.64-.24-1.31-.39-1.97-.52-.83-.17-1.67-.3-2.51-.36v1.74c0,.43-.07.76-.2,1-.13.24-.36.36-.69.38-.77.06-1.37-.05-1.81-.34-.44-.28-.64-.77-.59-1.44.07-.69.37-1.24.92-1.62.65-.46,1.53-.46,2.31-.4.97.07,1.9.23,2.85.44,1.21.27,2.41.66,3.47,1.27.56.32,1.25.73,2.06,1.24v-4.72c-1.61-.74-2.88-1.26-3.83-1.56h0Z"/><path class="cls-2" d="m170.47,24.58c.52-1.44,1.09-3,1.73-4.67h-5.57l3.75,4.95.09-.27h0Z"/><path class="cls-2" d="m111.36,38.12c-.02,2.08.76,3.68,2.34,4.78,1.11.77,2.64,1.27,4.58,1.51l-6.48-8.55c-.26.67-.41,1.42-.44,2.26h0Z"/><path d="m81.88,38.68v.87h-6.95v-.87h1.86c.51,0,.56-.18.56-.44v-13.87c0-.22-.07-.44-.5-.44h-1.92v-.77h6.95v.77h-2c-.29,0-.45.22-.45.43v13.88c0,.23.08.44.6.44h1.85Z"/><path d="m83.1,39.55v-.87h1.66c.26,0,.45-.16.45-.44v-13.89c0-.25-.23-.42-.45-.42h-1.66v-.77h7.65c1.15,0,2.04.12,2.66.35.62.23,1.11.61,1.46,1.13s.53,1.1.53,1.74c0,.51-.1.98-.31,1.43s-.49.83-.84,1.16c-.35.33-.74.59-1.17.8-.43.2-.99.39-1.69.56.92.08,1.67.21,2.24.37.57.17,1.04.41,1.42.74.38.33.67.73.87,1.19.2.47.3.99.3,1.57,0,1.14-.35,2.14-1.06,3-.71.87-1.61,1.51-2.73,1.92-.83.31-1.81.43-2.95.43h-6.38Zm4.2-9.52h1.18s1.73-.07,2.27-.22c.53-.15.94-.34,1.24-.58.29-.24.53-.56.73-.97.19-.41.29-.89.29-1.43,0-.96-.31-1.66-.94-2.08s-1.55-.83-2.75-.83h-2.01s0,6.11,0,6.11Zm1.91,8.64c1.04,0,1.88-.24,2.52-.55s1.13-.78,1.47-1.41c.34-.63.51-1.35.51-2.16s-.16-1.48-.48-2.03c-.32-.55-.81-.96-1.45-1.22s-1.7-.4-3.18-.4h-1.3v7.78s1.25,0,1.91,0h0Z"/><path d="m96.61,44.09v-1.99h.23c.23.16.44.27.63.34.19.06.41.1.64.1.43,0,.75-.08.98-.25.23-.17.39-.43.5-.77.1-.35.15-1.27.15-2.76,0,0,0-14.17,0-14.42s-.19-.39-.44-.39h-1.91v-.75h7.01v.75h-1.85c-.23,0-.45.16-.45.4s-.03,6.48-.03,12.67-2.66,7.08-5.12,7.08h-.35Z"/><path d="m71.18,29.64c.44-2.28.03-4.96-2.32-6.11-2.22-1.08-4.15.47-4.8,2.45-.63-2.01-2.5-3.36-4.76-2.47-2.32.91-2.74,3.68-2.44,5.78.37,2.55,2.31,4.52,4.31,6.05.56.43,1.15.83,1.76,1.21-1.47.69-2.97,1.25-4.37,1.71-.17.05-.09,1.29,0,1.27,1.9-.61,3.74-1.38,5.48-2.33,1.76.96,3.64,1.72,5.53,2.33.08.03.17-1.21,0-1.27-1.46-.47-2.95-1.04-4.38-1.74.51-.31,1.01-.64,1.5-.98,2.02-1.44,4.03-3.42,4.5-5.9h0Zm-12.47,1.89c-1.46-1.82-1.97-4.16-.19-5.96,1.77-1.8,4.91-.61,5.54,2.34.51-2.98,3.4-3.9,5.3-2.54,2.06,1.47,1.51,3.98.32,5.77-1.33,1.99-3.32,3.53-5.58,4.74-2.1-1.13-3.93-2.54-5.38-4.35Z"/><polyline class="cls-4" points="198.77 32.68 205.42 32.68 205.42 27.91 184.59 27.91 184.59 32.68 193.6 32.68"/><path class="cls-4" d="m193.38,34.08c-.23.98-.61,1.79-1.14,2.43-.76.93-1.67,1.6-2.75,2.03-1.08.43-2.01.7-2.8.81s-1.19.16-1.21.14v5.03s.44-.03,1.26-.14c.82-.12,1.85-.37,3.1-.76,1.25-.4,2.55-1.02,3.9-1.87s2.49-2.02,3.4-3.49c.72-1.16,1.2-2.54,1.47-4.16,0,0-5.24,0-5.24,0Z"/><rect class="cls-4" x="185.48" y="19.86" width="12.53" height="4.78"/><rect class="cls-4" x="207.79" y="29.55" width="14.76" height="4.9"/><rect class="cls-4" x="231.25" y="27.79" width="11.98" height="4.9"/><polyline class="cls-4" points="229.8 28.13 229.8 19.87 224.75 19.87 224.75 44.53 229.8 44.53 229.8 32.93"/><path class="cls-3" d="m204.2,18.88c-.29,0-.56.07-.81.2-.25.13-.49.34-.71.62-.19-.27-.42-.47-.68-.61s-.54-.21-.85-.21c-.48,0-.88.16-1.2.48-.32.32-.49.71-.49,1.18,0,.24.05.48.13.71.09.24.24.5.46.79s.51.62.88.99.84.81,1.41,1.31l.33.29.33-.29c.57-.51,1.04-.95,1.41-1.31s.66-.7.88-.99.37-.55.46-.79c.09-.24.13-.47.13-.71,0-.47-.16-.86-.49-1.18s-.72-.48-1.2-.48h0Z"/><path class="cls-3" d="m210.16,22.64l.45.4.45-.4c.77-.69,1.41-1.29,1.91-1.79.5-.5.9-.95,1.2-1.35s.51-.75.63-1.07c.12-.32.18-.64.18-.97,0-.64-.22-1.18-.66-1.61-.44-.43-.99-.65-1.63-.65-.39,0-.76.09-1.1.27-.34.18-.67.46-.97.85-.26-.36-.57-.64-.92-.83-.35-.19-.74-.29-1.15-.29-.65,0-1.19.21-1.63.65-.44.43-.66.97-.66,1.61,0,.33.06.65.18.97s.33.68.63,1.07c.3.4.7.84,1.2,1.35.5.5,1.14,1.1,1.91,1.79h0Z"/><polygon class="cls-3" points="243.22 32.69 243.22 27.79 239.5 27.79 243.22 32.69 243.22 32.69"/><path class="cls-3" d="m185.48,44.51s.44-.03,1.26-.14c.59-.08,1.28-.24,2.09-.46l-3.35-4.42v5.02Z"/></g><rect class="cls-1" width="300" height="60"/></svg>