<svg id="レイヤー_1" data-name="レイヤー 1" xmlns="http://www.w3.org/2000/svg" viewBox="0 0 300 60"><defs><style>.cls-1,.cls-2{fill:#00519f;}.cls-2{font-size:14.95px;font-family:NotoSerifCJKjp-SemiBold-90ms-RKSJ-H, Noto Serif CJK JP;letter-spacing:0.05em;}</style></defs><path class="cls-1" d="M79.92,49.4v1.54h-12V49.4h3.22c.88,0,1-.32,1-.79V24c0-.4-.12-.78-.86-.78H67.87V21.83h12v1.36H76.45a.76.76,0,0,0-.78.78V48.61c0,.41.13.78,1,.78Z"/><path class="cls-1" d="M82,50.94V49.39h2.88a.73.73,0,0,0,.77-.78V23.94a.76.76,0,0,0-.77-.74H82V21.83H95.3a13.8,13.8,0,0,1,4.62.62,5.14,5.14,0,0,1,2.53,2,5.49,5.49,0,0,1,.91,3.09,6.06,6.06,0,0,1-.54,2.54,6.59,6.59,0,0,1-1.46,2.06,7.86,7.86,0,0,1-2,1.41,14.87,14.87,0,0,1-2.92,1,21,21,0,0,1,3.87.66,6.42,6.42,0,0,1,2.47,1.32,5.43,5.43,0,0,1,1.51,2.11,7.13,7.13,0,0,1,.52,2.78,8.36,8.36,0,0,1-1.84,5.34,10.93,10.93,0,0,1-4.73,3.41,14.48,14.48,0,0,1-5.1.77ZM89.32,34h2.06a29.58,29.58,0,0,0,3.93-.38,5.67,5.67,0,0,0,2.15-1,5,5,0,0,0,1.26-1.72,6.06,6.06,0,0,0,.5-2.54,4.18,4.18,0,0,0-1.63-3.7,8.23,8.23,0,0,0-4.77-1.47h-3.5Zm3.31,15.36a9.57,9.57,0,0,0,4.37-1,5.73,5.73,0,0,0,2.56-2.5,8,8,0,0,0,.89-3.85,7.14,7.14,0,0,0-.84-3.61,5.06,5.06,0,0,0-2.51-2.17,15.48,15.48,0,0,0-5.52-.71H89.32V49.38Z"/><path class="cls-1" d="M105.47,59V55.47h.38a4.58,4.58,0,0,0,1.1.61,3.56,3.56,0,0,0,1.12.17,2.85,2.85,0,0,0,1.7-.44,2.41,2.41,0,0,0,.86-1.37,25.13,25.13,0,0,0,.27-4.91s0-25.16,0-25.61a.69.69,0,0,0-.76-.7h-3.31V21.88H119v1.34h-3.2a.74.74,0,0,0-.77.71c0,.43,0,11.51,0,22.5S110.33,59,106.07,59Z"/><path class="cls-1" d="M140.7,31.54a3.43,3.43,0,0,0-1.17,1.71,39.94,39.94,0,0,1-2.27,4.42c.63.51,3.65,2.85,3.65,5a1.42,1.42,0,0,1-1.26,1.49c-.62,0-.86-.38-1.55-1.43s-1.32-1.89-2.21-3a25.08,25.08,0,0,1-13,9.24l-.15-.27c3.32-1.44,8.76-6.58,11.45-10.71a38.92,38.92,0,0,0-6.55-4.36,18.32,18.32,0,0,1,7.57,2.63c.06-.15,2.63-5.2,2.63-6.13s-1.35-1.5-2.09-1.77a5.31,5.31,0,0,1,2-.53c1.52,0,3.68,1.79,3.68,2.75C141.39,31.07,141.15,31.22,140.7,31.54Z"/><path class="cls-1" d="M155.47,33.76c-.5,0-.89-.42-1.91-1.44a15.35,15.35,0,0,0-5-3.65,11.45,11.45,0,0,1,1.46-.09c1,0,6.61.42,6.61,3.74A1.35,1.35,0,0,1,155.47,33.76Zm2.69,10c-1.1.86-2.9,2.15-3.91,3.08-.18.14-.87,1-1.05,1a.82.82,0,0,1-.42.12c-1.07,0-3.2-2.72-3.2-4.18a6.35,6.35,0,0,1,.21-1.41c1,1.61,1.86,2,2.36,2,.84,0,5.84-3.65,6.91-4.48A63.45,63.45,0,0,0,168.42,31l.12.06C168.06,33,165.07,38.33,158.16,43.72Z"/><path class="cls-1" d="M167.71,46c6.6-6,8.52-11.49,8.52-12.56s-1-1.5-1.89-1.95a1.92,1.92,0,0,1,1.38-.38c2.21,0,4.13,1.82,4.13,2.6,0,.21-.27.45-.66.89-.12.12-1.91,3.23-2.3,3.8-1.14,1.74-4.19,6-9.06,7.84Zm25-3.26c0,.36,0,2.21-1.46,2.21-1,0-1.2-1-1.35-1.7a23.06,23.06,0,0,0-6.54-11.61C188.76,34.06,192.73,39,192.73,42.76Zm-5.89-13.43c1.5,0,4.49.72,4.49,2.48a1,1,0,0,1-.81,1c-.48,0-.63-.15-1.82-1.43a8.93,8.93,0,0,0-2.72-2A4,4,0,0,1,186.84,29.33Zm2.25-2.57c.45,0,4.54.18,4.54,2.24a.93.93,0,0,1-.95.87c-.36,0-.42-.06-1.17-.72a17.84,17.84,0,0,0-3.65-2.27A6.27,6.27,0,0,1,189.09,26.76Z"/><path class="cls-1" d="M217.24,39.68a14.83,14.83,0,0,1-1.55-.09c-.48,0-6.68-.09-7.12-.09A34.82,34.82,0,0,0,202,40a2.94,2.94,0,0,1-.86.21c-.94,0-2.37-2.37-2.37-3.56a4.63,4.63,0,0,1,.41-1.68c.89,2.1,1.5,2.46,4.52,2.46,1.48,0,10.3,0,11.16-.39a2.92,2.92,0,0,1,1-.3c.05,0,3,.27,3,1.85C218.94,39.08,218.46,39.68,217.24,39.68Z"/><path class="cls-1" d="M240.08,49.28c-.66,0-.81-.27-2.1-2.6a19.51,19.51,0,0,0-5.41-6.34c-4.4,5.38-9.57,8.16-13.16,9.06v-.12c7.72-4.58,13.85-12.11,15.34-17.44-6.16,1.23-6.79,1.35-7.59,1.8s-1,.57-1.2.57-.48-.15-.9-.6a3.63,3.63,0,0,1-1.46-2.78,2.68,2.68,0,0,1,.3-1.26c1,1.41,1.37,1.94,2.24,1.94,1.38,0,7.24-.62,8.37-1.16a9.64,9.64,0,0,1,1.62-1,7.79,7.79,0,0,1,2.75,2.57c0,.27-.12.33-1.11.78a1.11,1.11,0,0,0-.59.63A33.63,33.63,0,0,1,233,39.83c3.68,1.61,8.28,4.69,8.28,7.71C241.27,49,240.38,49.28,240.08,49.28Zm.2-18.72c-.5,0-.65-.21-1.34-1.17a9.28,9.28,0,0,0-3.11-2.57,9,9,0,0,1,3.62.66,1.94,1.94,0,0,1,1.58,2C241,29.66,241,30.56,240.28,30.56ZM243.22,29c-.39,0-.54-.15-1.68-1.37a10.51,10.51,0,0,0-2.93-2.31c.81,0,5.38.06,5.38,2.67C244,28.7,243.57,29,243.22,29Z"/><text class="cls-2" transform="translate(68.06 13.78)">結婚相談所</text></svg>