<?xml version="1.0" encoding="UTF-8"?><svg id="_レイヤー_2" xmlns="http://www.w3.org/2000/svg" viewBox="0 0 422.84 85.47"><defs><style>.cls-1{fill:#093;}.cls-2{fill:#80cc99;}.cls-3{fill:#333;}</style></defs><g id="_レイヤー_1-2"><g><g><path class="cls-2" d="m99.55,74.63c-.11-.03-11.24-2.94-24.08-9.33-.24-.12-.49-.25-.73-.37-.24.13-.49.25-.73.37-12.84,6.38-23.97,9.3-24.08,9.33l-.26-1c.11-.03,11.14-2.92,23.88-9.25.02,0,.05-.02.07-.03-11.91-6.43-22.86-17.16-26.47-23.87-3.93-7.3-3.93-14.94.02-21.5,3.05-5.12,9.86-10.01,18.99-6.96,5.21,1.74,7.63,4.97,8.56,6.59.95-1.62,3.39-4.85,8.6-6.59,9.12-3.04,15.94,1.85,19,6.96,3.94,6.57,3.94,14.2.02,21.5-3.62,6.71-14.56,17.44-26.47,23.87.02,0,.05.02.07.03,12.73,6.33,23.77,9.23,23.88,9.25l-.26,1h-.02ZM60.66,12.12c-5.93,0-10.36,3.63-12.61,7.39-3.74,6.24-3.74,13.51.02,20.47,3.61,6.7,14.7,17.49,26.68,23.78,11.98-6.29,23.08-17.09,26.68-23.78,3.75-6.97,3.75-14.23.02-20.47-2.87-4.78-9.25-9.36-17.78-6.51-6.53,2.17-8.43,6.9-8.46,6.95l-.49,1.25-.48-1.25s-1.89-4.78-8.39-6.94c-1.83-.61-3.55-.87-5.17-.87v-.02Z"/><path class="cls-1" d="m97.73,77c-.1-.02-9.43-2.46-22.27-8.84-.25-.12-.49-.25-.73-.37-.24.12-.49.25-.73.37-12.84,6.38-22.17,8.82-22.27,8.84l-.26-1c.09-.02,9.33-2.44,22.06-8.77.02,0,.04-.02.06-.03-12.57-6.7-22.45-16.37-26.16-21.48-4.88-6.72-6.75-15.74-4.75-22.99,2.16-7.83,10.17-15.43,20.77-14.1,6.07.76,10,4.9,11.24,6.41,1.26-1.5,5.23-5.64,11.3-6.41,10.61-1.32,18.61,6.28,20.77,14.1,2,7.25.14,16.27-4.75,22.98-3.71,5.11-13.59,14.79-26.16,21.48.02,0,.04.02.06.03,12.73,6.33,21.97,8.75,22.06,8.77l-.26,1h0ZM61.07,9.5c-8.88,0-15.48,6.66-17.37,13.5-1.92,6.96-.12,15.63,4.59,22.1,3.72,5.12,13.73,14.9,26.46,21.51,12.72-6.61,22.74-16.4,26.46-21.51,4.71-6.47,6.5-15.14,4.59-22.1-2.05-7.41-9.64-14.62-19.65-13.36-6.83.86-10.97,6.46-11.01,6.52l-.42.59-.42-.59c-.04-.06-4.11-5.66-10.94-6.52-.77-.1-1.53-.14-2.27-.14Z"/></g><g><path d="m123.15,50.57c0,.47-.38.69-.75.69s-.75-.22-.75-.69v-.02c.05-2.49.06-5.23.06-7.91,0-2.4-.02-4.74-.06-6.8v-.02c0-.49.38-.73.75-.73s.75.24.75.69v.02c-.02,2.15-.05,4.59-.05,7.11s.02,5.14.05,7.64v.02Z"/><path d="m140.05,51.34c-.38.02-1.15.05-1.86.05-1.42,0-3.83,0-3.94-2.44-.05-.93-.05-2.59-.05-4.36,0-2.68.02-5.69.06-7.11.06-2.37,2.04-2.48,3.97-2.48.44,0,.89.02,1.19.05,3.37.22,4.65,2,4.65,3.72,0,1.62-1.08,3.19-2.64,3.52-.2.05-.29.06-.29.09s.09.02.26.05c2.35.24,3.68,2.2,3.68,4.23,0,2.2-1.55,4.46-5.05,4.7v-.02Zm-2.08-8.27c-2.41,0-2.46.05-2.46.53,0,3.74,0,4.59.05,5.08.11,1.27.95,1.51,2.7,1.51.6,0,1.24-.05,1.75-.06,2.44-.15,3.66-1.88,3.66-3.57s-1.17-3.33-3.57-3.43c-.6-.05-1.37-.05-2.12-.05Zm1.28-6.85c-.06,0-.73-.02-1.36-.02-1.73,0-2.24.38-2.33,1.51-.05.55-.02,2.44-.05,3.77,0,.4.09.44,2.08.44.69,0,1.4,0,1.82-.02,2.11-.14,3.3-1.62,3.3-3.04,0-1.33-1.08-2.64-3.48-2.64h0Z"/><path d="m159.39,35.76c-.05,2.33-.06,5.2-.06,7.83,0,1.44,0,2.79.02,3.92v.06c0,2.55-1.8,3.81-4.06,3.81-.64,0-1.31-.09-1.97-.29-.42-.11-.62-.47-.62-.8s.24-.69.69-.69c.14,0,.24.02.4.06.58.2,1.15.31,1.66.31,1.42,0,2.49-.78,2.5-2.53.02-1.33.02-2.93.02-4.61,0-2.37-.02-4.9-.06-7.05v-.02c0-.47.38-.71.75-.71s.73.22.73.67v.02h0Z"/><path d="m169.23,41.1c-.42,0-.64-.31-.64-.6s.2-.58.67-.58c2.41-.05,5.43-.09,8.13-.09h1.71c1.44.02,2.24.67,2.24,1.73,0,.38-.09.78-.29,1.24-2.73,6.49-9.69,8.31-10.08,8.31-.47,0-.73-.29-.73-.6,0-.26.2-.55.64-.67,6.78-1.84,9.04-7.18,9.04-8.15,0-.73-.62-.73-2.04-.73-2.5,0-6.49.06-8.62.14h-.03Zm9.69-4.3c-1.44,0-3.37.02-5.25.02-.93,0-1.86,0-2.68-.02-.44,0-.67-.26-.67-.53,0-.29.26-.6.73-.6,1.11,0,2.49.02,3.9.02s2.81-.02,3.97-.02c.44,0,.69.29.69.58s-.22.55-.69.55Z"/><path d="m196.21,50.82c0,.47-.38.73-.71.73s-.62-.2-.62-.69v-.02c.02-2,.14-6.23.14-8.91v-.64c-2.12,2.2-4.43,4.01-7.22,5.69-.26.15-.49.22-.67.22-.38,0-.6-.26-.6-.58,0-.22.14-.49.42-.64,4.55-2.48,8.64-6.42,11.26-10.53.18-.29.42-.4.67-.4.33,0,.64.26.64.6,0,.15-.06.31-.18.47-1.04,1.4-2.06,2.66-3.08,3.81-.05,1.51-.06,4.67-.06,7.35,0,1.42,0,2.7.02,3.5v.02h0Z"/><path d="m207.42,38.66c-.4,0-.64-.31-.64-.64,0-.29.22-.6.67-.62,2.06-.09,4.76-.14,7.18-.14,1.04,0,2.04,0,2.9.02,1.28.02,2.06.75,2.06,1.77,0,.24-.06.51-.15.79-1.53,4.41-4.3,8.71-10.44,11.03-.18.06-.33.09-.47.09-.47,0-.73-.31-.73-.64,0-.26.2-.55.6-.69,7.69-2.44,9.7-9.73,9.7-10.44s-.47-.78-2.17-.78c-2.35,0-5.76.14-8.49.22h-.02,0Z"/><path d="m240.64,41.74c-.79-.02-1.84-.05-3.01-.05-.84,0-1.73.02-2.66.02-.05,7.42-6.85,9.35-7.38,9.35-.44,0-.67-.29-.67-.58,0-.26.18-.55.55-.67,4.01-1.08,6.16-4.27,6.16-8.04v-.06c-2.7.02-5.39.09-7.09.15h-.02c-.42,0-.64-.29-.64-.58s.22-.6.71-.6c3.22-.05,10.44-.09,14.11-.11.44,0,.64.29.64.55,0,.31-.22.6-.69.6h-.02.02Zm-3.05-5.66c.42,0,.62.26.62.55s-.22.6-.6.6c-3.13.05-6.07.14-8.49.14-.47,0-.67-.26-.67-.55s.24-.6.69-.6h.91c2.53,0,4.83-.06,7.51-.14h.03Zm3.19,2.17c-.33-.62-1.24-1.51-1.84-1.92-.15-.11-.2-.22-.2-.35,0-.22.2-.44.51-.44.58,0,2.53,1.75,2.53,2.44,0,.35-.26.58-.55.58-.18,0-.33-.09-.44-.29h0Zm2.17-1.2c-.4-.6-1.24-1.53-1.86-1.92-.15-.11-.22-.24-.22-.38,0-.22.2-.42.49-.42.55,0,2.61,1.71,2.61,2.44,0,.33-.26.55-.55.55-.18,0-.35-.09-.47-.26h0Z"/><path d="m263.89,40.72c-1.57-.05-3.22-.09-4.87-.09v.95c0,4.17-1.73,7.58-5.87,9.99-.2.11-.38.15-.53.15-.35,0-.55-.24-.55-.55,0-.2.11-.44.4-.6,3.68-2.01,5.34-5.1,5.34-8.91v-1.02c-1.57,0-3.13,0-4.65.05v3.94c-.02.47-.33.67-.67.67-.31,0-.6-.18-.6-.55v-.05c.06-1.07.06-2.5.06-3.97-1.66.05-3.26.11-4.72.18h-.05c-.44,0-.64-.26-.64-.53s.22-.55.62-.58l4.76-.11c-.02-1.28-.05-2.5-.09-3.42v-.05c0-.4.29-.6.6-.6.29,0,.6.2.62.62.05.87.06,2.11.09,3.42l4.67-.09c0-1.4-.02-2.79-.05-3.54-.02-.58.4-.73.6-.73.31,0,.64.24.64.71v3.57c1.66-.02,3.28-.05,4.83-.05.53,0,.78.26.78.55,0,.31-.26.62-.71.62h-.02v.02Zm-1.19-2.68c-.44-.55-1.48-1.27-2.15-1.55-.2-.09-.29-.22-.29-.38,0-.22.22-.47.55-.47.11,0,2.81,1.04,2.81,2.06,0,.31-.26.53-.53.53-.14,0-.29-.06-.4-.2h0Zm1.82-1.6c-.44-.53-1.53-1.27-2.2-1.56-.2-.09-.29-.24-.29-.38,0-.24.2-.47.53-.47.4,0,2.88,1.15,2.88,2.01,0,.33-.26.58-.55.58-.14,0-.26-.06-.38-.2h0Z"/><path d="m276.59,50.82c0,.47-.38.73-.71.73s-.62-.2-.62-.69v-.02c.02-2,.14-6.23.14-8.91v-.64c-2.12,2.2-4.43,4.01-7.22,5.69-.26.15-.49.22-.67.22-.38,0-.6-.26-.6-.58,0-.22.14-.49.42-.64,4.55-2.48,8.64-6.42,11.26-10.53.18-.29.42-.4.67-.4.33,0,.64.26.64.6,0,.15-.06.31-.18.47-1.04,1.4-2.06,2.66-3.08,3.81-.05,1.51-.06,4.67-.06,7.35,0,1.42,0,2.7.02,3.5v.02h0Z"/><path d="m290.91,41.05c-.89-.87-2.59-1.62-3.7-1.92-.26-.06-.38-.29-.38-.53,0-.31.24-.67.64-.67.18,0,2.81.78,4.36,1.97.2.15.29.35.29.58,0,.4-.33.79-.73.79-.15,0-.33-.06-.49-.22h0Zm-2.41,9.31c-.49,0-.78-.35-.78-.71,0-.29.2-.62.69-.73,4.81-1.22,9.53-5.56,11.67-10.33.11-.24.35-.38.6-.38.33,0,.69.24.69.67,0,.14-.02.29-.11.44-4.03,8.29-11.87,11.03-12.76,11.03h0Z"/><path d="m323.67,40.72c-1.57-.05-3.22-.09-4.87-.09v.95c0,4.17-1.71,7.58-5.85,9.99-.2.11-.38.15-.53.15-.35,0-.58-.26-.58-.55,0-.22.11-.44.4-.6,3.68-2.01,5.36-5.1,5.36-8.91v-1.02c-1.57,0-3.13,0-4.65.05,0,1.48,0,2.95-.02,3.94-.02.47-.33.67-.67.67-.31,0-.6-.18-.6-.55v-.05c.06-1.07.06-2.5.06-3.97-1.66.05-3.26.11-4.72.18h-.05c-.44,0-.64-.26-.64-.53s.22-.55.62-.58l4.79-.11c-.02-1.28-.06-2.5-.11-3.42v-.05c0-.4.29-.6.6-.6.29,0,.6.2.62.62.05.87.06,2.11.09,3.42l4.67-.09c0-1.4,0-2.79-.02-3.54-.02-.67.42-.73.58-.73.33,0,.64.24.64.71v3.57c1.66-.02,3.3-.05,4.85-.05.53,0,.75.26.75.55,0,.31-.26.62-.71.62h-.02l.02.02Z"/><path d="m328.71,47.87c0-.18.09-.35.29-.49,1.18-.75,2.64-2.46,3.39-3.77.11-.18.29-.26.47-.26.29,0,.58.2.58.53,0,.69-3.14,4.61-4.1,4.61-.35,0-.62-.31-.62-.62h0Zm8.84-11.7c-.02.78-.05,2-.05,3.39.95-.02,1.88-.02,2.81-.02s1.86,0,2.77.02c.49,0,.73.29.73.55,0,.29-.26.6-.75.6h-.05c-1.4-.06-2.79-.09-4.21-.09h-1.31c0,2.06,0,4.3.02,5.89.02.71.02,1.07.02,1.68,0,1.51-1.08,2.26-2.57,2.26-.67,0-2.11-.15-2.11-.87,0-.31.24-.6.6-.6.05,0,.11,0,.18.02.51.15.99.26,1.42.26.75,0,1.26-.35,1.28-1.36.02-.89.02-2.06.02-3.33s0-2.68-.02-3.97c-1.97.05-3.94.09-5.92.18h-.02c-.42,0-.67-.29-.67-.58,0-.26.2-.51.67-.53,1.95-.06,3.92-.11,5.92-.14,0-1.42,0-2.66-.02-3.37v-.02c0-.47.29-.67.58-.67.33,0,.67.24.67.62v.02l.02.02Zm6.16,11.5c-.75-1.17-2.44-2.61-3.74-3.42-.15-.09-.22-.24-.22-.4,0-.26.22-.55.55-.55.71,0,4.56,3.04,4.56,3.97,0,.35-.33.69-.69.69-.15,0-.33-.09-.47-.29h0Zm-1.09-9.55c-1.22,0-2.2-.95-2.2-2.17s.98-2.21,2.2-2.21,2.21.99,2.21,2.21-.99,2.17-2.21,2.17Zm0-3.57c-.78,0-1.37.64-1.37,1.4s.62,1.37,1.37,1.37,1.4-.6,1.4-1.37-.64-1.4-1.4-1.4Z"/><path d="m350.2,43.08c-.44,0-.64-.29-.64-.6s.22-.64.64-.64h14.1c.42,0,.62.31.62.62s-.2.62-.62.62h-14.1Z"/><path d="m374.64,35.04l-.06,5.81c.06-.02.14-.05.2-.05.71,0,4.52.98,5.87,2,.2.15.29.35.29.55,0,.35-.26.71-.62.71-.14,0-.29-.05-.42-.15-1.11-.82-3.98-1.77-5.2-1.95-.05,0-.09-.02-.14-.05v2.7c0,2.46.02,4.79.05,6.23.02.6-.42.79-.73.79-.33,0-.67-.22-.67-.71v-.05c.11-2.55.18-7.63.18-11.59,0-1.75-.02-3.28-.05-4.27v-.02c0-.4.31-.6.64-.6s.67.2.67.62v.02h0Z"/></g><g><g><path class="cls-3" d="m69.86,31.59c0,.27-.23.41-.47.41s-.47-.14-.47-.41h0c.02-.93.04-1.97.04-2.97,0-.73-.02-1.44-.04-2.06-.02-.32.34-.41.47-.41.22,0,.46.12.46.38v.02c-.02.64-.02,1.36-.02,2.12,0,.96,0,1.97.02,2.92h0Z"/><path class="cls-3" d="m73.65,32.06c-.1,0-.3.02-.5.02-.75,0-1.64-.03-1.67-.99-.02-.32-.02-.91-.02-1.53,0-.95,0-1.99.02-2.49.02-.96.88-.98,1.54-.98.17,0,.33,0,.45.02,1.28.09,1.76.76,1.76,1.41,0,.59-.38,1.16-.93,1.23-.08.02-.12.03-.12.05,0,0,.03.02.11.03.83.06,1.28.73,1.28,1.44,0,.83-.6,1.72-1.94,1.79m1.05-1.88c0-.46-.3-.91-1.02-.95-.19-.02-.39-.02-.59-.02-.72,0-.79.02-.79.18,0,.96,0,1.32.02,1.53.04.29.12.38.83.38.18,0,.37,0,.52-.02.64-.04,1.02-.57,1.02-1.09m-1.7-3.3c-.5,0-.65.06-.67.35-.02.18,0,.63-.02,1.07,0,.16.11.16.62.16.18,0,.38,0,.52,0,.55-.03.91-.47.91-.87,0-.36-.29-.71-.96-.71h-.4"/><path class="cls-3" d="m78.13,28.6c0-.69,0-1.36-.04-2.04,0-.2.11-.41.47-.41.22,0,.45.12.45.38v.02c-.02.71-.03,1.43-.03,2.17,0,.53,0,1.09.02,1.67v.06c0,1.06-.76,1.6-1.68,1.6-.63,0-1.01-.16-1.01-.57,0-.22.15-.43.43-.43.06,0,.14,0,.2.03.14.05.28.06.4.06.46,0,.76-.28.78-.8,0-.6.02-1.17.02-1.74"/></g><g><path class="cls-1" d="m57.42,35.98c0-.24.18-.37.35-.37s.35.12.35.38v.02c-.02.4-.04,1.72-.04,2.58,0,.35,0,.63.02.75.02.3.16.3,1.01.3.36,0,.76,0,.88-.02h.03c.21,0,.34.16.34.33s-.12.34-.39.35c-.08,0-.45.02-.82.02s-.73,0-.81-.02c-.58-.05-.92-.25-.94-.8v-.56c0-.86.02-2.22.02-2.84v-.13h0Z"/><path class="cls-1" d="m61.09,36c0-.3.26-.42.43-.42.22,0,.44.18.44.42,0,.22-.17.44-.44.44-.24,0-.43-.15-.43-.44m.43,4.37c-.17,0-.33-.1-.33-.32v-2.49c0-.21.15-.32.34-.32.16,0,.33.1.33.3v.02c0,.26,0,.75,0,1.27,0,.43,0,.87,0,1.22h0c0,.22-.17.33-.34.33"/><path class="cls-1" d="m63.98,37.87c-.06,0-.08,0-.08.1,0,0,0,1.31,0,1.84v.19c0,.22-.17.34-.34.34s-.31-.1-.31-.31v-2.05c0-.09,0-.1-.1-.1h-.22c-.19,0-.28-.15-.28-.3s.1-.3.28-.3h.22c.06,0,.1,0,.1-.08v-.29c0-1.2.96-1.29,1.13-1.29.22,0,.38.07.38.3,0,.16-.1.31-.3.31h-.07c-.5,0-.51.55-.51.75v.24c0,.06.05.06.09.06h.48c.19,0,.28.15.28.3s-.09.3-.28.3h-.49,0Z"/><path class="cls-1" d="m66.74,40.39c-.86,0-1.49-.64-1.49-1.57s.67-1.61,1.48-1.61c.86,0,1.35.63,1.35,1.11,0,.3-.19.53-.59.55h-1.53s-.05.05-.05.12c0,.52.41.83.85.83.39,0,.63-.18.81-.38.06-.06.14-.1.21-.1.17,0,.34.15.34.32,0,.07-.02.15-.1.22-.3.31-.63.52-1.27.52m.69-2.19c0-.09-.13-.46-.69-.46-.51,0-.78.43-.78.55,0,.06.06.06.64.06h.71c.07,0,.12-.06.12-.14"/><path class="cls-1" d="m72.13,40.41c-.5,0-1.39,0-1.45-.88-.02-.3-.03-.81-.03-1.34,0-.69.02-1.41.04-1.75.05-.86.67-.88,1.44-.88.19,0,.38,0,.47.02,1.44.1,2.24,1.1,2.24,2.4,0,2.43-2.06,2.44-2.71,2.44m-.09-4.17c-.3,0-.63,0-.66.32-.02.26-.04.98-.04,1.66,0,.49,0,.95.04,1.19.03.29.22.34.75.34.66,0,1.97,0,1.97-1.76,0-1-.6-1.73-1.56-1.73h-.5"/><path class="cls-1" d="m77.13,40.39c-.86,0-1.49-.64-1.49-1.57s.67-1.61,1.48-1.61c.86,0,1.35.63,1.35,1.11,0,.3-.19.53-.59.55h-1.53s-.05.05-.05.12c0,.52.41.83.85.83.39,0,.63-.18.81-.38.06-.06.14-.1.21-.1.17,0,.34.15.34.32,0,.07-.02.15-.1.22-.3.31-.63.52-1.27.52m.69-2.19c0-.09-.13-.46-.69-.46-.51,0-.78.43-.78.55,0,.06.06.06.64.06h.71c.07,0,.12-.06.12-.14"/><path class="cls-1" d="m80.23,40.39c-.76,0-1.08-.43-1.08-.63,0-.17.15-.3.32-.3.09,0,.18.04.25.13.09.11.25.22.51.22.34,0,.47-.18.47-.32,0-.2-.14-.32-.87-.65-.38-.17-.56-.47-.56-.78,0-.42.34-.83.95-.83s.96.28.96.53c0,.17-.14.31-.31.31-.08,0-.18-.04-.26-.13-.06-.06-.18-.15-.39-.15s-.33.12-.33.26c0,.1.06.21.21.27.16.08.44.21.63.3.43.23.61.55.61.86,0,.49-.47.91-1.09.91"/><path class="cls-1" d="m82.11,36c0-.3.26-.42.43-.42.22,0,.44.18.44.42,0,.22-.17.44-.44.44-.24,0-.43-.15-.43-.44m.43,4.37c-.17,0-.33-.1-.33-.32v-2.49c0-.21.15-.32.34-.32.16,0,.33.1.33.3v.02c0,.26,0,.75,0,1.27,0,.43,0,.87,0,1.22h0c0,.22-.17.33-.34.33"/><path class="cls-1" d="m86.2,40.05s0-.03-.02-.03c0,0-.02,0-.02.02-.23.21-.53.34-.87.34-.85,0-1.48-.65-1.48-1.56,0-.83.52-1.58,1.52-1.58.34,0,.72.16.91.39,0,.02.02.03.03.03.02,0,.02-.02.02-.03.06-.16.21-.35.6-.35.27,0,.41.1.41.34,0,.15-.1.3-.26.3h-.02c-.18,0-.2.07-.2.85v1.61c-.02,1.08-.83,1.56-1.63,1.56-.66,0-1.23-.34-1.23-.63,0-.18.16-.34.33-.34.07,0,.14.02.2.07.22.18.52.28.8.28.47,0,.91-.28.91-.93v-.34h0Zm0-1.26c0-.61-.38-.99-.88-.99-.18,0-.89.1-.89,1,0,.61.39.99.87.99s.9-.38.9-1"/><path class="cls-1" d="m90.06,40.04c0-.26.02-.73.02-1.11,0-.25,0-.47-.02-.56-.02-.38-.24-.55-.51-.55-.38,0-.83.34-.86.75v.43c0,.26,0,.59.02,1.03,0,.13-.06.32-.32.32-.17,0-.33-.1-.33-.3v-.02c.02-.59.02-1,.02-1.37s0-.7-.02-1.11v-.02c0-.18.18-.28.34-.28s.32.1.32.3v.1s.02-.02.03-.02c.23-.25.56-.38.89-.38.52,0,1.03.34,1.05,1.04,0,.22.02.78.02,1.24v.5c0,.22-.16.33-.32.33s-.33-.11-.33-.31h0Z"/><path class="cls-1" d="m63.62,47.16c-1.02,0-1.54-.58-1.54-.89,0-.21.18-.35.36-.35.1,0,.2.05.27.15.16.23.47.42.91.42.69,0,.83-.47.83-.67,0-.25-.15-.52-.47-.7-.28-.15-.61-.34-.95-.49-.55-.25-.8-.69-.8-1.12,0-.61.49-1.19,1.35-1.19s1.36.41,1.36.71c0,.18-.16.36-.34.36-.1,0-.2-.04-.3-.15-.12-.13-.33-.29-.72-.29s-.64.25-.64.53c0,.19.12.41.39.55.26.14.69.34.97.49.63.34.89.82.89,1.28,0,.67-.57,1.36-1.58,1.36"/><path class="cls-1" d="m66.75,44.33c0,.26-.02.72-.02,1.11,0,.24,0,.46.02.55.02.41.26.58.52.58.35,0,.75-.3.77-.71,0-.14,0-.33,0-.59s0-.58-.02-.95c0-.22.15-.32.32-.32s.33.1.33.31h0c-.02.68-.03,1.06-.03,1.47,0,.27.06.55.17.76.05.08.06.15.06.22,0,.2-.16.32-.32.32-.21,0-.3-.15-.37-.35,0-.02-.02-.03-.02-.03,0,0,0,0-.02.02-.24.27-.6.41-.95.41-.55,0-1.07-.34-1.09-1.05,0-.2-.02-.65-.02-1.07v-.67c0-.22.17-.33.33-.33s.32.1.32.3h0Z"/><path class="cls-1" d="m70.46,44.32h.02c.23-.2.52-.33.87-.33.86,0,1.52.63,1.52,1.57s-.65,1.56-1.52,1.56c-.34,0-.63-.13-.87-.33-.02,0-.02-.02-.03-.02-.02,0-.02.02-.02.04,0,.69.02,1.28.02,1.54,0,.19-.13.32-.32.32-.17,0-.33-.11-.33-.32v-.03c.02-.22.02-.69.02-1.24,0-.95-.02-2.12-.02-2.71,0-.23.16-.34.33-.34.14,0,.29.1.31.29,0,.02.02.02.02.02m1.77,1.23c0-.61-.4-.99-.9-.99s-.9.38-.9.99.4,1,.9,1,.9-.38.9-1"/><path class="cls-1" d="m74.42,44.32h.02c.23-.2.52-.33.87-.33.86,0,1.52.63,1.52,1.57s-.65,1.56-1.52,1.56c-.34,0-.63-.13-.87-.33-.02,0-.02-.02-.03-.02-.02,0-.02.02-.02.04,0,.69.02,1.28.02,1.54,0,.19-.13.32-.32.32-.17,0-.33-.11-.33-.32v-.03c.02-.22.02-.69.02-1.24,0-.95-.02-2.12-.02-2.71,0-.23.16-.34.33-.34.14,0,.29.1.31.29,0,.02.02.02.02.02m1.77,1.23c0-.61-.4-.99-.9-.99s-.9.38-.9.99.4,1,.9,1,.9-.38.9-1"/><path class="cls-1" d="m77.55,45.56c0-.91.68-1.58,1.57-1.58s1.56.67,1.56,1.58-.67,1.58-1.56,1.58-1.57-.63-1.57-1.58m2.51,0c0-.62-.42-1-.94-1s-.95.38-.95,1,.42.99.95.99.94-.38.94-.99"/><path class="cls-1" d="m81.6,46.8v-.02c.02-.59.02-1,.02-1.37s0-.7-.02-1.11v-.02c0-.18.18-.28.34-.28s.32.1.32.29v.1s.02,0,.02-.02c.25-.27.59-.38.8-.38.19,0,.3.14.3.3s-.11.32-.35.34c-.37.04-.78.34-.8.74v.41c0,.24,0,.55.02,1,0,.13-.07.32-.32.32-.17,0-.33-.1-.33-.3"/><path class="cls-1" d="m85.23,44.62c-.1,0-.1.03-.1.07,0,.23-.02.76-.02,1.17,0,.49.02.69.37.69.04,0,.09,0,.14,0h.05c.17,0,.26.14.26.27,0,.22-.21.33-.53.33-.92,0-.92-.82-.92-1.07,0-.36.02-.99.02-1.26v-.1c0-.08-.04-.09-.1-.09h-.18c-.18,0-.28-.15-.28-.3s.1-.29.28-.29h.18c.1,0,.1-.02.1-.1v-.5c0-.18.15-.28.31-.28.33,0,.33.3.33.38,0,.17,0,.41,0,.41,0,.1.02.1.09.1h.42c.18,0,.27.14.27.29s-.09.3-.27.3h-.41l-.02-.02Z"/></g></g></g></g></svg>