<svg id="レイヤー_1" data-name="レイヤー 1" xmlns="http://www.w3.org/2000/svg" width="45.426mm" height="19.991mm" viewBox="0 0 128.767 56.667"><defs><style>.cls-1{fill:#6c3400;}.cls-2{fill:#f19ca6;}</style></defs><path class="cls-1" d="M259.249,412.425a14.994,14.994,0,0,0,5.146-5.568,9.228,9.228,0,0,0,1-2.846c0-.363-.454-.363-.817-.363a37.406,37.406,0,0,0-5.812.469,29.53,29.53,0,0,1,.348,3.6c0,.62-.136.7-.288.7-.121,0-.666-.121-.666-1.453a7.378,7.378,0,0,0-.2-2.255,3.205,3.205,0,0,0-.907-1.725.641.641,0,0,1,.529-.212,1.628,1.628,0,0,1,.711.243,1.143,1.143,0,0,0,.771.317c.3,0,2.059-.2,2.438-.226.014-1.711.014-1.908-.682-2.543a.506.506,0,0,1,.44-.2c.317,0,1.407.454,1.407.787a6.466,6.466,0,0,1-.257.652,9.76,9.76,0,0,0-.046,1.24c.349-.029,2.482-.136,2.663-.182.121-.014.606-.256.712-.256.2,0,1.271.756,1.271.983,0,.091-.076.151-.364.363-.166.137-.2.2-.408.818a13.718,13.718,0,0,1-3.632,5.72,10.62,10.62,0,0,1-3.284,2.074Z" transform="translate(-225.163 -393.084)"/><path class="cls-1" d="M276.94,404.42c.228.227.3.348.3.424a5.215,5.215,0,0,1-.136.635c-.121,1.135-.151,1.438-.348,2.83.576-.06,3.1-.182,3.617-.227.151-.015.878-.106,1.029-.106.394,0,1.514.712,1.514,1.135,0,.121-.227.243-.454.243a4.479,4.479,0,0,1-1.151-.258,7.2,7.2,0,0,0-1.831-.2,30.038,30.038,0,0,0-7.1.817,7.553,7.553,0,0,1-.893.288c-.121,0-1.544-.529-1.544-1.286a.873.873,0,0,1,.015-.2,7.079,7.079,0,0,0,1.8.288c.681,0,3.677-.379,4.283-.44.092-.923.105-1.74.105-2.057,0-1.68-.105-1.877-.424-2.376-.392.06-1.028.2-1.482.3a7.4,7.4,0,0,1-.787.212c-.378,0-1.316-.8-1.316-1.12a.374.374,0,0,1,.03-.137,4.176,4.176,0,0,0,1.438.258,18.473,18.473,0,0,0,4.3-.681,4.879,4.879,0,0,1,.727-.288c.454,0,1.483.319,1.483.743,0,.2-.167.211-.908.257-.394.014-.651.06-2.845.363C276.669,404.148,276.805,404.283,276.94,404.42Z" transform="translate(-225.163 -393.084)"/><path class="cls-1" d="M286.853,412.637a10.364,10.364,0,0,0,3.436-4.238,8.622,8.622,0,0,0,.681-2.618.722.722,0,0,0-.211-.529,27.442,27.442,0,0,0-2.862.47c-.181.029-1,.257-1.164.257a1.25,1.25,0,0,1-1.166-1.272,2.809,2.809,0,0,0,1.166.212c.544,0,1.619-.1,4.328-.394,1.2-.121,2.375-.256,2.512-.287.106-.03.787-.2.862-.2.152,0,1.953.333,1.953.923a.333.333,0,0,1-.364.318c-.181,0-.968-.121-1.134-.135a14.443,14.443,0,0,0-1.468-.062c-.741,0-1.362.046-1.847.076.469.47.682.8.682.939,0,.09-.363.393-.408.454s-.592,1.7-.727,2.012a7.941,7.941,0,0,1-4.178,4.207Zm2.1-11.063a8.316,8.316,0,0,0,1.681-.272,9.038,9.038,0,0,1,1.845-.333c.273,0,.848.046.848.454s-.228.439-1.18.529c-.727.076-1.908.3-2.286.379a4.569,4.569,0,0,1-.62.121,1.316,1.316,0,0,1-1.12-1.013A2.551,2.551,0,0,0,288.957,401.574Zm5.872.031c2.027.151,2.33,1.12,2.33,1.437a.422.422,0,0,1-.377.454c-.167,0-.227-.045-.637-.559a3.456,3.456,0,0,0-1.392-1.165Zm1.15-1.347c2.134.03,2.467.983,2.467,1.316,0,.228-.106.409-.318.409-.257,0-.439-.227-.681-.514a3.255,3.255,0,0,0-1.513-1.06Z" transform="translate(-225.163 -393.084)"/><path class="cls-1" d="M299.354,409.293c3.5-2.77,5.071-5.615,5.071-6.023,0-.273-.137-.485-.44-.894a.628.628,0,0,1,.257-.075c.273,0,1.468.591,1.468,1.059,0,.136-.075.212-.333.439a10.43,10.43,0,0,0-.636.908,12.061,12.061,0,0,1-.968,1.256c.318.183.742.424.742.591a3.558,3.558,0,0,1-.137.438,17.032,17.032,0,0,0-.09,2c0,.53.137,3.132.137,3.284,0,.363-.137.53-.289.53-.3,0-.727-.575-.727-.908,0-.091.062-.636.076-.742.076-.771.091-1.967.091-2.633,0-1.559-.046-1.755-.317-1.967a14.586,14.586,0,0,1-3.8,2.875Z" transform="translate(-225.163 -393.084)"/><path class="cls-1" d="M321.782,403.193c-1.483,2.588-4.646,5.071-5.554,5.767a13.8,13.8,0,0,0-2.028,1.649c-.393.439-.438.5-.681.5-.605,0-2-.862-2-1.8a1.491,1.491,0,0,1,.076-.424,2.649,2.649,0,0,0,1.468.681c.787,0,5.7-3.314,8.581-6.461Zm-10.018-1.679c2.315.121,3.223,1.12,3.223,1.846a.556.556,0,0,1-.53.621c-.378,0-.5-.166-1.105-.984a3.826,3.826,0,0,0-1.649-1.347Z" transform="translate(-225.163 -393.084)"/><path class="cls-1" d="M324.1,412.44a21.529,21.529,0,0,0,7.189-6.477,11.039,11.039,0,0,0,1.452-2.572c0-.212-.212-.228-.257-.228a10.906,10.906,0,0,0-1.225.288,7.434,7.434,0,0,1-1.53.242,2.469,2.469,0,0,1-.967-.181,10.87,10.87,0,0,1-4.5,3.95l-.107-.137c2.921-2.421,4.283-4.918,4.283-5.523a1.5,1.5,0,0,0-.3-.757,1.223,1.223,0,0,1,.468-.091,1.481,1.481,0,0,1,1.287.832c0,.166-.076.258-.741,1.181a3.573,3.573,0,0,0,.439.046,7.289,7.289,0,0,0,1.845-.365,14.613,14.613,0,0,1,1.409-.483,3.41,3.41,0,0,1,1.724,1.089c0,.151-.014.167-.665.591-.2.136-.242.212-.636.892a16.972,16.972,0,0,1-9.111,7.855Zm9.05-11.955c2.391.122,2.391,1.256,2.391,1.347a.408.408,0,0,1-.363.439c-.166,0-.212-.045-.651-.53a3.7,3.7,0,0,0-1.437-1.1Zm.863-1.15a6.753,6.753,0,0,1,.726-.046c1.1,0,1.892.56,1.892,1.12,0,.318-.212.364-.318.364-.242,0-.333-.091-.7-.424a3.11,3.11,0,0,0-1.635-.848Z" transform="translate(-225.163 -393.084)"/><path class="cls-2" d="M252.555,425.265c4.212-6.257,9.145-6.257,10.529-6.257,4.031,0,7.881,2.526,7.881,8.783v14.5c0,2.587,1.023,4.151,3.129,4.332.662.061,1.443.12,1.443,1.022a1,1,0,0,1-1.022.963H263.926a.916.916,0,0,1-.963-.963c0-.782.542-.9,1.264-.961,2.527-.242,3.249-2.166,3.249-4.393V428.634c0-2.528-.722-6.859-5.475-6.859-4.572,0-9.446,3.67-9.446,10.167V442.29c0,2.046.6,4.151,3.129,4.332.662.061,1.383.12,1.383,1.022a.964.964,0,0,1-1.022.963H245.517a1,1,0,0,1-1.023-.963c0-.782.42-.9,1.323-.961,2.046-.181,3.249-1.625,3.249-4.393V424.542c0-2.165-1.384-2.286-2.046-2.346-1.624-.12-2.106-.18-2.106-1.023a.955.955,0,0,1,.9-1.023h5.656a.982.982,0,0,1,1.082,1.083Z" transform="translate(-225.163 -393.084)"/><path class="cls-2" d="M297.377,427.069c0-5.9-4.813-6.256-6.438-6.256-3.249,0-4.994,1.623-5.354,3.428-.421,2.286-.722,3.791-2.888,3.791a2.683,2.683,0,0,1-2.707-2.647c0-3.43,4.934-6.377,11.551-6.377,4.031,0,9.445,1.142,9.445,7.219v17.748c0,.9.362,2.828,2.166,2.828a2.107,2.107,0,0,0,1.444-.6c.361-.361.6-.6.842-.6a.632.632,0,0,1,.663.661,5.329,5.329,0,0,1-4.753,3.49c-3.791,0-3.911-3.67-3.971-5.295a12.979,12.979,0,0,1-10.469,5.295c-4.512,0-8-2.347-8-6.438,0-5.776,7.039-9.987,18.471-12.273Zm0,5.776c-13.357,3.007-14.2,9.506-14.2,10.288,0,2.105,1.865,4.151,5.054,4.151a10.273,10.273,0,0,0,6.618-2.767c2.466-2.227,2.527-4.272,2.527-6.378Z" transform="translate(-225.163 -393.084)"/><path class="cls-2" d="M331.248,426.468a7.023,7.023,0,0,0,.6-2.407,1.77,1.77,0,0,0-1.925-1.925c-.843,0-1.445-.241-1.445-1.023a.946.946,0,0,1,.963-.963h8a.966.966,0,0,1,1.024.963c0,.6-.483.842-1.2,1.023-1.624.481-2.466,1.323-3.429,3.61l-9.807,23.523a.744.744,0,0,1-.662.482.722.722,0,0,1-.662-.422l-11.311-24.787c-.781-1.685-1.323-2.226-2.526-2.406-.6-.06-1.264-.181-1.264-1.023a1,1,0,0,1,1.023-.963h9.144a.949.949,0,0,1,.963.963.989.989,0,0,1-.963.963c-1.984,0-2.406.722-2.406,1.744a5.164,5.164,0,0,0,.6,2.166l8.182,18.049Z" transform="translate(-225.163 -393.084)"/><path class="cls-2" d="M348.334,420.15a.983.983,0,0,1,1.084,1.083V442.29c0,2.046.6,4.151,3.128,4.332.661.061,1.384.12,1.384,1.022a.966.966,0,0,1-1.024.963H342.2a.945.945,0,0,1-.962-.963c0-.721.361-.9,1.264-.961,2.707-.181,3.249-2.408,3.249-4.393V424.542c0-2.165-1.385-2.286-1.986-2.346-1.684-.12-2.106-.18-2.106-1.023a.91.91,0,0,1,.843-1.023Zm-3.91-13.536a2.989,2.989,0,0,1,3.068-3.008,3.039,3.039,0,1,1-3.068,3.008Z" transform="translate(-225.163 -393.084)"/><polygon class="cls-1" points="11.967 12.366 11.967 0 11.367 0 11.367 12.366 0 12.366 0 12.966 11.367 12.966 11.367 56.667 11.967 56.667 11.967 12.966 23.333 12.966 23.333 12.366 11.967 12.366"/></svg>