<svg id="レイヤー_1" data-name="レイヤー 1" xmlns="http://www.w3.org/2000/svg" viewBox="0 0 300 60"><defs><style>.cls-1{fill:#cc0404;}</style></defs><path d="M41.69,17.81a8.86,8.86,0,0,1,5.38,1.35,4.79,4.79,0,0,1,1.8,4.06,6.78,6.78,0,0,1-2.57,5.53,10.57,10.57,0,0,1-6.84,2.08c-.53,0-1,0-1.52-.06l-1.45-.15L34.3,38.77a7.76,7.76,0,0,0-.22,1,3.53,3.53,0,0,0-.08.74,1.3,1.3,0,0,0,.56,1.19,4.93,4.93,0,0,0,2.14.39l0,.48H27.51v-.48a3.45,3.45,0,0,0,2.23-.57,4.56,4.56,0,0,0,1.2-2.37l4.75-17.54c.13-.5.22-.86.27-1.12a3.2,3.2,0,0,0,.08-.6,1.27,1.27,0,0,0-.56-1.15,4.61,4.61,0,0,0-2-.46v-.45Zm-2,1.07-2.88,10.6a5,5,0,0,0,.87.19c.3,0,.63,0,1,0a6.47,6.47,0,0,0,4.89-1.93,6.85,6.85,0,0,0,1.85-5,3.85,3.85,0,0,0-1.08-3,5.27,5.27,0,0,0-3.48-.94h-.53Z"/><path d="M45.17,42.55v-.48a3.58,3.58,0,0,0,2.31-.81,16.33,16.33,0,0,0,2.83-4L61.65,17.32h.48l2.4,22.46a2.72,2.72,0,0,0,.67,1.79,4.15,4.15,0,0,0,2.17.5v.48h-9v-.48a6,6,0,0,0,2.49-.5,1.48,1.48,0,0,0,.56-1.35c0-.15,0-.36,0-.61s0-.56-.08-.91l-.44-4.32H53.25l-2.26,4a8.76,8.76,0,0,0-.63,1.28,2.56,2.56,0,0,0-.22.92,1.2,1.2,0,0,0,.57,1.09,4.13,4.13,0,0,0,1.8.42v.46Zm8.76-9.3h6.85L59.72,23Z"/><path d="M82,17.81a9,9,0,0,1,5.35,1.33,4.59,4.59,0,0,1,1.83,3.94,6.31,6.31,0,0,1-1.88,4.59,8.84,8.84,0,0,1-5,2.42L86,39.23a6.15,6.15,0,0,0,1.37,2.32,2.67,2.67,0,0,0,1.74.52h.11v.48H83.86L79.31,30.4H76.67l-2.26,8.37a9.92,9.92,0,0,0-.23,1,4.2,4.2,0,0,0-.07.7,1.23,1.23,0,0,0,.55,1.14,4.25,4.25,0,0,0,1.94.44v.48h-9v-.48a3.5,3.5,0,0,0,2.24-.57,4.63,4.63,0,0,0,1.2-2.37L75.8,21.59c.12-.5.22-.86.27-1.12a3.06,3.06,0,0,0,.07-.6,1.26,1.26,0,0,0-.55-1.15,4.65,4.65,0,0,0-2-.46v-.45ZM77,29.27a.71.71,0,0,1,.24,0h0l.17,0h1a8,8,0,0,0,5.49-1.64,6.2,6.2,0,0,0,1.86-4.89,3.61,3.61,0,0,0-1.2-3,5.69,5.69,0,0,0-3.65-1l-.48,0h-.66Z"/><path d="M100.91,38.77c-.13.49-.22.87-.27,1.11a3.4,3.4,0,0,0-.08.61,1.25,1.25,0,0,0,.69,1.22,5.61,5.61,0,0,0,2.41.36v.48H93.52v-.48h.42a4,4,0,0,0,2.42-.56,4.48,4.48,0,0,0,1.2-2.38L103,19H100.4a6.22,6.22,0,0,0-4,1.29,8,8,0,0,0-2.45,3.89h-.52l1.77-6.33h19.17l-1.53,6.33h-.51c.09-.57.17-1,.21-1.39s0-.68,0-.94a2.6,2.6,0,0,0-.85-2.15,4.11,4.11,0,0,0-2.66-.7h-2.8Z"/><path d="M120.15,30.63l-2.48-9.82a3.94,3.94,0,0,0-1-2.07,3.17,3.17,0,0,0-1.91-.5v-.43h8.43v.44h-.16a3.5,3.5,0,0,0-1.81.35,1.19,1.19,0,0,0-.57,1.1,2.89,2.89,0,0,0,0,.53,5.49,5.49,0,0,0,.13.66l2.07,8.59,6.56-8.7a3,3,0,0,0,.44-.74,1.74,1.74,0,0,0,.17-.72.82.82,0,0,0-.49-.77,4.47,4.47,0,0,0-1.67-.31v-.43h6.75v.43a3.33,3.33,0,0,0-1.85.65,8.74,8.74,0,0,0-1.93,2L123.22,31l-2.06,7.76c-.13.49-.22.87-.27,1.11a4.11,4.11,0,0,0-.06.61,1.23,1.23,0,0,0,.55,1.14,4.41,4.41,0,0,0,2,.46v.46h-8.9v-.48a3.5,3.5,0,0,0,2.24-.57,4.56,4.56,0,0,0,1.19-2.37Z"/><path d="M178.75,17.81a8.84,8.84,0,0,1,5.38,1.35,4.78,4.78,0,0,1,1.79,4.06,6.77,6.77,0,0,1-2.56,5.53,10.57,10.57,0,0,1-6.84,2.08c-.53,0-1,0-1.52-.06s-1-.09-1.44-.15l-2.21,8.15c-.09.36-.17.69-.22,1a5.52,5.52,0,0,0-.07.74,1.3,1.3,0,0,0,.56,1.19,4.91,4.91,0,0,0,2.13.39l0,.48h-9.21v-.48a3.48,3.48,0,0,0,2.24-.57,4.63,4.63,0,0,0,1.2-2.37l4.75-17.54c.13-.5.22-.86.27-1.12a3.06,3.06,0,0,0,.07-.6,1.26,1.26,0,0,0-.55-1.15,4.61,4.61,0,0,0-2-.46v-.45Zm-2,1.07-2.88,10.6a5,5,0,0,0,.87.19c.3,0,.63,0,1,0a6.47,6.47,0,0,0,4.89-1.93,6.86,6.86,0,0,0,1.86-5,3.85,3.85,0,0,0-1.09-3,5.25,5.25,0,0,0-3.47-.94h-.54Z"/><path d="M182.22,42.55v-.48a3.56,3.56,0,0,0,2.31-.81,16.28,16.28,0,0,0,2.84-4l11.34-19.91h.48l2.4,22.46a2.78,2.78,0,0,0,.66,1.79,4.29,4.29,0,0,0,2.18.5v.48h-9v-.48a6.12,6.12,0,0,0,2.5-.5,1.46,1.46,0,0,0,.56-1.35c0-.15,0-.36,0-.61s-.05-.56-.08-.91L198,34.38h-7.66l-2.26,4a8.76,8.76,0,0,0-.63,1.28,2.79,2.79,0,0,0-.22.92,1.22,1.22,0,0,0,.57,1.09,4.09,4.09,0,0,0,1.8.42v.46Zm8.77-9.3h6.84L196.78,23Z"/><path d="M219.08,17.81a9,9,0,0,1,5.36,1.33,4.58,4.58,0,0,1,1.82,3.94,6.3,6.3,0,0,1-1.87,4.59,8.84,8.84,0,0,1-5,2.42l3.71,9.14a6,6,0,0,0,1.37,2.32,2.64,2.64,0,0,0,1.73.52h.1v.48h-5.34L216.38,30.4h-2.65l-2.27,8.37c-.1.39-.17.73-.22,1a4.2,4.2,0,0,0-.07.7,1.26,1.26,0,0,0,.55,1.14,4.21,4.21,0,0,0,1.94.44v.48h-9v-.48a3.48,3.48,0,0,0,2.24-.57,4.63,4.63,0,0,0,1.2-2.37l4.74-17.54c.14-.5.22-.86.28-1.12a4.1,4.1,0,0,0,.07-.6,1.26,1.26,0,0,0-.55-1.15,4.65,4.65,0,0,0-2-.46v-.45Zm-5,11.46a.71.71,0,0,1,.24,0h.05l.16,0h1A8,8,0,0,0,221,27.7a6.2,6.2,0,0,0,1.86-4.89,3.61,3.61,0,0,0-1.2-3,5.69,5.69,0,0,0-3.65-1l-.49,0h-.65Z"/><path d="M238,38.77c-.14.49-.23.87-.28,1.11a4.37,4.37,0,0,0-.07.61,1.27,1.27,0,0,0,.67,1.22,5.64,5.64,0,0,0,2.41.36v.48H230.59v-.48H231a4,4,0,0,0,2.42-.56,4.48,4.48,0,0,0,1.2-2.38L240.08,19h-2.62a6.22,6.22,0,0,0-4,1.29A7.88,7.88,0,0,0,231,24.14h-.51l1.76-6.33h19.16l-1.52,6.33h-.51c.1-.57.17-1,.21-1.39a8.6,8.6,0,0,0,0-.94,2.63,2.63,0,0,0-.84-2.15,4.16,4.16,0,0,0-2.67-.7h-2.8Z"/><path d="M257.21,30.63l-2.48-9.82a3.94,3.94,0,0,0-1-2.07,3.17,3.17,0,0,0-1.91-.5v-.43h8.44v.44h-.17a3.5,3.5,0,0,0-1.81.35,1.19,1.19,0,0,0-.57,1.1,4.17,4.17,0,0,0,.05.53,5.49,5.49,0,0,0,.13.66L260,29.48l6.56-8.7A3,3,0,0,0,267,20a1.89,1.89,0,0,0,.16-.72.8.8,0,0,0-.49-.77,4.51,4.51,0,0,0-1.67-.31v-.43h6.76v.43a3.3,3.3,0,0,0-1.85.65,8.76,8.76,0,0,0-1.94,2L260.29,31l-2.07,7.76a8.39,8.39,0,0,0-.26,1.11,2.68,2.68,0,0,0-.08.61,1.24,1.24,0,0,0,.56,1.14,4.43,4.43,0,0,0,1.94.46v.46h-8.9v-.48a3.46,3.46,0,0,0,2.24-.57,4.63,4.63,0,0,0,1.21-2.37Z"/><path class="cls-1" d="M145.2,26.38,148.86,15h.26l3.66,11.38h11.85l0,.3-9.62,6.77,3.83,11.35-.24.2L149,37.89,139.34,45l-.23-.2,3.82-11.35-9.62-6.77,0-.3Zm.87,1.22h-6.52l-3.25-.17v.06l2.88,1.83L144.39,33l-2,5.75-1.32,3.53.06,0,3-2.37L149,36.4l4.85,3.52,3,2.37.06,0-1.32-3.53-2-5.75,5.21-3.66,2.88-1.83v-.06l-3.29.17h-6.5l-2-6.23L149,18.18H149l-.88,3.19Z"/></svg>