<svg id="レイヤー_1" data-name="レイヤー 1" xmlns="http://www.w3.org/2000/svg" viewBox="0 0 300 60"><defs><style>.cls-1{fill:#008a32;}.cls-2{fill:#534741;}</style></defs><path class="cls-1" d="M67.57,29.9c.78,4.48,5.41,4.5,7.6,4.76,2.76.32,3.24,3.09,4,4.24,3.08,4.86,8.75-6,2.16-12.5C75.67,20.88,66.67,24.78,67.57,29.9Z"/><path class="cls-1" d="M81.45,22.76c-.78-4.48-5.41-4.51-7.6-4.76-2.76-.32-3.23-3.1-4-4.24-3.08-4.86-8.75,6-2.16,12.5C73.34,31.77,82.35,27.89,81.45,22.76Z"/><path class="cls-2" d="M84.4,39.91a4.34,4.34,0,1,0,6.13-.34A4.35,4.35,0,0,0,84.4,39.91Z"/><path class="cls-1" d="M107.61,29.9c-.79,4.48-5.41,4.5-7.61,4.76-2.76.32-3.23,3.09-4,4.24-3.08,4.86-8.75-6-2.15-12.5C99.51,20.88,108.5,24.78,107.61,29.9Z"/><path class="cls-1" d="M93.73,22.76c.78-4.48,5.41-4.51,7.59-4.76,2.77-.32,3.25-3.1,4-4.24,3.09-4.86,8.76,6,2.16,12.5C101.82,31.77,92.83,27.89,93.73,22.76Z"/><path class="cls-1" d="M199.29,43.61A15.5,15.5,0,0,0,207.91,31c.23-3,.12-10.76.12-11.09l-2.77,0h0c0,.07.11,8-.1,10.85a12.75,12.75,0,0,1-7.33,10.43Z"/><rect class="cls-1" x="192.62" y="19.94" width="2.74" height="11.5"/><rect class="cls-1" x="218.38" y="20.33" width="13.25" height="2.75"/><rect class="cls-1" x="217.01" y="40.22" width="15.99" height="2.75"/><rect class="cls-1" x="223.63" y="21.55" width="2.76" height="20.23"/><path class="cls-1" d="M176.08,40.58a15.3,15.3,0,0,0,6.6-11.39c.13-1.68.14-8.89.14-8.89h-15v2.76h12.28c0,2.79-.06,4.84-.14,5.93a12.56,12.56,0,0,1-5.87,9.61Z"/><polygon class="cls-1" points="170.26 36.02 177.78 43.56 179.75 41.6 172.22 34.06 170.26 36.02"/><rect class="cls-1" x="143.47" y="20.68" width="9.8" height="2.76"/><path class="cls-1" d="M156.75,26.19c0,1.12,0,2.11-.11,2.8-.46,6-5.26,10.76-11.61,11.81l1.08,2.62c7.27-1.46,12.74-7.08,13.29-14.22,0-.74.1-1.83.11-3Z"/><rect class="cls-1" x="116.56" y="22.97" width="19.28" height="2.78"/><rect class="cls-1" x="120.06" y="19.94" width="2.77" height="11.68"/><path class="cls-1" d="M124,43.61A15.52,15.52,0,0,0,132.61,31c.22-3,.12-10.76.12-11.09L130,20h0c0,.07.11,8-.11,10.85a12.86,12.86,0,0,1-7.35,10.44Z"/></svg>