<svg id="レイヤー_1" data-name="レイヤー 1" xmlns="http://www.w3.org/2000/svg" viewBox="0 0 300 60"><defs><style>.cls-1{fill:#231815;stroke:#231815;stroke-miterlimit:10;stroke-width:0.25px;}.cls-2{fill:#c9142a;}.cls-3{fill:#00477e;}</style></defs><g id="レイヤー_2" data-name="レイヤー 2"><g id="レイヤー_1-2" data-name="レイヤー 1-2"><path class="cls-1" d="M65.81,11.49h6.9v9H72V19.8H66.54v.71h-.71ZM72,12.2H66.54v3.06H72Zm-5.42,6.87H72V16H66.54Z"/><path class="cls-1" d="M86.94,18.73v.58H84.82v1.35h-.71V19.31H81.36v-.58H79.63v1.94h-.71V18.73H77v-.65H79v-.95H77.45V13.6h1.49v-1H77.13V12h1.81V10.78l.93.07c0,.08-.07.13-.21.14v1h1.81v.65H79.63v1h1.54v3.53H79.63v.94h1.81v.65h.64V17.18h2v-.65h-2v-2.2h4.11v2.2H84.82v.65h1.61v.58H84.82v1ZM78.1,14.19v.89h2.39v-.89Zm0,1.45v.91h2.39v-.91Zm3.31-2.44h1.45c.08-.28.15-.61.23-.94H82v-.58H83.2c.07-.28.12-.61.21-.88l.85.09c0,.08-.07.12-.22.13a3.42,3.42,0,0,1-.12.66h2V13.2h1v.58H81.41Zm1.29,5.53h1.41v-1H82.7Zm0-3.88V16h2.74V14.85Zm2.52-2.59H83.77l-.23.94h1.73Z"/><path class="cls-1" d="M99.54,15.57H94.26v5.1h-.7V19.43c-1.26.19-2.52.36-3.35.46a.17.17,0,0,1-.15.14l-.25-.74,1-.11V15.57h-1v-.63h9.67Zm-1.42-4.31v3H91.26v-3Zm-4.55,5.09v-.78h-2v.78Zm0,1.33v-.8h-2v.77Zm-2,.55v.88l2-.24v-.7Zm5.91-5.71v-.7H92v.7Zm0,1.26V13H92v.75ZM98.6,16.3l.46.18-.1.13a6.43,6.43,0,0,1-1.52,2.48,6.23,6.23,0,0,0,2.19,1,2.14,2.14,0,0,0-.43.56A6.21,6.21,0,0,1,97,19.52a6.94,6.94,0,0,1-2.08,1.19,3.17,3.17,0,0,0-.4-.56,6.52,6.52,0,0,0,2-1.08,6,6,0,0,1-1.29-2l.41-.12h-1v-.63h4Zm-2.83.62a5,5,0,0,0,1.17,1.73,5.66,5.66,0,0,0,1.18-1.73Z"/><path class="cls-1" d="M112.2,14.65h-4.15c.7,2.55,2,4.5,4.32,5.34a3.07,3.07,0,0,0-.53.67c-2.22-.92-3.54-2.83-4.36-5.36a7.26,7.26,0,0,1-4.39,5.37,2.66,2.66,0,0,0-.51-.6,6.72,6.72,0,0,0,4.24-5.42h-4.1V14H107a27.16,27.16,0,0,0,.15-3.12l1,.05c0,.1-.09.15-.23.18a28,28,0,0,1-.15,2.89h4.48Z"/><path class="cls-1" d="M120.82,12.73a.29.29,0,0,1-.27.17c-.38,3.31-1.49,6.19-3.25,6.19-.9,0-1.7-.89-1.7-2.58a4.66,4.66,0,0,1,4.64-4.68h.14c3.07,0,4.4,1.95,4.4,4,0,2.53-1.47,3.75-4,4.34a4.09,4.09,0,0,0-.45-.64c2.45-.47,3.7-1.67,3.7-3.67a3.25,3.25,0,0,0-3.61-3.35h-.32Zm-1-.14a3.92,3.92,0,0,0-3.47,3.9c0,1.14.49,1.85,1,1.85C118.6,18.34,119.53,15.51,119.79,12.59Z"/><path class="cls-1" d="M136.55,12.58v7.2h-.78v-.6h-6.69v-.71h6.69V13.29h-6.59v-.7Z"/><path class="cls-1" d="M142.24,17.91A29.94,29.94,0,0,1,149,19.44l-.32.74A29.51,29.51,0,0,0,142,18.61Zm.85-3.26a32,32,0,0,1,5.14,1l-.25.71a27,27,0,0,0-5.11-1Zm0-3.25a27.92,27.92,0,0,1,5.58,1.14l-.3.74a25.58,25.58,0,0,0-5.53-1.17Z"/><path class="cls-1" d="M162.06,18.91v.62h-7.23v-.62h4.33c.17-1.08.45-3.19.56-4.24h-4.05V14h4.25l.12,0,.53.26a.17.17,0,0,1-.13.1c-.14,1.11-.48,3.44-.66,4.58Z"/><path class="cls-1" d="M175.52,18.47v.71h-8.77v-.71Zm-1-5.84v.71h-6.6v-.71Z"/><path class="cls-1" d="M188.23,15.27h-3.6l.19.05a.2.2,0,0,1-.21.13,5.8,5.8,0,0,1-3.29,4.86,4.86,4.86,0,0,0-.58-.53,5,5,0,0,0,3.07-4.51h-4.13v-.7h8.55Zm-1.06-3h-6.52v-.71h6.52Z"/><path class="cls-1" d="M199.89,13.58a.23.23,0,0,1-.18.08h-.15a19.13,19.13,0,0,1-2.34,2l.24.1a.29.29,0,0,1-.18.11v4.62h-.65V16a29,29,0,0,1-3.5,2,3.75,3.75,0,0,0-.38-.51,21,21,0,0,0,6.41-4.46Z"/><path class="cls-1" d="M213.88,15.35h-.07a.29.29,0,0,1-.16-.07c-.81.27-2,.71-2.87,1.08v2l-.77,0c0-.38.05-.87.05-1.28v-.43c-1.21.59-2.18,1.3-2.18,1.94s.71.91,2.2.91a21.44,21.44,0,0,0,2.66-.11v.71c-.62.07-1.58.09-2.68.09-2,0-2.94-.49-2.94-1.57s1.23-1.84,2.82-2.64c-.06-.71-.36-1-.78-1a3.55,3.55,0,0,0-2.54,1.49,14.22,14.22,0,0,1-1.17,1.16l-.52-.51a7.58,7.58,0,0,0,2.68-3.93h-2.38v-.7h2.57a13.51,13.51,0,0,0,.28-1.52l1,.12c0,.11-.1.17-.26.19-.08.43-.17.8-.27,1.18a14.67,14.67,0,0,0,3.66-.61l.13.71a16.31,16.31,0,0,1-4,.6,8.34,8.34,0,0,1-.77,1.79h0a2.8,2.8,0,0,1,1.71-.7c.71,0,1.18.52,1.32,1.41.9-.4,2-.83,2.87-1.17Z"/><path class="cls-1" d="M222.55,17h-3.67a6.49,6.49,0,0,1-1.19,3.46,3.42,3.42,0,0,0-.49-.44,6.72,6.72,0,0,0,1.1-4.16V14.06h4.25Zm-1.61-6a.23.23,0,0,1-.23.12h0a15.89,15.89,0,0,1,2.42,1.81l-.41.54a15.41,15.41,0,0,0-2.34-1.84,12.21,12.21,0,0,1-1,1.26h2.56v.54h-2.66V13a11.33,11.33,0,0,1-1.63,1.38,1.92,1.92,0,0,0-.42-.52,9.17,9.17,0,0,0,2.88-3Zm-2,9.7v-3h3.9v2.92h-.65v-.38h-2.62v.47Zm0-4.88v.71h3v-.71Zm3-1.16h-3v.66h3Zm.24,3.63H219.5v1.38h2.61Zm2.27-6.09c0,.07-.07.13-.21.15V18h-.7V12.11ZM226,11l.92.05c0,.07-.07.13-.22.15v8.49c0,.9-.4,1-2.3,1a3,3,0,0,0-.27-.7h1c.83,0,.86,0,.86-.27Z"/><path class="cls-1" d="M233.62,15.47a6.55,6.55,0,0,1,2.64-.62A2.47,2.47,0,0,1,239,17.4c0,1.92-1.69,3-3.83,3-1.38,0-2.32-.56-2.32-1.49a1.6,1.6,0,0,1,1.74-1.42,2.25,2.25,0,0,1,2.17,1.92,2.12,2.12,0,0,0,1.47-2c0-1.16-.86-1.88-2.19-1.88A6,6,0,0,0,232.19,17c-.32.3-.71.71-1,1.07l-.54-.54c1-1,4-3.9,5.44-5.25-.62.08-2.75.17-4,.21a.36.36,0,0,1-.22.16l-.09-.9c1.42,0,4.18-.12,4.95-.24l.16-.07.56.71a.55.55,0,0,1-.25.1c-.76.61-2.77,2.5-3.61,3.3Zm1.47,4.24a4.35,4.35,0,0,0,1-.11,1.62,1.62,0,0,0-1.5-1.51c-.55,0-1,.3-1,.79,0,.65.88.84,1.58.84Z"/><path class="cls-2" d="M38.91,40.88v3.49a2.39,2.39,0,0,0,.5,1.75,3.28,3.28,0,0,0,2.17.49V48.1H30.37V46.61h.33a3.1,3.1,0,0,0,2.12-.51,2.44,2.44,0,0,0,.49-1.73V33.56a2.47,2.47,0,0,0-.5-1.74,3.1,3.1,0,0,0-2.09-.49h-.35v-1.5H41.83v1.5h-.34a3.25,3.25,0,0,0-2.13.5,2.49,2.49,0,0,0-.48,1.73v5.09L44.7,34.1c1-.78,1.52-1.41,1.52-1.94s-.64-.83-1.92-.83v-1.5h9.55v1.5a7.52,7.52,0,0,0-2.73.56,19.2,19.2,0,0,0-4,2.63l-2,1.54,5.94,7.46A10.77,10.77,0,0,0,53.51,46a5,5,0,0,0,2.61.6V48.1H43.76V46.61c1.61,0,2.41-.28,2.41-.82a4,4,0,0,0-1-1.56l-4.08-5.06Z"/><path class="cls-3" d="M73.24,48.48l-7.36-14a24.43,24.43,0,0,0-1.23-2.18,2.11,2.11,0,0,0-.88-.71A4.83,4.83,0,0,0,62,31.34V29.83H73.43v1.5c-1.59,0-2.39.33-2.39,1a4.49,4.49,0,0,0,.71,1.81l4.42,8.29,4.13-8.3a3.65,3.65,0,0,0,.43-1.51q0-1.26-2.4-1.26V29.83H85.9v1.5a3,3,0,0,0-2,.59,13.73,13.73,0,0,0-2.18,3.59l-6.52,13Z"/><path class="cls-3" d="M93.63,36.62v8.26A2,2,0,0,0,94,46.3a2.71,2.71,0,0,0,1.78.38V48.1H86.08V46.68h.37a2.44,2.44,0,0,0,1.7-.4,2.11,2.11,0,0,0,.36-1.42v-4a2.17,2.17,0,0,0-.36-1.42,2.44,2.44,0,0,0-1.7-.39h-.37V37.64Zm-5.34-4.68a2.19,2.19,0,0,1,.84-1.72,3.24,3.24,0,0,1,4,0A2.25,2.25,0,0,1,94,31.94a2.2,2.2,0,0,1-.84,1.73,3.23,3.23,0,0,1-4,0A2.27,2.27,0,0,1,88.32,32"/><path class="cls-3" d="M104.11,29.5V44.88a2,2,0,0,0,.38,1.42,2.77,2.77,0,0,0,1.82.37v1.42H96.66V46.67a4.35,4.35,0,0,0,1.79-.25c.35-.17.52-.71.52-1.54V33.7a1.91,1.91,0,0,0-.4-1.42,3.25,3.25,0,0,0-1.91-.35V30.49Z"/><path class="cls-3" d="M114.25,29.5V44.88a2,2,0,0,0,.39,1.42,2.76,2.76,0,0,0,1.82.37v1.42h-9.65V46.67a4.37,4.37,0,0,0,1.79-.25c.34-.17.52-.71.52-1.54V33.7a1.91,1.91,0,0,0-.4-1.42,3.25,3.25,0,0,0-1.91-.35V30.49Z"/><path class="cls-3" d="M126.91,46.94A9.52,9.52,0,0,1,124.49,48a9.09,9.09,0,0,1-2.64.36,4.33,4.33,0,0,1-2.73-.7,2.12,2.12,0,0,1-.91-1.74,3.18,3.18,0,0,1,1.82-2.6,29.63,29.63,0,0,1,6.59-2.51v-1c0-.7-.19-1.16-.6-1.36a3,3,0,0,0-1.41-.3q-2,0-2.22,1.23a2,2,0,0,1-.63,1.24,2.36,2.36,0,0,1-1.48.38,2.22,2.22,0,0,1-1.41-.41,1.16,1.16,0,0,1-.53-1c0-.83.65-1.55,2-2.12a12.91,12.91,0,0,1,5.22-.88,20.6,20.6,0,0,1,3,.19,4.61,4.61,0,0,1,2,.7,2.85,2.85,0,0,1,1,1.07,4,4,0,0,1,.24,1.54v5.13c0,.77.27,1.16.82,1.16a.87.87,0,0,0,.91-.76h1.31a2.3,2.3,0,0,1-1.16,2,5.4,5.4,0,0,1-2.75.66c-2,0-3.26-.48-3.94-1.41m-.29-1.46V42.32a9.06,9.06,0,0,0-2.87,1.42,1.82,1.82,0,0,0-.68,1.31,1.34,1.34,0,0,0,.4.92,1.46,1.46,0,0,0,1.05.41,2.73,2.73,0,0,0,1.09-.23,3.61,3.61,0,0,0,1-.71"/><path class="cls-3" d="M140,44.17a5.06,5.06,0,0,1-2.69-1.41,3.28,3.28,0,0,1-.95-2.23,3.12,3.12,0,0,1,1.93-2.89,10.84,10.84,0,0,1,4.95-1,12.59,12.59,0,0,1,2.94.29,6.19,6.19,0,0,1,2.12.88,5.21,5.21,0,0,1,2.83-1.18c1.06,0,1.59.43,1.59,1.3a1,1,0,0,1-.82,1.11,1.31,1.31,0,0,1-.28,0,2.14,2.14,0,0,1-1.09-.5.94.94,0,0,0-.51-.19,1.21,1.21,0,0,0-.7.31,3.2,3.2,0,0,1,.6,1.87,3.4,3.4,0,0,1-1.52,2.77c-1,.77-2.85,1.2-5.48,1.29a8,8,0,0,0-2.28.3c-.43.16-.64.41-.64.75s.71.71,2.07.71c.29,0,1,0,2-.06h1.13a10.25,10.25,0,0,1,5,.92,3.16,3.16,0,0,1,1.53,3,4,4,0,0,1-2.12,3.44q-2.13,1.34-6.49,1.33-4.11,0-5.62-.89c-1-.59-1.51-1.27-1.51-2a1.45,1.45,0,0,1,.55-1.14,1.85,1.85,0,0,1,1.25-.45,3.85,3.85,0,0,1,1.34.31,2.64,2.64,0,0,0-.17.47,1.85,1.85,0,0,0-.07.41A1.54,1.54,0,0,0,140,53.05a9,9,0,0,0,3.34.47,10.09,10.09,0,0,0,4.14-.66c.91-.44,1.37-1,1.37-1.62a1.09,1.09,0,0,0-.93-1.14,22.08,22.08,0,0,0-4.3-.24,15.48,15.48,0,0,1-5.28-.65,2.37,2.37,0,0,1-1.46-3,2.4,2.4,0,0,1,.7-1,5.08,5.08,0,0,1,2.38-1m1.29-3.75a3.25,3.25,0,0,0,.48,1.95,1.66,1.66,0,0,0,1.41.65,1.56,1.56,0,0,0,1.42-.67,3.55,3.55,0,0,0,.46-2,2.25,2.25,0,0,0-.55-1.7,1.91,1.91,0,0,0-1.34-.53,1.71,1.71,0,0,0-1.41.58,2.7,2.7,0,0,0-.47,1.74"/><path class="cls-3" d="M159.42,42.44a5.22,5.22,0,0,0,.87,3.31,3.13,3.13,0,0,0,2.64,1.11,4.73,4.73,0,0,0,3.44-1.61l1.48.75a6.66,6.66,0,0,1-2.59,1.83,9.59,9.59,0,0,1-3.74.7,8.82,8.82,0,0,1-5.37-1.62,5.13,5.13,0,0,1-2.24-4.39,5.08,5.08,0,0,1,2.17-4.34,8.56,8.56,0,0,1,5.2-1.58,8.27,8.27,0,0,1,5,1.42,5.1,5.1,0,0,1,2,4.42Zm0-1.36h4c-.07-2-.75-3-2.06-3a1.67,1.67,0,0,0-1.48.75,3.94,3.94,0,0,0-.49,2.23"/><path class="cls-3" d="M186.27,31.46h-1.81a6.81,6.81,0,0,0-2.37.3,2.54,2.54,0,0,0-1.28,1.18,5,5,0,0,0-.62,2.12h-1.8V29.83h21.52V35h-1.8a5.09,5.09,0,0,0-1.41-2.83,4.67,4.67,0,0,0-2.94-.7h-1.85V44.37a2.41,2.41,0,0,0,.5,1.75,3.14,3.14,0,0,0,2.12.49h.56V48.1H183.21V46.61h.5a3.09,3.09,0,0,0,2.13-.51,2.43,2.43,0,0,0,.48-1.73Z"/><path class="cls-2" d="M202.07,42.55a4.94,4.94,0,0,1,2.31-4.35A9.69,9.69,0,0,1,210,36.62a10.2,10.2,0,0,1,5.59,1.53A5,5,0,0,1,218,42.57a5.06,5.06,0,0,1-2.34,4.36A9.63,9.63,0,0,1,210,48.55,9.88,9.88,0,0,1,204.4,47a5,5,0,0,1-2.33-4.46m5.44-.13a8.15,8.15,0,0,0,.56,3.62,2.07,2.07,0,0,0,1.92,1,2.2,2.2,0,0,0,1.81-.86,6.71,6.71,0,0,0,.7-3.69,6.82,6.82,0,0,0-.6-3.46,2.12,2.12,0,0,0-1.91-.91,2.32,2.32,0,0,0-1.76.77c-.49.52-.7,1.69-.7,3.5"/><path class="cls-3" d="M227,43.72v1.17a2.07,2.07,0,0,0,.33,1.35,1.85,1.85,0,0,0,1.41.43v1.42h-9.06V46.67a2.85,2.85,0,0,0,1.78-.36,1.88,1.88,0,0,0,.4-1.41V33.68a2,2,0,0,0-.37-1.41,2.81,2.81,0,0,0-1.81-.38v-1.4l7.32-1V41.94l3.37-2.08c.64-.41,1-.71,1-.93a.34.34,0,0,0-.19-.31A2.87,2.87,0,0,0,230,38.5V37.08h7.23V38.5a7.65,7.65,0,0,0-3.95,1.36l-1.23.75,3.28,3.74a15.06,15.06,0,0,0,1.82,1.84,2,2,0,0,0,1.23.48v1.42H230V46.67c.71,0,1-.16,1-.49,0-.14-.18-.41-.54-.82l-2.12-2.47Z"/><path class="cls-3" d="M249.29,44.3l2.12-3.81A4.25,4.25,0,0,0,252,39.2c0-.47-.46-.71-1.36-.71V37.08h5.2v1.41a2,2,0,0,0-1.33.5,20.52,20.52,0,0,0-1.75,2.83l-5.06,9a14.86,14.86,0,0,1-2.4,3.44A3.35,3.35,0,0,1,243,55a2.67,2.67,0,0,1-1.7-.53,1.62,1.62,0,0,1-.67-1.29c0-.87.71-1.46,2.13-1.75a7.29,7.29,0,0,0,2.61-.89,6,6,0,0,0,1.42-1.94l-5.66-8.24-.27-.4a4.84,4.84,0,0,0-1-1.21,2.56,2.56,0,0,0-1.09-.25V37.08h8.41V38.5c-.83,0-1.25.2-1.25.54a3.06,3.06,0,0,0,.51,1Z"/><path class="cls-3" d="M257.19,42.55a4.94,4.94,0,0,1,2.31-4.35,9.81,9.81,0,0,1,5.6-1.58,10.17,10.17,0,0,1,5.58,1.53,5,5,0,0,1,2.37,4.42,5,5,0,0,1-2.32,4.36,9.64,9.64,0,0,1-5.66,1.62A9.8,9.8,0,0,1,259.5,47a5,5,0,0,1-2.34-4.46m5.44-.13a8.16,8.16,0,0,0,.57,3.62,2,2,0,0,0,2,1,2.17,2.17,0,0,0,1.8-.86c.45-.58.67-1.81.67-3.69a6.93,6.93,0,0,0-.6-3.46,2.1,2.1,0,0,0-1.87-.91,2.32,2.32,0,0,0-1.76.77c-.48.52-.7,1.69-.7,3.5"/></g></g></svg>