<svg id="レイヤー_1" data-name="レイヤー 1" xmlns="http://www.w3.org/2000/svg" viewBox="0 0 300 60"><defs><style>.cls-1{fill:#231815;}.cls-2{fill:#094;}</style></defs><polyline class="cls-1" points="107.9 15.04 107.9 18.69 121.98 18.69 106.52 43.08 106.52 46 127.5 46 127.5 42.33 111.85 42.33 127.41 17.81 127.41 15.04 107.9 15.04"/><rect class="cls-1" x="191.99" y="15.04" width="4.44" height="30.97"/><path class="cls-1" d="M176.29,43.22c-4,0-7.53-3.07-7.76-12h19.94c0-13-5.73-17.08-12.67-17.08C171,14.17,164,17.6,164,30.61,164,42,169.79,47,176,47c5.32,0,10.17-2.94,11.83-10.42h-4.55c-.59,2.75-2.78,6.65-7,6.65m-.23-25.36c3.68,0,7.46,2.92,7.7,9.72H168.62c.6-6.43,3.68-9.72,7.44-9.72"/><path class="cls-2" d="M159,15a6.39,6.39,0,0,0-7.77,2.16,6.74,6.74,0,0,0-10.82,0A6.39,6.39,0,0,0,132.64,15a6.28,6.28,0,0,0-3,8.27L140.93,47l5-10.37L150.89,47l11.3-23.73a6.2,6.2,0,0,0-3-8.25l0,0M141.12,39l-8-17.16a2.65,2.65,0,1,1,4.69-2.45,3,3,0,0,1,.18.41l6.11,12.78Zm1.74-17.33a4.51,4.51,0,0,1,0-.52,3.2,3.2,0,1,1,6.39-.4,2.67,2.67,0,0,1,0,.4,4.51,4.51,0,0,1,0,.52l-3.15,6.78Zm16,.17-8,17.16-3-6.42,5.93-12.71a2.63,2.63,0,1,1,4.95,1.8l-.09.23"/></svg>