<svg width="300" height="60" viewBox="0 0 300 60" fill="none" xmlns="http://www.w3.org/2000/svg">
<path d="M68.7041 45.2928C67.8058 41.7863 65.011 29.2211 68.0054 24.4483C69.5026 22.0131 71.5986 20.3573 74.0939 19.3832C71.399 17.1429 67.6061 16.0715 63.8133 16.7533C57.2257 18.0196 52.9338 24.2534 54.2313 30.6821C55.3293 36.2342 66.0091 43.7344 69.0035 45.7799C69.1033 45.8773 69.2031 45.8773 69.4028 45.9747C69.1033 45.8773 68.8039 45.5851 68.7041 45.2928Z" fill="#33B9CB"/>
<path d="M70.4008 25.8119C69.5025 27.273 69.3029 30.6821 69.7022 35.0653C70.0016 37.9875 70.6005 40.8122 70.9997 42.7603C71.399 42.6629 71.898 42.4681 72.3971 42.3707C75.092 37.7927 78.9847 30.2925 78.0864 26.1041C77.7869 24.4482 77.0882 22.8898 76.0901 21.6235C73.7944 22.1105 71.6984 23.669 70.4008 25.8119Z" fill="#33B9CB"/>
<path d="M84.674 20.1625C82.0789 18.7014 79.1843 18.2144 76.3896 18.7014C75.5911 18.7988 74.8924 18.9936 74.0939 19.2858C74.8924 19.9676 75.5911 20.6495 76.19 21.5261C76.3896 21.4287 76.5892 21.4287 76.8886 21.4287C79.0845 21.0391 81.3802 21.4287 83.2766 22.5976C87.7681 25.1301 89.1655 30.7796 86.5704 35.0654C85.6721 36.5264 82.7775 38.3771 78.5854 40.1304C76.3896 41.007 74.2935 41.7863 72.4969 42.3707C71.6984 43.7344 70.8999 44.9032 70.5007 45.5851C70.3011 45.8773 69.9018 46.0721 69.5026 45.9747C69.6024 45.9747 69.7022 45.9747 69.802 45.9747H69.9018C73.495 45.0006 86.0713 41.2993 88.9659 36.429C92.3595 30.7796 90.463 23.4742 84.674 20.1625Z" fill="#EC6D45"/>
<path d="M70.4009 45.585C70.8999 44.9032 71.5986 43.7344 72.3971 42.3707C71.898 42.5655 71.399 42.6629 70.9997 42.7603C70.6005 40.8122 70.0016 37.9875 69.7022 35.0653C69.2031 30.6821 69.5026 27.273 70.4009 25.8119C71.6984 23.669 73.7945 22.2079 76.1899 21.6235C75.5911 20.7469 74.8924 19.9676 74.0939 19.2858C71.5986 20.2599 69.4027 21.9157 68.0054 24.3508C65.1108 29.2211 67.9056 41.6889 68.7041 45.1954C68.8039 45.585 69.1033 45.7799 69.4027 45.8773C69.802 45.9747 70.2012 45.8773 70.4009 45.585Z" fill="#5B56A3"/>
<path d="M88.7662 21.5261L88.4668 22.0131C87.7681 23.2794 86.3708 23.9612 84.8736 23.9612H84.2747C82.7775 23.9612 81.48 23.182 80.6815 21.9157L80.382 21.4287C79.6834 20.1624 79.6834 18.7014 80.382 17.4351L80.6815 16.9481C81.3802 15.6818 82.7775 15 84.2747 15H84.8736C86.3708 15 87.6683 15.7792 88.4668 17.0455L88.7662 17.5325C89.4649 18.7014 89.4649 20.2598 88.7662 21.5261Z" fill="#33B9CB"/>
<path d="M101.842 22.4027C101.842 22.2079 102.041 22.0131 102.241 22.0131H109.527C114.418 22.0131 116.913 24.4482 116.913 27.6626C116.913 29.7081 115.915 31.1692 114.418 31.9484C114.118 32.1432 114.118 32.5328 114.418 32.6302C116.414 33.5069 117.512 35.2602 117.512 37.3057C117.512 40.52 115.017 43.2473 109.827 43.2473H102.241C102.041 43.2473 101.842 43.0525 101.842 42.8577V22.4027ZM109.427 30.9744C111.723 30.9744 113.021 29.7081 113.021 28.1496C113.021 26.4937 111.723 25.4223 109.527 25.4223H106.333C106.133 25.4223 105.934 25.6171 105.934 25.8119V30.5847C105.934 30.7795 106.133 30.9744 106.333 30.9744H109.427ZM109.627 39.8382C112.122 39.8382 113.52 38.5719 113.52 36.916C113.52 35.0653 112.022 33.9939 109.727 33.9939H106.333C106.133 33.9939 105.934 34.1887 105.934 34.3835V39.546C105.934 39.7408 106.133 39.9356 106.333 39.9356H109.627V39.8382Z" fill="#172243"/>
<path d="M121.704 27.5652H124.199C124.399 27.5652 124.599 27.6626 124.599 27.8574L124.998 29.9029H125.098C126.196 27.9548 128.092 27.3704 129.589 27.3704C129.889 27.3704 130.188 27.3704 130.388 27.4678C130.587 27.4678 130.687 27.6626 130.687 27.8574V30.7795C130.687 30.9744 130.488 31.1692 130.288 31.1692C129.989 31.1692 129.689 31.1692 129.39 31.1692C127.393 31.1692 125.397 32.2406 125.397 35.2602V42.9551C125.397 43.1499 125.198 43.3447 124.998 43.3447H121.704C121.505 43.3447 121.305 43.1499 121.305 42.9551V27.9548C121.305 27.76 121.505 27.5652 121.704 27.5652Z" fill="#172243"/>
<path d="M135.279 20.5521C136.476 20.5521 137.474 21.4287 137.474 22.5976C137.574 23.9612 136.376 25.0327 134.979 24.9353C133.781 24.8379 132.883 23.9612 132.883 22.7924C132.983 21.5261 133.981 20.5521 135.279 20.5521ZM133.682 27.5652H136.975C137.175 27.5652 137.375 27.76 137.375 27.9548V42.8577C137.375 43.0525 137.175 43.2473 136.975 43.2473H133.682C133.482 43.2473 133.282 43.0525 133.282 42.8577V27.9548C133.282 27.76 133.482 27.5652 133.682 27.5652Z" fill="#172243"/>
<path d="M140.768 35.455C140.768 30.3899 144.262 27.273 147.955 27.273C149.751 27.273 151.348 27.9548 152.446 29.1237C152.646 29.4159 153.145 29.2211 153.145 28.8315V20.7469C153.145 20.5521 153.345 20.3573 153.544 20.3573H156.838C157.038 20.3573 157.237 20.5521 157.237 20.7469V42.8577C157.237 43.0525 157.038 43.2473 156.838 43.2473H154.143C153.943 43.2473 153.744 43.1499 153.744 42.9551L153.544 41.6889C153.444 41.3966 153.045 41.2018 152.845 41.4941C151.648 42.8577 149.951 43.7344 148.054 43.7344C144.262 43.637 140.768 40.4226 140.768 35.455ZM149.053 40.1304C151.448 40.1304 153.245 38.1823 153.245 35.455C153.245 32.7276 151.448 30.7795 149.053 30.7795C146.657 30.7795 144.86 32.7276 144.86 35.455C144.86 38.1823 146.657 40.1304 149.053 40.1304Z" fill="#172243"/>
<path d="M160.731 35.455C160.731 30.4873 164.224 27.1756 167.917 27.1756C170.313 27.1756 172.209 28.3444 173.307 30.0977L173.706 27.8574C173.706 27.6626 173.906 27.5652 174.105 27.5652H176.8C177 27.5652 177.2 27.76 177.2 27.9548V42.8577C177.2 43.0525 177 43.2473 176.8 43.2473H174.105C173.906 43.2473 173.706 43.1499 173.706 42.9551L173.307 40.7148C172.209 42.4681 170.313 43.6369 167.917 43.6369C164.324 43.6369 160.731 40.4226 160.731 35.455ZM169.115 40.1304C171.51 40.1304 173.307 38.1823 173.307 35.455C173.307 32.7276 171.51 30.7795 169.115 30.7795C166.719 30.7795 164.923 32.7276 164.923 35.455C164.823 38.1823 166.619 40.1304 169.115 40.1304Z" fill="#172243"/>
<path d="M181.991 20.3573H185.284C185.484 20.3573 185.684 20.5521 185.684 20.7469V42.8577C185.684 43.0525 185.484 43.2473 185.284 43.2473H181.991C181.791 43.2473 181.591 43.0525 181.591 42.8577V20.7469C181.691 20.5521 181.791 20.3573 181.991 20.3573Z" fill="#172243"/>
<path d="M214.33 43.2473H211.036C210.936 43.2473 210.736 43.1499 210.736 43.0525L200.356 28.3444V42.8577C200.356 43.0525 200.156 43.2473 199.957 43.2473H196.763C196.563 43.2473 196.363 43.0525 196.363 42.8577V22.4027C196.363 22.2079 196.563 22.0131 196.763 22.0131H200.156C200.256 22.0131 200.456 22.1105 200.456 22.2079L210.636 36.6238V22.4027C210.636 22.2079 210.836 22.0131 211.036 22.0131H214.23C214.429 22.0131 214.629 22.2079 214.629 22.4027V42.8577C214.729 43.1499 214.529 43.2473 214.33 43.2473Z" fill="#172243"/>
<path d="M218.621 35.455C218.621 30.3899 222.215 27.1756 226.606 27.1756C230.599 27.1756 233.893 29.9029 233.893 35.0653C233.893 35.455 233.893 35.8446 233.793 36.1368C233.793 36.3316 233.593 36.429 233.394 36.429H223.013C222.714 36.429 222.514 36.7212 222.614 36.916C223.313 39.1563 225.309 40.3252 227.704 40.3252C229.301 40.3252 230.798 39.8382 232.196 38.9615C232.495 38.7667 232.795 38.9615 232.795 39.2537V41.6889C232.795 41.7863 232.695 41.9811 232.595 41.9811C230.998 42.9551 229.201 43.4421 227.205 43.4421C221.915 43.6369 218.621 40.3252 218.621 35.455ZM229.701 34.0913C229.9 34.0913 230.1 33.8965 230.1 33.7017C229.9 31.5588 228.403 30.3899 226.706 30.3899C224.91 30.3899 223.313 31.6562 222.714 33.6043C222.614 33.8965 222.814 34.0913 223.113 34.0913H229.701Z" fill="#172243"/>
<path d="M242.576 27.5652H246.17C246.369 27.5652 246.569 27.76 246.569 27.9548V30.4873C246.569 30.6821 246.369 30.8769 246.17 30.8769H242.576C242.377 30.8769 242.177 31.0717 242.177 31.2666V37.2082C242.177 39.3511 243.574 40.1304 245.471 40.1304C245.77 40.1304 246.07 40.1304 246.469 40.033C246.669 40.033 246.868 40.2278 246.868 40.4226V43.0525C246.868 43.2473 246.768 43.4421 246.569 43.4421C246.07 43.5395 245.471 43.6369 244.573 43.6369C240.58 43.6369 238.284 41.2992 238.284 37.403V31.2666C238.284 31.0717 238.085 30.8769 237.885 30.8769H236.288C236.089 30.8769 235.889 30.6821 235.889 30.4873V27.9548C235.889 27.76 236.089 27.5652 236.288 27.5652H237.885C238.085 27.5652 238.284 27.3704 238.284 27.1756V24.2534C238.284 24.0586 238.484 23.8638 238.684 23.8638H241.778C241.977 23.8638 242.177 24.0586 242.177 24.2534V27.1756C242.177 27.3704 242.277 27.5652 242.576 27.5652Z" fill="#172243"/>
</svg>
