<svg width="300" height="128" viewBox="0 0 300 128" fill="none" xmlns="http://www.w3.org/2000/svg">
<rect x="0.75" y="0.75" width="298.5" height="126.5" fill="white" stroke="#00509E" stroke-width="1.5"/>
<mask id="path-2-inside-1_1_10" fill="white">
<path d="M13 10H287V114H13V10Z"/>
</mask>
<path d="M13 10H287V114H13V10Z" fill="white"/>
<path d="M13 11.5H287V8.5H13V11.5Z" fill="#00509E" mask="url(#path-2-inside-1_1_10)"/>
<path d="M71.375 45H69.282L60.864 32.235V45H58.771V28.946H60.864L69.282 41.688V28.946H71.375V45ZM80.4399 45.207C79.2592 45.207 78.1859 44.9387 77.2199 44.402C76.2692 43.8653 75.5179 43.1063 74.9659 42.125C74.4292 41.1283 74.1609 39.9783 74.1609 38.675C74.1609 37.387 74.4369 36.2523 74.9889 35.271C75.5562 34.2743 76.3229 33.5153 77.2889 32.994C78.2549 32.4573 79.3359 32.189 80.5319 32.189C81.7279 32.189 82.8089 32.4573 83.7749 32.994C84.7409 33.5153 85.4999 34.2667 86.0519 35.248C86.6192 36.2293 86.9029 37.3717 86.9029 38.675C86.9029 39.9783 86.6115 41.1283 86.0289 42.125C85.4615 43.1063 84.6872 43.8653 83.7059 44.402C82.7245 44.9387 81.6359 45.207 80.4399 45.207ZM80.4399 43.367C81.1912 43.367 81.8965 43.1907 82.5559 42.838C83.2152 42.4853 83.7442 41.9563 84.1429 41.251C84.5569 40.5457 84.7639 39.687 84.7639 38.675C84.7639 37.663 84.5645 36.8043 84.1659 36.099C83.7672 35.3937 83.2459 34.8723 82.6019 34.535C81.9579 34.1823 81.2602 34.006 80.5089 34.006C79.7422 34.006 79.0369 34.1823 78.3929 34.535C77.7642 34.8723 77.2582 35.3937 76.8749 36.099C76.4915 36.8043 76.2999 37.663 76.2999 38.675C76.2999 39.7023 76.4839 40.5687 76.8519 41.274C77.2352 41.9793 77.7412 42.5083 78.3699 42.861C78.9985 43.1983 79.6885 43.367 80.4399 43.367ZM90.3218 45.138C89.9231 45.138 89.5858 45 89.3098 44.724C89.0338 44.448 88.8958 44.1107 88.8958 43.712C88.8958 43.3133 89.0338 42.976 89.3098 42.7C89.5858 42.424 89.9231 42.286 90.3218 42.286C90.7051 42.286 91.0271 42.424 91.2878 42.7C91.5638 42.976 91.7018 43.3133 91.7018 43.712C91.7018 44.1107 91.5638 44.448 91.2878 44.724C91.0271 45 90.7051 45.138 90.3218 45.138ZM106.113 45.207C104.932 45.207 103.859 44.9387 102.893 44.402C101.942 43.8653 101.191 43.1063 100.639 42.125C100.102 41.1283 99.8337 39.9783 99.8337 38.675C99.8337 37.387 100.11 36.2523 100.662 35.271C101.229 34.2743 101.996 33.5153 102.962 32.994C103.928 32.4573 105.009 32.189 106.205 32.189C107.401 32.189 108.482 32.4573 109.448 32.994C110.414 33.5153 111.173 34.2667 111.725 35.248C112.292 36.2293 112.576 37.3717 112.576 38.675C112.576 39.9783 112.284 41.1283 111.702 42.125C111.134 43.1063 110.36 43.8653 109.379 44.402C108.397 44.9387 107.309 45.207 106.113 45.207ZM106.113 43.367C106.864 43.367 107.569 43.1907 108.229 42.838C108.888 42.4853 109.417 41.9563 109.816 41.251C110.23 40.5457 110.437 39.687 110.437 38.675C110.437 37.663 110.237 36.8043 109.839 36.099C109.44 35.3937 108.919 34.8723 108.275 34.535C107.631 34.1823 106.933 34.006 106.182 34.006C105.415 34.006 104.71 34.1823 104.066 34.535C103.437 34.8723 102.931 35.3937 102.548 36.099C102.164 36.8043 101.973 37.663 101.973 38.675C101.973 39.7023 102.157 40.5687 102.525 41.274C102.908 41.9793 103.414 42.5083 104.043 42.861C104.671 43.1983 105.361 43.367 106.113 43.367ZM120.457 34.121H117.812V45H115.719V34.121H114.086V32.396H115.719V31.499C115.719 30.0883 116.079 29.061 116.8 28.417C117.536 27.7577 118.709 27.428 120.319 27.428V29.176C119.399 29.176 118.747 29.36 118.364 29.728C117.996 30.0807 117.812 30.671 117.812 31.499V32.396H120.457V34.121ZM145.29 29.084V45H143.197V33.132L137.907 45H136.435L131.122 33.109V45H129.029V29.084H131.283L137.171 42.24L143.059 29.084H145.29ZM148.057 38.652C148.057 37.364 148.318 36.237 148.839 35.271C149.361 34.2897 150.074 33.5307 150.978 32.994C151.898 32.4573 152.918 32.189 154.037 32.189C155.141 32.189 156.1 32.4267 156.912 32.902C157.725 33.3773 158.331 33.9753 158.729 34.696V32.396H160.845V45H158.729V42.654C158.315 43.39 157.694 44.0033 156.866 44.494C156.054 44.9693 155.103 45.207 154.014 45.207C152.895 45.207 151.883 44.931 150.978 44.379C150.074 43.827 149.361 43.0527 148.839 42.056C148.318 41.0593 148.057 39.9247 148.057 38.652ZM158.729 38.675C158.729 37.7243 158.538 36.8963 158.154 36.191C157.771 35.4857 157.25 34.949 156.59 34.581C155.946 34.1977 155.233 34.006 154.451 34.006C153.669 34.006 152.956 34.19 152.312 34.558C151.668 34.926 151.155 35.4627 150.771 36.168C150.388 36.8733 150.196 37.7013 150.196 38.652C150.196 39.618 150.388 40.4613 150.771 41.182C151.155 41.8873 151.668 42.4317 152.312 42.815C152.956 43.183 153.669 43.367 154.451 43.367C155.233 43.367 155.946 43.183 156.59 42.815C157.25 42.4317 157.771 41.8873 158.154 41.182C158.538 40.4613 158.729 39.6257 158.729 38.675ZM166.475 34.443C166.843 33.7223 167.365 33.1627 168.039 32.764C168.729 32.3653 169.565 32.166 170.546 32.166V34.328H169.994C167.648 34.328 166.475 35.6007 166.475 38.146V45H164.382V32.396H166.475V34.443ZM175.055 34.443C175.423 33.7223 175.945 33.1627 176.619 32.764C177.309 32.3653 178.145 32.166 179.126 32.166V34.328H178.574C176.228 34.328 175.055 35.6007 175.055 38.146V45H172.962V32.396H175.055V34.443ZM182.623 30.349C182.225 30.349 181.887 30.211 181.611 29.935C181.335 29.659 181.197 29.3217 181.197 28.923C181.197 28.5243 181.335 28.187 181.611 27.911C181.887 27.635 182.225 27.497 182.623 27.497C183.007 27.497 183.329 27.635 183.589 27.911C183.865 28.187 184.003 28.5243 184.003 28.923C184.003 29.3217 183.865 29.659 183.589 29.935C183.329 30.211 183.007 30.349 182.623 30.349ZM183.635 32.396V45H181.542V32.396H183.635ZM186.421 38.652C186.421 37.364 186.681 36.237 187.203 35.271C187.724 34.2897 188.437 33.5307 189.342 32.994C190.262 32.4573 191.281 32.189 192.401 32.189C193.505 32.189 194.463 32.4267 195.276 32.902C196.088 33.3773 196.694 33.9753 197.093 34.696V32.396H199.209V45H197.093V42.654C196.679 43.39 196.058 44.0033 195.23 44.494C194.417 44.9693 193.466 45.207 192.378 45.207C191.258 45.207 190.246 44.931 189.342 44.379C188.437 43.827 187.724 43.0527 187.203 42.056C186.681 41.0593 186.421 39.9247 186.421 38.652ZM197.093 38.675C197.093 37.7243 196.901 36.8963 196.518 36.191C196.134 35.4857 195.613 34.949 194.954 34.581C194.31 34.1977 193.597 34.006 192.815 34.006C192.033 34.006 191.32 34.19 190.676 34.558C190.032 34.926 189.518 35.4627 189.135 36.168C188.751 36.8733 188.56 37.7013 188.56 38.652C188.56 39.618 188.751 40.4613 189.135 41.182C189.518 41.8873 190.032 42.4317 190.676 42.815C191.32 43.183 192.033 43.367 192.815 43.367C193.597 43.367 194.31 43.183 194.954 42.815C195.613 42.4317 196.134 41.8873 196.518 41.182C196.901 40.4613 197.093 39.6257 197.093 38.675ZM207.944 32.189C209.032 32.189 209.983 32.4267 210.796 32.902C211.624 33.3773 212.237 33.9753 212.636 34.696V32.396H214.752V45.276C214.752 46.426 214.506 47.4457 214.016 48.335C213.525 49.2397 212.82 49.945 211.9 50.451C210.995 50.957 209.937 51.21 208.726 51.21C207.07 51.21 205.69 50.819 204.586 50.037C203.482 49.255 202.83 48.1893 202.631 46.84H204.701C204.931 47.6067 205.406 48.22 206.127 48.68C206.847 49.1553 207.714 49.393 208.726 49.393C209.876 49.393 210.811 49.0327 211.532 48.312C212.268 47.5913 212.636 46.5793 212.636 45.276V42.631C212.222 43.367 211.608 43.9803 210.796 44.471C209.983 44.9617 209.032 45.207 207.944 45.207C206.824 45.207 205.805 44.931 204.885 44.379C203.98 43.827 203.267 43.0527 202.746 42.056C202.224 41.0593 201.964 39.9247 201.964 38.652C201.964 37.364 202.224 36.237 202.746 35.271C203.267 34.2897 203.98 33.5307 204.885 32.994C205.805 32.4573 206.824 32.189 207.944 32.189ZM212.636 38.675C212.636 37.7243 212.444 36.8963 212.061 36.191C211.677 35.4857 211.156 34.949 210.497 34.581C209.853 34.1977 209.14 34.006 208.358 34.006C207.576 34.006 206.863 34.19 206.219 34.558C205.575 34.926 205.061 35.4627 204.678 36.168C204.294 36.8733 204.103 37.7013 204.103 38.652C204.103 39.618 204.294 40.4613 204.678 41.182C205.061 41.8873 205.575 42.4317 206.219 42.815C206.863 43.183 207.576 43.367 208.358 43.367C209.14 43.367 209.853 43.183 210.497 42.815C211.156 42.4317 211.677 41.8873 212.061 41.182C212.444 40.4613 212.636 39.6257 212.636 38.675ZM229.789 38.215C229.789 38.6137 229.766 39.0353 229.72 39.48H219.646C219.722 40.722 220.144 41.6957 220.911 42.401C221.693 43.091 222.636 43.436 223.74 43.436C224.644 43.436 225.396 43.229 225.994 42.815C226.607 42.3857 227.036 41.8183 227.282 41.113H229.536C229.198 42.3243 228.524 43.3133 227.512 44.08C226.5 44.8313 225.242 45.207 223.74 45.207C222.544 45.207 221.47 44.9387 220.52 44.402C219.584 43.8653 218.848 43.1063 218.312 42.125C217.775 41.1283 217.507 39.9783 217.507 38.675C217.507 37.3717 217.767 36.2293 218.289 35.248C218.81 34.2667 219.538 33.5153 220.474 32.994C221.424 32.4573 222.513 32.189 223.74 32.189C224.936 32.189 225.994 32.4497 226.914 32.971C227.834 33.4923 228.539 34.213 229.03 35.133C229.536 36.0377 229.789 37.065 229.789 38.215ZM227.627 37.778C227.627 36.9807 227.45 36.2983 227.098 35.731C226.745 35.1483 226.262 34.7113 225.649 34.42C225.051 34.1133 224.384 33.96 223.648 33.96C222.59 33.96 221.685 34.2973 220.934 34.972C220.198 35.6467 219.776 36.582 219.669 37.778H227.627ZM237.013 45.207C236.047 45.207 235.181 45.046 234.414 44.724C233.648 44.3867 233.042 43.9267 232.597 43.344C232.153 42.746 231.907 42.0637 231.861 41.297H234.023C234.085 41.9257 234.376 42.4393 234.897 42.838C235.434 43.2367 236.132 43.436 236.99 43.436C237.788 43.436 238.416 43.2597 238.876 42.907C239.336 42.5543 239.566 42.1097 239.566 41.573C239.566 41.021 239.321 40.6147 238.83 40.354C238.34 40.078 237.581 39.8097 236.553 39.549C235.618 39.3037 234.851 39.0583 234.253 38.813C233.671 38.5523 233.165 38.1767 232.735 37.686C232.321 37.18 232.114 36.5207 232.114 35.708C232.114 35.064 232.306 34.4737 232.689 33.937C233.073 33.4003 233.617 32.9787 234.322 32.672C235.028 32.35 235.833 32.189 236.737 32.189C238.133 32.189 239.26 32.5417 240.118 33.247C240.977 33.9523 241.437 34.9183 241.498 36.145H239.405C239.359 35.4857 239.091 34.9567 238.6 34.558C238.125 34.1593 237.481 33.96 236.668 33.96C235.917 33.96 235.319 34.121 234.874 34.443C234.43 34.765 234.207 35.1867 234.207 35.708C234.207 36.122 234.338 36.467 234.598 36.743C234.874 37.0037 235.212 37.2183 235.61 37.387C236.024 37.5403 236.592 37.7167 237.312 37.916C238.217 38.1613 238.953 38.4067 239.52 38.652C240.088 38.882 240.571 39.2347 240.969 39.71C241.383 40.1853 241.598 40.8063 241.613 41.573C241.613 42.263 241.422 42.884 241.038 43.436C240.655 43.988 240.111 44.425 239.405 44.747C238.715 45.0537 237.918 45.207 237.013 45.207Z" fill="#00509E"/>
<path d="M91.98 69.598L100.692 64.12H105.378V103.654C105.378 105.194 105.444 106.096 105.576 106.36C105.708 106.624 106.126 106.8 106.83 106.888L110.46 107.284V109H93.234V107.284L98.184 106.888C98.888 106.844 99.306 106.69 99.438 106.426C99.57 106.118 99.636 105.194 99.636 103.654V67.288L93.102 71.38L91.98 69.598ZM115.248 69.598L123.96 64.12H128.646V103.654C128.646 105.194 128.712 106.096 128.844 106.36C128.976 106.624 129.394 106.8 130.098 106.888L133.728 107.284V109H116.502V107.284L121.452 106.888C122.156 106.844 122.574 106.69 122.706 106.426C122.838 106.118 122.904 105.194 122.904 103.654V67.288L116.37 71.38L115.248 69.598ZM148.679 106.822C148.679 108.802 148.019 111.112 146.699 113.752C145.423 116.392 143.641 119.054 141.353 121.738L139.901 120.55C141.705 118.35 143.003 116.326 143.795 114.478C144.587 112.674 145.027 111.068 145.115 109.66H145.049C143.993 109.66 143.135 109.33 142.475 108.67C141.815 108.01 141.485 107.152 141.485 106.096C141.485 105.04 141.815 104.182 142.475 103.522C143.135 102.862 143.993 102.532 145.049 102.532C146.105 102.532 146.963 102.906 147.623 103.654C148.327 104.358 148.679 105.414 148.679 106.822ZM185.52 88.408C185.52 95.668 184.068 101.036 181.164 104.512C178.304 107.944 174.498 109.66 169.746 109.66C166.754 109.66 164.092 108.912 161.76 107.416C159.472 105.92 157.822 103.236 156.81 99.364L160.902 98.176C161.254 100.596 161.848 102.488 162.684 103.852C163.564 105.216 164.598 106.184 165.786 106.756C167.018 107.284 168.294 107.548 169.614 107.548C171.286 107.548 172.848 107.152 174.3 106.36C175.796 105.524 176.984 104.006 177.864 101.806C178.788 99.606 179.25 96.438 179.25 92.302V87.088C177.974 88.672 176.478 89.838 174.762 90.586C173.09 91.334 171.286 91.708 169.35 91.708C166.754 91.708 164.466 91.158 162.486 90.058C160.55 88.958 159.032 87.44 157.932 85.504C156.876 83.524 156.348 81.214 156.348 78.574V76.858C156.348 74.13 156.942 71.776 158.13 69.796C159.318 67.772 160.968 66.21 163.08 65.11C165.192 64.01 167.656 63.46 170.472 63.46C175.312 63.46 179.03 65.22 181.626 68.74C184.222 72.26 185.52 77.43 185.52 84.25V88.408ZM162.486 78.376C162.486 81.72 163.124 84.382 164.4 86.362C165.676 88.298 167.656 89.266 170.34 89.266C171.968 89.266 173.574 88.848 175.158 88.012C176.786 87.176 178.15 85.746 179.25 83.722V80.356C179.25 76.616 178.898 73.668 178.194 71.512C177.534 69.356 176.544 67.838 175.224 66.958C173.904 66.034 172.276 65.572 170.34 65.572C167.964 65.572 166.05 66.408 164.598 68.08C163.19 69.708 162.486 72.546 162.486 76.594V78.376ZM219.258 95.932H220.974V109H194.508V105.502C194.508 102.466 195.014 99.936 196.026 97.912C197.038 95.888 198.336 94.172 199.92 92.764C201.548 91.312 203.286 89.992 205.134 88.804C206.718 87.748 208.258 86.67 209.754 85.57C211.25 84.47 212.482 83.128 213.45 81.544C214.462 79.916 214.968 77.892 214.968 75.472C214.968 72.128 214.308 69.642 212.988 68.014C211.712 66.386 209.908 65.572 207.576 65.572C204.54 65.572 202.428 66.672 201.24 68.872C200.096 71.028 199.744 74.13 200.184 78.178L194.442 77.122C194.002 74.746 194.178 72.524 194.97 70.456C195.806 68.388 197.28 66.716 199.392 65.44C201.504 64.12 204.254 63.46 207.642 63.46C210.898 63.46 213.538 64.032 215.562 65.176C217.586 66.32 219.06 67.816 219.984 69.664C220.908 71.512 221.37 73.492 221.37 75.604C221.37 78.024 220.908 80.048 219.984 81.676C219.06 83.304 217.85 84.646 216.354 85.702C214.858 86.758 213.23 87.704 211.47 88.54C209.71 89.332 207.994 90.168 206.322 91.048C204.694 91.884 203.198 92.874 201.834 94.018C200.514 95.162 199.414 96.548 198.534 98.176C197.698 99.76 197.192 101.718 197.016 104.05H214.044C215.584 104.05 216.508 103.962 216.816 103.786C217.168 103.566 217.432 103.082 217.608 102.334L219.258 95.932ZM228.041 69.598L236.753 64.12H241.439V103.654C241.439 105.194 241.505 106.096 241.637 106.36C241.769 106.624 242.187 106.8 242.891 106.888L246.521 107.284V109H229.295V107.284L234.245 106.888C234.949 106.844 235.367 106.69 235.499 106.426C235.631 106.118 235.697 105.194 235.697 103.654V67.288L229.163 71.38L228.041 69.598Z" fill="#00509E"/>
<path d="M72.5 84.5C72.5 99.3716 59.3342 111.5 43 111.5C26.6658 111.5 13.5 99.3716 13.5 84.5C13.5 69.6284 26.6658 57.5 43 57.5C59.3342 57.5 72.5 69.6284 72.5 84.5Z" fill="white" stroke="#00509E"/>
<path d="M29.3112 86.4359L29.0533 93.3094L30.3371 96.0385L28.3255 96.9847L27.0418 94.2556L21.5825 90.0713L23.8647 88.9978L27.0913 91.7038L27.0526 87.4983L29.3112 86.4359ZM38.6002 88.0143C38.6887 88.2025 38.7692 88.4041 38.8416 88.6191L34.289 90.7605C34.5122 91.1535 34.7892 91.4063 35.1199 91.5189C35.4548 91.62 35.7908 91.5913 36.128 91.4326C36.63 91.1965 36.8793 90.8206 36.8762 90.3049L39.0172 89.2979C39.1103 89.7808 39.0929 90.2631 38.965 90.7447C38.845 91.2225 38.6155 91.6609 38.2763 92.0599C37.9372 92.4588 37.501 92.7837 36.9677 93.0346C36.3247 93.3371 35.6876 93.4691 35.0566 93.4307C34.4256 93.3923 33.849 93.1846 33.3269 92.8077C32.8048 92.4307 32.3833 91.9011 32.0624 91.2188C31.7414 90.5365 31.5983 89.8759 31.633 89.2371C31.6756 88.5945 31.8832 88.0179 32.2561 87.5074C32.6289 86.9968 33.1407 86.5884 33.7916 86.2823C34.4269 85.9835 35.0542 85.8512 35.6737 85.8854C36.2932 85.9197 36.8564 86.1193 37.3633 86.4842C37.878 86.8455 38.2903 87.3555 38.6002 88.0143ZM36.2925 88.4533C36.1302 88.1082 35.8835 87.889 35.5523 87.7958C35.2211 87.7026 34.8791 87.7389 34.5262 87.9049C34.1889 88.0636 33.9488 88.2962 33.8058 88.603C33.6706 88.906 33.6603 89.2508 33.7751 89.6374L36.2925 88.4533ZM39.3057 87.7974C38.9884 87.1229 38.8354 86.4718 38.8466 85.844C38.8656 85.2125 39.0302 84.6562 39.3402 84.1752C39.6503 83.6941 40.0759 83.3263 40.617 83.0718C41.0797 82.8541 41.5279 82.7583 41.9615 82.7842C42.4029 82.8064 42.7897 82.9262 43.1218 83.1435L42.6846 82.2142L44.6962 81.268L47.7838 87.8321L45.7722 88.7783L45.3351 87.8489C45.2829 88.247 45.1246 88.6232 44.8602 88.9774C44.6037 89.3279 44.2441 89.612 43.7814 89.8296C43.2481 90.0805 42.6973 90.1719 42.129 90.104C41.557 90.0283 41.0218 89.7964 40.5232 89.4084C40.0288 89.0088 39.6229 88.4718 39.3057 87.7974ZM44.2284 85.4962C43.9923 84.9943 43.6649 84.6647 43.2461 84.5073C42.8351 84.3462 42.4296 84.3598 42.0297 84.5479C41.6297 84.736 41.3568 85.0416 41.211 85.4645C41.0693 85.876 41.1165 86.3327 41.3526 86.8346C41.5886 87.3365 41.914 87.6719 42.3287 87.8408C42.7475 87.9982 43.1569 87.9828 43.5568 87.7947C43.9568 87.6065 44.2258 87.3028 44.3638 86.8835C44.5096 86.4606 44.4645 85.9981 44.2284 85.4962ZM48.6777 80.7313C48.7432 80.2598 48.9045 79.8392 49.1615 79.4693C49.4148 79.0915 49.7572 78.8012 50.1885 78.5983L51.19 80.7276L50.6371 80.9876C50.1352 81.2237 49.8104 81.5106 49.6628 81.8482C49.5114 82.178 49.563 82.6134 49.8175 83.1546L51.2506 86.2013L49.2391 87.1475L46.1515 80.5834L48.1631 79.6372L48.6777 80.7313ZM52.1877 75.1295L56.2823 83.8346L54.2708 84.7808L50.1761 76.0757L52.1877 75.1295ZM61.3578 73.4308L61.7944 85.0489L59.6299 86.067L59.5642 82.0179L53.9114 76.9334L56.1583 75.8765L59.6069 79.2682L59.1815 74.4544L61.3578 73.4308Z" fill="#00509E"/>
<path d="M262.378 105.806C261.91 105.506 261.532 105.092 261.244 104.564C260.956 104.036 260.812 103.418 260.812 102.71C260.812 101.882 261.022 101.132 261.442 100.46C261.862 99.788 262.462 99.26 263.242 98.876C264.022 98.48 264.928 98.282 265.96 98.282C266.992 98.282 267.904 98.48 268.696 98.876C269.476 99.26 270.082 99.788 270.514 100.46C270.934 101.132 271.144 101.882 271.144 102.71C271.144 103.406 271 104.024 270.712 104.564C270.424 105.092 270.052 105.506 269.596 105.806H275.788V108.884H260.956V105.806H262.378ZM265.96 101.414C265.192 101.414 264.592 101.63 264.16 102.062C263.716 102.482 263.494 103.004 263.494 103.628C263.494 104.24 263.716 104.762 264.16 105.194C264.604 105.614 265.21 105.824 265.978 105.824C266.746 105.824 267.352 105.614 267.796 105.194C268.24 104.762 268.462 104.24 268.462 103.628C268.462 103.016 268.24 102.494 267.796 102.062C267.34 101.63 266.728 101.414 265.96 101.414ZM265.96 97.2792C264.928 97.2792 264.022 97.0872 263.242 96.7032C262.462 96.3072 261.862 95.7732 261.442 95.1012C261.022 94.4292 260.812 93.6792 260.812 92.8512C260.812 92.1432 260.956 91.5252 261.244 90.9972C261.532 90.4572 261.91 90.0432 262.378 89.7552H260.956V86.6772H271V89.7552H269.578C270.046 90.0552 270.424 90.4752 270.712 91.0152C271 91.5432 271.144 92.1612 271.144 92.8692C271.144 93.6852 270.934 94.4292 270.514 95.1012C270.082 95.7732 269.476 96.3072 268.696 96.7032C267.904 97.0872 266.992 97.2792 265.96 97.2792ZM265.978 89.7552C265.21 89.7552 264.604 89.9712 264.16 90.4032C263.716 90.8232 263.494 91.3392 263.494 91.9512C263.494 92.5632 263.716 93.0852 264.16 93.5172C264.592 93.9372 265.192 94.1472 265.96 94.1472C266.728 94.1472 267.34 93.9372 267.796 93.5172C268.24 93.0852 268.462 92.5632 268.462 91.9512C268.462 91.3392 268.24 90.8232 267.796 90.4032C267.352 89.9712 266.746 89.7552 265.978 89.7552ZM259.912 82.9024C259.912 83.4424 259.756 83.8864 259.444 84.2344C259.12 84.5704 258.724 84.7384 258.256 84.7384C257.776 84.7384 257.38 84.5704 257.068 84.2344C256.744 83.8864 256.582 83.4424 256.582 82.9024C256.582 82.3744 256.744 81.9424 257.068 81.6064C257.38 81.2584 257.776 81.0844 258.256 81.0844C258.724 81.0844 259.12 81.2584 259.444 81.6064C259.756 81.9424 259.912 82.3744 259.912 82.9024ZM260.956 81.3724H271V84.4504H260.956V81.3724ZM262.63 76.0638C262.078 75.7038 261.646 75.2538 261.334 74.7138C261.01 74.1738 260.848 73.5738 260.848 72.9138H264.106V73.7598C264.106 74.5278 264.274 75.1038 264.61 75.4878C264.934 75.8718 265.51 76.0638 266.338 76.0638H271V79.1418H260.956V76.0638H262.63ZM271.144 67.3566C271.144 68.2326 270.994 69.0126 270.694 69.6966C270.394 70.3806 269.986 70.9206 269.47 71.3166C268.942 71.7126 268.354 71.9346 267.706 71.9826V68.9406C268.054 68.9046 268.336 68.7426 268.552 68.4546C268.768 68.1666 268.876 67.8126 268.876 67.3926C268.876 67.0086 268.804 66.7146 268.66 66.5106C268.504 66.2946 268.306 66.1866 268.066 66.1866C267.778 66.1866 267.568 66.3366 267.436 66.6366C267.292 66.9366 267.136 67.4226 266.968 68.0946C266.8 68.8146 266.626 69.4146 266.446 69.8946C266.254 70.3746 265.96 70.7886 265.564 71.1366C265.156 71.4846 264.61 71.6586 263.926 71.6586C263.35 71.6586 262.828 71.5026 262.36 71.1906C261.88 70.8666 261.502 70.3986 261.226 69.7866C260.95 69.1626 260.812 68.4246 260.812 67.5726C260.812 66.3126 261.124 65.3226 261.748 64.6026C262.372 63.8706 263.2 63.4506 264.232 63.3426V66.1866C263.884 66.2346 263.608 66.3906 263.404 66.6546C263.2 66.9066 263.098 67.2426 263.098 67.6626C263.098 68.0226 263.17 68.2986 263.314 68.4906C263.446 68.6826 263.632 68.7786 263.872 68.7786C264.16 68.7786 264.376 68.6286 264.52 68.3286C264.664 68.0166 264.808 67.5366 264.952 66.8886C265.144 66.1446 265.336 65.5386 265.528 65.0706C265.708 64.6026 266.008 64.1946 266.428 63.8466C266.836 63.4866 267.388 63.3006 268.084 63.2886C268.672 63.2886 269.2 63.4566 269.668 63.7926C270.124 64.1166 270.484 64.5906 270.748 65.2146C271.012 65.8266 271.144 66.5406 271.144 67.3566Z" fill="#00509E"/>
</svg>
