<?xml version="1.0" encoding="UTF-8"?><svg id="_レイヤー_1" xmlns="http://www.w3.org/2000/svg" viewBox="0 0 300 60"><defs><style>.cls-1{fill:none;}.cls-2{fill:#00519f;}.cls-3{fill:#da353b;}</style></defs><rect class="cls-1" width="300" height="60"/><g id="_レイヤー_2"><g id="_レイヤー_1-2"><path class="cls-2" d="m152.32,39.29v1.62h-12.48v-1.62h3.35c.91,0,1.01-.34,1.01-.82V12.98c0-.41-.13-.8-.89-.8h-3.46v-1.41h12.48v1.41h-3.59c-.43-.01-.79.32-.8.75,0,.02,0,.03,0,.05v25.51c0,.43.13.81,1.07.81h3.32Z"/><path class="cls-2" d="m154.52,40.89v-1.6h2.98c.42.02.77-.3.8-.71,0-.03,0-.06,0-.1V12.94c-.01-.43-.37-.77-.8-.77h-2.98v-1.41h13.74c2.07,0,3.66.22,4.78.65,1.07.39,1.99,1.12,2.62,2.07.63.95.96,2.06.94,3.19,0,.91-.19,1.81-.57,2.63-.36.8-.87,1.53-1.51,2.13-.62.59-1.33,1.09-2.1,1.46-.97.44-1.98.79-3.02,1.03,1.36.1,2.7.33,4.02.69.94.26,1.81.72,2.56,1.34.68.61,1.21,1.37,1.54,2.23.37.92.55,1.89.53,2.88.02,2-.65,3.94-1.9,5.49-1.28,1.6-2.97,2.82-4.89,3.53-1.49.57-3.25.8-5.29.8h-11.46Zm7.54-17.5h2.14s3.12-.13,4.07-.4c.81-.2,1.56-.56,2.22-1.06.56-.49,1.01-1.1,1.31-1.78.36-.83.54-1.73.52-2.63,0-1.77-.56-3.04-1.69-3.83-1.45-1-3.18-1.53-4.94-1.52h-3.61v11.22Zm3.42,15.9c1.57.02,3.12-.32,4.53-1.01,1.14-.56,2.07-1.47,2.65-2.6.63-1.23.95-2.6.92-3.99.04-1.3-.26-2.59-.87-3.74-.59-1.02-1.51-1.81-2.6-2.24-1.15-.49-3.05-.73-5.7-.73h-2.35v14.3h3.42Z"/><path class="cls-2" d="m178.77,49.24v-3.63h.41c.35.26.73.47,1.13.63.37.12.77.19,1.16.18.62.03,1.24-.13,1.76-.47.45-.36.76-.86.89-1.42.19-.64.28-2.34.28-5.08V12.92c0-.39-.31-.72-.7-.73-.03,0-.06,0-.08,0h-3.44v-1.38h12.58v1.38h-3.31c-.43-.02-.79.31-.8.74h0c0,.45-.05,11.92-.05,23.29s-4.79,13.01-9.19,13.01h-.63Z"/><path class="cls-3" d="m133.12,22.67c.79-4.2.05-9.11-4.17-11.23-3.98-1.99-7.46.88-8.64,4.51-1.12-3.69-4.48-6.18-8.53-4.54-4.17,1.69-4.92,6.77-4.38,10.63.67,4.69,4.15,8.31,7.74,11.13,1.02.8,2.07,1.54,3.17,2.22-2.55,1.22-5.18,2.27-7.86,3.14-.3.1-.15,2.38,0,2.35,3.41-1.12,6.7-2.57,9.83-4.31,3.16,1.74,6.49,3.18,9.93,4.3.15.05.31-2.23,0-2.35-2.69-.88-5.32-1.95-7.86-3.19.91-.57,1.82-1.17,2.68-1.81,3.63-2.64,7.24-6.28,8.1-10.84Zm-22.39,3.47c-2.62-3.35-3.54-7.64-.34-10.96s8.8-1.12,9.92,4.3c.94-5.47,6.12-7.16,9.53-4.66,3.7,2.7,2.71,7.32.57,10.61-2.38,3.67-5.96,6.49-10.03,8.71-3.77-2.09-7.07-4.68-9.67-8Z"/></g></g></svg>