<svg width="1920" height="1080" viewBox="0 0 1920 1080" fill="none" xmlns="http://www.w3.org/2000/svg">
<g clip-path="url(#clip0_12_4)">
<rect width="1920" height="1080" fill="white"/>
<path d="M335 639L350 704.5L377.5 755.5L409.5 798L455.5 836.5L516.5 897L610.5 941.5L694 960.5L766.5 941.5L878 897L1078.5 782.5L1405 562.5L1574 502.5L1543.5 389L1523.5 309L1479 235.5L1425 210H1368L1294.5 255L1177 350L1078.5 445.5L980 531.5L878 606L824 639L783.5 660H726H667L610.5 618L539 531.5L490 502.5H443.5L396 515.5L362.5 531.5L335 576V639Z" fill="url(#paint0_linear_12_4)" stroke="black"/>
<path d="M1747 761.5L1685 731V845.5L1690 937L1747 998L1832.5 1022.5V932L1816 834L1747 761.5Z" fill="#0029FF"/>
<path d="M276 219.372L303 104H120.6L21 150.969V219.372V358L120.6 292.334L276 219.372Z" fill="#F00080" stroke="black"/>
<g filter="url(#filter0_b_12_4)">
<rect width="1920" height="1080" fill="white" fill-opacity="0.01"/>
</g>
<path d="M1296.03 787V770.273H1298.05V785.203H1305.83V787H1296.03ZM1308.7 787V774.455H1310.63V787H1308.7ZM1309.68 772.364C1309.31 772.364 1308.98 772.236 1308.71 771.98C1308.44 771.724 1308.31 771.416 1308.31 771.057C1308.31 770.697 1308.44 770.39 1308.71 770.134C1308.98 769.878 1309.31 769.75 1309.68 769.75C1310.06 769.75 1310.38 769.878 1310.65 770.134C1310.92 770.39 1311.05 770.697 1311.05 771.057C1311.05 771.416 1310.92 771.724 1310.65 771.98C1310.38 772.236 1310.06 772.364 1309.68 772.364ZM1319.75 774.455V776.088H1312.98V774.455H1319.75ZM1315.01 787V772.723C1315.01 772.004 1315.18 771.405 1315.52 770.926C1315.85 770.447 1316.29 770.088 1316.83 769.848C1317.37 769.608 1317.94 769.489 1318.54 769.489C1319.01 769.489 1319.4 769.527 1319.7 769.603C1320 769.679 1320.22 769.75 1320.37 769.815L1319.81 771.482C1319.71 771.449 1319.58 771.408 1319.4 771.359C1319.23 771.31 1319.01 771.286 1318.73 771.286C1318.1 771.286 1317.64 771.446 1317.35 771.767C1317.08 772.089 1316.94 772.56 1316.94 773.18V787H1315.01ZM1327.19 787.261C1325.98 787.261 1324.94 786.995 1324.06 786.461C1323.19 785.922 1322.52 785.17 1322.05 784.207C1321.58 783.237 1321.34 782.11 1321.34 780.825C1321.34 779.54 1321.58 778.408 1322.05 777.428C1322.52 776.442 1323.18 775.674 1324.02 775.124C1324.87 774.569 1325.86 774.291 1327 774.291C1327.65 774.291 1328.29 774.4 1328.93 774.618C1329.57 774.836 1330.15 775.19 1330.67 775.68C1331.19 776.164 1331.61 776.807 1331.92 777.607C1332.23 778.408 1332.39 779.393 1332.39 780.564V781.381H1322.72V779.714H1330.43C1330.43 779.007 1330.28 778.375 1330 777.82C1329.72 777.264 1329.33 776.826 1328.81 776.505C1328.3 776.183 1327.69 776.023 1327 776.023C1326.23 776.023 1325.56 776.213 1325 776.594C1324.45 776.97 1324.02 777.46 1323.72 778.065C1323.42 778.669 1323.27 779.317 1323.27 780.009V781.119C1323.27 782.067 1323.43 782.87 1323.76 783.529C1324.09 784.182 1324.55 784.68 1325.14 785.023C1325.73 785.361 1326.41 785.53 1327.19 785.53C1327.7 785.53 1328.15 785.459 1328.56 785.317C1328.98 785.17 1329.33 784.953 1329.63 784.664C1329.93 784.37 1330.16 784.005 1330.33 783.57L1332.19 784.092C1331.99 784.724 1331.66 785.279 1331.2 785.759C1330.74 786.232 1330.17 786.603 1329.49 786.869C1328.81 787.131 1328.04 787.261 1327.19 787.261ZM1351.2 774.455C1351.1 773.627 1350.7 772.984 1350 772.527C1349.31 772.07 1348.45 771.841 1347.44 771.841C1346.7 771.841 1346.05 771.961 1345.49 772.2C1344.94 772.44 1344.51 772.769 1344.2 773.189C1343.9 773.608 1343.75 774.084 1343.75 774.618C1343.75 775.064 1343.85 775.448 1344.07 775.77C1344.28 776.085 1344.56 776.349 1344.9 776.562C1345.24 776.769 1345.59 776.94 1345.96 777.076C1346.33 777.207 1346.67 777.313 1346.98 777.395L1348.68 777.852C1349.12 777.967 1349.6 778.125 1350.13 778.326C1350.67 778.527 1351.19 778.802 1351.68 779.151C1352.17 779.494 1352.58 779.935 1352.9 780.474C1353.22 781.013 1353.38 781.675 1353.38 782.459C1353.38 783.363 1353.15 784.179 1352.67 784.909C1352.21 785.639 1351.52 786.219 1350.62 786.649C1349.72 787.079 1348.63 787.294 1347.34 787.294C1346.14 787.294 1345.11 787.101 1344.23 786.714C1343.36 786.328 1342.67 785.788 1342.17 785.097C1341.68 784.405 1341.39 783.602 1341.33 782.688H1343.42C1343.47 783.319 1343.69 783.842 1344.06 784.256C1344.43 784.664 1344.91 784.969 1345.48 785.17C1346.06 785.366 1346.68 785.464 1347.34 785.464C1348.11 785.464 1348.81 785.339 1349.42 785.089C1350.04 784.833 1350.53 784.479 1350.89 784.027C1351.24 783.57 1351.42 783.036 1351.42 782.426C1351.42 781.871 1351.27 781.419 1350.96 781.07C1350.65 780.722 1350.24 780.439 1349.73 780.221C1349.23 780.003 1348.68 779.812 1348.09 779.649L1346.03 779.061C1344.73 778.685 1343.69 778.149 1342.93 777.452C1342.17 776.755 1341.79 775.843 1341.79 774.716C1341.79 773.779 1342.04 772.963 1342.55 772.266C1343.06 771.563 1343.74 771.019 1344.6 770.632C1345.47 770.24 1346.44 770.044 1347.5 770.044C1348.58 770.044 1349.54 770.237 1350.38 770.624C1351.22 771.005 1351.88 771.528 1352.37 772.192C1352.87 772.856 1353.13 773.611 1353.16 774.455H1351.2ZM1364.36 781.871V774.455H1366.29V787H1364.36V784.876H1364.23C1363.94 785.513 1363.48 786.055 1362.86 786.502C1362.24 786.943 1361.45 787.163 1360.5 787.163C1359.72 787.163 1359.02 786.992 1358.41 786.649C1357.8 786.3 1357.32 785.778 1356.98 785.081C1356.63 784.378 1356.45 783.493 1356.45 782.426V774.455H1358.38V782.295C1358.38 783.21 1358.64 783.94 1359.15 784.484C1359.67 785.029 1360.33 785.301 1361.13 785.301C1361.6 785.301 1362.09 785.179 1362.59 784.934C1363.09 784.689 1363.51 784.313 1363.85 783.806C1364.19 783.3 1364.36 782.655 1364.36 781.871ZM1369.82 791.705V774.455H1371.68V776.447H1371.91C1372.05 776.23 1372.25 775.952 1372.5 775.614C1372.75 775.271 1373.12 774.966 1373.59 774.7C1374.07 774.427 1374.72 774.291 1375.54 774.291C1376.59 774.291 1377.52 774.555 1378.33 775.083C1379.13 775.612 1379.76 776.36 1380.22 777.33C1380.67 778.299 1380.89 779.442 1380.89 780.76C1380.89 782.089 1380.67 783.24 1380.22 784.215C1379.76 785.184 1379.14 785.935 1378.34 786.469C1377.54 786.997 1376.61 787.261 1375.57 787.261C1374.76 787.261 1374.12 787.128 1373.63 786.861C1373.15 786.589 1372.77 786.281 1372.51 785.938C1372.25 785.59 1372.05 785.301 1371.91 785.072H1371.75V791.705H1369.82ZM1371.71 780.727C1371.71 781.675 1371.85 782.511 1372.13 783.235C1372.41 783.953 1372.81 784.517 1373.35 784.925C1373.88 785.328 1374.53 785.53 1375.31 785.53C1376.11 785.53 1376.78 785.317 1377.32 784.893C1377.87 784.463 1378.28 783.885 1378.55 783.161C1378.83 782.432 1378.97 781.62 1378.97 780.727C1378.97 779.845 1378.83 779.05 1378.56 778.342C1378.29 777.629 1377.88 777.065 1377.34 776.652C1376.8 776.232 1376.12 776.023 1375.31 776.023C1374.52 776.023 1373.86 776.221 1373.33 776.619C1372.8 777.011 1372.39 777.561 1372.12 778.269C1371.85 778.971 1371.71 779.791 1371.71 780.727ZM1383.83 791.705V774.455H1385.7V776.447H1385.92C1386.07 776.23 1386.26 775.952 1386.51 775.614C1386.77 775.271 1387.13 774.966 1387.61 774.7C1388.09 774.427 1388.73 774.291 1389.55 774.291C1390.61 774.291 1391.54 774.555 1392.34 775.083C1393.15 775.612 1393.78 776.36 1394.23 777.33C1394.68 778.299 1394.91 779.442 1394.91 780.76C1394.91 782.089 1394.68 783.24 1394.23 784.215C1393.78 785.184 1393.15 785.935 1392.35 786.469C1391.55 786.997 1390.63 787.261 1389.58 787.261C1388.78 787.261 1388.13 787.128 1387.65 786.861C1387.16 786.589 1386.79 786.281 1386.53 785.938C1386.27 785.59 1386.07 785.301 1385.92 785.072H1385.76V791.705H1383.83ZM1385.73 780.727C1385.73 781.675 1385.87 782.511 1386.14 783.235C1386.42 783.953 1386.83 784.517 1387.36 784.925C1387.9 785.328 1388.55 785.53 1389.32 785.53C1390.13 785.53 1390.8 785.317 1391.34 784.893C1391.88 784.463 1392.29 783.885 1392.56 783.161C1392.84 782.432 1392.98 781.62 1392.98 780.727C1392.98 779.845 1392.85 779.05 1392.57 778.342C1392.31 777.629 1391.9 777.065 1391.36 776.652C1390.82 776.232 1390.14 776.023 1389.32 776.023C1388.54 776.023 1387.88 776.221 1387.35 776.619C1386.81 777.011 1386.41 777.561 1386.14 778.269C1385.86 778.971 1385.73 779.791 1385.73 780.727ZM1402.95 787.261C1401.81 787.261 1400.82 786.992 1399.96 786.453C1399.12 785.914 1398.45 785.16 1397.97 784.19C1397.5 783.221 1397.26 782.089 1397.26 780.793C1397.26 779.486 1397.5 778.345 1397.97 777.37C1398.45 776.396 1399.12 775.639 1399.96 775.1C1400.82 774.561 1401.81 774.291 1402.95 774.291C1404.08 774.291 1405.07 774.561 1405.92 775.1C1406.77 775.639 1407.44 776.396 1407.91 777.37C1408.39 778.345 1408.63 779.486 1408.63 780.793C1408.63 782.089 1408.39 783.221 1407.91 784.19C1407.44 785.16 1406.77 785.914 1405.92 786.453C1405.07 786.992 1404.08 787.261 1402.95 787.261ZM1402.95 785.53C1403.81 785.53 1404.51 785.309 1405.07 784.868C1405.62 784.427 1406.04 783.847 1406.3 783.129C1406.57 782.41 1406.7 781.631 1406.7 780.793C1406.7 779.954 1406.57 779.173 1406.3 778.449C1406.04 777.724 1405.62 777.139 1405.07 776.692C1404.51 776.246 1403.81 776.023 1402.95 776.023C1402.09 776.023 1401.38 776.246 1400.82 776.692C1400.27 777.139 1399.86 777.724 1399.59 778.449C1399.32 779.173 1399.19 779.954 1399.19 780.793C1399.19 781.631 1399.32 782.41 1399.59 783.129C1399.86 783.847 1400.27 784.427 1400.82 784.868C1401.38 785.309 1402.09 785.53 1402.95 785.53ZM1411.57 787V774.455H1413.44V776.349H1413.57C1413.79 775.729 1414.21 775.225 1414.81 774.838C1415.41 774.452 1416.08 774.259 1416.83 774.259C1416.97 774.259 1417.15 774.261 1417.36 774.267C1417.58 774.272 1417.74 774.28 1417.85 774.291V776.251C1417.78 776.235 1417.63 776.211 1417.4 776.178C1417.17 776.14 1416.93 776.121 1416.67 776.121C1416.06 776.121 1415.52 776.249 1415.04 776.505C1414.56 776.755 1414.19 777.104 1413.91 777.55C1413.64 777.991 1413.5 778.495 1413.5 779.061V787H1411.57ZM1426.37 774.455V776.088H1419.87V774.455H1426.37ZM1421.77 771.449H1423.69V783.406C1423.69 783.951 1423.77 784.359 1423.93 784.631C1424.09 784.898 1424.3 785.078 1424.55 785.17C1424.81 785.258 1425.08 785.301 1425.36 785.301C1425.57 785.301 1425.75 785.29 1425.88 785.268C1426.02 785.241 1426.13 785.219 1426.21 785.203L1426.6 786.935C1426.47 786.984 1426.29 787.033 1426.05 787.082C1425.82 787.136 1425.52 787.163 1425.16 787.163C1424.62 787.163 1424.09 787.046 1423.56 786.812C1423.05 786.578 1422.62 786.221 1422.27 785.742C1421.93 785.263 1421.77 784.659 1421.77 783.929V771.449Z" fill="black"/>
<path d="M656.724 394.909V504H627.108V422.182H626.469L602.605 436.457V411.315L629.452 394.909H656.724ZM732.603 394.909V504H702.987V422.182H702.348L678.484 436.457V411.315L705.331 394.909H732.603ZM778.346 489.085L777.92 495.051C777.565 500.165 776.713 505.065 775.363 509.753C774.05 514.44 772.647 518.595 771.155 522.217C769.699 525.839 768.545 528.645 767.693 530.634H749.582C750.15 528.645 750.949 525.768 751.979 522.004C753.045 518.276 754.003 514.05 754.856 509.327C755.743 504.639 756.187 499.881 756.187 495.051V489.085H778.346ZM837.313 393.418C843.67 393.418 849.689 394.43 855.371 396.454C861.052 398.442 866.077 401.585 870.445 405.882C874.849 410.179 878.293 415.79 880.779 422.714C883.3 429.604 884.579 437.949 884.614 447.75C884.65 456.699 883.531 464.742 881.258 471.88C879.021 478.982 875.807 485.037 871.617 490.044C867.462 495.051 862.455 498.886 856.596 501.55C850.772 504.178 844.273 505.491 837.1 505.491C829.039 505.491 821.954 503.947 815.846 500.857C809.738 497.768 804.873 493.613 801.251 488.393C797.629 483.173 795.516 477.366 794.912 470.974H824.103C824.813 474.277 826.376 476.674 828.79 478.165C831.205 479.621 833.975 480.349 837.1 480.349C843.35 480.349 847.913 477.651 850.79 472.253C853.702 466.82 855.175 459.575 855.211 450.52H854.572C853.187 453.858 851.091 456.717 848.286 459.096C845.481 461.475 842.214 463.304 838.485 464.582C834.756 465.861 830.814 466.5 826.66 466.5C820.09 466.5 814.337 465.026 809.401 462.079C804.465 459.096 800.612 455.03 797.842 449.881C795.072 444.696 793.67 438.801 793.634 432.196C793.599 424.455 795.427 417.672 799.121 411.848C802.814 406.024 807.945 401.496 814.515 398.265C821.084 395.033 828.684 393.418 837.313 393.418ZM837.526 415.79C834.579 415.79 831.951 416.464 829.643 417.814C827.37 419.163 825.577 420.992 824.263 423.3C822.984 425.609 822.363 428.219 822.398 431.131C822.434 434.043 823.091 436.653 824.369 438.961C825.683 441.269 827.459 443.098 829.696 444.447C831.969 445.797 834.579 446.472 837.526 446.472C839.692 446.472 841.699 446.099 843.545 445.353C845.392 444.572 846.99 443.489 848.339 442.104C849.724 440.683 850.79 439.05 851.535 437.203C852.317 435.321 852.689 433.297 852.654 431.131C852.618 428.219 851.944 425.609 850.63 423.3C849.316 420.992 847.523 419.163 845.25 417.814C842.977 416.464 840.403 415.79 837.526 415.79ZM897.385 504V482.693L938.081 449.028C940.78 446.791 943.088 444.696 945.006 442.743C946.959 440.754 948.45 438.712 949.48 436.617C950.545 434.522 951.078 432.196 951.078 429.639C951.078 426.834 950.474 424.437 949.267 422.448C948.095 420.46 946.462 418.933 944.366 417.867C942.271 416.766 939.857 416.216 937.122 416.216C934.388 416.216 931.973 416.766 929.878 417.867C927.818 418.968 926.22 420.584 925.084 422.714C923.947 424.845 923.379 427.437 923.379 430.491H895.254C895.254 422.821 896.977 416.216 900.421 410.676C903.866 405.136 908.731 400.875 915.016 397.892C921.302 394.909 928.67 393.418 937.122 393.418C945.858 393.418 953.422 394.82 959.814 397.626C966.241 400.396 971.195 404.302 974.675 409.344C978.191 414.387 979.949 420.3 979.949 427.082C979.949 431.273 979.079 435.445 977.339 439.6C975.599 443.719 972.474 448.283 967.964 453.29C963.454 458.297 957.044 464.263 948.734 471.188L938.507 479.71V480.349H981.121V504H897.385ZM1047.84 394.909V504H1018.22V422.182H1017.58L993.718 436.457V411.315L1020.56 394.909H1047.84ZM1103.05 489.085V410.25H1126.91V489.085H1103.05ZM1075.56 461.599V437.736H1154.4V461.599H1075.56Z" fill="#131313"/>
<path d="M602.188 557.091H605.866L621.9 581.651H622.248L638.281 557.091H641.96L623.64 584.907V608H620.508V584.907L602.188 557.091ZM659.939 608.795C656.492 608.795 653.492 607.942 650.94 606.235C648.388 604.528 646.416 602.192 645.024 599.225C643.632 596.259 642.936 592.878 642.936 589.083C642.936 585.272 643.632 581.874 645.024 578.891C646.433 575.908 648.363 573.555 650.816 571.832C653.269 570.108 656.069 569.246 659.218 569.246C661.356 569.246 663.377 569.677 665.283 570.539C667.206 571.384 668.896 572.611 670.354 574.218C671.829 575.826 672.981 577.764 673.809 580.035C674.655 582.305 675.077 584.857 675.077 587.691V589.58H644.85V586.821H672.045C672.045 584.054 671.481 581.559 670.354 579.339C669.227 577.118 667.694 575.353 665.756 574.044C663.817 572.735 661.637 572.08 659.218 572.08C656.682 572.08 654.42 572.793 652.432 574.218C650.46 575.627 648.894 577.532 647.733 579.935C646.59 582.338 645.993 585.023 645.944 587.989V589.232C645.944 592.414 646.499 595.273 647.609 597.808C648.736 600.327 650.344 602.324 652.432 603.799C654.52 605.257 657.022 605.987 659.939 605.987C662.027 605.987 663.808 605.638 665.283 604.942C666.775 604.23 667.993 603.368 668.937 602.357C669.882 601.346 670.595 600.369 671.075 599.424L673.834 600.543C673.254 601.819 672.351 603.095 671.125 604.371C669.915 605.63 668.374 606.683 666.501 607.528C664.645 608.373 662.458 608.795 659.939 608.795ZM695.635 608.82C693.431 608.82 691.409 608.381 689.569 607.503C687.747 606.625 686.28 605.34 685.17 603.65C684.076 601.96 683.529 599.905 683.529 597.485C683.529 595.894 683.811 594.494 684.374 593.284C684.938 592.074 685.808 591.03 686.984 590.152C688.161 589.274 689.669 588.553 691.508 587.989C693.348 587.409 695.544 586.962 698.096 586.647C700.035 586.415 701.766 586.191 703.291 585.976C704.816 585.744 706.009 585.388 706.871 584.907C707.749 584.426 708.188 583.697 708.188 582.719V581.129C708.188 578.344 707.31 576.132 705.553 574.491C703.796 572.851 701.377 572.031 698.295 572.031C695.56 572.031 693.257 572.635 691.384 573.845C689.528 575.038 688.227 576.58 687.481 578.469L684.623 577.4C685.352 575.577 686.404 574.061 687.78 572.851C689.172 571.641 690.763 570.738 692.552 570.141C694.359 569.545 696.248 569.246 698.22 569.246C699.927 569.246 701.551 569.487 703.092 569.967C704.65 570.448 706.034 571.177 707.243 572.155C708.47 573.133 709.439 574.384 710.152 575.908C710.864 577.416 711.221 579.223 711.221 581.327V608H708.188V601.114H707.964C707.301 602.54 706.39 603.84 705.23 605.017C704.086 606.177 702.703 607.105 701.079 607.801C699.471 608.481 697.657 608.82 695.635 608.82ZM695.933 606.011C698.319 606.011 700.432 605.431 702.272 604.271C704.128 603.095 705.578 601.487 706.622 599.449C707.666 597.411 708.188 595.099 708.188 592.513V586.896C707.807 587.227 707.252 587.525 706.523 587.79C705.81 588.039 704.998 588.263 704.086 588.462C703.192 588.644 702.247 588.81 701.253 588.959C700.275 589.091 699.322 589.216 698.394 589.332C695.61 589.663 693.34 590.177 691.583 590.873C689.843 591.552 688.567 592.447 687.755 593.558C686.959 594.668 686.562 596.01 686.562 597.585C686.562 600.186 687.456 602.241 689.246 603.749C691.036 605.257 693.265 606.011 695.933 606.011ZM723.936 608V569.818H726.894V575.784H727.167C727.996 573.829 729.396 572.263 731.368 571.086C733.34 569.893 735.586 569.296 738.105 569.296C738.37 569.296 738.635 569.296 738.9 569.296C739.165 569.296 739.414 569.304 739.646 569.321V572.379C739.447 572.362 739.207 572.337 738.925 572.304C738.66 572.254 738.328 572.229 737.931 572.229C735.809 572.229 733.92 572.685 732.263 573.597C730.622 574.508 729.33 575.768 728.385 577.375C727.441 578.966 726.968 580.789 726.968 582.844V608H723.936ZM750.826 557.091V608H747.793V557.091H750.826ZM765.815 622.318C765.053 622.318 764.299 622.235 763.553 622.07C762.807 621.904 762.136 621.688 761.539 621.423L762.434 618.763C763.992 619.36 765.401 619.576 766.66 619.41C767.936 619.244 769.063 618.664 770.041 617.67C771.019 616.675 771.847 615.217 772.527 613.295L774.267 608.522L760.272 569.818H763.528L775.659 604.097H775.907L788.038 569.818H791.294L775.186 614.488C774.573 616.211 773.803 617.653 772.875 618.813C771.947 619.973 770.886 620.843 769.693 621.423C768.516 622.02 767.224 622.318 765.815 622.318ZM821.528 557.091H824.909L844.521 603.526H844.869L864.482 557.091H867.863V608H864.88V564.474H864.582L846.162 608H843.229L824.809 564.474H824.511V608H821.528V557.091ZM891.621 608.82C889.417 608.82 887.395 608.381 885.556 607.503C883.733 606.625 882.266 605.34 881.156 603.65C880.062 601.96 879.515 599.905 879.515 597.485C879.515 595.894 879.797 594.494 880.36 593.284C880.924 592.074 881.794 591.03 882.971 590.152C884.147 589.274 885.655 588.553 887.495 587.989C889.334 587.409 891.53 586.962 894.082 586.647C896.021 586.415 897.753 586.191 899.277 585.976C900.802 585.744 901.995 585.388 902.857 584.907C903.735 584.426 904.174 583.697 904.174 582.719V581.129C904.174 578.344 903.296 576.132 901.539 574.491C899.783 572.851 897.363 572.031 894.281 572.031C891.547 572.031 889.243 572.635 887.37 573.845C885.514 575.038 884.213 576.58 883.468 578.469L880.609 577.4C881.338 575.577 882.391 574.061 883.766 572.851C885.158 571.641 886.749 570.738 888.539 570.141C890.345 569.545 892.234 569.246 894.206 569.246C895.913 569.246 897.537 569.487 899.078 569.967C900.636 570.448 902.02 571.177 903.23 572.155C904.456 573.133 905.426 574.384 906.138 575.908C906.851 577.416 907.207 579.223 907.207 581.327V608H904.174V601.114H903.951C903.288 602.54 902.376 603.84 901.216 605.017C900.073 606.177 898.689 607.105 897.065 607.801C895.458 608.481 893.643 608.82 891.621 608.82ZM891.919 606.011C894.306 606.011 896.419 605.431 898.258 604.271C900.114 603.095 901.564 601.487 902.608 599.449C903.652 597.411 904.174 595.099 904.174 592.513V586.896C903.793 587.227 903.238 587.525 902.509 587.79C901.796 588.039 900.984 588.263 900.073 588.462C899.178 588.644 898.233 588.81 897.239 588.959C896.261 589.091 895.308 589.216 894.38 589.332C891.596 589.663 889.326 590.177 887.569 590.873C885.829 591.552 884.553 592.447 883.741 593.558C882.946 594.668 882.548 596.01 882.548 597.585C882.548 600.186 883.443 602.241 885.233 603.749C887.022 605.257 889.251 606.011 891.919 606.011ZM919.922 608V569.818H922.88V575.784H923.153C923.982 573.829 925.382 572.263 927.354 571.086C929.326 569.893 931.572 569.296 934.091 569.296C934.356 569.296 934.621 569.296 934.886 569.296C935.152 569.296 935.4 569.304 935.632 569.321V572.379C935.433 572.362 935.193 572.337 934.911 572.304C934.646 572.254 934.315 572.229 933.917 572.229C931.796 572.229 929.906 572.685 928.249 573.597C926.609 574.508 925.316 575.768 924.371 577.375C923.427 578.966 922.955 580.789 922.955 582.844V608H919.922ZM943.779 608V569.818H946.737V575.784H947.011C947.839 573.829 949.24 572.263 951.212 571.086C953.184 569.893 955.429 569.296 957.948 569.296C958.213 569.296 958.479 569.296 958.744 569.296C959.009 569.296 959.258 569.304 959.49 569.321V572.379C959.291 572.362 959.05 572.337 958.769 572.304C958.503 572.254 958.172 572.229 957.774 572.229C955.653 572.229 953.764 572.685 952.107 573.597C950.466 574.508 949.173 575.768 948.229 577.375C947.284 578.966 946.812 580.789 946.812 582.844V608H943.779ZM967.786 608V569.818H970.794V608H967.786ZM969.302 563.057C968.639 563.057 968.059 562.825 967.562 562.361C967.082 561.897 966.841 561.333 966.841 560.67C966.841 560.008 967.082 559.444 967.562 558.98C968.043 558.516 968.623 558.284 969.302 558.284C969.965 558.284 970.537 558.516 971.017 558.98C971.515 559.444 971.763 560.008 971.763 560.67C971.763 561.333 971.523 561.897 971.042 562.361C970.562 562.825 969.982 563.057 969.302 563.057ZM998.386 608.795C994.939 608.795 991.94 607.942 989.387 606.235C986.835 604.528 984.863 602.192 983.471 599.225C982.079 596.259 981.383 592.878 981.383 589.083C981.383 585.272 982.079 581.874 983.471 578.891C984.88 575.908 986.81 573.555 989.263 571.832C991.716 570.108 994.516 569.246 997.665 569.246C999.803 569.246 1001.82 569.677 1003.73 570.539C1005.65 571.384 1007.34 572.611 1008.8 574.218C1010.28 575.826 1011.43 577.764 1012.26 580.035C1013.1 582.305 1013.52 584.857 1013.52 587.691V589.58H983.297V586.821H1010.49C1010.49 584.054 1009.93 581.559 1008.8 579.339C1007.67 577.118 1006.14 575.353 1004.2 574.044C1002.26 572.735 1000.08 572.08 997.665 572.08C995.13 572.08 992.868 572.793 990.879 574.218C988.907 575.627 987.341 577.532 986.181 579.935C985.037 582.338 984.441 585.023 984.391 587.989V589.232C984.391 592.414 984.946 595.273 986.056 597.808C987.183 600.327 988.791 602.324 990.879 603.799C992.967 605.257 995.469 605.987 998.386 605.987C1000.47 605.987 1002.26 605.638 1003.73 604.942C1005.22 604.23 1006.44 603.368 1007.38 602.357C1008.33 601.346 1009.04 600.369 1009.52 599.424L1012.28 600.543C1011.7 601.819 1010.8 603.095 1009.57 604.371C1008.36 605.63 1006.82 606.683 1004.95 607.528C1003.09 608.373 1000.9 608.795 998.386 608.795ZM1034.08 608.82C1031.88 608.82 1029.86 608.381 1028.02 607.503C1026.19 606.625 1024.73 605.34 1023.62 603.65C1022.52 601.96 1021.98 599.905 1021.98 597.485C1021.98 595.894 1022.26 594.494 1022.82 593.284C1023.38 592.074 1024.25 591.03 1025.43 590.152C1026.61 589.274 1028.12 588.553 1029.96 587.989C1031.8 587.409 1033.99 586.962 1036.54 586.647C1038.48 586.415 1040.21 586.191 1041.74 585.976C1043.26 585.744 1044.46 585.388 1045.32 584.907C1046.2 584.426 1046.64 583.697 1046.64 582.719V581.129C1046.64 578.344 1045.76 576.132 1044 574.491C1042.24 572.851 1039.82 572.031 1036.74 572.031C1034.01 572.031 1031.7 572.635 1029.83 573.845C1027.98 575.038 1026.67 576.58 1025.93 578.469L1023.07 577.4C1023.8 575.577 1024.85 574.061 1026.23 572.851C1027.62 571.641 1029.21 570.738 1031 570.141C1032.81 569.545 1034.7 569.246 1036.67 569.246C1038.37 569.246 1040 569.487 1041.54 569.967C1043.1 570.448 1044.48 571.177 1045.69 572.155C1046.92 573.133 1047.89 574.384 1048.6 575.908C1049.31 577.416 1049.67 579.223 1049.67 581.327V608H1046.64V601.114H1046.41C1045.75 602.54 1044.84 603.84 1043.68 605.017C1042.53 606.177 1041.15 607.105 1039.53 607.801C1037.92 608.481 1036.1 608.82 1034.08 608.82ZM1034.38 606.011C1036.77 606.011 1038.88 605.431 1040.72 604.271C1042.58 603.095 1044.03 601.487 1045.07 599.449C1046.11 597.411 1046.64 595.099 1046.64 592.513V586.896C1046.25 587.227 1045.7 587.525 1044.97 587.79C1044.26 588.039 1043.45 588.263 1042.53 588.462C1041.64 588.644 1040.69 588.81 1039.7 588.959C1038.72 589.091 1037.77 589.216 1036.84 589.332C1034.06 589.663 1031.79 590.177 1030.03 590.873C1028.29 591.552 1027.01 592.447 1026.2 593.558C1025.41 594.668 1025.01 596.01 1025.01 597.585C1025.01 600.186 1025.9 602.241 1027.69 603.749C1029.48 605.257 1031.71 606.011 1034.38 606.011ZM1076.15 623.114C1073.78 623.114 1071.65 622.799 1069.77 622.169C1067.88 621.556 1066.27 620.678 1064.94 619.534C1063.63 618.391 1062.63 617.032 1061.94 615.457L1064.47 613.966C1065.03 615.192 1065.84 616.286 1066.88 617.247C1067.93 618.208 1069.22 618.962 1070.76 619.509C1072.32 620.056 1074.12 620.33 1076.15 620.33C1079.83 620.33 1082.74 619.377 1084.88 617.471C1087.03 615.582 1088.11 612.682 1088.11 608.771V599.275H1087.81C1087.23 600.932 1086.37 602.407 1085.23 603.7C1084.1 604.976 1082.72 605.978 1081.08 606.707C1079.44 607.437 1077.57 607.801 1075.48 607.801C1072.47 607.801 1069.82 607.022 1067.53 605.464C1065.24 603.907 1063.46 601.719 1062.18 598.902C1060.91 596.068 1060.27 592.737 1060.27 588.909C1060.27 585.081 1060.89 581.692 1062.13 578.742C1063.39 575.776 1065.17 573.456 1067.45 571.782C1069.74 570.092 1072.43 569.246 1075.51 569.246C1077.71 569.246 1079.62 569.669 1081.23 570.514C1082.85 571.343 1084.21 572.445 1085.3 573.82C1086.4 575.196 1087.24 576.704 1087.84 578.344H1088.19V569.818H1091.12V608.895C1091.12 612.077 1090.49 614.72 1089.23 616.825C1087.99 618.929 1086.24 620.504 1083.98 621.548C1081.75 622.592 1079.14 623.114 1076.15 623.114ZM1075.76 604.992C1078.31 604.992 1080.5 604.346 1082.34 603.053C1084.2 601.744 1085.63 599.888 1086.62 597.485C1087.63 595.066 1088.14 592.199 1088.14 588.884C1088.14 585.669 1087.65 582.794 1086.67 580.259C1085.69 577.723 1084.27 575.726 1082.42 574.268C1080.56 572.809 1078.34 572.08 1075.76 572.08C1073.12 572.08 1070.88 572.826 1069.02 574.317C1067.16 575.792 1065.74 577.798 1064.74 580.333C1063.77 582.869 1063.28 585.719 1063.28 588.884C1063.28 592.066 1063.77 594.867 1064.77 597.286C1065.76 599.689 1067.19 601.578 1069.04 602.954C1070.9 604.313 1073.14 604.992 1075.76 604.992ZM1118.77 608.795C1115.32 608.795 1112.32 607.942 1109.77 606.235C1107.22 604.528 1105.24 602.192 1103.85 599.225C1102.46 596.259 1101.76 592.878 1101.76 589.083C1101.76 585.272 1102.46 581.874 1103.85 578.891C1105.26 575.908 1107.19 573.555 1109.64 571.832C1112.1 570.108 1114.9 569.246 1118.05 569.246C1120.18 569.246 1122.21 569.677 1124.11 570.539C1126.03 571.384 1127.72 572.611 1129.18 574.218C1130.66 575.826 1131.81 577.764 1132.64 580.035C1133.48 582.305 1133.91 584.857 1133.91 587.691V589.58H1103.68V586.821H1130.87C1130.87 584.054 1130.31 581.559 1129.18 579.339C1128.06 577.118 1126.52 575.353 1124.58 574.044C1122.64 572.735 1120.47 572.08 1118.05 572.08C1115.51 572.08 1113.25 572.793 1111.26 574.218C1109.29 575.627 1107.72 577.532 1106.56 579.935C1105.42 582.338 1104.82 585.023 1104.77 587.989V589.232C1104.77 592.414 1105.33 595.273 1106.44 597.808C1107.56 600.327 1109.17 602.324 1111.26 603.799C1113.35 605.257 1115.85 605.987 1118.77 605.987C1120.85 605.987 1122.64 605.638 1124.11 604.942C1125.6 604.23 1126.82 603.368 1127.77 602.357C1128.71 601.346 1129.42 600.369 1129.9 599.424L1132.66 600.543C1132.08 601.819 1131.18 603.095 1129.95 604.371C1128.74 605.63 1127.2 606.683 1125.33 607.528C1123.47 608.373 1121.29 608.795 1118.77 608.795ZM1168.61 578.046L1165.8 578.792C1165.35 577.4 1164.71 576.198 1163.88 575.188C1163.06 574.177 1162.01 573.398 1160.75 572.851C1159.51 572.287 1158.02 572.006 1156.28 572.006C1153.48 572.006 1151.18 572.702 1149.39 574.094C1147.62 575.486 1146.73 577.3 1146.73 579.538C1146.73 581.361 1147.34 582.869 1148.55 584.062C1149.76 585.238 1151.6 586.133 1154.09 586.746L1159.96 588.213C1162.97 588.959 1165.24 590.169 1166.77 591.842C1168.29 593.5 1169.05 595.563 1169.05 598.032C1169.05 600.137 1168.48 602.001 1167.34 603.625C1166.2 605.249 1164.61 606.517 1162.59 607.428C1160.59 608.34 1158.25 608.795 1155.58 608.795C1152.02 608.795 1149.09 607.967 1146.81 606.31C1144.52 604.636 1143.05 602.241 1142.41 599.126L1145.32 598.38C1145.86 600.866 1147 602.763 1148.72 604.072C1150.46 605.365 1152.74 606.011 1155.56 606.011C1158.67 606.011 1161.18 605.274 1163.09 603.799C1165.01 602.324 1165.97 600.435 1165.97 598.131C1165.97 596.375 1165.41 594.892 1164.28 593.682C1163.15 592.472 1161.45 591.585 1159.16 591.022L1153.07 589.531C1149.96 588.768 1147.62 587.55 1146.06 585.876C1144.5 584.186 1143.72 582.106 1143.72 579.637C1143.72 577.582 1144.26 575.776 1145.34 574.218C1146.42 572.66 1147.9 571.442 1149.79 570.564C1151.68 569.686 1153.84 569.246 1156.28 569.246C1159.51 569.246 1162.14 570.009 1164.18 571.533C1166.22 573.058 1167.7 575.229 1168.61 578.046Z" fill="#131313"/>
<line x1="20.75" y1="1058" x2="20.7485" y2="112" stroke="black" stroke-width="0.5"/>
<line x1="20.8203" y1="111.826" x2="107.82" y2="21.8262" stroke="black" stroke-width="0.5"/>
<line x1="1899.75" y1="1016" x2="1899.75" y2="22" stroke="black" stroke-width="0.5"/>
<line x1="1865.81" y1="1057.84" x2="1899.81" y2="1015.84" stroke="black" stroke-width="0.5"/>
<rect x="1268.5" y="666.5" width="146" height="63" stroke="#B6B4D0"/>
<rect x="1268.5" y="747.5" width="184" height="63" stroke="#B6B4D0"/>
<rect x="1268.5" y="828.5" width="165" height="63" stroke="#B6B4D0"/>
<rect x="1445.5" y="828.5" width="221" height="63" stroke="#B6B4D0"/>
<path d="M1297.49 856.5H1295.46C1295.34 855.917 1295.13 855.406 1294.83 854.964C1294.54 854.523 1294.18 854.153 1293.75 853.854C1293.33 853.549 1292.87 853.32 1292.36 853.168C1291.84 853.015 1291.31 852.939 1290.76 852.939C1289.74 852.939 1288.83 853.195 1288 853.707C1287.19 854.219 1286.54 854.973 1286.05 855.969C1285.57 856.966 1285.33 858.188 1285.33 859.636C1285.33 861.085 1285.57 862.307 1286.05 863.304C1286.54 864.3 1287.19 865.054 1288 865.566C1288.83 866.078 1289.74 866.334 1290.76 866.334C1291.31 866.334 1291.84 866.258 1292.36 866.105C1292.87 865.953 1293.33 865.727 1293.75 865.427C1294.18 865.122 1294.54 864.749 1294.83 864.308C1295.13 863.862 1295.34 863.35 1295.46 862.773H1297.49C1297.33 863.628 1297.06 864.393 1296.65 865.068C1296.25 865.743 1295.75 866.317 1295.15 866.791C1294.55 867.259 1293.88 867.616 1293.13 867.861C1292.39 868.106 1291.6 868.229 1290.76 868.229C1289.33 868.229 1288.06 867.88 1286.95 867.183C1285.84 866.486 1284.96 865.495 1284.33 864.21C1283.69 862.925 1283.37 861.401 1283.37 859.636C1283.37 857.872 1283.69 856.348 1284.33 855.062C1284.96 853.777 1285.84 852.786 1286.95 852.089C1288.06 851.393 1289.33 851.044 1290.76 851.044C1291.6 851.044 1292.39 851.167 1293.13 851.412C1293.88 851.657 1294.55 852.016 1295.15 852.49C1295.75 852.958 1296.25 853.53 1296.65 854.205C1297.06 854.875 1297.33 855.64 1297.49 856.5ZM1305.59 868.261C1304.46 868.261 1303.47 867.992 1302.61 867.453C1301.76 866.914 1301.1 866.16 1300.62 865.19C1300.15 864.221 1299.91 863.089 1299.91 861.793C1299.91 860.486 1300.15 859.345 1300.62 858.37C1301.1 857.396 1301.76 856.639 1302.61 856.1C1303.47 855.561 1304.46 855.291 1305.59 855.291C1306.73 855.291 1307.72 855.561 1308.57 856.1C1309.42 856.639 1310.09 857.396 1310.56 858.37C1311.04 859.345 1311.28 860.486 1311.28 861.793C1311.28 863.089 1311.04 864.221 1310.56 865.19C1310.09 866.16 1309.42 866.914 1308.57 867.453C1307.72 867.992 1306.73 868.261 1305.59 868.261ZM1305.59 866.53C1306.45 866.53 1307.16 866.309 1307.72 865.868C1308.27 865.427 1308.68 864.847 1308.95 864.129C1309.22 863.41 1309.35 862.631 1309.35 861.793C1309.35 860.954 1309.22 860.173 1308.95 859.449C1308.68 858.724 1308.27 858.139 1307.72 857.692C1307.16 857.246 1306.45 857.023 1305.59 857.023C1304.73 857.023 1304.03 857.246 1303.47 857.692C1302.92 858.139 1302.5 858.724 1302.24 859.449C1301.97 860.173 1301.84 860.954 1301.84 861.793C1301.84 862.631 1301.97 863.41 1302.24 864.129C1302.5 864.847 1302.92 865.427 1303.47 865.868C1304.03 866.309 1304.73 866.53 1305.59 866.53ZM1316.15 860.453V868H1314.22V855.455H1316.08V857.415H1316.25C1316.54 856.778 1316.99 856.266 1317.59 855.879C1318.19 855.487 1318.96 855.291 1319.91 855.291C1320.76 855.291 1321.5 855.465 1322.14 855.814C1322.77 856.157 1323.27 856.68 1323.62 857.382C1323.98 858.079 1324.15 858.961 1324.15 860.028V868H1322.23V860.159C1322.23 859.174 1321.97 858.406 1321.46 857.856C1320.95 857.3 1320.24 857.023 1319.35 857.023C1318.74 857.023 1318.19 857.156 1317.7 857.423C1317.22 857.69 1316.84 858.079 1316.57 858.591C1316.29 859.103 1316.15 859.723 1316.15 860.453ZM1336.56 858.264L1334.83 858.754C1334.72 858.466 1334.56 858.185 1334.35 857.913C1334.14 857.635 1333.86 857.407 1333.5 857.227C1333.14 857.047 1332.68 856.957 1332.12 856.957C1331.35 856.957 1330.71 857.134 1330.2 857.488C1329.69 857.837 1329.44 858.281 1329.44 858.82C1329.44 859.299 1329.61 859.677 1329.96 859.955C1330.31 860.233 1330.86 860.464 1331.6 860.649L1333.46 861.107C1334.58 861.379 1335.42 861.795 1335.97 862.356C1336.52 862.912 1336.79 863.628 1336.79 864.504C1336.79 865.223 1336.58 865.866 1336.17 866.432C1335.76 866.998 1335.19 867.445 1334.45 867.771C1333.72 868.098 1332.86 868.261 1331.89 868.261C1330.61 868.261 1329.55 867.984 1328.71 867.428C1327.87 866.873 1327.34 866.062 1327.12 864.994L1328.95 864.537C1329.12 865.212 1329.45 865.719 1329.94 866.056C1330.43 866.394 1331.07 866.562 1331.86 866.562C1332.76 866.562 1333.47 866.372 1334 865.991C1334.53 865.604 1334.8 865.141 1334.8 864.602C1334.8 864.167 1334.65 863.802 1334.34 863.508C1334.04 863.208 1333.57 862.985 1332.94 862.838L1330.84 862.348C1329.7 862.076 1328.85 861.654 1328.31 861.082C1327.78 860.505 1327.51 859.783 1327.51 858.918C1327.51 858.21 1327.71 857.584 1328.11 857.039C1328.51 856.495 1329.06 856.067 1329.75 855.757C1330.45 855.446 1331.24 855.291 1332.12 855.291C1333.36 855.291 1334.33 855.563 1335.04 856.108C1335.76 856.652 1336.26 857.371 1336.56 858.264ZM1347.6 862.871V855.455H1349.53V868H1347.6V865.876H1347.47C1347.17 866.513 1346.72 867.055 1346.1 867.502C1345.47 867.943 1344.69 868.163 1343.74 868.163C1342.96 868.163 1342.26 867.992 1341.65 867.649C1341.04 867.3 1340.56 866.778 1340.21 866.081C1339.87 865.378 1339.69 864.493 1339.69 863.426V855.455H1341.62V863.295C1341.62 864.21 1341.88 864.94 1342.39 865.484C1342.9 866.029 1343.56 866.301 1344.36 866.301C1344.84 866.301 1345.33 866.179 1345.83 865.934C1346.33 865.689 1346.75 865.313 1347.08 864.806C1347.43 864.3 1347.6 863.655 1347.6 862.871ZM1354.98 851.273V868H1353.06V851.273H1354.98ZM1363.97 855.455V857.088H1357.47V855.455H1363.97ZM1359.36 852.449H1361.29V864.406C1361.29 864.951 1361.37 865.359 1361.53 865.631C1361.69 865.898 1361.9 866.078 1362.15 866.17C1362.4 866.258 1362.67 866.301 1362.96 866.301C1363.17 866.301 1363.34 866.29 1363.48 866.268C1363.62 866.241 1363.73 866.219 1363.81 866.203L1364.2 867.935C1364.07 867.984 1363.89 868.033 1363.65 868.082C1363.42 868.136 1363.12 868.163 1362.76 868.163C1362.22 868.163 1361.68 868.046 1361.16 867.812C1360.64 867.578 1360.21 867.221 1359.87 866.742C1359.53 866.263 1359.36 865.659 1359.36 864.929V852.449ZM1370.56 868.294C1369.77 868.294 1369.04 868.144 1368.4 867.845C1367.75 867.54 1367.23 867.102 1366.85 866.53C1366.47 865.953 1366.28 865.256 1366.28 864.439C1366.28 863.72 1366.42 863.138 1366.71 862.691C1366.99 862.239 1367.37 861.885 1367.84 861.629C1368.32 861.373 1368.84 861.183 1369.41 861.058C1369.99 860.927 1370.57 860.823 1371.15 860.747C1371.91 860.649 1372.53 860.576 1373 860.527C1373.48 860.472 1373.83 860.382 1374.05 860.257C1374.27 860.132 1374.38 859.914 1374.38 859.604V859.538C1374.38 858.732 1374.16 858.106 1373.72 857.66C1373.29 857.213 1372.63 856.99 1371.74 856.99C1370.82 856.99 1370.1 857.192 1369.57 857.594C1369.05 857.997 1368.68 858.428 1368.47 858.885L1366.64 858.232C1366.97 857.469 1367.4 856.876 1367.95 856.451C1368.5 856.021 1369.1 855.721 1369.74 855.553C1370.4 855.378 1371.04 855.291 1371.67 855.291C1372.08 855.291 1372.54 855.34 1373.06 855.438C1373.59 855.531 1374.1 855.724 1374.59 856.018C1375.08 856.312 1375.49 856.756 1375.82 857.349C1376.15 857.943 1376.31 858.738 1376.31 859.734V868H1374.38V866.301H1374.29C1374.16 866.573 1373.94 866.865 1373.63 867.175C1373.33 867.485 1372.92 867.75 1372.42 867.967C1371.91 868.185 1371.29 868.294 1370.56 868.294ZM1370.86 866.562C1371.62 866.562 1372.26 866.413 1372.78 866.113C1373.31 865.814 1373.71 865.427 1373.98 864.953C1374.25 864.48 1374.38 863.982 1374.38 863.459V861.695C1374.3 861.793 1374.12 861.882 1373.84 861.964C1373.57 862.04 1373.26 862.108 1372.9 862.168C1372.54 862.223 1372.2 862.272 1371.86 862.315C1371.53 862.353 1371.26 862.386 1371.05 862.413C1370.55 862.479 1370.08 862.585 1369.65 862.732C1369.22 862.873 1368.87 863.089 1368.6 863.377C1368.34 863.66 1368.21 864.047 1368.21 864.537C1368.21 865.207 1368.46 865.713 1368.95 866.056C1369.45 866.394 1370.09 866.562 1370.86 866.562ZM1385.29 855.455V857.088H1378.78V855.455H1385.29ZM1380.68 852.449H1382.61V864.406C1382.61 864.951 1382.69 865.359 1382.84 865.631C1383.01 865.898 1383.21 866.078 1383.46 866.17C1383.72 866.258 1383.99 866.301 1384.27 866.301C1384.49 866.301 1384.66 866.29 1384.8 866.268C1384.93 866.241 1385.04 866.219 1385.12 866.203L1385.51 867.935C1385.38 867.984 1385.2 868.033 1384.97 868.082C1384.73 868.136 1384.44 868.163 1384.08 868.163C1383.53 868.163 1383 868.046 1382.48 867.812C1381.96 867.578 1381.53 867.221 1381.19 866.742C1380.85 866.263 1380.68 865.659 1380.68 864.929V852.449ZM1388.19 868V855.455H1390.11V868H1388.19ZM1389.17 853.364C1388.79 853.364 1388.47 853.236 1388.19 852.98C1387.93 852.724 1387.79 852.416 1387.79 852.057C1387.79 851.697 1387.93 851.39 1388.19 851.134C1388.47 850.878 1388.79 850.75 1389.17 850.75C1389.54 850.75 1389.86 850.878 1390.13 851.134C1390.4 851.39 1390.54 851.697 1390.54 852.057C1390.54 852.416 1390.4 852.724 1390.13 852.98C1389.86 853.236 1389.54 853.364 1389.17 853.364ZM1398.74 868.261C1397.61 868.261 1396.61 867.992 1395.76 867.453C1394.91 866.914 1394.24 866.16 1393.77 865.19C1393.29 864.221 1393.06 863.089 1393.06 861.793C1393.06 860.486 1393.29 859.345 1393.77 858.37C1394.24 857.396 1394.91 856.639 1395.76 856.1C1396.61 855.561 1397.61 855.291 1398.74 855.291C1399.87 855.291 1400.86 855.561 1401.71 856.1C1402.57 856.639 1403.23 857.396 1403.71 858.37C1404.18 859.345 1404.42 860.486 1404.42 861.793C1404.42 863.089 1404.18 864.221 1403.71 865.19C1403.23 866.16 1402.57 866.914 1401.71 867.453C1400.86 867.992 1399.87 868.261 1398.74 868.261ZM1398.74 866.53C1399.6 866.53 1400.31 866.309 1400.86 865.868C1401.42 865.427 1401.83 864.847 1402.1 864.129C1402.36 863.41 1402.5 862.631 1402.5 861.793C1402.5 860.954 1402.36 860.173 1402.1 859.449C1401.83 858.724 1401.42 858.139 1400.86 857.692C1400.31 857.246 1399.6 857.023 1398.74 857.023C1397.88 857.023 1397.17 857.246 1396.62 857.692C1396.06 858.139 1395.65 858.724 1395.38 859.449C1395.12 860.173 1394.98 860.954 1394.98 861.793C1394.98 862.631 1395.12 863.41 1395.38 864.129C1395.65 864.847 1396.06 865.427 1396.62 865.868C1397.17 866.309 1397.88 866.53 1398.74 866.53ZM1409.29 860.453V868H1407.37V855.455H1409.23V857.415H1409.39C1409.69 856.778 1410.13 856.266 1410.73 855.879C1411.33 855.487 1412.1 855.291 1413.05 855.291C1413.9 855.291 1414.64 855.465 1415.28 855.814C1415.92 856.157 1416.41 856.68 1416.77 857.382C1417.12 858.079 1417.3 858.961 1417.3 860.028V868H1415.37V860.159C1415.37 859.174 1415.12 858.406 1414.6 857.856C1414.09 857.3 1413.39 857.023 1412.5 857.023C1411.88 857.023 1411.33 857.156 1410.85 857.423C1410.37 857.69 1409.99 858.079 1409.71 858.591C1409.43 859.103 1409.29 859.723 1409.29 860.453Z" fill="black"/>
<rect x="1629.5" y="667.5" width="146" height="63" stroke="#B6B4D0"/>
<rect x="1465.5" y="747.5" width="250" height="63" stroke="#B6B4D0"/>
<rect x="1427.5" y="666.5" width="189" height="63" stroke="#B6B4D0"/>
<path d="M1445.03 706V689.273H1447.05V696.722H1455.97V689.273H1458V706H1455.97V698.518H1447.05V706H1445.03ZM1465.48 706.294C1464.69 706.294 1463.96 706.144 1463.32 705.845C1462.67 705.54 1462.15 705.102 1461.77 704.53C1461.39 703.953 1461.2 703.256 1461.2 702.439C1461.2 701.72 1461.34 701.138 1461.63 700.691C1461.91 700.239 1462.29 699.885 1462.76 699.629C1463.24 699.373 1463.76 699.183 1464.33 699.058C1464.91 698.927 1465.49 698.823 1466.07 698.747C1466.83 698.649 1467.45 698.576 1467.92 698.527C1468.4 698.472 1468.75 698.382 1468.97 698.257C1469.19 698.132 1469.3 697.914 1469.3 697.604V697.538C1469.3 696.732 1469.08 696.106 1468.64 695.66C1468.21 695.213 1467.55 694.99 1466.66 694.99C1465.74 694.99 1465.02 695.192 1464.49 695.594C1463.97 695.997 1463.6 696.428 1463.39 696.885L1461.56 696.232C1461.89 695.469 1462.32 694.876 1462.87 694.451C1463.42 694.021 1464.02 693.721 1464.66 693.553C1465.32 693.378 1465.96 693.291 1466.59 693.291C1467 693.291 1467.46 693.34 1467.98 693.438C1468.51 693.531 1469.02 693.724 1469.51 694.018C1470 694.312 1470.41 694.756 1470.74 695.349C1471.07 695.943 1471.23 696.738 1471.23 697.734V706H1469.3V704.301H1469.21C1469.08 704.573 1468.86 704.865 1468.55 705.175C1468.25 705.485 1467.84 705.75 1467.34 705.967C1466.83 706.185 1466.21 706.294 1465.48 706.294ZM1465.78 704.562C1466.54 704.562 1467.18 704.413 1467.7 704.113C1468.23 703.814 1468.63 703.427 1468.9 702.953C1469.17 702.48 1469.3 701.982 1469.3 701.459V699.695C1469.22 699.793 1469.04 699.882 1468.76 699.964C1468.49 700.04 1468.18 700.108 1467.82 700.168C1467.46 700.223 1467.12 700.272 1466.78 700.315C1466.45 700.353 1466.18 700.386 1465.97 700.413C1465.47 700.479 1465 700.585 1464.57 700.732C1464.14 700.873 1463.79 701.089 1463.52 701.377C1463.26 701.66 1463.13 702.047 1463.13 702.537C1463.13 703.207 1463.38 703.713 1463.87 704.056C1464.37 704.394 1465.01 704.562 1465.78 704.562ZM1474.75 706V693.455H1476.61V695.349H1476.74C1476.97 694.729 1477.38 694.225 1477.98 693.838C1478.58 693.452 1479.26 693.259 1480.01 693.259C1480.15 693.259 1480.33 693.261 1480.54 693.267C1480.75 693.272 1480.91 693.28 1481.02 693.291V695.251C1480.96 695.235 1480.81 695.211 1480.57 695.178C1480.34 695.14 1480.1 695.121 1479.85 695.121C1479.24 695.121 1478.69 695.249 1478.21 695.505C1477.74 695.755 1477.36 696.104 1477.09 696.55C1476.81 696.991 1476.68 697.495 1476.68 698.061V706H1474.75ZM1483.31 706V693.455H1485.17V695.415H1485.33C1485.59 694.745 1486.02 694.225 1486.6 693.855C1487.18 693.479 1487.88 693.291 1488.7 693.291C1489.53 693.291 1490.21 693.479 1490.76 693.855C1491.32 694.225 1491.75 694.745 1492.06 695.415H1492.19C1492.51 694.767 1493 694.252 1493.64 693.871C1494.28 693.484 1495.05 693.291 1495.95 693.291C1497.07 693.291 1497.99 693.642 1498.7 694.345C1499.42 695.042 1499.77 696.128 1499.77 697.604V706H1497.85V697.604C1497.85 696.678 1497.59 696.016 1497.09 695.619C1496.58 695.221 1495.98 695.023 1495.3 695.023C1494.42 695.023 1493.73 695.29 1493.25 695.823C1492.76 696.351 1492.52 697.021 1492.52 697.832V706H1490.56V697.408C1490.56 696.694 1490.33 696.12 1489.87 695.684C1489.4 695.243 1488.81 695.023 1488.08 695.023C1487.58 695.023 1487.11 695.156 1486.67 695.423C1486.24 695.69 1485.89 696.06 1485.63 696.534C1485.37 697.002 1485.23 697.544 1485.23 698.159V706H1483.31ZM1508.39 706.261C1507.26 706.261 1506.27 705.992 1505.41 705.453C1504.56 704.914 1503.9 704.16 1503.42 703.19C1502.95 702.221 1502.71 701.089 1502.71 699.793C1502.71 698.486 1502.95 697.345 1503.42 696.37C1503.9 695.396 1504.56 694.639 1505.41 694.1C1506.27 693.561 1507.26 693.291 1508.39 693.291C1509.53 693.291 1510.52 693.561 1511.37 694.1C1512.22 694.639 1512.89 695.396 1513.36 696.37C1513.84 697.345 1514.08 698.486 1514.08 699.793C1514.08 701.089 1513.84 702.221 1513.36 703.19C1512.89 704.16 1512.22 704.914 1511.37 705.453C1510.52 705.992 1509.53 706.261 1508.39 706.261ZM1508.39 704.53C1509.25 704.53 1509.96 704.309 1510.52 703.868C1511.07 703.427 1511.48 702.847 1511.75 702.129C1512.02 701.41 1512.15 700.631 1512.15 699.793C1512.15 698.954 1512.02 698.173 1511.75 697.449C1511.48 696.724 1511.07 696.139 1510.52 695.692C1509.96 695.246 1509.25 695.023 1508.39 695.023C1507.53 695.023 1506.83 695.246 1506.27 695.692C1505.72 696.139 1505.3 696.724 1505.04 697.449C1504.77 698.173 1504.64 698.954 1504.64 699.793C1504.64 700.631 1504.77 701.41 1505.04 702.129C1505.3 702.847 1505.72 703.427 1506.27 703.868C1506.83 704.309 1507.53 704.53 1508.39 704.53ZM1518.95 698.453V706H1517.02V693.455H1518.88V695.415H1519.05C1519.34 694.778 1519.79 694.266 1520.39 693.879C1520.99 693.487 1521.76 693.291 1522.71 693.291C1523.56 693.291 1524.3 693.465 1524.94 693.814C1525.57 694.157 1526.07 694.68 1526.42 695.382C1526.78 696.079 1526.95 696.961 1526.95 698.028V706H1525.03V698.159C1525.03 697.174 1524.77 696.406 1524.26 695.856C1523.75 695.3 1523.04 695.023 1522.15 695.023C1521.54 695.023 1520.99 695.156 1520.5 695.423C1520.02 695.69 1519.64 696.079 1519.37 696.591C1519.09 697.103 1518.95 697.723 1518.95 698.453ZM1530.48 706V693.455H1532.4V706H1530.48ZM1531.46 691.364C1531.08 691.364 1530.76 691.236 1530.48 690.98C1530.22 690.724 1530.08 690.416 1530.08 690.057C1530.08 689.697 1530.22 689.39 1530.48 689.134C1530.76 688.878 1531.08 688.75 1531.46 688.75C1531.83 688.75 1532.15 688.878 1532.42 689.134C1532.69 689.39 1532.83 689.697 1532.83 690.057C1532.83 690.416 1532.69 690.724 1532.42 690.98C1532.15 691.236 1531.83 691.364 1531.46 691.364ZM1535.57 706V704.53L1542.7 695.382V695.251H1535.8V693.455H1545.18V694.99L1538.25 704.072V704.203H1545.41V706H1535.57ZM1552.07 706.294C1551.27 706.294 1550.55 706.144 1549.9 705.845C1549.26 705.54 1548.74 705.102 1548.36 704.53C1547.98 703.953 1547.79 703.256 1547.79 702.439C1547.79 701.72 1547.93 701.138 1548.21 700.691C1548.5 700.239 1548.87 699.885 1549.35 699.629C1549.82 699.373 1550.34 699.183 1550.92 699.058C1551.49 698.927 1552.07 698.823 1552.66 698.747C1553.42 698.649 1554.04 698.576 1554.51 698.527C1554.99 698.472 1555.34 698.382 1555.56 698.257C1555.78 698.132 1555.89 697.914 1555.89 697.604V697.538C1555.89 696.732 1555.67 696.106 1555.23 695.66C1554.79 695.213 1554.13 694.99 1553.24 694.99C1552.32 694.99 1551.6 695.192 1551.08 695.594C1550.56 695.997 1550.19 696.428 1549.98 696.885L1548.15 696.232C1548.47 695.469 1548.91 694.876 1549.45 694.451C1550 694.021 1550.6 693.721 1551.25 693.553C1551.9 693.378 1552.55 693.291 1553.18 693.291C1553.58 693.291 1554.04 693.34 1554.57 693.438C1555.1 693.531 1555.6 693.724 1556.09 694.018C1556.59 694.312 1557 694.756 1557.33 695.349C1557.65 695.943 1557.82 696.738 1557.82 697.734V706H1555.89V704.301H1555.79C1555.66 704.573 1555.44 704.865 1555.14 705.175C1554.83 705.485 1554.43 705.75 1553.92 705.967C1553.42 706.185 1552.8 706.294 1552.07 706.294ZM1552.36 704.562C1553.12 704.562 1553.77 704.413 1554.29 704.113C1554.82 703.814 1555.22 703.427 1555.48 702.953C1555.75 702.48 1555.89 701.982 1555.89 701.459V699.695C1555.81 699.793 1555.63 699.882 1555.35 699.964C1555.08 700.04 1554.76 700.108 1554.4 700.168C1554.05 700.223 1553.7 700.272 1553.37 700.315C1553.03 700.353 1552.77 700.386 1552.56 700.413C1552.06 700.479 1551.59 700.585 1551.15 700.732C1550.72 700.873 1550.37 701.089 1550.11 701.377C1549.85 701.66 1549.72 702.047 1549.72 702.537C1549.72 703.207 1549.96 703.713 1550.46 704.056C1550.96 704.394 1551.59 704.562 1552.36 704.562ZM1566.79 693.455V695.088H1560.29V693.455H1566.79ZM1562.19 690.449H1564.11V702.406C1564.11 702.951 1564.19 703.359 1564.35 703.631C1564.51 703.898 1564.72 704.078 1564.97 704.17C1565.23 704.258 1565.5 704.301 1565.78 704.301C1565.99 704.301 1566.17 704.29 1566.3 704.268C1566.44 704.241 1566.55 704.219 1566.63 704.203L1567.02 705.935C1566.89 705.984 1566.71 706.033 1566.47 706.082C1566.24 706.136 1565.94 706.163 1565.58 706.163C1565.04 706.163 1564.51 706.046 1563.98 705.812C1563.47 705.578 1563.04 705.221 1562.69 704.742C1562.35 704.263 1562.19 703.659 1562.19 702.929V690.449ZM1569.69 706V693.455H1571.62V706H1569.69ZM1570.67 691.364C1570.3 691.364 1569.97 691.236 1569.7 690.98C1569.43 690.724 1569.3 690.416 1569.3 690.057C1569.3 689.697 1569.43 689.39 1569.7 689.134C1569.97 688.878 1570.3 688.75 1570.67 688.75C1571.05 688.75 1571.37 688.878 1571.64 689.134C1571.91 689.39 1572.04 689.697 1572.04 690.057C1572.04 690.416 1571.91 690.724 1571.64 690.98C1571.37 691.236 1571.05 691.364 1570.67 691.364ZM1580.25 706.261C1579.11 706.261 1578.12 705.992 1577.27 705.453C1576.42 704.914 1575.75 704.16 1575.27 703.19C1574.8 702.221 1574.56 701.089 1574.56 699.793C1574.56 698.486 1574.8 697.345 1575.27 696.37C1575.75 695.396 1576.42 694.639 1577.27 694.1C1578.12 693.561 1579.11 693.291 1580.25 693.291C1581.38 693.291 1582.37 693.561 1583.22 694.1C1584.07 694.639 1584.74 695.396 1585.21 696.37C1585.69 697.345 1585.93 698.486 1585.93 699.793C1585.93 701.089 1585.69 702.221 1585.21 703.19C1584.74 704.16 1584.07 704.914 1583.22 705.453C1582.37 705.992 1581.38 706.261 1580.25 706.261ZM1580.25 704.53C1581.11 704.53 1581.81 704.309 1582.37 703.868C1582.93 703.427 1583.34 702.847 1583.6 702.129C1583.87 701.41 1584 700.631 1584 699.793C1584 698.954 1583.87 698.173 1583.6 697.449C1583.34 696.724 1582.93 696.139 1582.37 695.692C1581.81 695.246 1581.11 695.023 1580.25 695.023C1579.39 695.023 1578.68 695.246 1578.12 695.692C1577.57 696.139 1577.16 696.724 1576.89 697.449C1576.62 698.173 1576.49 698.954 1576.49 699.793C1576.49 700.631 1576.62 701.41 1576.89 702.129C1577.16 702.847 1577.57 703.427 1578.12 703.868C1578.68 704.309 1579.39 704.53 1580.25 704.53ZM1590.8 698.453V706H1588.87V693.455H1590.74V695.415H1590.9C1591.19 694.778 1591.64 694.266 1592.24 693.879C1592.84 693.487 1593.61 693.291 1594.56 693.291C1595.41 693.291 1596.15 693.465 1596.79 693.814C1597.43 694.157 1597.92 694.68 1598.27 695.382C1598.63 696.079 1598.81 696.961 1598.81 698.028V706H1596.88V698.159C1596.88 697.174 1596.62 696.406 1596.11 695.856C1595.6 695.3 1594.9 695.023 1594 695.023C1593.39 695.023 1592.84 695.156 1592.35 695.423C1591.87 695.69 1591.5 696.079 1591.22 696.591C1590.94 697.103 1590.8 697.723 1590.8 698.453Z" fill="black"/>
<path d="M1295.03 689.273H1297.44L1303.13 703.158H1303.32L1309.01 689.273H1311.43V706H1309.53V693.291H1309.37L1304.14 706H1302.31L1297.08 693.291H1296.92V706H1295.03V689.273ZM1318.92 706.294C1318.12 706.294 1317.4 706.144 1316.75 705.845C1316.11 705.54 1315.59 705.102 1315.21 704.53C1314.83 703.953 1314.64 703.256 1314.64 702.439C1314.64 701.72 1314.78 701.138 1315.06 700.691C1315.35 700.239 1315.72 699.885 1316.2 699.629C1316.67 699.373 1317.19 699.183 1317.77 699.058C1318.34 698.927 1318.92 698.823 1319.51 698.747C1320.27 698.649 1320.89 698.576 1321.36 698.527C1321.84 698.472 1322.19 698.382 1322.41 698.257C1322.63 698.132 1322.74 697.914 1322.74 697.604V697.538C1322.74 696.732 1322.52 696.106 1322.08 695.66C1321.64 695.213 1320.98 694.99 1320.09 694.99C1319.17 694.99 1318.45 695.192 1317.93 695.594C1317.41 695.997 1317.04 696.428 1316.83 696.885L1315 696.232C1315.32 695.469 1315.76 694.876 1316.3 694.451C1316.85 694.021 1317.45 693.721 1318.1 693.553C1318.75 693.378 1319.4 693.291 1320.03 693.291C1320.43 693.291 1320.89 693.34 1321.42 693.438C1321.95 693.531 1322.45 693.724 1322.94 694.018C1323.44 694.312 1323.85 694.756 1324.18 695.349C1324.5 695.943 1324.67 696.738 1324.67 697.734V706H1322.74V704.301H1322.64C1322.51 704.573 1322.29 704.865 1321.99 705.175C1321.68 705.485 1321.28 705.75 1320.77 705.967C1320.27 706.185 1319.65 706.294 1318.92 706.294ZM1319.21 704.562C1319.97 704.562 1320.62 704.413 1321.14 704.113C1321.67 703.814 1322.07 703.427 1322.33 702.953C1322.6 702.48 1322.74 701.982 1322.74 701.459V699.695C1322.66 699.793 1322.48 699.882 1322.2 699.964C1321.93 700.04 1321.61 700.108 1321.25 700.168C1320.9 700.223 1320.55 700.272 1320.22 700.315C1319.88 700.353 1319.61 700.386 1319.41 700.413C1318.91 700.479 1318.44 700.585 1318 700.732C1317.57 700.873 1317.22 701.089 1316.96 701.377C1316.7 701.66 1316.57 702.047 1316.57 702.537C1316.57 703.207 1316.81 703.713 1317.31 704.056C1317.81 704.394 1318.44 704.562 1319.21 704.562ZM1328.19 706V693.455H1330.05V695.349H1330.18C1330.41 694.729 1330.82 694.225 1331.42 693.838C1332.02 693.452 1332.69 693.259 1333.45 693.259C1333.59 693.259 1333.76 693.261 1333.98 693.267C1334.19 693.272 1334.35 693.28 1334.46 693.291V695.251C1334.39 695.235 1334.24 695.211 1334.01 695.178C1333.78 695.14 1333.54 695.121 1333.28 695.121C1332.67 695.121 1332.13 695.249 1331.65 695.505C1331.18 695.755 1330.8 696.104 1330.52 696.55C1330.25 696.991 1330.11 697.495 1330.11 698.061V706H1328.19ZM1336.74 706V693.455H1338.61V695.349H1338.74C1338.97 694.729 1339.38 694.225 1339.98 693.838C1340.58 693.452 1341.25 693.259 1342 693.259C1342.15 693.259 1342.32 693.261 1342.53 693.267C1342.75 693.272 1342.91 693.28 1343.02 693.291V695.251C1342.95 695.235 1342.8 695.211 1342.57 695.178C1342.34 695.14 1342.1 695.121 1341.84 695.121C1341.23 695.121 1340.69 695.249 1340.21 695.505C1339.73 695.755 1339.36 696.104 1339.08 696.55C1338.81 696.991 1338.67 697.495 1338.67 698.061V706H1336.74ZM1345.3 706V693.455H1347.23V706H1345.3ZM1346.28 691.364C1345.91 691.364 1345.58 691.236 1345.31 690.98C1345.04 690.724 1344.91 690.416 1344.91 690.057C1344.91 689.697 1345.04 689.39 1345.31 689.134C1345.58 688.878 1345.91 688.75 1346.28 688.75C1346.66 688.75 1346.98 688.878 1347.25 689.134C1347.52 689.39 1347.65 689.697 1347.65 690.057C1347.65 690.416 1347.52 690.724 1347.25 690.98C1346.98 691.236 1346.66 691.364 1346.28 691.364ZM1354.45 706.294C1353.66 706.294 1352.93 706.144 1352.29 705.845C1351.64 705.54 1351.12 705.102 1350.74 704.53C1350.36 703.953 1350.17 703.256 1350.17 702.439C1350.17 701.72 1350.31 701.138 1350.6 700.691C1350.88 700.239 1351.26 699.885 1351.73 699.629C1352.2 699.373 1352.73 699.183 1353.3 699.058C1353.88 698.927 1354.46 698.823 1355.04 698.747C1355.8 698.649 1356.42 698.576 1356.89 698.527C1357.37 698.472 1357.72 698.382 1357.94 698.257C1358.16 698.132 1358.27 697.914 1358.27 697.604V697.538C1358.27 696.732 1358.05 696.106 1357.61 695.66C1357.18 695.213 1356.51 694.99 1355.63 694.99C1354.71 694.99 1353.99 695.192 1353.46 695.594C1352.94 695.997 1352.57 696.428 1352.36 696.885L1350.53 696.232C1350.86 695.469 1351.29 694.876 1351.84 694.451C1352.39 694.021 1352.99 693.721 1353.63 693.553C1354.29 693.378 1354.93 693.291 1355.56 693.291C1355.96 693.291 1356.43 693.34 1356.95 693.438C1357.48 693.531 1357.99 693.724 1358.48 694.018C1358.97 694.312 1359.38 694.756 1359.71 695.349C1360.04 695.943 1360.2 696.738 1360.2 697.734V706H1358.27V704.301H1358.18C1358.04 704.573 1357.83 704.865 1357.52 705.175C1357.22 705.485 1356.81 705.75 1356.31 705.967C1355.8 706.185 1355.18 706.294 1354.45 706.294ZM1354.75 704.562C1355.51 704.562 1356.15 704.413 1356.67 704.113C1357.2 703.814 1357.6 703.427 1357.87 702.953C1358.14 702.48 1358.27 701.982 1358.27 701.459V699.695C1358.19 699.793 1358.01 699.882 1357.73 699.964C1357.46 700.04 1357.15 700.108 1356.79 700.168C1356.43 700.223 1356.09 700.272 1355.75 700.315C1355.42 700.353 1355.15 700.386 1354.94 700.413C1354.44 700.479 1353.97 700.585 1353.54 700.732C1353.11 700.873 1352.76 701.089 1352.49 701.377C1352.23 701.66 1352.1 702.047 1352.1 702.537C1352.1 703.207 1352.35 703.713 1352.84 704.056C1353.34 704.394 1353.98 704.562 1354.75 704.562ZM1368.78 710.966C1367.85 710.966 1367.05 710.846 1366.38 710.607C1365.71 710.372 1365.15 710.062 1364.71 709.675C1364.27 709.294 1363.92 708.886 1363.65 708.45L1365.19 707.372C1365.36 707.601 1365.58 707.862 1365.85 708.156C1366.12 708.456 1366.48 708.714 1366.95 708.932C1367.41 709.155 1368.03 709.267 1368.78 709.267C1369.8 709.267 1370.63 709.022 1371.29 708.532C1371.95 708.042 1372.28 707.274 1372.28 706.229V703.68H1372.12C1371.97 703.909 1371.77 704.192 1371.51 704.53C1371.26 704.862 1370.89 705.159 1370.4 705.42C1369.92 705.676 1369.27 705.804 1368.46 705.804C1367.44 705.804 1366.53 705.564 1365.73 705.085C1364.93 704.606 1364.29 703.909 1363.83 702.994C1363.36 702.08 1363.13 700.969 1363.13 699.662C1363.13 698.377 1363.36 697.258 1363.81 696.305C1364.26 695.347 1364.89 694.606 1365.7 694.083C1366.5 693.555 1367.43 693.291 1368.49 693.291C1369.31 693.291 1369.95 693.427 1370.43 693.7C1370.92 693.966 1371.29 694.271 1371.54 694.614C1371.81 694.952 1372.01 695.23 1372.15 695.447H1372.34V693.455H1374.21V706.359C1374.21 707.438 1373.96 708.314 1373.47 708.989C1372.99 709.67 1372.33 710.168 1371.51 710.484C1370.69 710.805 1369.79 710.966 1368.78 710.966ZM1368.72 704.072C1369.49 704.072 1370.14 703.895 1370.68 703.542C1371.21 703.188 1371.62 702.679 1371.9 702.014C1372.17 701.35 1372.31 700.555 1372.31 699.629C1372.31 698.725 1372.18 697.928 1371.9 697.236C1371.63 696.545 1371.23 696.003 1370.69 695.611C1370.16 695.219 1369.5 695.023 1368.72 695.023C1367.9 695.023 1367.22 695.23 1366.68 695.643C1366.14 696.057 1365.73 696.613 1365.46 697.31C1365.19 698.007 1365.06 698.78 1365.06 699.629C1365.06 700.5 1365.19 701.271 1365.47 701.941C1365.74 702.605 1366.15 703.128 1366.69 703.509C1367.24 703.885 1367.91 704.072 1368.72 704.072ZM1382.99 706.261C1381.79 706.261 1380.74 705.995 1379.87 705.461C1379 704.922 1378.32 704.17 1377.85 703.207C1377.38 702.237 1377.15 701.11 1377.15 699.825C1377.15 698.54 1377.38 697.408 1377.85 696.428C1378.32 695.442 1378.98 694.674 1379.83 694.124C1380.68 693.569 1381.67 693.291 1382.8 693.291C1383.45 693.291 1384.1 693.4 1384.73 693.618C1385.37 693.836 1385.95 694.19 1386.47 694.68C1387 695.164 1387.41 695.807 1387.72 696.607C1388.03 697.408 1388.19 698.393 1388.19 699.564V700.381H1378.52V698.714H1386.23C1386.23 698.007 1386.09 697.375 1385.8 696.82C1385.53 696.264 1385.13 695.826 1384.61 695.505C1384.1 695.183 1383.5 695.023 1382.8 695.023C1382.03 695.023 1381.37 695.213 1380.81 695.594C1380.25 695.97 1379.82 696.46 1379.52 697.065C1379.22 697.669 1379.07 698.317 1379.07 699.009V700.119C1379.07 701.067 1379.24 701.87 1379.56 702.529C1379.9 703.182 1380.36 703.68 1380.94 704.023C1381.53 704.361 1382.22 704.53 1382.99 704.53C1383.5 704.53 1383.96 704.459 1384.37 704.317C1384.78 704.17 1385.14 703.953 1385.44 703.664C1385.74 703.37 1385.97 703.005 1386.13 702.57L1387.99 703.092C1387.8 703.724 1387.47 704.279 1387.01 704.759C1386.54 705.232 1385.97 705.603 1385.29 705.869C1384.61 706.131 1383.84 706.261 1382.99 706.261Z" fill="black"/>
<path d="M1664.46 694.5C1664.28 693.95 1664.04 693.457 1663.75 693.022C1663.46 692.581 1663.12 692.205 1662.71 691.895C1662.31 691.584 1661.86 691.347 1661.36 691.184C1660.85 691.021 1660.29 690.939 1659.69 690.939C1658.7 690.939 1657.8 691.195 1656.99 691.707C1656.18 692.219 1655.53 692.973 1655.05 693.969C1654.57 694.966 1654.33 696.188 1654.33 697.636C1654.33 699.085 1654.57 700.307 1655.06 701.304C1655.54 702.3 1656.2 703.054 1657.03 703.566C1657.86 704.078 1658.79 704.334 1659.82 704.334C1660.78 704.334 1661.62 704.13 1662.35 703.721C1663.09 703.307 1663.66 702.725 1664.07 701.973C1664.48 701.217 1664.69 700.326 1664.69 699.303L1665.31 699.433H1660.28V697.636H1666.65V699.433C1666.65 700.811 1666.36 702.009 1665.77 703.027C1665.18 704.045 1664.38 704.835 1663.35 705.396C1662.33 705.951 1661.15 706.229 1659.82 706.229C1658.34 706.229 1657.04 705.88 1655.92 705.183C1654.8 704.486 1653.93 703.495 1653.3 702.21C1652.68 700.925 1652.37 699.401 1652.37 697.636C1652.37 696.313 1652.55 695.123 1652.9 694.067C1653.26 693.005 1653.77 692.101 1654.42 691.355C1655.08 690.609 1655.85 690.038 1656.74 689.64C1657.63 689.243 1658.62 689.044 1659.69 689.044C1660.57 689.044 1661.39 689.177 1662.16 689.444C1662.92 689.706 1663.61 690.079 1664.21 690.563C1664.81 691.042 1665.32 691.617 1665.72 692.287C1666.12 692.951 1666.4 693.689 1666.55 694.5H1664.46ZM1677.76 700.871V693.455H1679.69V706H1677.76V703.876H1677.63C1677.34 704.513 1676.88 705.055 1676.26 705.502C1675.64 705.943 1674.86 706.163 1673.91 706.163C1673.12 706.163 1672.43 705.992 1671.82 705.649C1671.21 705.3 1670.73 704.778 1670.38 704.081C1670.03 703.378 1669.86 702.493 1669.86 701.426V693.455H1671.78V701.295C1671.78 702.21 1672.04 702.94 1672.55 703.484C1673.07 704.029 1673.73 704.301 1674.53 704.301C1675.01 704.301 1675.5 704.179 1675.99 703.934C1676.49 703.689 1676.91 703.313 1677.25 702.806C1677.59 702.3 1677.76 701.655 1677.76 700.871ZM1683.22 706V693.455H1685.15V706H1683.22ZM1684.2 691.364C1683.83 691.364 1683.5 691.236 1683.23 690.98C1682.96 690.724 1682.83 690.416 1682.83 690.057C1682.83 689.697 1682.96 689.39 1683.23 689.134C1683.5 688.878 1683.83 688.75 1684.2 688.75C1684.58 688.75 1684.9 688.878 1685.17 689.134C1685.44 689.39 1685.57 689.697 1685.57 690.057C1685.57 690.416 1685.44 690.724 1685.17 690.98C1684.9 691.236 1684.58 691.364 1684.2 691.364ZM1693.42 706.261C1692.37 706.261 1691.45 705.997 1690.65 705.469C1689.85 704.935 1689.22 704.184 1688.77 703.215C1688.32 702.24 1688.09 701.089 1688.09 699.76C1688.09 698.442 1688.32 697.299 1688.77 696.33C1689.22 695.36 1689.85 694.612 1690.66 694.083C1691.46 693.555 1692.39 693.291 1693.45 693.291C1694.27 693.291 1694.91 693.427 1695.38 693.7C1695.86 693.966 1696.23 694.271 1696.48 694.614C1696.74 694.952 1696.93 695.23 1697.08 695.447H1697.24V689.273H1699.17V706H1697.3V704.072H1697.08C1696.93 704.301 1696.73 704.59 1696.47 704.938C1696.21 705.281 1695.84 705.589 1695.35 705.861C1694.87 706.128 1694.22 706.261 1693.42 706.261ZM1693.68 704.53C1694.45 704.53 1695.1 704.328 1695.64 703.925C1696.17 703.517 1696.58 702.953 1696.86 702.235C1697.13 701.511 1697.27 700.675 1697.27 699.727C1697.27 698.791 1697.14 697.971 1696.86 697.269C1696.59 696.561 1696.19 696.011 1695.65 695.619C1695.12 695.221 1694.46 695.023 1693.68 695.023C1692.86 695.023 1692.18 695.232 1691.64 695.652C1691.1 696.065 1690.69 696.629 1690.42 697.342C1690.15 698.05 1690.02 698.845 1690.02 699.727C1690.02 700.62 1690.15 701.432 1690.43 702.161C1690.7 702.885 1691.11 703.463 1691.65 703.893C1692.2 704.317 1692.87 704.53 1693.68 704.53ZM1706.66 706.294C1705.86 706.294 1705.14 706.144 1704.49 705.845C1703.84 705.54 1703.33 705.102 1702.95 704.53C1702.57 703.953 1702.38 703.256 1702.38 702.439C1702.38 701.72 1702.52 701.138 1702.8 700.691C1703.08 700.239 1703.46 699.885 1703.94 699.629C1704.41 699.373 1704.93 699.183 1705.5 699.058C1706.08 698.927 1706.66 698.823 1707.24 698.747C1708.01 698.649 1708.62 698.576 1709.1 698.527C1709.58 698.472 1709.93 698.382 1710.14 698.257C1710.37 698.132 1710.48 697.914 1710.48 697.604V697.538C1710.48 696.732 1710.26 696.106 1709.82 695.66C1709.38 695.213 1708.72 694.99 1707.83 694.99C1706.91 694.99 1706.19 695.192 1705.67 695.594C1705.15 695.997 1704.78 696.428 1704.57 696.885L1702.74 696.232C1703.06 695.469 1703.5 694.876 1704.04 694.451C1704.59 694.021 1705.19 693.721 1705.84 693.553C1706.49 693.378 1707.14 693.291 1707.77 693.291C1708.17 693.291 1708.63 693.34 1709.16 693.438C1709.68 693.531 1710.19 693.724 1710.68 694.018C1711.18 694.312 1711.59 694.756 1711.92 695.349C1712.24 695.943 1712.41 696.738 1712.41 697.734V706H1710.48V704.301H1710.38C1710.25 704.573 1710.03 704.865 1709.73 705.175C1709.42 705.485 1709.02 705.75 1708.51 705.967C1708 706.185 1707.39 706.294 1706.66 706.294ZM1706.95 704.562C1707.71 704.562 1708.36 704.413 1708.88 704.113C1709.41 703.814 1709.8 703.427 1710.07 702.953C1710.34 702.48 1710.48 701.982 1710.48 701.459V699.695C1710.4 699.793 1710.22 699.882 1709.94 699.964C1709.67 700.04 1709.35 700.108 1708.99 700.168C1708.64 700.223 1708.29 700.272 1707.95 700.315C1707.62 700.353 1707.35 700.386 1707.15 700.413C1706.65 700.479 1706.18 700.585 1705.74 700.732C1705.31 700.873 1704.96 701.089 1704.7 701.377C1704.43 701.66 1704.3 702.047 1704.3 702.537C1704.3 703.207 1704.55 703.713 1705.05 704.056C1705.55 704.394 1706.18 704.562 1706.95 704.562ZM1717.85 698.453V706H1715.92V693.455H1717.79V695.415H1717.95C1718.24 694.778 1718.69 694.266 1719.29 693.879C1719.89 693.487 1720.66 693.291 1721.61 693.291C1722.46 693.291 1723.2 693.465 1723.84 693.814C1724.48 694.157 1724.97 694.68 1725.33 695.382C1725.68 696.079 1725.86 696.961 1725.86 698.028V706H1723.93V698.159C1723.93 697.174 1723.67 696.406 1723.16 695.856C1722.65 695.3 1721.95 695.023 1721.05 695.023C1720.44 695.023 1719.89 695.156 1719.4 695.423C1718.92 695.69 1718.55 696.079 1718.27 696.591C1717.99 697.103 1717.85 697.723 1717.85 698.453ZM1734.48 706.261C1733.3 706.261 1732.29 705.984 1731.44 705.428C1730.59 704.873 1729.93 704.108 1729.48 703.133C1729.02 702.158 1728.79 701.045 1728.79 699.793C1728.79 698.518 1729.02 697.394 1729.49 696.419C1729.97 695.439 1730.63 694.674 1731.47 694.124C1732.32 693.569 1733.31 693.291 1734.44 693.291C1735.32 693.291 1736.12 693.455 1736.83 693.781C1737.54 694.108 1738.12 694.565 1738.57 695.153C1739.02 695.741 1739.3 696.428 1739.41 697.212H1737.48C1737.33 696.64 1737.01 696.134 1736.5 695.692C1736 695.246 1735.32 695.023 1734.48 695.023C1733.72 695.023 1733.06 695.219 1732.5 695.611C1731.94 695.997 1731.5 696.545 1731.18 697.252C1730.87 697.955 1730.72 698.78 1730.72 699.727C1730.72 700.696 1730.87 701.54 1731.18 702.259C1731.49 702.978 1731.92 703.536 1732.48 703.934C1733.05 704.331 1733.71 704.53 1734.48 704.53C1734.98 704.53 1735.43 704.443 1735.84 704.268C1736.25 704.094 1736.59 703.844 1736.88 703.517C1737.16 703.19 1737.36 702.798 1737.48 702.341H1739.41C1739.3 703.081 1739.03 703.748 1738.6 704.342C1738.17 704.93 1737.61 705.398 1736.91 705.747C1736.21 706.09 1735.4 706.261 1734.48 706.261ZM1747.49 706.261C1746.28 706.261 1745.23 705.995 1744.36 705.461C1743.49 704.922 1742.81 704.17 1742.34 703.207C1741.87 702.237 1741.64 701.11 1741.64 699.825C1741.64 698.54 1741.87 697.408 1742.34 696.428C1742.81 695.442 1743.47 694.674 1744.32 694.124C1745.17 693.569 1746.16 693.291 1747.29 693.291C1747.94 693.291 1748.59 693.4 1749.23 693.618C1749.86 693.836 1750.44 694.19 1750.97 694.68C1751.49 695.164 1751.9 695.807 1752.22 696.607C1752.53 697.408 1752.68 698.393 1752.68 699.564V700.381H1743.01V698.714H1750.72C1750.72 698.007 1750.58 697.375 1750.3 696.82C1750.02 696.264 1749.62 695.826 1749.1 695.505C1748.59 695.183 1747.99 695.023 1747.29 695.023C1746.52 695.023 1745.86 695.213 1745.3 695.594C1744.74 695.97 1744.31 696.46 1744.01 697.065C1743.72 697.669 1743.57 698.317 1743.57 699.009V700.119C1743.57 701.067 1743.73 701.87 1744.06 702.529C1744.39 703.182 1744.85 703.68 1745.44 704.023C1746.02 704.361 1746.71 704.53 1747.49 704.53C1747.99 704.53 1748.45 704.459 1748.86 704.317C1749.27 704.17 1749.63 703.953 1749.93 703.664C1750.23 703.37 1750.46 703.005 1750.62 702.57L1752.48 703.092C1752.29 703.724 1751.96 704.279 1751.5 704.759C1751.03 705.232 1750.46 705.603 1749.78 705.869C1749.1 706.131 1748.34 706.261 1747.49 706.261Z" fill="black"/>
<path d="M1492.19 787H1487.03V770.273H1492.42C1494.04 770.273 1495.43 770.608 1496.58 771.277C1497.74 771.942 1498.62 772.897 1499.24 774.144C1499.85 775.386 1500.16 776.872 1500.16 778.604C1500.16 780.346 1499.85 781.846 1499.23 783.104C1498.61 784.356 1497.7 785.32 1496.52 785.995C1495.33 786.665 1493.89 787 1492.19 787ZM1489.05 785.203H1492.06C1493.44 785.203 1494.59 784.936 1495.5 784.403C1496.4 783.869 1497.08 783.109 1497.53 782.124C1497.98 781.138 1498.2 779.965 1498.2 778.604C1498.2 777.253 1497.98 776.091 1497.54 775.116C1497.1 774.136 1496.44 773.385 1495.56 772.862C1494.68 772.334 1493.59 772.07 1492.29 772.07H1489.05V785.203ZM1506.99 787.294C1506.19 787.294 1505.47 787.144 1504.82 786.845C1504.17 786.54 1503.66 786.102 1503.28 785.53C1502.9 784.953 1502.71 784.256 1502.71 783.439C1502.71 782.72 1502.85 782.138 1503.13 781.691C1503.42 781.239 1503.79 780.885 1504.27 780.629C1504.74 780.373 1505.26 780.183 1505.84 780.058C1506.41 779.927 1506.99 779.823 1507.58 779.747C1508.34 779.649 1508.96 779.576 1509.43 779.527C1509.91 779.472 1510.26 779.382 1510.47 779.257C1510.7 779.132 1510.81 778.914 1510.81 778.604V778.538C1510.81 777.732 1510.59 777.106 1510.15 776.66C1509.71 776.213 1509.05 775.99 1508.16 775.99C1507.24 775.99 1506.52 776.192 1506 776.594C1505.48 776.997 1505.11 777.428 1504.9 777.885L1503.07 777.232C1503.39 776.469 1503.83 775.876 1504.37 775.451C1504.92 775.021 1505.52 774.721 1506.17 774.553C1506.82 774.378 1507.47 774.291 1508.1 774.291C1508.5 774.291 1508.96 774.34 1509.49 774.438C1510.01 774.531 1510.52 774.724 1511.01 775.018C1511.51 775.312 1511.92 775.756 1512.25 776.349C1512.57 776.943 1512.74 777.738 1512.74 778.734V787H1510.81V785.301H1510.71C1510.58 785.573 1510.36 785.865 1510.06 786.175C1509.75 786.485 1509.35 786.75 1508.84 786.967C1508.33 787.185 1507.72 787.294 1506.99 787.294ZM1507.28 785.562C1508.04 785.562 1508.69 785.413 1509.21 785.113C1509.74 784.814 1510.13 784.427 1510.4 783.953C1510.67 783.48 1510.81 782.982 1510.81 782.459V780.695C1510.73 780.793 1510.55 780.882 1510.27 780.964C1510 781.04 1509.68 781.108 1509.32 781.168C1508.97 781.223 1508.62 781.272 1508.29 781.315C1507.95 781.353 1507.68 781.386 1507.48 781.413C1506.98 781.479 1506.51 781.585 1506.07 781.732C1505.64 781.873 1505.29 782.089 1505.03 782.377C1504.77 782.66 1504.63 783.047 1504.63 783.537C1504.63 784.207 1504.88 784.713 1505.38 785.056C1505.88 785.394 1506.51 785.562 1507.28 785.562ZM1521.71 774.455V776.088H1515.21V774.455H1521.71ZM1517.1 771.449H1519.03V783.406C1519.03 783.951 1519.11 784.359 1519.27 784.631C1519.43 784.898 1519.64 785.078 1519.89 785.17C1520.15 785.258 1520.42 785.301 1520.7 785.301C1520.91 785.301 1521.09 785.29 1521.22 785.268C1521.36 785.241 1521.47 785.219 1521.55 785.203L1521.94 786.935C1521.81 786.984 1521.63 787.033 1521.39 787.082C1521.16 787.136 1520.86 787.163 1520.5 787.163C1519.96 787.163 1519.42 787.046 1518.9 786.812C1518.38 786.578 1517.95 786.221 1517.61 785.742C1517.27 785.263 1517.1 784.659 1517.1 783.929V771.449ZM1529.74 787.261C1528.53 787.261 1527.48 786.995 1526.61 786.461C1525.74 785.922 1525.06 785.17 1524.59 784.207C1524.12 783.237 1523.89 782.11 1523.89 780.825C1523.89 779.54 1524.12 778.408 1524.59 777.428C1525.06 776.442 1525.72 775.674 1526.57 775.124C1527.42 774.569 1528.41 774.291 1529.54 774.291C1530.19 774.291 1530.84 774.4 1531.48 774.618C1532.11 774.836 1532.69 775.19 1533.22 775.68C1533.74 776.164 1534.15 776.807 1534.47 777.607C1534.78 778.408 1534.93 779.393 1534.93 780.564V781.381H1525.26V779.714H1532.97C1532.97 779.007 1532.83 778.375 1532.55 777.82C1532.27 777.264 1531.87 776.826 1531.35 776.505C1530.84 776.183 1530.24 776.023 1529.54 776.023C1528.77 776.023 1528.11 776.213 1527.55 776.594C1526.99 776.97 1526.56 777.46 1526.26 778.065C1525.97 778.669 1525.82 779.317 1525.82 780.009V781.119C1525.82 782.067 1525.98 782.87 1526.31 783.529C1526.64 784.182 1527.1 784.68 1527.69 785.023C1528.27 785.361 1528.96 785.53 1529.74 785.53C1530.24 785.53 1530.7 785.459 1531.11 785.317C1531.52 785.17 1531.88 784.953 1532.18 784.664C1532.48 784.37 1532.71 784.005 1532.87 783.57L1534.73 784.092C1534.54 784.724 1534.21 785.279 1533.75 785.759C1533.28 786.232 1532.71 786.603 1532.03 786.869C1531.35 787.131 1530.59 787.261 1529.74 787.261ZM1545.28 787H1543.16L1549.3 770.273H1551.39L1557.53 787H1555.41L1550.41 772.919H1550.28L1545.28 787ZM1546.06 780.466H1554.62V782.263H1546.06V780.466ZM1559.87 787V774.455H1561.74V776.349H1561.87C1562.1 775.729 1562.51 775.225 1563.11 774.838C1563.71 774.452 1564.38 774.259 1565.13 774.259C1565.28 774.259 1565.45 774.261 1565.67 774.267C1565.88 774.272 1566.04 774.28 1566.15 774.291V776.251C1566.08 776.235 1565.93 776.211 1565.7 776.178C1565.47 776.14 1565.23 776.121 1564.97 776.121C1564.36 776.121 1563.82 776.249 1563.34 776.505C1562.86 776.755 1562.49 777.104 1562.21 777.55C1561.94 777.991 1561.8 778.495 1561.8 779.061V787H1559.87ZM1568.43 787V774.455H1570.29V776.349H1570.43C1570.65 775.729 1571.07 775.225 1571.67 774.838C1572.27 774.452 1572.94 774.259 1573.69 774.259C1573.83 774.259 1574.01 774.261 1574.22 774.267C1574.44 774.272 1574.6 774.28 1574.7 774.291V776.251C1574.64 776.235 1574.49 776.211 1574.26 776.178C1574.03 776.14 1573.78 776.121 1573.53 776.121C1572.92 776.121 1572.37 776.249 1571.9 776.505C1571.42 776.755 1571.05 777.104 1570.77 777.55C1570.5 777.991 1570.36 778.495 1570.36 779.061V787H1568.43ZM1580.68 787.294C1579.89 787.294 1579.17 787.144 1578.52 786.845C1577.87 786.54 1577.35 786.102 1576.97 785.53C1576.59 784.953 1576.4 784.256 1576.4 783.439C1576.4 782.72 1576.54 782.138 1576.83 781.691C1577.11 781.239 1577.49 780.885 1577.96 780.629C1578.44 780.373 1578.96 780.183 1579.53 780.058C1580.11 779.927 1580.69 779.823 1581.27 779.747C1582.03 779.649 1582.65 779.576 1583.12 779.527C1583.6 779.472 1583.95 779.382 1584.17 779.257C1584.39 779.132 1584.5 778.914 1584.5 778.604V778.538C1584.5 777.732 1584.28 777.106 1583.84 776.66C1583.41 776.213 1582.75 775.99 1581.86 775.99C1580.94 775.99 1580.22 776.192 1579.69 776.594C1579.17 776.997 1578.8 777.428 1578.59 777.885L1576.76 777.232C1577.09 776.469 1577.52 775.876 1578.07 775.451C1578.62 775.021 1579.22 774.721 1579.86 774.553C1580.52 774.378 1581.16 774.291 1581.79 774.291C1582.2 774.291 1582.66 774.34 1583.18 774.438C1583.71 774.531 1584.22 774.724 1584.71 775.018C1585.2 775.312 1585.61 775.756 1585.94 776.349C1586.27 776.943 1586.43 777.738 1586.43 778.734V787H1584.5V785.301H1584.41C1584.28 785.573 1584.06 785.865 1583.75 786.175C1583.45 786.485 1583.04 786.75 1582.54 786.967C1582.03 787.185 1581.41 787.294 1580.68 787.294ZM1580.98 785.562C1581.74 785.562 1582.38 785.413 1582.9 785.113C1583.43 784.814 1583.83 784.427 1584.1 783.953C1584.37 783.48 1584.5 782.982 1584.5 782.459V780.695C1584.42 780.793 1584.24 780.882 1583.96 780.964C1583.69 781.04 1583.38 781.108 1583.02 781.168C1582.66 781.223 1582.32 781.272 1581.98 781.315C1581.65 781.353 1581.38 781.386 1581.17 781.413C1580.67 781.479 1580.2 781.585 1579.77 781.732C1579.34 781.873 1578.99 782.089 1578.72 782.377C1578.46 782.66 1578.33 783.047 1578.33 783.537C1578.33 784.207 1578.58 784.713 1579.07 785.056C1579.57 785.394 1580.21 785.562 1580.98 785.562ZM1591.88 779.453V787H1589.95V774.455H1591.81V776.415H1591.98C1592.27 775.778 1592.72 775.266 1593.31 774.879C1593.91 774.487 1594.69 774.291 1595.63 774.291C1596.48 774.291 1597.23 774.465 1597.86 774.814C1598.5 775.157 1599 775.68 1599.35 776.382C1599.7 777.079 1599.88 777.961 1599.88 779.028V787H1597.95V779.159C1597.95 778.174 1597.7 777.406 1597.19 776.856C1596.67 776.3 1595.97 776.023 1595.08 776.023C1594.46 776.023 1593.91 776.156 1593.43 776.423C1592.95 776.69 1592.57 777.079 1592.29 777.591C1592.02 778.103 1591.88 778.723 1591.88 779.453ZM1608.47 791.966C1607.54 791.966 1606.74 791.846 1606.07 791.607C1605.4 791.372 1604.84 791.062 1604.39 790.675C1603.95 790.294 1603.6 789.886 1603.34 789.45L1604.87 788.372C1605.05 788.601 1605.27 788.862 1605.54 789.156C1605.8 789.456 1606.17 789.714 1606.63 789.932C1607.1 790.155 1607.71 790.267 1608.47 790.267C1609.48 790.267 1610.32 790.022 1610.98 789.532C1611.63 789.042 1611.96 788.274 1611.96 787.229V784.68H1611.8C1611.66 784.909 1611.46 785.192 1611.2 785.53C1610.94 785.862 1610.57 786.159 1610.08 786.42C1609.61 786.676 1608.96 786.804 1608.14 786.804C1607.13 786.804 1606.22 786.564 1605.41 786.085C1604.61 785.606 1603.98 784.909 1603.51 783.994C1603.05 783.08 1602.82 781.969 1602.82 780.662C1602.82 779.377 1603.04 778.258 1603.49 777.305C1603.95 776.347 1604.57 775.606 1605.38 775.083C1606.19 774.555 1607.12 774.291 1608.17 774.291C1608.99 774.291 1609.64 774.427 1610.12 774.7C1610.6 774.966 1610.97 775.271 1611.23 775.614C1611.49 775.952 1611.69 776.23 1611.83 776.447H1612.03V774.455H1613.89V787.359C1613.89 788.438 1613.65 789.314 1613.16 789.989C1612.67 790.67 1612.02 791.168 1611.2 791.484C1610.38 791.805 1609.47 791.966 1608.47 791.966ZM1608.4 785.072C1609.18 785.072 1609.83 784.895 1610.36 784.542C1610.9 784.188 1611.3 783.679 1611.58 783.014C1611.86 782.35 1612 781.555 1612 780.629C1612 779.725 1611.86 778.928 1611.59 778.236C1611.32 777.545 1610.91 777.003 1610.38 776.611C1609.85 776.219 1609.19 776.023 1608.4 776.023C1607.59 776.023 1606.91 776.23 1606.36 776.643C1605.82 777.057 1605.42 777.613 1605.14 778.31C1604.88 779.007 1604.74 779.78 1604.74 780.629C1604.74 781.5 1604.88 782.271 1605.15 782.941C1605.43 783.605 1605.84 784.128 1606.38 784.509C1606.92 784.885 1607.6 785.072 1608.4 785.072ZM1622.68 787.261C1621.47 787.261 1620.43 786.995 1619.55 786.461C1618.68 785.922 1618.01 785.17 1617.53 784.207C1617.07 783.237 1616.83 782.11 1616.83 780.825C1616.83 779.54 1617.07 778.408 1617.53 777.428C1618.01 776.442 1618.67 775.674 1619.51 775.124C1620.36 774.569 1621.35 774.291 1622.48 774.291C1623.14 774.291 1623.78 774.4 1624.42 774.618C1625.06 774.836 1625.64 775.19 1626.16 775.68C1626.68 776.164 1627.1 776.807 1627.41 777.607C1627.72 778.408 1627.87 779.393 1627.87 780.564V781.381H1618.2V779.714H1625.91C1625.91 779.007 1625.77 778.375 1625.49 777.82C1625.21 777.264 1624.81 776.826 1624.3 776.505C1623.78 776.183 1623.18 776.023 1622.48 776.023C1621.72 776.023 1621.05 776.213 1620.49 776.594C1619.94 776.97 1619.51 777.46 1619.21 778.065C1618.91 778.669 1618.76 779.317 1618.76 780.009V781.119C1618.76 782.067 1618.92 782.87 1619.25 783.529C1619.58 784.182 1620.04 784.68 1620.63 785.023C1621.22 785.361 1621.9 785.53 1622.68 785.53C1623.19 785.53 1623.64 785.459 1624.05 785.317C1624.47 785.17 1624.82 784.953 1625.12 784.664C1625.42 784.37 1625.65 784.005 1625.82 783.57L1627.68 784.092C1627.48 784.724 1627.15 785.279 1626.69 785.759C1626.23 786.232 1625.66 786.603 1624.97 786.869C1624.29 787.131 1623.53 787.261 1622.68 787.261ZM1630.81 787V774.455H1632.67V776.415H1632.83C1633.09 775.745 1633.52 775.225 1634.1 774.855C1634.68 774.479 1635.38 774.291 1636.2 774.291C1637.02 774.291 1637.71 774.479 1638.26 774.855C1638.82 775.225 1639.25 775.745 1639.56 776.415H1639.69C1640.01 775.767 1640.5 775.252 1641.14 774.871C1641.78 774.484 1642.55 774.291 1643.45 774.291C1644.57 774.291 1645.49 774.642 1646.2 775.345C1646.92 776.042 1647.27 777.128 1647.27 778.604V787H1645.34V778.604C1645.34 777.678 1645.09 777.016 1644.58 776.619C1644.08 776.221 1643.48 776.023 1642.8 776.023C1641.91 776.023 1641.23 776.29 1640.75 776.823C1640.26 777.351 1640.02 778.021 1640.02 778.832V787H1638.06V778.408C1638.06 777.694 1637.83 777.12 1637.36 776.684C1636.9 776.243 1636.31 776.023 1635.58 776.023C1635.08 776.023 1634.61 776.156 1634.17 776.423C1633.74 776.69 1633.39 777.06 1633.13 777.534C1632.86 778.002 1632.73 778.544 1632.73 779.159V787H1630.81ZM1656.06 787.261C1654.85 787.261 1653.8 786.995 1652.93 786.461C1652.06 785.922 1651.38 785.17 1650.91 784.207C1650.44 783.237 1650.21 782.11 1650.21 780.825C1650.21 779.54 1650.44 778.408 1650.91 777.428C1651.38 776.442 1652.04 775.674 1652.89 775.124C1653.74 774.569 1654.73 774.291 1655.86 774.291C1656.51 774.291 1657.16 774.4 1657.8 774.618C1658.43 774.836 1659.01 775.19 1659.54 775.68C1660.06 776.164 1660.48 776.807 1660.79 777.607C1661.1 778.408 1661.25 779.393 1661.25 780.564V781.381H1651.58V779.714H1659.29C1659.29 779.007 1659.15 778.375 1658.87 777.82C1658.59 777.264 1658.19 776.826 1657.67 776.505C1657.16 776.183 1656.56 776.023 1655.86 776.023C1655.09 776.023 1654.43 776.213 1653.87 776.594C1653.31 776.97 1652.88 777.46 1652.59 778.065C1652.29 778.669 1652.14 779.317 1652.14 780.009V781.119C1652.14 782.067 1652.3 782.87 1652.63 783.529C1652.96 784.182 1653.42 784.68 1654.01 785.023C1654.59 785.361 1655.28 785.53 1656.06 785.53C1656.56 785.53 1657.02 785.459 1657.43 785.317C1657.84 785.17 1658.2 784.953 1658.5 784.664C1658.8 784.37 1659.03 784.005 1659.19 783.57L1661.05 784.092C1660.86 784.724 1660.53 785.279 1660.07 785.759C1659.6 786.232 1659.03 786.603 1658.35 786.869C1657.67 787.131 1656.91 787.261 1656.06 787.261ZM1666.11 779.453V787H1664.18V774.455H1666.05V776.415H1666.21C1666.5 775.778 1666.95 775.266 1667.55 774.879C1668.15 774.487 1668.92 774.291 1669.87 774.291C1670.72 774.291 1671.46 774.465 1672.1 774.814C1672.73 775.157 1673.23 775.68 1673.58 776.382C1673.94 777.079 1674.11 777.961 1674.11 779.028V787H1672.19V779.159C1672.19 778.174 1671.93 777.406 1671.42 776.856C1670.91 776.3 1670.21 776.023 1669.31 776.023C1668.7 776.023 1668.15 776.156 1667.66 776.423C1667.18 776.69 1666.8 777.079 1666.53 777.591C1666.25 778.103 1666.11 778.723 1666.11 779.453ZM1683.09 774.455V776.088H1676.59V774.455H1683.09ZM1678.49 771.449H1680.41V783.406C1680.41 783.951 1680.49 784.359 1680.65 784.631C1680.81 784.898 1681.02 785.078 1681.27 785.17C1681.53 785.258 1681.8 785.301 1682.08 785.301C1682.29 785.301 1682.47 785.29 1682.6 785.268C1682.74 785.241 1682.85 785.219 1682.93 785.203L1683.32 786.935C1683.19 786.984 1683.01 787.033 1682.77 787.082C1682.54 787.136 1682.24 787.163 1681.88 787.163C1681.34 787.163 1680.81 787.046 1680.28 786.812C1679.77 786.578 1679.34 786.221 1678.99 785.742C1678.66 785.263 1678.49 784.659 1678.49 783.929V771.449ZM1694.65 777.264L1692.92 777.754C1692.81 777.466 1692.65 777.185 1692.44 776.913C1692.23 776.635 1691.95 776.407 1691.59 776.227C1691.23 776.047 1690.77 775.957 1690.21 775.957C1689.44 775.957 1688.8 776.134 1688.29 776.488C1687.79 776.837 1687.53 777.281 1687.53 777.82C1687.53 778.299 1687.71 778.677 1688.06 778.955C1688.4 779.233 1688.95 779.464 1689.69 779.649L1691.55 780.107C1692.67 780.379 1693.51 780.795 1694.06 781.356C1694.61 781.912 1694.88 782.628 1694.88 783.504C1694.88 784.223 1694.68 784.866 1694.26 785.432C1693.85 785.998 1693.28 786.445 1692.55 786.771C1691.81 787.098 1690.96 787.261 1689.98 787.261C1688.7 787.261 1687.64 786.984 1686.81 786.428C1685.97 785.873 1685.44 785.062 1685.21 783.994L1687.04 783.537C1687.22 784.212 1687.55 784.719 1688.03 785.056C1688.52 785.394 1689.16 785.562 1689.95 785.562C1690.85 785.562 1691.56 785.372 1692.09 784.991C1692.62 784.604 1692.89 784.141 1692.89 783.602C1692.89 783.167 1692.74 782.802 1692.43 782.508C1692.13 782.208 1691.66 781.985 1691.03 781.838L1688.94 781.348C1687.79 781.076 1686.94 780.654 1686.41 780.082C1685.87 779.505 1685.6 778.783 1685.6 777.918C1685.6 777.21 1685.8 776.584 1686.2 776.039C1686.6 775.495 1687.15 775.067 1687.84 774.757C1688.54 774.446 1689.33 774.291 1690.21 774.291C1691.45 774.291 1692.43 774.563 1693.14 775.108C1693.85 775.652 1694.35 776.371 1694.65 777.264Z" fill="black"/>
<path d="M1466.03 868V851.273H1471.68C1472.99 851.273 1474.06 851.51 1474.9 851.983C1475.73 852.452 1476.35 853.086 1476.76 853.886C1477.16 854.687 1477.36 855.58 1477.36 856.565C1477.36 857.551 1477.16 858.447 1476.76 859.252C1476.36 860.058 1475.75 860.701 1474.91 861.18C1474.08 861.654 1473.01 861.891 1471.71 861.891H1467.66V860.094H1471.64C1472.54 860.094 1473.26 859.939 1473.81 859.628C1474.35 859.318 1474.75 858.899 1474.99 858.37C1475.24 857.837 1475.37 857.235 1475.37 856.565C1475.37 855.896 1475.24 855.297 1474.99 854.768C1474.75 854.24 1474.35 853.826 1473.8 853.527C1473.25 853.222 1472.52 853.07 1471.61 853.07H1468.05V868H1466.03ZM1485.49 868.261C1484.28 868.261 1483.24 867.995 1482.36 867.461C1481.49 866.922 1480.82 866.17 1480.34 865.207C1479.88 864.237 1479.64 863.11 1479.64 861.825C1479.64 860.54 1479.88 859.408 1480.34 858.428C1480.82 857.442 1481.48 856.674 1482.32 856.124C1483.17 855.569 1484.16 855.291 1485.29 855.291C1485.95 855.291 1486.59 855.4 1487.23 855.618C1487.87 855.836 1488.45 856.19 1488.97 856.68C1489.49 857.164 1489.91 857.807 1490.22 858.607C1490.53 859.408 1490.68 860.393 1490.68 861.564V862.381H1481.01V860.714H1488.72C1488.72 860.007 1488.58 859.375 1488.3 858.82C1488.02 858.264 1487.62 857.826 1487.11 857.505C1486.59 857.183 1485.99 857.023 1485.29 857.023C1484.53 857.023 1483.86 857.213 1483.3 857.594C1482.74 857.97 1482.32 858.46 1482.02 859.065C1481.72 859.669 1481.57 860.317 1481.57 861.009V862.119C1481.57 863.067 1481.73 863.87 1482.06 864.529C1482.39 865.182 1482.85 865.68 1483.44 866.023C1484.03 866.361 1484.71 866.53 1485.49 866.53C1486 866.53 1486.45 866.459 1486.86 866.317C1487.27 866.17 1487.63 865.953 1487.93 865.664C1488.23 865.37 1488.46 865.005 1488.63 864.57L1490.49 865.092C1490.29 865.724 1489.96 866.279 1489.5 866.759C1489.04 867.232 1488.46 867.603 1487.78 867.869C1487.1 868.131 1486.34 868.261 1485.49 868.261ZM1493.62 868V855.455H1495.48V857.349H1495.61C1495.84 856.729 1496.25 856.225 1496.85 855.838C1497.45 855.452 1498.12 855.259 1498.88 855.259C1499.02 855.259 1499.19 855.261 1499.41 855.267C1499.62 855.272 1499.78 855.28 1499.89 855.291V857.251C1499.82 857.235 1499.67 857.211 1499.44 857.178C1499.21 857.14 1498.97 857.121 1498.71 857.121C1498.1 857.121 1497.56 857.249 1497.08 857.505C1496.61 857.755 1496.23 858.104 1495.95 858.55C1495.68 858.991 1495.54 859.495 1495.54 860.061V868H1493.62ZM1511.06 858.264L1509.33 858.754C1509.22 858.466 1509.06 858.185 1508.85 857.913C1508.64 857.635 1508.36 857.407 1508 857.227C1507.64 857.047 1507.18 856.957 1506.62 856.957C1505.85 856.957 1505.21 857.134 1504.7 857.488C1504.19 857.837 1503.94 858.281 1503.94 858.82C1503.94 859.299 1504.11 859.677 1504.46 859.955C1504.81 860.233 1505.35 860.464 1506.09 860.649L1507.96 861.107C1509.08 861.379 1509.91 861.795 1510.46 862.356C1511.01 862.912 1511.29 863.628 1511.29 864.504C1511.29 865.223 1511.08 865.866 1510.67 866.432C1510.26 866.998 1509.69 867.445 1508.95 867.771C1508.22 868.098 1507.36 868.261 1506.39 868.261C1505.11 868.261 1504.05 867.984 1503.21 867.428C1502.37 866.873 1501.84 866.062 1501.62 864.994L1503.45 864.537C1503.62 865.212 1503.95 865.719 1504.44 866.056C1504.93 866.394 1505.57 866.562 1506.36 866.562C1507.25 866.562 1507.97 866.372 1508.5 865.991C1509.03 865.604 1509.3 865.141 1509.3 864.602C1509.3 864.167 1509.14 863.802 1508.84 863.508C1508.53 863.208 1508.06 862.985 1507.43 862.838L1505.34 862.348C1504.19 862.076 1503.35 861.654 1502.81 861.082C1502.28 860.505 1502.01 859.783 1502.01 858.918C1502.01 858.21 1502.21 857.584 1502.61 857.039C1503.01 856.495 1503.56 856.067 1504.25 855.757C1504.94 855.446 1505.73 855.291 1506.62 855.291C1507.86 855.291 1508.83 855.563 1509.54 856.108C1510.25 856.652 1510.76 857.371 1511.06 858.264ZM1519.29 868.261C1518.15 868.261 1517.16 867.992 1516.31 867.453C1515.46 866.914 1514.79 866.16 1514.31 865.19C1513.84 864.221 1513.6 863.089 1513.6 861.793C1513.6 860.486 1513.84 859.345 1514.31 858.37C1514.79 857.396 1515.46 856.639 1516.31 856.1C1517.16 855.561 1518.15 855.291 1519.29 855.291C1520.42 855.291 1521.41 855.561 1522.26 856.1C1523.11 856.639 1523.78 857.396 1524.25 858.37C1524.73 859.345 1524.97 860.486 1524.97 861.793C1524.97 863.089 1524.73 864.221 1524.25 865.19C1523.78 866.16 1523.11 866.914 1522.26 867.453C1521.41 867.992 1520.42 868.261 1519.29 868.261ZM1519.29 866.53C1520.15 866.53 1520.85 866.309 1521.41 865.868C1521.97 865.427 1522.38 864.847 1522.64 864.129C1522.91 863.41 1523.04 862.631 1523.04 861.793C1523.04 860.954 1522.91 860.173 1522.64 859.449C1522.38 858.724 1521.97 858.139 1521.41 857.692C1520.85 857.246 1520.15 857.023 1519.29 857.023C1518.43 857.023 1517.72 857.246 1517.16 857.692C1516.61 858.139 1516.2 858.724 1515.93 859.449C1515.66 860.173 1515.53 860.954 1515.53 861.793C1515.53 862.631 1515.66 863.41 1515.93 864.129C1516.2 864.847 1516.61 865.427 1517.16 865.868C1517.72 866.309 1518.43 866.53 1519.29 866.53ZM1529.84 860.453V868H1527.91V855.455H1529.78V857.415H1529.94C1530.23 856.778 1530.68 856.266 1531.28 855.879C1531.88 855.487 1532.65 855.291 1533.6 855.291C1534.45 855.291 1535.19 855.465 1535.83 855.814C1536.47 856.157 1536.96 856.68 1537.31 857.382C1537.67 858.079 1537.85 858.961 1537.85 860.028V868H1535.92V860.159C1535.92 859.174 1535.66 858.406 1535.15 857.856C1534.64 857.3 1533.94 857.023 1533.04 857.023C1532.43 857.023 1531.88 857.156 1531.39 857.423C1530.91 857.69 1530.54 858.079 1530.26 858.591C1529.98 859.103 1529.84 859.723 1529.84 860.453ZM1545.06 868.294C1544.26 868.294 1543.54 868.144 1542.9 867.845C1542.25 867.54 1541.73 867.102 1541.35 866.53C1540.97 865.953 1540.78 865.256 1540.78 864.439C1540.78 863.72 1540.92 863.138 1541.2 862.691C1541.49 862.239 1541.87 861.885 1542.34 861.629C1542.81 861.373 1543.34 861.183 1543.91 861.058C1544.49 860.927 1545.06 860.823 1545.65 860.747C1546.41 860.649 1547.03 860.576 1547.5 860.527C1547.98 860.472 1548.33 860.382 1548.55 860.257C1548.77 860.132 1548.88 859.914 1548.88 859.604V859.538C1548.88 858.732 1548.66 858.106 1548.22 857.66C1547.78 857.213 1547.12 856.99 1546.24 856.99C1545.32 856.99 1544.59 857.192 1544.07 857.594C1543.55 857.997 1543.18 858.428 1542.97 858.885L1541.14 858.232C1541.47 857.469 1541.9 856.876 1542.45 856.451C1543 856.021 1543.59 855.721 1544.24 855.553C1544.9 855.378 1545.54 855.291 1546.17 855.291C1546.57 855.291 1547.04 855.34 1547.56 855.438C1548.09 855.531 1548.6 855.724 1549.09 856.018C1549.58 856.312 1549.99 856.756 1550.32 857.349C1550.65 857.943 1550.81 858.738 1550.81 859.734V868H1548.88V866.301H1548.78C1548.65 866.573 1548.44 866.865 1548.13 867.175C1547.83 867.485 1547.42 867.75 1546.91 867.967C1546.41 868.185 1545.79 868.294 1545.06 868.294ZM1545.35 866.562C1546.12 866.562 1546.76 866.413 1547.28 866.113C1547.81 865.814 1548.21 865.427 1548.47 864.953C1548.75 864.48 1548.88 863.982 1548.88 863.459V861.695C1548.8 861.793 1548.62 861.882 1548.34 861.964C1548.07 862.04 1547.75 862.108 1547.4 862.168C1547.04 862.223 1546.7 862.272 1546.36 862.315C1546.03 862.353 1545.76 862.386 1545.55 862.413C1545.05 862.479 1544.58 862.585 1544.14 862.732C1543.71 862.873 1543.37 863.089 1543.1 863.377C1542.84 863.66 1542.71 864.047 1542.71 864.537C1542.71 865.207 1542.95 865.713 1543.45 866.056C1543.95 866.394 1544.59 866.562 1545.35 866.562ZM1556.26 851.273V868H1554.33V851.273H1556.26ZM1567.2 868H1565.08L1571.22 851.273H1573.31L1579.45 868H1577.33L1572.33 853.919H1572.2L1567.2 868ZM1567.99 861.466H1576.55V863.263H1567.99V861.466ZM1586.53 868.261C1585.49 868.261 1584.57 867.997 1583.77 867.469C1582.97 866.935 1582.34 866.184 1581.89 865.215C1581.44 864.24 1581.21 863.089 1581.21 861.76C1581.21 860.442 1581.44 859.299 1581.89 858.33C1582.34 857.36 1582.97 856.612 1583.77 856.083C1584.58 855.555 1585.51 855.291 1586.57 855.291C1587.38 855.291 1588.03 855.427 1588.5 855.7C1588.98 855.966 1589.35 856.271 1589.6 856.614C1589.85 856.952 1590.05 857.23 1590.19 857.447H1590.36V851.273H1592.28V868H1590.42V866.072H1590.19C1590.05 866.301 1589.85 866.59 1589.59 866.938C1589.33 867.281 1588.95 867.589 1588.47 867.861C1587.99 868.128 1587.34 868.261 1586.53 868.261ZM1586.8 866.53C1587.57 866.53 1588.22 866.328 1588.76 865.925C1589.29 865.517 1589.7 864.953 1589.97 864.235C1590.25 863.511 1590.39 862.675 1590.39 861.727C1590.39 860.791 1590.25 859.971 1589.98 859.269C1589.71 858.561 1589.31 858.011 1588.77 857.619C1588.24 857.221 1587.58 857.023 1586.8 857.023C1585.98 857.023 1585.3 857.232 1584.75 857.652C1584.22 858.065 1583.81 858.629 1583.54 859.342C1583.27 860.05 1583.14 860.845 1583.14 861.727C1583.14 862.62 1583.27 863.432 1583.55 864.161C1583.82 864.885 1584.23 865.463 1584.77 865.893C1585.31 866.317 1585.99 866.53 1586.8 866.53ZM1606.34 855.455L1601.7 868H1599.74L1595.1 855.455H1597.19L1600.66 865.452H1600.79L1604.25 855.455H1606.34ZM1608.89 868V855.455H1610.81V868H1608.89ZM1609.87 853.364C1609.49 853.364 1609.17 853.236 1608.89 852.98C1608.63 852.724 1608.49 852.416 1608.49 852.057C1608.49 851.697 1608.63 851.39 1608.89 851.134C1609.17 850.878 1609.49 850.75 1609.87 850.75C1610.24 850.75 1610.56 850.878 1610.83 851.134C1611.1 851.39 1611.24 851.697 1611.24 852.057C1611.24 852.416 1611.1 852.724 1610.83 852.98C1610.56 853.236 1610.24 853.364 1609.87 853.364ZM1623.23 858.264L1621.5 858.754C1621.39 858.466 1621.23 858.185 1621.02 857.913C1620.81 857.635 1620.53 857.407 1620.17 857.227C1619.81 857.047 1619.35 856.957 1618.79 856.957C1618.02 856.957 1617.38 857.134 1616.87 857.488C1616.36 857.837 1616.11 858.281 1616.11 858.82C1616.11 859.299 1616.28 859.677 1616.63 859.955C1616.98 860.233 1617.52 860.464 1618.26 860.649L1620.13 861.107C1621.25 861.379 1622.08 861.795 1622.63 862.356C1623.18 862.912 1623.46 863.628 1623.46 864.504C1623.46 865.223 1623.25 865.866 1622.84 866.432C1622.43 866.998 1621.86 867.445 1621.12 867.771C1620.39 868.098 1619.53 868.261 1618.56 868.261C1617.28 868.261 1616.22 867.984 1615.38 867.428C1614.54 866.873 1614.01 866.062 1613.79 864.994L1615.62 864.537C1615.79 865.212 1616.12 865.719 1616.61 866.056C1617.1 866.394 1617.74 866.562 1618.53 866.562C1619.42 866.562 1620.14 866.372 1620.67 865.991C1621.2 865.604 1621.47 865.141 1621.47 864.602C1621.47 864.167 1621.31 863.802 1621.01 863.508C1620.7 863.208 1620.23 862.985 1619.6 862.838L1617.51 862.348C1616.36 862.076 1615.52 861.654 1614.98 861.082C1614.45 860.505 1614.18 859.783 1614.18 858.918C1614.18 858.21 1614.38 857.584 1614.78 857.039C1615.18 856.495 1615.73 856.067 1616.42 855.757C1617.11 855.446 1617.9 855.291 1618.79 855.291C1620.03 855.291 1621 855.563 1621.71 856.108C1622.42 856.652 1622.93 857.371 1623.23 858.264ZM1631.46 868.261C1630.32 868.261 1629.33 867.992 1628.48 867.453C1627.63 866.914 1626.96 866.16 1626.48 865.19C1626.01 864.221 1625.77 863.089 1625.77 861.793C1625.77 860.486 1626.01 859.345 1626.48 858.37C1626.96 857.396 1627.63 856.639 1628.48 856.1C1629.33 855.561 1630.32 855.291 1631.46 855.291C1632.59 855.291 1633.58 855.561 1634.43 856.1C1635.28 856.639 1635.95 857.396 1636.42 858.37C1636.9 859.345 1637.14 860.486 1637.14 861.793C1637.14 863.089 1636.9 864.221 1636.42 865.19C1635.95 866.16 1635.28 866.914 1634.43 867.453C1633.58 867.992 1632.59 868.261 1631.46 868.261ZM1631.46 866.53C1632.32 866.53 1633.02 866.309 1633.58 865.868C1634.14 865.427 1634.55 864.847 1634.81 864.129C1635.08 863.41 1635.21 862.631 1635.21 861.793C1635.21 860.954 1635.08 860.173 1634.81 859.449C1634.55 858.724 1634.14 858.139 1633.58 857.692C1633.02 857.246 1632.32 857.023 1631.46 857.023C1630.6 857.023 1629.89 857.246 1629.33 857.692C1628.78 858.139 1628.37 858.724 1628.1 859.449C1627.83 860.173 1627.7 860.954 1627.7 861.793C1627.7 862.631 1627.83 863.41 1628.1 864.129C1628.37 864.847 1628.78 865.427 1629.33 865.868C1629.89 866.309 1630.6 866.53 1631.46 866.53ZM1640.08 868V855.455H1641.95V857.349H1642.08C1642.31 856.729 1642.72 856.225 1643.32 855.838C1643.92 855.452 1644.59 855.259 1645.34 855.259C1645.49 855.259 1645.66 855.261 1645.87 855.267C1646.09 855.272 1646.25 855.28 1646.36 855.291V857.251C1646.29 857.235 1646.14 857.211 1645.91 857.178C1645.68 857.14 1645.44 857.121 1645.18 857.121C1644.57 857.121 1644.03 857.249 1643.55 857.505C1643.07 857.755 1642.7 858.104 1642.42 858.55C1642.15 858.991 1642.01 859.495 1642.01 860.061V868H1640.08Z" fill="black"/>
<path d="M1104.66 633.247C1103.91 633.247 1105.79 632.943 1105.99 633.01C1107.12 633.385 1107.95 634.322 1109.05 634.73C1112.17 635.886 1113.65 638.648 1116.4 640.188C1119.99 642.191 1123.16 645.634 1126.25 648.315C1130.32 651.843 1132.52 656 1134.26 660.98C1135.51 664.559 1135.09 668.555 1135.09 672.28C1135.09 677.101 1134.66 680.258 1132.15 684.501C1127.88 691.727 1120.61 696.567 1115.1 702.653C1109.62 708.7 1103.14 713.745 1097.72 719.856C1091.53 726.827 1084.83 733.212 1079.68 741.093C1076.46 746.034 1072.18 751.93 1072.09 758.118C1072.02 762.838 1071.49 767.104 1074.11 771.169C1077.14 775.881 1083.77 779.549 1088.91 781.372C1095.45 783.695 1102 784.872 1108.93 784.872C1117.56 784.872 1124.42 780.503 1131 775.322C1138 769.802 1146.58 759.704 1146.83 750.169C1146.9 747.694 1147.56 744.587 1145 743.229C1142.41 741.859 1139.68 740.642 1136.69 740.559C1129.54 740.361 1121.5 741.762 1118.3 749.072C1116.69 752.747 1116.47 760.222 1117.86 763.962C1120.11 770.039 1123.71 776.606 1128.98 780.601C1140.5 789.344 1158.2 792.13 1172.28 789.974C1185.47 787.954 1197.67 781.446 1210.07 777.902C1215.36 776.39 1221.69 775.262 1227.45 775.262" stroke="black" stroke-width="0.7" stroke-linecap="round"/>
<path d="M1227.03 775.181C1226.2 774.352 1225.29 773.679 1224.37 772.958C1223.99 772.663 1223.65 772.31 1223.26 772.027C1222.93 771.787 1222.59 771.319 1222.22 771.163C1221.43 770.826 1220.82 770.01 1220.03 769.619C1219.71 769.459 1219.4 769.23 1219.15 768.973C1218.83 768.651 1218.4 768.484 1218.06 768.185C1217.62 767.785 1217.02 767.411 1216.49 767.145C1215.88 766.839 1215.35 766.21 1214.79 765.82C1213.9 765.205 1212.9 764.617 1211.95 764.145" stroke="black" stroke-width="0.7" stroke-linecap="round"/>
<path d="M1227.42 775.575C1227.1 775.575 1226.52 776.118 1226.29 776.363C1225.96 776.716 1225.47 777.038 1225.06 777.299C1224.14 777.889 1223.44 778.861 1222.55 779.516C1222.08 779.857 1221.7 780.287 1221.26 780.649C1220.86 780.974 1220.56 781.455 1220.13 781.733C1219.76 781.971 1219.48 782.323 1219.19 782.62C1218.93 782.875 1218.44 783.095 1218.26 783.403C1217.98 783.894 1217.29 784.173 1216.9 784.563C1216.56 784.906 1216.22 785.259 1215.87 785.603C1215.52 785.955 1215.24 786.339 1214.89 786.687C1214.57 787.004 1214.3 787.704 1213.93 787.891" stroke="black" stroke-width="0.7" stroke-linecap="round"/>
</g>
<defs>
<filter id="filter0_b_12_4" x="-200" y="-200" width="2320" height="1480" filterUnits="userSpaceOnUse" color-interpolation-filters="sRGB">
<feFlood flood-opacity="0" result="BackgroundImageFix"/>
<feGaussianBlur in="BackgroundImageFix" stdDeviation="100"/>
<feComposite in2="SourceAlpha" operator="in" result="effect1_backgroundBlur_12_4"/>
<feBlend mode="normal" in="SourceGraphic" in2="effect1_backgroundBlur_12_4" result="shape"/>
</filter>
<linearGradient id="paint0_linear_12_4" x1="1469" y1="241" x2="476.5" y2="862" gradientUnits="userSpaceOnUse">
<stop stop-color="#0029FF"/>
<stop offset="1" stop-color="#F00080"/>
</linearGradient>
<clipPath id="clip0_12_4">
<rect width="1920" height="1080" fill="white"/>
</clipPath>
</defs>
</svg>
