<svg width="1920" height="1386" viewBox="0 0 1920 1386" fill="none" xmlns="http://www.w3.org/2000/svg">
<path d="M1292.76 921V906.455H1294.52V919.438H1301.28V921H1292.76ZM1303.78 921V910.091H1305.46V921H1303.78ZM1304.64 908.273C1304.31 908.273 1304.03 908.161 1303.79 907.939C1303.56 907.716 1303.44 907.449 1303.44 907.136C1303.44 906.824 1303.56 906.556 1303.79 906.334C1304.03 906.111 1304.31 906 1304.64 906C1304.96 906 1305.24 906.111 1305.47 906.334C1305.71 906.556 1305.83 906.824 1305.83 907.136C1305.83 907.449 1305.71 907.716 1305.47 907.939C1305.24 908.161 1304.96 908.273 1304.64 908.273ZM1313.39 910.091V911.511H1307.51V910.091H1313.39ZM1309.27 921V908.585C1309.27 907.96 1309.42 907.439 1309.71 907.023C1310 906.606 1310.38 906.294 1310.85 906.085C1311.32 905.877 1311.82 905.773 1312.34 905.773C1312.75 905.773 1313.09 905.806 1313.35 905.872C1313.61 905.938 1313.8 906 1313.93 906.057L1313.44 907.506C1313.36 907.477 1313.24 907.442 1313.09 907.399C1312.94 907.357 1312.75 907.335 1312.51 907.335C1311.95 907.335 1311.55 907.475 1311.31 907.754C1311.07 908.034 1310.94 908.443 1310.94 908.983V921H1309.27ZM1319.86 921.227C1318.81 921.227 1317.9 920.995 1317.14 920.531C1316.38 920.062 1315.8 919.409 1315.39 918.571C1314.98 917.728 1314.78 916.748 1314.78 915.631C1314.78 914.513 1314.98 913.528 1315.39 912.676C1315.8 911.819 1316.37 911.152 1317.11 910.673C1317.84 910.19 1318.71 909.949 1319.69 909.949C1320.26 909.949 1320.82 910.044 1321.37 910.233C1321.93 910.422 1322.43 910.73 1322.89 911.156C1323.34 911.578 1323.7 912.136 1323.97 912.832C1324.24 913.528 1324.38 914.385 1324.38 915.403V916.114H1315.97V914.665H1322.67C1322.67 914.049 1322.55 913.5 1322.31 913.017C1322.06 912.534 1321.72 912.153 1321.27 911.874C1320.82 911.594 1320.3 911.455 1319.69 911.455C1319.02 911.455 1318.45 911.62 1317.96 911.952C1317.48 912.278 1317.1 912.705 1316.84 913.23C1316.58 913.756 1316.45 914.319 1316.45 914.92V915.886C1316.45 916.71 1316.59 917.409 1316.88 917.982C1317.17 918.55 1317.57 918.983 1318.08 919.281C1318.59 919.575 1319.18 919.722 1319.86 919.722C1320.3 919.722 1320.7 919.66 1321.06 919.537C1321.41 919.409 1321.73 919.22 1321.99 918.969C1322.25 918.713 1322.45 918.396 1322.59 918.017L1324.21 918.472C1324.04 919.021 1323.75 919.504 1323.35 919.92C1322.95 920.332 1322.45 920.654 1321.86 920.886C1321.27 921.114 1320.6 921.227 1319.86 921.227ZM1340.74 910.091C1340.65 909.371 1340.3 908.812 1339.7 908.415C1339.09 908.017 1338.35 907.818 1337.47 907.818C1336.82 907.818 1336.26 907.922 1335.78 908.131C1335.3 908.339 1334.93 908.625 1334.66 908.99C1334.39 909.355 1334.26 909.769 1334.26 910.233C1334.26 910.621 1334.35 910.955 1334.54 911.234C1334.72 911.509 1334.97 911.739 1335.26 911.923C1335.55 912.103 1335.86 912.252 1336.18 912.371C1336.5 912.484 1336.8 912.577 1337.07 912.648L1338.55 913.045C1338.93 913.145 1339.35 913.282 1339.81 913.457C1340.28 913.633 1340.73 913.872 1341.15 914.175C1341.59 914.473 1341.94 914.857 1342.22 915.325C1342.5 915.794 1342.64 916.369 1342.64 917.051C1342.64 917.837 1342.43 918.547 1342.02 919.182C1341.61 919.816 1341.02 920.321 1340.23 920.695C1339.45 921.069 1338.5 921.256 1337.38 921.256C1336.34 921.256 1335.44 921.088 1334.68 920.751C1333.92 920.415 1333.32 919.946 1332.89 919.345C1332.46 918.744 1332.21 918.045 1332.16 917.25H1333.97C1334.02 917.799 1334.21 918.254 1334.53 918.614C1334.85 918.969 1335.27 919.234 1335.76 919.409C1336.27 919.58 1336.81 919.665 1337.38 919.665C1338.06 919.665 1338.66 919.556 1339.19 919.338C1339.73 919.116 1340.15 918.808 1340.47 918.415C1340.78 918.017 1340.93 917.553 1340.93 917.023C1340.93 916.54 1340.8 916.147 1340.53 915.844C1340.26 915.541 1339.9 915.295 1339.46 915.105C1339.02 914.916 1338.55 914.75 1338.04 914.608L1336.25 914.097C1335.11 913.77 1334.21 913.304 1333.55 912.697C1332.89 912.091 1332.55 911.298 1332.55 910.318C1332.55 909.504 1332.77 908.794 1333.21 908.188C1333.66 907.577 1334.26 907.103 1335 906.767C1335.76 906.426 1336.6 906.256 1337.53 906.256C1338.46 906.256 1339.3 906.424 1340.03 906.76C1340.75 907.091 1341.33 907.546 1341.76 908.124C1342.19 908.701 1342.42 909.357 1342.44 910.091H1340.74ZM1352.18 916.54V910.091H1353.86V921H1352.18V919.153H1352.07C1351.81 919.707 1351.42 920.179 1350.88 920.567C1350.34 920.95 1349.65 921.142 1348.83 921.142C1348.15 921.142 1347.54 920.993 1347.01 920.695C1346.48 920.392 1346.07 919.937 1345.76 919.331C1345.46 918.72 1345.31 917.951 1345.31 917.023V910.091H1346.98V916.909C1346.98 917.705 1347.21 918.339 1347.65 918.812C1348.1 919.286 1348.67 919.523 1349.37 919.523C1349.79 919.523 1350.21 919.416 1350.64 919.203C1351.08 918.99 1351.44 918.663 1351.74 918.223C1352.03 917.783 1352.18 917.222 1352.18 916.54ZM1356.93 925.091V910.091H1358.55V911.824H1358.75C1358.87 911.634 1359.04 911.393 1359.26 911.099C1359.48 910.801 1359.8 910.536 1360.21 910.304C1360.63 910.067 1361.19 909.949 1361.9 909.949C1362.82 909.949 1363.63 910.179 1364.33 910.638C1365.03 911.097 1365.58 911.748 1365.97 912.591C1366.36 913.434 1366.56 914.428 1366.56 915.574C1366.56 916.729 1366.36 917.731 1365.97 918.578C1365.58 919.421 1365.03 920.074 1364.34 920.538C1363.64 920.998 1362.84 921.227 1361.93 921.227C1361.23 921.227 1360.67 921.111 1360.25 920.879C1359.82 920.643 1359.5 920.375 1359.27 920.077C1359.05 919.774 1358.87 919.523 1358.75 919.324H1358.6V925.091H1356.93ZM1358.58 915.545C1358.58 916.369 1358.7 917.096 1358.94 917.726C1359.18 918.351 1359.53 918.841 1360 919.196C1360.46 919.546 1361.03 919.722 1361.7 919.722C1362.4 919.722 1362.99 919.537 1363.46 919.168C1363.93 918.794 1364.28 918.292 1364.52 917.662C1364.76 917.027 1364.88 916.322 1364.88 915.545C1364.88 914.778 1364.76 914.087 1364.53 913.472C1364.3 912.851 1363.94 912.361 1363.47 912.001C1363 911.637 1362.41 911.455 1361.7 911.455C1361.02 911.455 1360.45 911.627 1359.98 911.973C1359.52 912.314 1359.17 912.792 1358.93 913.408C1358.69 914.018 1358.58 914.731 1358.58 915.545ZM1369.12 925.091V910.091H1370.74V911.824H1370.93C1371.06 911.634 1371.23 911.393 1371.45 911.099C1371.67 910.801 1371.99 910.536 1372.4 910.304C1372.81 910.067 1373.38 909.949 1374.09 909.949C1375.01 909.949 1375.82 910.179 1376.52 910.638C1377.22 911.097 1377.76 911.748 1378.16 912.591C1378.55 913.434 1378.75 914.428 1378.75 915.574C1378.75 916.729 1378.55 917.731 1378.16 918.578C1377.76 919.421 1377.22 920.074 1376.52 920.538C1375.83 920.998 1375.03 921.227 1374.12 921.227C1373.42 921.227 1372.85 921.111 1372.43 920.879C1372.01 920.643 1371.69 920.375 1371.46 920.077C1371.23 919.774 1371.06 919.523 1370.93 919.324H1370.79V925.091H1369.12ZM1370.76 915.545C1370.76 916.369 1370.88 917.096 1371.13 917.726C1371.37 918.351 1371.72 918.841 1372.18 919.196C1372.65 919.546 1373.22 919.722 1373.89 919.722C1374.59 919.722 1375.17 919.537 1375.64 919.168C1376.12 918.794 1376.47 918.292 1376.71 917.662C1376.95 917.027 1377.07 916.322 1377.07 915.545C1377.07 914.778 1376.95 914.087 1376.72 913.472C1376.48 912.851 1376.13 912.361 1375.66 912.001C1375.19 911.637 1374.6 911.455 1373.89 911.455C1373.21 911.455 1372.63 911.627 1372.17 911.973C1371.71 912.314 1371.36 912.792 1371.12 913.408C1370.88 914.018 1370.76 914.731 1370.76 915.545ZM1385.74 921.227C1384.75 921.227 1383.89 920.993 1383.14 920.524C1382.4 920.055 1381.83 919.4 1381.41 918.557C1381 917.714 1380.79 916.729 1380.79 915.602C1380.79 914.466 1381 913.474 1381.41 912.626C1381.83 911.779 1382.4 911.121 1383.14 910.652C1383.89 910.183 1384.75 909.949 1385.74 909.949C1386.72 909.949 1387.58 910.183 1388.32 910.652C1389.06 911.121 1389.64 911.779 1390.05 912.626C1390.47 913.474 1390.68 914.466 1390.68 915.602C1390.68 916.729 1390.47 917.714 1390.05 918.557C1389.64 919.4 1389.06 920.055 1388.32 920.524C1387.58 920.993 1386.72 921.227 1385.74 921.227ZM1385.74 919.722C1386.48 919.722 1387.1 919.53 1387.58 919.146C1388.06 918.763 1388.42 918.259 1388.65 917.634C1388.89 917.009 1389 916.331 1389 915.602C1389 914.873 1388.89 914.194 1388.65 913.564C1388.42 912.934 1388.06 912.425 1387.58 912.037C1387.1 911.649 1386.48 911.455 1385.74 911.455C1384.99 911.455 1384.37 911.649 1383.89 912.037C1383.41 912.425 1383.05 912.934 1382.82 913.564C1382.58 914.194 1382.47 914.873 1382.47 915.602C1382.47 916.331 1382.58 917.009 1382.82 917.634C1383.05 918.259 1383.41 918.763 1383.89 919.146C1384.37 919.53 1384.99 919.722 1385.74 919.722ZM1393.24 921V910.091H1394.86V911.739H1394.97C1395.17 911.199 1395.53 910.761 1396.05 910.425C1396.57 910.089 1397.16 909.92 1397.81 909.92C1397.93 909.92 1398.09 909.923 1398.27 909.928C1398.46 909.932 1398.6 909.939 1398.69 909.949V911.653C1398.63 911.639 1398.5 911.618 1398.3 911.589C1398.1 911.556 1397.89 911.54 1397.67 911.54C1397.14 911.54 1396.67 911.651 1396.25 911.874C1395.84 912.091 1395.51 912.394 1395.27 912.783C1395.03 913.166 1394.91 913.604 1394.91 914.097V921H1393.24ZM1406.11 910.091V911.511H1400.45V910.091H1406.11ZM1402.1 907.477H1403.78V917.875C1403.78 918.348 1403.85 918.704 1403.98 918.94C1404.13 919.172 1404.3 919.329 1404.52 919.409C1404.75 919.485 1404.98 919.523 1405.23 919.523C1405.41 919.523 1405.56 919.513 1405.68 919.494C1405.8 919.471 1405.89 919.452 1405.96 919.438L1406.31 920.943C1406.19 920.986 1406.03 921.028 1405.83 921.071C1405.63 921.118 1405.37 921.142 1405.06 921.142C1404.58 921.142 1404.12 921.04 1403.66 920.837C1403.21 920.633 1402.84 920.323 1402.54 919.906C1402.25 919.49 1402.1 918.964 1402.1 918.33V907.477Z" fill="black"/>
<rect x="1268.5" y="814.5" width="132" height="54" stroke="#B6B4D0"/>
<rect x="1269.5" y="886.5" width="161" height="54" stroke="#B6B4D0"/>
<rect x="1268.5" y="958.5" width="153" height="54" stroke="#B6B4D0"/>
<rect x="1439.5" y="957.5" width="201" height="54" stroke="#B6B4D0"/>
<rect x="1447.5" y="886.5" width="224" height="54" stroke="#B6B4D0"/>
<rect x="1418.5" y="814.5" width="179" height="54" stroke="#B6B4D0"/>
<rect x="1614.5" y="814.5" width="143" height="54" stroke="#B6B4D0"/>
<path d="M1298.47 982H1296.7C1296.6 981.493 1296.42 981.048 1296.16 980.665C1295.9 980.281 1295.59 979.959 1295.22 979.699C1294.86 979.434 1294.45 979.235 1294.01 979.102C1293.56 978.97 1293.1 978.903 1292.61 978.903C1291.73 978.903 1290.94 979.126 1290.22 979.571C1289.51 980.016 1288.94 980.672 1288.52 981.538C1288.11 982.405 1287.9 983.468 1287.9 984.727C1287.9 985.987 1288.11 987.05 1288.52 987.916C1288.94 988.783 1289.51 989.438 1290.22 989.884C1290.94 990.329 1291.73 990.551 1292.61 990.551C1293.1 990.551 1293.56 990.485 1294.01 990.352C1294.45 990.22 1294.86 990.023 1295.22 989.763C1295.59 989.498 1295.9 989.173 1296.16 988.79C1296.42 988.402 1296.6 987.956 1296.7 987.455H1298.47C1298.33 988.198 1298.09 988.863 1297.74 989.45C1297.39 990.037 1296.96 990.537 1296.43 990.949C1295.91 991.356 1295.33 991.666 1294.68 991.879C1294.04 992.092 1293.35 992.199 1292.61 992.199C1291.37 992.199 1290.27 991.896 1289.3 991.29C1288.34 990.684 1287.58 989.822 1287.02 988.705C1286.47 987.587 1286.19 986.261 1286.19 984.727C1286.19 983.193 1286.47 981.867 1287.02 980.75C1287.58 979.633 1288.34 978.771 1289.3 978.165C1290.27 977.559 1291.37 977.256 1292.61 977.256C1293.35 977.256 1294.04 977.362 1294.68 977.575C1295.33 977.788 1295.91 978.101 1296.43 978.513C1296.96 978.92 1297.39 979.417 1297.74 980.004C1298.09 980.587 1298.33 981.252 1298.47 982ZM1305.52 992.227C1304.53 992.227 1303.67 991.993 1302.92 991.524C1302.19 991.055 1301.61 990.4 1301.19 989.557C1300.78 988.714 1300.57 987.729 1300.57 986.602C1300.57 985.466 1300.78 984.474 1301.19 983.626C1301.61 982.779 1302.19 982.121 1302.92 981.652C1303.67 981.183 1304.53 980.949 1305.52 980.949C1306.5 980.949 1307.36 981.183 1308.1 981.652C1308.85 982.121 1309.42 982.779 1309.83 983.626C1310.25 984.474 1310.46 985.466 1310.46 986.602C1310.46 987.729 1310.25 988.714 1309.83 989.557C1309.42 990.4 1308.85 991.055 1308.1 991.524C1307.36 991.993 1306.5 992.227 1305.52 992.227ZM1305.52 990.722C1306.26 990.722 1306.88 990.53 1307.36 990.146C1307.85 989.763 1308.2 989.259 1308.44 988.634C1308.67 988.009 1308.78 987.331 1308.78 986.602C1308.78 985.873 1308.67 985.194 1308.44 984.564C1308.2 983.934 1307.85 983.425 1307.36 983.037C1306.88 982.649 1306.26 982.455 1305.52 982.455C1304.77 982.455 1304.15 982.649 1303.67 983.037C1303.19 983.425 1302.83 983.934 1302.6 984.564C1302.37 985.194 1302.25 985.873 1302.25 986.602C1302.25 987.331 1302.37 988.009 1302.6 988.634C1302.83 989.259 1303.19 989.763 1303.67 990.146C1304.15 990.53 1304.77 990.722 1305.52 990.722ZM1314.69 985.438V992H1313.02V981.091H1314.64V982.795H1314.78C1315.04 982.241 1315.42 981.796 1315.94 981.46C1316.47 981.119 1317.14 980.949 1317.96 980.949C1318.7 980.949 1319.35 981.1 1319.9 981.403C1320.45 981.702 1320.89 982.156 1321.19 982.767C1321.5 983.373 1321.65 984.14 1321.65 985.068V992H1319.98V985.182C1319.98 984.325 1319.76 983.657 1319.31 983.179C1318.87 982.696 1318.26 982.455 1317.48 982.455C1316.94 982.455 1316.47 982.571 1316.04 982.803C1315.63 983.035 1315.3 983.373 1315.06 983.818C1314.82 984.263 1314.69 984.803 1314.69 985.438ZM1332.44 983.534L1330.94 983.96C1330.84 983.709 1330.7 983.465 1330.52 983.229C1330.34 982.987 1330.09 982.788 1329.78 982.632C1329.47 982.476 1329.07 982.398 1328.58 982.398C1327.91 982.398 1327.36 982.552 1326.91 982.859C1326.47 983.162 1326.25 983.548 1326.25 984.017C1326.25 984.434 1326.4 984.763 1326.71 985.004C1327.01 985.246 1327.48 985.447 1328.13 985.608L1329.75 986.006C1330.72 986.242 1331.45 986.605 1331.93 987.092C1332.4 987.575 1332.64 988.198 1332.64 988.96C1332.64 989.585 1332.46 990.144 1332.1 990.636C1331.75 991.129 1331.25 991.517 1330.61 991.801C1329.97 992.085 1329.23 992.227 1328.38 992.227C1327.27 992.227 1326.35 991.986 1325.62 991.503C1324.89 991.02 1324.43 990.314 1324.23 989.386L1325.83 988.989C1325.98 989.576 1326.26 990.016 1326.69 990.31C1327.11 990.603 1327.67 990.75 1328.35 990.75C1329.14 990.75 1329.76 990.584 1330.21 990.253C1330.68 989.917 1330.91 989.514 1330.91 989.045C1330.91 988.667 1330.78 988.349 1330.51 988.094C1330.25 987.833 1329.84 987.639 1329.29 987.511L1327.47 987.085C1326.47 986.848 1325.74 986.482 1325.27 985.984C1324.81 985.482 1324.58 984.855 1324.58 984.102C1324.58 983.487 1324.75 982.942 1325.09 982.469C1325.44 981.995 1325.92 981.624 1326.52 981.354C1327.13 981.084 1327.81 980.949 1328.58 980.949C1329.66 980.949 1330.51 981.186 1331.12 981.659C1331.74 982.133 1332.18 982.758 1332.44 983.534ZM1342.04 987.54V981.091H1343.72V992H1342.04V990.153H1341.93C1341.67 990.707 1341.27 991.179 1340.74 991.567C1340.2 991.95 1339.51 992.142 1338.69 992.142C1338.01 992.142 1337.4 991.993 1336.87 991.695C1336.34 991.392 1335.92 990.937 1335.62 990.331C1335.32 989.72 1335.17 988.951 1335.17 988.023V981.091H1336.84V987.909C1336.84 988.705 1337.07 989.339 1337.51 989.812C1337.96 990.286 1338.53 990.523 1339.23 990.523C1339.65 990.523 1340.07 990.416 1340.5 990.203C1340.94 989.99 1341.3 989.663 1341.59 989.223C1341.89 988.783 1342.04 988.222 1342.04 987.54ZM1348.46 977.455V992H1346.79V977.455H1348.46ZM1356.28 981.091V982.511H1350.62V981.091H1356.28ZM1352.27 978.477H1353.95V988.875C1353.95 989.348 1354.02 989.704 1354.15 989.94C1354.3 990.172 1354.48 990.329 1354.69 990.409C1354.92 990.485 1355.15 990.523 1355.4 990.523C1355.58 990.523 1355.73 990.513 1355.85 990.494C1355.97 990.471 1356.07 990.452 1356.14 990.438L1356.48 991.943C1356.36 991.986 1356.21 992.028 1356 992.071C1355.8 992.118 1355.54 992.142 1355.23 992.142C1354.75 992.142 1354.29 992.04 1353.84 991.837C1353.39 991.633 1353.01 991.323 1352.71 990.906C1352.42 990.49 1352.27 989.964 1352.27 989.33V978.477ZM1362.01 992.256C1361.32 992.256 1360.69 992.125 1360.13 991.865C1359.56 991.6 1359.12 991.219 1358.79 990.722C1358.45 990.22 1358.29 989.614 1358.29 988.903C1358.29 988.278 1358.41 987.772 1358.66 987.384C1358.9 986.991 1359.23 986.683 1359.64 986.46C1360.06 986.238 1360.51 986.072 1361.01 985.963C1361.51 985.849 1362.01 985.759 1362.52 985.693C1363.18 985.608 1363.72 985.544 1364.13 985.501C1364.55 985.454 1364.85 985.376 1365.04 985.267C1365.24 985.158 1365.33 984.969 1365.33 984.699V984.642C1365.33 983.941 1365.14 983.397 1364.76 983.009C1364.38 982.62 1363.8 982.426 1363.03 982.426C1362.23 982.426 1361.61 982.601 1361.15 982.952C1360.7 983.302 1360.38 983.676 1360.19 984.074L1358.6 983.506C1358.88 982.843 1359.26 982.327 1359.74 981.957C1360.22 981.583 1360.74 981.323 1361.3 981.176C1361.87 981.025 1362.43 980.949 1362.98 980.949C1363.33 980.949 1363.73 980.991 1364.18 981.077C1364.64 981.157 1365.09 981.325 1365.51 981.581C1365.94 981.837 1366.3 982.223 1366.58 982.739C1366.87 983.255 1367.01 983.946 1367.01 984.812V992H1365.33V990.523H1365.25C1365.13 990.759 1364.95 991.013 1364.68 991.283C1364.42 991.553 1364.06 991.782 1363.62 991.972C1363.18 992.161 1362.64 992.256 1362.01 992.256ZM1362.27 990.75C1362.93 990.75 1363.49 990.62 1363.94 990.359C1364.4 990.099 1364.75 989.763 1364.98 989.351C1365.22 988.939 1365.33 988.506 1365.33 988.051V986.517C1365.26 986.602 1365.11 986.68 1364.87 986.751C1364.63 986.818 1364.35 986.877 1364.04 986.929C1363.73 986.976 1363.43 987.019 1363.14 987.057C1362.85 987.09 1362.62 987.118 1362.44 987.142C1362 987.199 1361.59 987.291 1361.21 987.419C1360.84 987.542 1360.54 987.729 1360.31 987.98C1360.08 988.226 1359.96 988.562 1359.96 988.989C1359.96 989.571 1360.18 990.011 1360.61 990.31C1361.05 990.603 1361.6 990.75 1362.27 990.75ZM1374.81 981.091V982.511H1369.16V981.091H1374.81ZM1370.81 978.477H1372.48V988.875C1372.48 989.348 1372.55 989.704 1372.69 989.94C1372.83 990.172 1373.01 990.329 1373.23 990.409C1373.45 990.485 1373.69 990.523 1373.93 990.523C1374.12 990.523 1374.27 990.513 1374.39 990.494C1374.51 990.471 1374.6 990.452 1374.67 990.438L1375.01 991.943C1374.9 991.986 1374.74 992.028 1374.54 992.071C1374.33 992.118 1374.07 992.142 1373.76 992.142C1373.29 992.142 1372.82 992.04 1372.37 991.837C1371.92 991.633 1371.55 991.323 1371.25 990.906C1370.95 990.49 1370.81 989.964 1370.81 989.33V978.477ZM1377.33 992V981.091H1379.01V992H1377.33ZM1378.19 979.273C1377.86 979.273 1377.58 979.161 1377.34 978.939C1377.11 978.716 1376.99 978.449 1376.99 978.136C1376.99 977.824 1377.11 977.556 1377.34 977.334C1377.58 977.111 1377.86 977 1378.19 977C1378.51 977 1378.79 977.111 1379.03 977.334C1379.26 977.556 1379.38 977.824 1379.38 978.136C1379.38 978.449 1379.26 978.716 1379.03 978.939C1378.79 979.161 1378.51 979.273 1378.19 979.273ZM1386.51 992.227C1385.53 992.227 1384.66 991.993 1383.92 991.524C1383.18 991.055 1382.6 990.4 1382.19 989.557C1381.78 988.714 1381.57 987.729 1381.57 986.602C1381.57 985.466 1381.78 984.474 1382.19 983.626C1382.6 982.779 1383.18 982.121 1383.92 981.652C1384.66 981.183 1385.53 980.949 1386.51 980.949C1387.5 980.949 1388.36 981.183 1389.1 981.652C1389.84 982.121 1390.42 982.779 1390.83 983.626C1391.25 984.474 1391.46 985.466 1391.46 986.602C1391.46 987.729 1391.25 988.714 1390.83 989.557C1390.42 990.4 1389.84 991.055 1389.1 991.524C1388.36 991.993 1387.5 992.227 1386.51 992.227ZM1386.51 990.722C1387.26 990.722 1387.88 990.53 1388.36 990.146C1388.84 989.763 1389.2 989.259 1389.43 988.634C1389.66 988.009 1389.78 987.331 1389.78 986.602C1389.78 985.873 1389.66 985.194 1389.43 984.564C1389.2 983.934 1388.84 983.425 1388.36 983.037C1387.88 982.649 1387.26 982.455 1386.51 982.455C1385.76 982.455 1385.15 982.649 1384.67 983.037C1384.18 983.425 1383.83 983.934 1383.59 984.564C1383.36 985.194 1383.25 985.873 1383.25 986.602C1383.25 987.331 1383.36 988.009 1383.59 988.634C1383.83 989.259 1384.18 989.763 1384.67 990.146C1385.15 990.53 1385.76 990.722 1386.51 990.722ZM1395.69 985.438V992H1394.01V981.091H1395.63V982.795H1395.78C1396.03 982.241 1396.42 981.796 1396.94 981.46C1397.46 981.119 1398.13 980.949 1398.96 980.949C1399.7 980.949 1400.34 981.1 1400.9 981.403C1401.45 981.702 1401.88 982.156 1402.19 982.767C1402.5 983.373 1402.65 984.14 1402.65 985.068V992H1400.97V985.182C1400.97 984.325 1400.75 983.657 1400.31 983.179C1399.86 982.696 1399.25 982.455 1398.47 982.455C1397.94 982.455 1397.46 982.571 1397.04 982.803C1396.62 983.035 1396.29 983.373 1396.05 983.818C1395.81 984.263 1395.69 984.803 1395.69 985.438Z" fill="black"/>
<path d="M1440.76 849V834.455H1442.52V840.932H1450.28V834.455H1452.04V849H1450.28V842.494H1442.52V849H1440.76ZM1458.55 849.256C1457.86 849.256 1457.23 849.125 1456.67 848.865C1456.1 848.6 1455.66 848.219 1455.32 847.722C1454.99 847.22 1454.83 846.614 1454.83 845.903C1454.83 845.278 1454.95 844.772 1455.2 844.384C1455.44 843.991 1455.77 843.683 1456.18 843.46C1456.6 843.238 1457.05 843.072 1457.55 842.963C1458.05 842.849 1458.55 842.759 1459.06 842.693C1459.72 842.608 1460.26 842.544 1460.67 842.501C1461.09 842.454 1461.39 842.376 1461.58 842.267C1461.78 842.158 1461.87 841.969 1461.87 841.699V841.642C1461.87 840.941 1461.68 840.397 1461.3 840.009C1460.92 839.62 1460.34 839.426 1459.57 839.426C1458.77 839.426 1458.14 839.601 1457.69 839.952C1457.24 840.302 1456.92 840.676 1456.73 841.074L1455.14 840.506C1455.42 839.843 1455.8 839.327 1456.28 838.957C1456.75 838.583 1457.28 838.323 1457.84 838.176C1458.41 838.025 1458.97 837.949 1459.51 837.949C1459.87 837.949 1460.27 837.991 1460.72 838.077C1461.18 838.157 1461.62 838.325 1462.05 838.581C1462.48 838.837 1462.84 839.223 1463.12 839.739C1463.41 840.255 1463.55 840.946 1463.55 841.812V849H1461.87V847.523H1461.79C1461.67 847.759 1461.48 848.013 1461.22 848.283C1460.95 848.553 1460.6 848.782 1460.16 848.972C1459.72 849.161 1459.18 849.256 1458.55 849.256ZM1458.8 847.75C1459.47 847.75 1460.03 847.62 1460.48 847.359C1460.94 847.099 1461.29 846.763 1461.52 846.351C1461.75 845.939 1461.87 845.506 1461.87 845.051V843.517C1461.8 843.602 1461.65 843.68 1461.4 843.751C1461.17 843.818 1460.89 843.877 1460.58 843.929C1460.27 843.976 1459.97 844.019 1459.68 844.057C1459.39 844.09 1459.16 844.118 1458.98 844.142C1458.54 844.199 1458.13 844.291 1457.75 844.419C1457.38 844.542 1457.08 844.729 1456.84 844.98C1456.62 845.226 1456.5 845.562 1456.5 845.989C1456.5 846.571 1456.72 847.011 1457.15 847.31C1457.59 847.603 1458.14 847.75 1458.8 847.75ZM1466.61 849V838.091H1468.23V839.739H1468.34C1468.54 839.199 1468.9 838.761 1469.42 838.425C1469.94 838.089 1470.53 837.92 1471.18 837.92C1471.31 837.92 1471.46 837.923 1471.64 837.928C1471.83 837.932 1471.97 837.939 1472.06 837.949V839.653C1472.01 839.639 1471.88 839.618 1471.67 839.589C1471.47 839.556 1471.26 839.54 1471.04 839.54C1470.51 839.54 1470.04 839.651 1469.62 839.874C1469.21 840.091 1468.88 840.394 1468.64 840.783C1468.4 841.166 1468.28 841.604 1468.28 842.097V849H1466.61ZM1474.05 849V838.091H1475.67V839.795H1475.81C1476.04 839.213 1476.41 838.761 1476.91 838.439C1477.42 838.112 1478.03 837.949 1478.74 837.949C1479.46 837.949 1480.06 838.112 1480.53 838.439C1481.02 838.761 1481.39 839.213 1481.66 839.795H1481.78C1482.06 839.232 1482.48 838.785 1483.03 838.453C1483.59 838.117 1484.26 837.949 1485.04 837.949C1486.02 837.949 1486.82 838.254 1487.44 838.865C1488.06 839.471 1488.37 840.416 1488.37 841.699V849H1486.69V841.699C1486.69 840.894 1486.47 840.319 1486.03 839.973C1485.59 839.627 1485.07 839.455 1484.48 839.455C1483.71 839.455 1483.11 839.687 1482.69 840.151C1482.27 840.61 1482.06 841.192 1482.06 841.898V849H1480.36V841.528C1480.36 840.908 1480.16 840.409 1479.75 840.03C1479.35 839.646 1478.83 839.455 1478.2 839.455C1477.76 839.455 1477.35 839.571 1476.98 839.803C1476.6 840.035 1476.3 840.357 1476.07 840.768C1475.84 841.176 1475.73 841.647 1475.73 842.182V849H1474.05ZM1495.86 849.227C1494.88 849.227 1494.02 848.993 1493.27 848.524C1492.53 848.055 1491.96 847.4 1491.54 846.557C1491.13 845.714 1490.92 844.729 1490.92 843.602C1490.92 842.466 1491.13 841.474 1491.54 840.626C1491.96 839.779 1492.53 839.121 1493.27 838.652C1494.02 838.183 1494.88 837.949 1495.86 837.949C1496.85 837.949 1497.71 838.183 1498.45 838.652C1499.19 839.121 1499.77 839.779 1500.18 840.626C1500.6 841.474 1500.81 842.466 1500.81 843.602C1500.81 844.729 1500.6 845.714 1500.18 846.557C1499.77 847.4 1499.19 848.055 1498.45 848.524C1497.71 848.993 1496.85 849.227 1495.86 849.227ZM1495.86 847.722C1496.61 847.722 1497.23 847.53 1497.71 847.146C1498.19 846.763 1498.55 846.259 1498.78 845.634C1499.02 845.009 1499.13 844.331 1499.13 843.602C1499.13 842.873 1499.02 842.194 1498.78 841.564C1498.55 840.934 1498.19 840.425 1497.71 840.037C1497.23 839.649 1496.61 839.455 1495.86 839.455C1495.12 839.455 1494.5 839.649 1494.02 840.037C1493.53 840.425 1493.18 840.934 1492.95 841.564C1492.71 842.194 1492.6 842.873 1492.6 843.602C1492.6 844.331 1492.71 845.009 1492.95 845.634C1493.18 846.259 1493.53 846.763 1494.02 847.146C1494.5 847.53 1495.12 847.722 1495.86 847.722ZM1505.04 842.438V849H1503.37V838.091H1504.99V839.795H1505.13C1505.38 839.241 1505.77 838.796 1506.29 838.46C1506.81 838.119 1507.49 837.949 1508.31 837.949C1509.05 837.949 1509.69 838.1 1510.25 838.403C1510.8 838.702 1511.23 839.156 1511.54 839.767C1511.85 840.373 1512 841.14 1512 842.068V849H1510.33V842.182C1510.33 841.325 1510.1 840.657 1509.66 840.179C1509.21 839.696 1508.6 839.455 1507.83 839.455C1507.29 839.455 1506.81 839.571 1506.39 839.803C1505.98 840.035 1505.65 840.373 1505.4 840.818C1505.16 841.263 1505.04 841.803 1505.04 842.438ZM1515.07 849V838.091H1516.74V849H1515.07ZM1515.92 836.273C1515.59 836.273 1515.31 836.161 1515.07 835.939C1514.84 835.716 1514.72 835.449 1514.72 835.136C1514.72 834.824 1514.84 834.556 1515.07 834.334C1515.31 834.111 1515.59 834 1515.92 834C1516.24 834 1516.52 834.111 1516.76 834.334C1516.99 834.556 1517.11 834.824 1517.11 835.136C1517.11 835.449 1516.99 835.716 1516.76 835.939C1516.52 836.161 1516.24 836.273 1515.92 836.273ZM1519.5 849V847.722L1525.69 839.767V839.653H1519.7V838.091H1527.85V839.426L1521.83 847.324V847.438H1528.05V849H1519.5ZM1533.84 849.256C1533.15 849.256 1532.52 849.125 1531.96 848.865C1531.4 848.6 1530.95 848.219 1530.62 847.722C1530.29 847.22 1530.12 846.614 1530.12 845.903C1530.12 845.278 1530.24 844.772 1530.49 844.384C1530.74 843.991 1531.06 843.683 1531.48 843.46C1531.89 843.238 1532.34 843.072 1532.84 842.963C1533.34 842.849 1533.85 842.759 1534.35 842.693C1535.02 842.608 1535.55 842.544 1535.97 842.501C1536.38 842.454 1536.69 842.376 1536.87 842.267C1537.07 842.158 1537.17 841.969 1537.17 841.699V841.642C1537.17 840.941 1536.97 840.397 1536.59 840.009C1536.21 839.62 1535.64 839.426 1534.86 839.426C1534.06 839.426 1533.44 839.601 1532.98 839.952C1532.53 840.302 1532.21 840.676 1532.02 841.074L1530.43 840.506C1530.72 839.843 1531.1 839.327 1531.57 838.957C1532.05 838.583 1532.57 838.323 1533.13 838.176C1533.7 838.025 1534.26 837.949 1534.81 837.949C1535.16 837.949 1535.56 837.991 1536.02 838.077C1536.47 838.157 1536.92 838.325 1537.34 838.581C1537.77 838.837 1538.13 839.223 1538.42 839.739C1538.7 840.255 1538.84 840.946 1538.84 841.812V849H1537.17V847.523H1537.08C1536.97 847.759 1536.78 848.013 1536.51 848.283C1536.25 848.553 1535.89 848.782 1535.45 848.972C1535.01 849.161 1534.48 849.256 1533.84 849.256ZM1534.1 847.75C1534.76 847.75 1535.32 847.62 1535.77 847.359C1536.23 847.099 1536.58 846.763 1536.81 846.351C1537.05 845.939 1537.17 845.506 1537.17 845.051V843.517C1537.09 843.602 1536.94 843.68 1536.7 843.751C1536.46 843.818 1536.19 843.877 1535.87 843.929C1535.57 843.976 1535.26 844.019 1534.97 844.057C1534.68 844.09 1534.45 844.118 1534.27 844.142C1533.83 844.199 1533.43 844.291 1533.05 844.419C1532.67 844.542 1532.37 844.729 1532.14 844.98C1531.91 845.226 1531.8 845.562 1531.8 845.989C1531.8 846.571 1532.01 847.011 1532.44 847.31C1532.88 847.603 1533.43 847.75 1534.1 847.75ZM1546.65 838.091V839.511H1540.99V838.091H1546.65ZM1542.64 835.477H1544.32V845.875C1544.32 846.348 1544.38 846.704 1544.52 846.94C1544.66 847.172 1544.84 847.329 1545.06 847.409C1545.28 847.485 1545.52 847.523 1545.76 847.523C1545.95 847.523 1546.1 847.513 1546.22 847.494C1546.34 847.471 1546.43 847.452 1546.5 847.438L1546.84 848.943C1546.73 848.986 1546.57 849.028 1546.37 849.071C1546.17 849.118 1545.91 849.142 1545.59 849.142C1545.12 849.142 1544.66 849.04 1544.2 848.837C1543.75 848.633 1543.38 848.323 1543.08 847.906C1542.79 847.49 1542.64 846.964 1542.64 846.33V835.477ZM1549.17 849V838.091H1550.84V849H1549.17ZM1550.02 836.273C1549.69 836.273 1549.41 836.161 1549.17 835.939C1548.94 835.716 1548.83 835.449 1548.83 835.136C1548.83 834.824 1548.94 834.556 1549.17 834.334C1549.41 834.111 1549.69 834 1550.02 834C1550.35 834 1550.63 834.111 1550.86 834.334C1551.09 834.556 1551.21 834.824 1551.21 835.136C1551.21 835.449 1551.09 835.716 1550.86 835.939C1550.63 836.161 1550.35 836.273 1550.02 836.273ZM1558.34 849.227C1557.36 849.227 1556.5 848.993 1555.75 848.524C1555.01 848.055 1554.44 847.4 1554.02 846.557C1553.61 845.714 1553.4 844.729 1553.4 843.602C1553.4 842.466 1553.61 841.474 1554.02 840.626C1554.44 839.779 1555.01 839.121 1555.75 838.652C1556.5 838.183 1557.36 837.949 1558.34 837.949C1559.33 837.949 1560.19 838.183 1560.93 838.652C1561.67 839.121 1562.25 839.779 1562.66 840.626C1563.08 841.474 1563.29 842.466 1563.29 843.602C1563.29 844.729 1563.08 845.714 1562.66 846.557C1562.25 847.4 1561.67 848.055 1560.93 848.524C1560.19 848.993 1559.33 849.227 1558.34 849.227ZM1558.34 847.722C1559.09 847.722 1559.71 847.53 1560.19 847.146C1560.67 846.763 1561.03 846.259 1561.26 845.634C1561.5 845.009 1561.61 844.331 1561.61 843.602C1561.61 842.873 1561.5 842.194 1561.26 841.564C1561.03 840.934 1560.67 840.425 1560.19 840.037C1559.71 839.649 1559.09 839.455 1558.34 839.455C1557.6 839.455 1556.98 839.649 1556.5 840.037C1556.02 840.425 1555.66 840.934 1555.43 841.564C1555.19 842.194 1555.08 842.873 1555.08 843.602C1555.08 844.331 1555.19 845.009 1555.43 845.634C1555.66 846.259 1556.02 846.763 1556.5 847.146C1556.98 847.53 1557.6 847.722 1558.34 847.722ZM1567.52 842.438V849H1565.85V838.091H1567.47V839.795H1567.61C1567.86 839.241 1568.25 838.796 1568.77 838.46C1569.29 838.119 1569.97 837.949 1570.79 837.949C1571.53 837.949 1572.17 838.1 1572.73 838.403C1573.28 838.702 1573.71 839.156 1574.02 839.767C1574.33 840.373 1574.48 841.14 1574.48 842.068V849H1572.81V842.182C1572.81 841.325 1572.58 840.657 1572.14 840.179C1571.69 839.696 1571.08 839.455 1570.31 839.455C1569.77 839.455 1569.29 839.571 1568.87 839.803C1568.46 840.035 1568.13 840.373 1567.88 840.818C1567.64 841.263 1567.52 841.803 1567.52 842.438Z" fill="black"/>
<path d="M1294.76 834.455H1296.86L1301.81 846.528H1301.98L1306.92 834.455H1309.02V849H1307.38V837.949H1307.23L1302.69 849H1301.1L1296.55 837.949H1296.41V849H1294.76V834.455ZM1315.54 849.256C1314.85 849.256 1314.22 849.125 1313.66 848.865C1313.09 848.6 1312.64 848.219 1312.31 847.722C1311.98 847.22 1311.82 846.614 1311.82 845.903C1311.82 845.278 1311.94 844.772 1312.19 844.384C1312.43 843.991 1312.76 843.683 1313.17 843.46C1313.58 843.238 1314.04 843.072 1314.54 842.963C1315.04 842.849 1315.54 842.759 1316.05 842.693C1316.71 842.608 1317.25 842.544 1317.66 842.501C1318.08 842.454 1318.38 842.376 1318.57 842.267C1318.76 842.158 1318.86 841.969 1318.86 841.699V841.642C1318.86 840.941 1318.67 840.397 1318.29 840.009C1317.91 839.62 1317.33 839.426 1316.56 839.426C1315.76 839.426 1315.13 839.601 1314.68 839.952C1314.22 840.302 1313.9 840.676 1313.72 841.074L1312.13 840.506C1312.41 839.843 1312.79 839.327 1313.26 838.957C1313.74 838.583 1314.26 838.323 1314.83 838.176C1315.4 838.025 1315.95 837.949 1316.5 837.949C1316.85 837.949 1317.26 837.991 1317.71 838.077C1318.17 838.157 1318.61 838.325 1319.04 838.581C1319.47 838.837 1319.83 839.223 1320.11 839.739C1320.4 840.255 1320.54 840.946 1320.54 841.812V849H1318.86V847.523H1318.78C1318.66 847.759 1318.47 848.013 1318.21 848.283C1317.94 848.553 1317.59 848.782 1317.15 848.972C1316.71 849.161 1316.17 849.256 1315.54 849.256ZM1315.79 847.75C1316.46 847.75 1317.01 847.62 1317.47 847.359C1317.93 847.099 1318.27 846.763 1318.51 846.351C1318.74 845.939 1318.86 845.506 1318.86 845.051V843.517C1318.79 843.602 1318.63 843.68 1318.39 843.751C1318.16 843.818 1317.88 843.877 1317.57 843.929C1317.26 843.976 1316.96 844.019 1316.67 844.057C1316.38 844.09 1316.14 844.118 1315.96 844.142C1315.53 844.199 1315.12 844.291 1314.74 844.419C1314.37 844.542 1314.06 844.729 1313.83 844.98C1313.61 845.226 1313.49 845.562 1313.49 845.989C1313.49 846.571 1313.71 847.011 1314.14 847.31C1314.57 847.603 1315.13 847.75 1315.79 847.75ZM1323.6 849V838.091H1325.22V839.739H1325.33C1325.53 839.199 1325.89 838.761 1326.41 838.425C1326.93 838.089 1327.52 837.92 1328.17 837.92C1328.29 837.92 1328.45 837.923 1328.63 837.928C1328.82 837.932 1328.96 837.939 1329.05 837.949V839.653C1328.99 839.639 1328.86 839.618 1328.66 839.589C1328.46 839.556 1328.25 839.54 1328.03 839.54C1327.5 839.54 1327.02 839.651 1326.61 839.874C1326.2 840.091 1325.87 840.394 1325.63 840.783C1325.39 841.166 1325.27 841.604 1325.27 842.097V849H1323.6ZM1331.04 849V838.091H1332.66V839.739H1332.77C1332.97 839.199 1333.33 838.761 1333.85 838.425C1334.37 838.089 1334.96 837.92 1335.61 837.92C1335.73 837.92 1335.89 837.923 1336.07 837.928C1336.26 837.932 1336.4 837.939 1336.49 837.949V839.653C1336.44 839.639 1336.31 839.618 1336.1 839.589C1335.9 839.556 1335.69 839.54 1335.47 839.54C1334.94 839.54 1334.47 839.651 1334.05 839.874C1333.64 840.091 1333.31 840.394 1333.07 840.783C1332.83 841.166 1332.71 841.604 1332.71 842.097V849H1331.04ZM1338.48 849V838.091H1340.16V849H1338.48ZM1339.33 836.273C1339 836.273 1338.72 836.161 1338.49 835.939C1338.25 835.716 1338.14 835.449 1338.14 835.136C1338.14 834.824 1338.25 834.556 1338.49 834.334C1338.72 834.111 1339 834 1339.33 834C1339.66 834 1339.94 834.111 1340.17 834.334C1340.41 834.556 1340.52 834.824 1340.52 835.136C1340.52 835.449 1340.41 835.716 1340.17 835.939C1339.94 836.161 1339.66 836.273 1339.33 836.273ZM1346.44 849.256C1345.74 849.256 1345.12 849.125 1344.55 848.865C1343.99 848.6 1343.54 848.219 1343.21 847.722C1342.88 847.22 1342.71 846.614 1342.71 845.903C1342.71 845.278 1342.84 844.772 1343.08 844.384C1343.33 843.991 1343.66 843.683 1344.07 843.46C1344.48 843.238 1344.94 843.072 1345.43 842.963C1345.94 842.849 1346.44 842.759 1346.95 842.693C1347.61 842.608 1348.15 842.544 1348.56 842.501C1348.98 842.454 1349.28 842.376 1349.47 842.267C1349.66 842.158 1349.76 841.969 1349.76 841.699V841.642C1349.76 840.941 1349.57 840.397 1349.18 840.009C1348.81 839.62 1348.23 839.426 1347.46 839.426C1346.66 839.426 1346.03 839.601 1345.58 839.952C1345.12 840.302 1344.8 840.676 1344.62 841.074L1343.03 840.506C1343.31 839.843 1343.69 839.327 1344.16 838.957C1344.64 838.583 1345.16 838.323 1345.73 838.176C1346.29 838.025 1346.85 837.949 1347.4 837.949C1347.75 837.949 1348.15 837.991 1348.61 838.077C1349.07 838.157 1349.51 838.325 1349.94 838.581C1350.37 838.837 1350.73 839.223 1351.01 839.739C1351.29 840.255 1351.44 840.946 1351.44 841.812V849H1349.76V847.523H1349.67C1349.56 847.759 1349.37 848.013 1349.11 848.283C1348.84 848.553 1348.49 848.782 1348.05 848.972C1347.61 849.161 1347.07 849.256 1346.44 849.256ZM1346.69 847.75C1347.35 847.75 1347.91 847.62 1348.37 847.359C1348.83 847.099 1349.17 846.763 1349.4 846.351C1349.64 845.939 1349.76 845.506 1349.76 845.051V843.517C1349.69 843.602 1349.53 843.68 1349.29 843.751C1349.05 843.818 1348.78 843.877 1348.47 843.929C1348.16 843.976 1347.86 844.019 1347.56 844.057C1347.28 844.09 1347.04 844.118 1346.86 844.142C1346.43 844.199 1346.02 844.291 1345.64 844.419C1345.27 844.542 1344.96 844.729 1344.73 844.98C1344.5 845.226 1344.39 845.562 1344.39 845.989C1344.39 846.571 1344.61 847.011 1345.04 847.31C1345.47 847.603 1346.02 847.75 1346.69 847.75ZM1358.9 853.318C1358.09 853.318 1357.39 853.214 1356.81 853.006C1356.23 852.802 1355.74 852.532 1355.35 852.196C1354.97 851.865 1354.67 851.509 1354.44 851.131L1355.77 850.193C1355.92 850.392 1356.12 850.619 1356.35 850.875C1356.58 851.135 1356.9 851.36 1357.3 851.55C1357.71 851.744 1358.24 851.841 1358.9 851.841C1359.78 851.841 1360.51 851.628 1361.08 851.202C1361.65 850.776 1361.94 850.108 1361.94 849.199V846.983H1361.8C1361.67 847.182 1361.5 847.428 1361.27 847.722C1361.05 848.01 1360.73 848.268 1360.3 848.496C1359.89 848.718 1359.32 848.83 1358.61 848.83C1357.73 848.83 1356.94 848.621 1356.24 848.205C1355.55 847.788 1354.99 847.182 1354.59 846.386C1354.18 845.591 1353.98 844.625 1353.98 843.489C1353.98 842.371 1354.18 841.398 1354.57 840.57C1354.97 839.736 1355.51 839.092 1356.21 838.638C1356.91 838.179 1357.72 837.949 1358.64 837.949C1359.35 837.949 1359.92 838.067 1360.33 838.304C1360.75 838.536 1361.08 838.801 1361.3 839.099C1361.53 839.393 1361.7 839.634 1361.82 839.824H1362V838.091H1363.61V849.312C1363.61 850.25 1363.4 851.012 1362.98 851.599C1362.55 852.191 1361.99 852.625 1361.27 852.899C1360.56 853.179 1359.77 853.318 1358.9 853.318ZM1358.84 847.324C1359.51 847.324 1360.08 847.17 1360.55 846.862C1361.01 846.554 1361.36 846.112 1361.6 845.534C1361.85 844.956 1361.97 844.265 1361.97 843.46C1361.97 842.674 1361.85 841.981 1361.61 841.379C1361.37 840.778 1361.02 840.307 1360.56 839.966C1360.1 839.625 1359.52 839.455 1358.84 839.455C1358.13 839.455 1357.54 839.634 1357.07 839.994C1356.6 840.354 1356.24 840.837 1356.01 841.443C1355.78 842.049 1355.66 842.722 1355.66 843.46C1355.66 844.218 1355.78 844.888 1356.01 845.47C1356.26 846.048 1356.61 846.502 1357.08 846.834C1357.55 847.161 1358.14 847.324 1358.84 847.324ZM1371.26 849.227C1370.21 849.227 1369.3 848.995 1368.54 848.531C1367.78 848.062 1367.19 847.409 1366.78 846.571C1366.37 845.728 1366.17 844.748 1366.17 843.631C1366.17 842.513 1366.37 841.528 1366.78 840.676C1367.19 839.819 1367.77 839.152 1368.5 838.673C1369.24 838.19 1370.1 837.949 1371.09 837.949C1371.65 837.949 1372.22 838.044 1372.77 838.233C1373.32 838.422 1373.83 838.73 1374.28 839.156C1374.74 839.578 1375.1 840.136 1375.37 840.832C1375.64 841.528 1375.77 842.385 1375.77 843.403V844.114H1367.36V842.665H1374.07C1374.07 842.049 1373.95 841.5 1373.7 841.017C1373.46 840.534 1373.11 840.153 1372.66 839.874C1372.22 839.594 1371.69 839.455 1371.09 839.455C1370.42 839.455 1369.84 839.62 1369.35 839.952C1368.87 840.278 1368.5 840.705 1368.24 841.23C1367.98 841.756 1367.85 842.319 1367.85 842.92V843.886C1367.85 844.71 1367.99 845.409 1368.27 845.982C1368.56 846.55 1368.96 846.983 1369.47 847.281C1369.99 847.575 1370.58 847.722 1371.26 847.722C1371.7 847.722 1372.09 847.66 1372.45 847.537C1372.81 847.409 1373.12 847.22 1373.38 846.969C1373.64 846.713 1373.84 846.396 1373.98 846.017L1375.6 846.472C1375.43 847.021 1375.15 847.504 1374.74 847.92C1374.34 848.332 1373.84 848.654 1373.25 848.886C1372.66 849.114 1372 849.227 1371.26 849.227Z" fill="black"/>
<path d="M1652.7 839C1652.55 838.522 1652.34 838.093 1652.09 837.714C1651.84 837.331 1651.54 837.004 1651.18 836.734C1650.84 836.464 1650.45 836.259 1650.01 836.116C1649.57 835.974 1649.08 835.903 1648.56 835.903C1647.7 835.903 1646.91 836.126 1646.21 836.571C1645.5 837.016 1644.94 837.672 1644.52 838.538C1644.11 839.405 1643.9 840.468 1643.9 841.727C1643.9 842.987 1644.11 844.05 1644.53 844.916C1644.95 845.783 1645.52 846.438 1646.24 846.884C1646.96 847.329 1647.77 847.551 1648.67 847.551C1649.5 847.551 1650.24 847.374 1650.87 847.018C1651.51 846.659 1652.01 846.152 1652.36 845.499C1652.72 844.84 1652.9 844.066 1652.9 843.176L1653.44 843.29H1649.07V841.727H1654.61V843.29C1654.61 844.488 1654.35 845.529 1653.84 846.415C1653.33 847.3 1652.63 847.987 1651.74 848.474C1650.85 848.957 1649.83 849.199 1648.67 849.199C1647.38 849.199 1646.25 848.896 1645.28 848.29C1644.3 847.684 1643.55 846.822 1643 845.705C1642.46 844.587 1642.19 843.261 1642.19 841.727C1642.19 840.577 1642.35 839.542 1642.65 838.624C1642.97 837.7 1643.41 836.914 1643.98 836.266C1644.54 835.617 1645.22 835.12 1645.99 834.774C1646.77 834.429 1647.62 834.256 1648.56 834.256C1649.32 834.256 1650.04 834.372 1650.7 834.604C1651.37 834.831 1651.96 835.155 1652.48 835.577C1653.01 835.993 1653.45 836.493 1653.8 837.075C1654.15 837.653 1654.39 838.295 1654.52 839H1652.7ZM1664.27 844.54V838.091H1665.95V849H1664.27V847.153H1664.16C1663.9 847.707 1663.51 848.179 1662.97 848.567C1662.43 848.95 1661.74 849.142 1660.92 849.142C1660.24 849.142 1659.63 848.993 1659.1 848.695C1658.57 848.392 1658.15 847.937 1657.85 847.331C1657.55 846.72 1657.4 845.951 1657.4 845.023V838.091H1659.07V844.909C1659.07 845.705 1659.3 846.339 1659.74 846.812C1660.19 847.286 1660.76 847.523 1661.46 847.523C1661.88 847.523 1662.3 847.416 1662.73 847.203C1663.17 846.99 1663.53 846.663 1663.82 846.223C1664.12 845.783 1664.27 845.222 1664.27 844.54ZM1669.02 849V838.091H1670.69V849H1669.02ZM1669.87 836.273C1669.54 836.273 1669.26 836.161 1669.03 835.939C1668.79 835.716 1668.68 835.449 1668.68 835.136C1668.68 834.824 1668.79 834.556 1669.03 834.334C1669.26 834.111 1669.54 834 1669.87 834C1670.2 834 1670.48 834.111 1670.71 834.334C1670.95 834.556 1671.06 834.824 1671.06 835.136C1671.06 835.449 1670.95 835.716 1670.71 835.939C1670.48 836.161 1670.2 836.273 1669.87 836.273ZM1677.88 849.227C1676.97 849.227 1676.17 848.998 1675.48 848.538C1674.78 848.074 1674.24 847.421 1673.84 846.578C1673.45 845.731 1673.25 844.729 1673.25 843.574C1673.25 842.428 1673.45 841.434 1673.84 840.591C1674.24 839.748 1674.78 839.097 1675.48 838.638C1676.18 838.179 1676.99 837.949 1677.91 837.949C1678.62 837.949 1679.18 838.067 1679.6 838.304C1680.01 838.536 1680.33 838.801 1680.55 839.099C1680.77 839.393 1680.94 839.634 1681.07 839.824H1681.21V834.455H1682.88V849H1681.26V847.324H1681.07C1680.94 847.523 1680.77 847.774 1680.54 848.077C1680.31 848.375 1679.99 848.643 1679.57 848.879C1679.15 849.111 1678.58 849.227 1677.88 849.227ZM1678.11 847.722C1678.78 847.722 1679.35 847.546 1679.82 847.196C1680.28 846.841 1680.63 846.351 1680.87 845.726C1681.12 845.096 1681.24 844.369 1681.24 843.545C1681.24 842.731 1681.12 842.018 1680.88 841.408C1680.64 840.792 1680.29 840.314 1679.83 839.973C1679.37 839.627 1678.79 839.455 1678.11 839.455C1677.4 839.455 1676.81 839.637 1676.34 840.001C1675.87 840.361 1675.51 840.851 1675.28 841.472C1675.05 842.087 1674.93 842.778 1674.93 843.545C1674.93 844.322 1675.05 845.027 1675.28 845.662C1675.53 846.292 1675.88 846.794 1676.35 847.168C1676.82 847.537 1677.41 847.722 1678.11 847.722ZM1689.4 849.256C1688.71 849.256 1688.08 849.125 1687.51 848.865C1686.95 848.6 1686.5 848.219 1686.17 847.722C1685.84 847.22 1685.68 846.614 1685.68 845.903C1685.68 845.278 1685.8 844.772 1686.04 844.384C1686.29 843.991 1686.62 843.683 1687.03 843.46C1687.44 843.238 1687.9 843.072 1688.4 842.963C1688.9 842.849 1689.4 842.759 1689.91 842.693C1690.57 842.608 1691.11 842.544 1691.52 842.501C1691.94 842.454 1692.24 842.376 1692.43 842.267C1692.62 842.158 1692.72 841.969 1692.72 841.699V841.642C1692.72 840.941 1692.53 840.397 1692.15 840.009C1691.77 839.62 1691.19 839.426 1690.42 839.426C1689.62 839.426 1688.99 839.601 1688.54 839.952C1688.08 840.302 1687.76 840.676 1687.58 841.074L1685.99 840.506C1686.27 839.843 1686.65 839.327 1687.12 838.957C1687.6 838.583 1688.12 838.323 1688.69 838.176C1689.25 838.025 1689.81 837.949 1690.36 837.949C1690.71 837.949 1691.12 837.991 1691.57 838.077C1692.03 838.157 1692.47 838.325 1692.9 838.581C1693.33 838.837 1693.69 839.223 1693.97 839.739C1694.25 840.255 1694.4 840.946 1694.4 841.812V849H1692.72V847.523H1692.64C1692.52 847.759 1692.33 848.013 1692.07 848.283C1691.8 848.553 1691.45 848.782 1691.01 848.972C1690.57 849.161 1690.03 849.256 1689.4 849.256ZM1689.65 847.75C1690.32 847.75 1690.87 847.62 1691.33 847.359C1691.79 847.099 1692.13 846.763 1692.37 846.351C1692.6 845.939 1692.72 845.506 1692.72 845.051V843.517C1692.65 843.602 1692.49 843.68 1692.25 843.751C1692.02 843.818 1691.74 843.877 1691.43 843.929C1691.12 843.976 1690.82 844.019 1690.53 844.057C1690.24 844.09 1690 844.118 1689.82 844.142C1689.39 844.199 1688.98 844.291 1688.6 844.419C1688.23 844.542 1687.92 844.729 1687.69 844.98C1687.46 845.226 1687.35 845.562 1687.35 845.989C1687.35 846.571 1687.57 847.011 1688 847.31C1688.43 847.603 1688.98 847.75 1689.65 847.75ZM1699.13 842.438V849H1697.46V838.091H1699.08V839.795H1699.22C1699.47 839.241 1699.86 838.796 1700.38 838.46C1700.9 838.119 1701.58 837.949 1702.4 837.949C1703.14 837.949 1703.78 838.1 1704.34 838.403C1704.89 838.702 1705.32 839.156 1705.63 839.767C1705.94 840.373 1706.09 841.14 1706.09 842.068V849H1704.42V842.182C1704.42 841.325 1704.19 840.657 1703.75 840.179C1703.3 839.696 1702.69 839.455 1701.92 839.455C1701.38 839.455 1700.9 839.571 1700.48 839.803C1700.06 840.035 1699.74 840.373 1699.49 840.818C1699.25 841.263 1699.13 841.803 1699.13 842.438ZM1713.59 849.227C1712.56 849.227 1711.68 848.986 1710.94 848.503C1710.21 848.02 1709.64 847.355 1709.24 846.507C1708.84 845.66 1708.64 844.691 1708.64 843.602C1708.64 842.494 1708.85 841.517 1709.25 840.669C1709.67 839.817 1710.24 839.152 1710.97 838.673C1711.71 838.19 1712.57 837.949 1713.56 837.949C1714.33 837.949 1715.02 838.091 1715.63 838.375C1716.25 838.659 1716.75 839.057 1717.15 839.568C1717.54 840.08 1717.78 840.676 1717.88 841.358H1716.2C1716.07 840.861 1715.79 840.42 1715.35 840.037C1714.91 839.649 1714.33 839.455 1713.59 839.455C1712.93 839.455 1712.36 839.625 1711.87 839.966C1711.38 840.302 1711 840.778 1710.72 841.393C1710.45 842.004 1710.32 842.722 1710.32 843.545C1710.32 844.388 1710.45 845.122 1710.72 845.747C1710.99 846.372 1711.37 846.857 1711.85 847.203C1712.35 847.549 1712.92 847.722 1713.59 847.722C1714.02 847.722 1714.42 847.646 1714.77 847.494C1715.13 847.343 1715.43 847.125 1715.68 846.841C1715.92 846.557 1716.1 846.216 1716.2 845.818H1717.88C1717.78 846.462 1717.55 847.042 1717.17 847.558C1716.8 848.07 1716.31 848.477 1715.7 848.78C1715.1 849.078 1714.39 849.227 1713.59 849.227ZM1724.9 849.227C1723.85 849.227 1722.94 848.995 1722.18 848.531C1721.42 848.062 1720.84 847.409 1720.43 846.571C1720.02 845.728 1719.82 844.748 1719.82 843.631C1719.82 842.513 1720.02 841.528 1720.43 840.676C1720.84 839.819 1721.41 839.152 1722.15 838.673C1722.88 838.19 1723.75 837.949 1724.73 837.949C1725.3 837.949 1725.86 838.044 1726.41 838.233C1726.97 838.422 1727.47 838.73 1727.93 839.156C1728.38 839.578 1728.74 840.136 1729.01 840.832C1729.28 841.528 1729.42 842.385 1729.42 843.403V844.114H1721.01V842.665H1727.71C1727.71 842.049 1727.59 841.5 1727.34 841.017C1727.1 840.534 1726.76 840.153 1726.31 839.874C1725.86 839.594 1725.34 839.455 1724.73 839.455C1724.06 839.455 1723.49 839.62 1723 839.952C1722.51 840.278 1722.14 840.705 1721.88 841.23C1721.62 841.756 1721.49 842.319 1721.49 842.92V843.886C1721.49 844.71 1721.63 845.409 1721.92 845.982C1722.21 846.55 1722.61 846.983 1723.12 847.281C1723.63 847.575 1724.22 847.722 1724.9 847.722C1725.34 847.722 1725.74 847.66 1726.09 847.537C1726.45 847.409 1726.76 847.22 1727.02 846.969C1727.28 846.713 1727.49 846.396 1727.63 846.017L1729.25 846.472C1729.08 847.021 1728.79 847.504 1728.39 847.92C1727.99 848.332 1727.49 848.654 1726.9 848.886C1726.3 849.114 1725.64 849.227 1724.9 849.227Z" fill="black"/>
<path d="M1474.25 921H1469.76V906.455H1474.45C1475.86 906.455 1477.07 906.746 1478.07 907.328C1479.07 907.906 1479.84 908.737 1480.38 909.821C1480.91 910.901 1481.18 912.193 1481.18 913.699C1481.18 915.214 1480.91 916.518 1480.37 917.612C1479.83 918.701 1479.05 919.539 1478.01 920.126C1476.98 920.709 1475.73 921 1474.25 921ZM1471.52 919.438H1474.14C1475.34 919.438 1476.34 919.205 1477.13 918.741C1477.92 918.277 1478.51 917.617 1478.89 916.76C1479.28 915.903 1479.48 914.883 1479.48 913.699C1479.48 912.525 1479.29 911.514 1478.9 910.666C1478.52 909.814 1477.95 909.161 1477.18 908.706C1476.42 908.247 1475.47 908.017 1474.34 908.017H1471.52V919.438ZM1487.12 921.256C1486.43 921.256 1485.8 921.125 1485.24 920.865C1484.67 920.6 1484.23 920.219 1483.89 919.722C1483.56 919.22 1483.4 918.614 1483.4 917.903C1483.4 917.278 1483.52 916.772 1483.77 916.384C1484.01 915.991 1484.34 915.683 1484.75 915.46C1485.17 915.238 1485.62 915.072 1486.12 914.963C1486.62 914.849 1487.12 914.759 1487.63 914.693C1488.29 914.608 1488.83 914.544 1489.24 914.501C1489.66 914.454 1489.96 914.376 1490.15 914.267C1490.35 914.158 1490.44 913.969 1490.44 913.699V913.642C1490.44 912.941 1490.25 912.397 1489.87 912.009C1489.49 911.62 1488.91 911.426 1488.14 911.426C1487.34 911.426 1486.71 911.601 1486.26 911.952C1485.81 912.302 1485.49 912.676 1485.3 913.074L1483.71 912.506C1483.99 911.843 1484.37 911.327 1484.85 910.957C1485.32 910.583 1485.85 910.323 1486.41 910.176C1486.98 910.025 1487.54 909.949 1488.09 909.949C1488.44 909.949 1488.84 909.991 1489.29 910.077C1489.75 910.157 1490.19 910.325 1490.62 910.581C1491.05 910.837 1491.41 911.223 1491.69 911.739C1491.98 912.255 1492.12 912.946 1492.12 913.812V921H1490.44V919.523H1490.36C1490.24 919.759 1490.05 920.013 1489.79 920.283C1489.52 920.553 1489.17 920.782 1488.73 920.972C1488.29 921.161 1487.75 921.256 1487.12 921.256ZM1487.38 919.75C1488.04 919.75 1488.6 919.62 1489.05 919.359C1489.51 919.099 1489.86 918.763 1490.09 918.351C1490.32 917.939 1490.44 917.506 1490.44 917.051V915.517C1490.37 915.602 1490.22 915.68 1489.97 915.751C1489.74 915.818 1489.46 915.877 1489.15 915.929C1488.84 915.976 1488.54 916.019 1488.25 916.057C1487.96 916.09 1487.73 916.118 1487.55 916.142C1487.11 916.199 1486.7 916.291 1486.32 916.419C1485.95 916.542 1485.65 916.729 1485.41 916.98C1485.19 917.226 1485.07 917.562 1485.07 917.989C1485.07 918.571 1485.29 919.011 1485.72 919.31C1486.16 919.603 1486.71 919.75 1487.38 919.75ZM1499.92 910.091V911.511H1494.27V910.091H1499.92ZM1495.92 907.477H1497.59V917.875C1497.59 918.348 1497.66 918.704 1497.8 918.94C1497.94 919.172 1498.12 919.329 1498.34 919.409C1498.56 919.485 1498.8 919.523 1499.04 919.523C1499.23 919.523 1499.38 919.513 1499.5 919.494C1499.62 919.471 1499.71 919.452 1499.78 919.438L1500.12 920.943C1500.01 920.986 1499.85 921.028 1499.65 921.071C1499.44 921.118 1499.18 921.142 1498.87 921.142C1498.4 921.142 1497.93 921.04 1497.48 920.837C1497.03 920.633 1496.66 920.323 1496.36 919.906C1496.06 919.49 1495.92 918.964 1495.92 918.33V907.477ZM1506.9 921.227C1505.85 921.227 1504.94 920.995 1504.18 920.531C1503.42 920.062 1502.84 919.409 1502.43 918.571C1502.02 917.728 1501.82 916.748 1501.82 915.631C1501.82 914.513 1502.02 913.528 1502.43 912.676C1502.84 911.819 1503.41 911.152 1504.15 910.673C1504.88 910.19 1505.75 909.949 1506.73 909.949C1507.3 909.949 1507.86 910.044 1508.41 910.233C1508.97 910.422 1509.47 910.73 1509.93 911.156C1510.38 911.578 1510.74 912.136 1511.01 912.832C1511.28 913.528 1511.42 914.385 1511.42 915.403V916.114H1503.01V914.665H1509.71C1509.71 914.049 1509.59 913.5 1509.34 913.017C1509.1 912.534 1508.76 912.153 1508.31 911.874C1507.86 911.594 1507.34 911.455 1506.73 911.455C1506.06 911.455 1505.49 911.62 1505 911.952C1504.51 912.278 1504.14 912.705 1503.88 913.23C1503.62 913.756 1503.49 914.319 1503.49 914.92V915.886C1503.49 916.71 1503.63 917.409 1503.92 917.982C1504.21 918.55 1504.61 918.983 1505.12 919.281C1505.63 919.575 1506.22 919.722 1506.9 919.722C1507.34 919.722 1507.74 919.66 1508.09 919.537C1508.45 919.409 1508.76 919.22 1509.02 918.969C1509.28 918.713 1509.49 918.396 1509.63 918.017L1511.25 918.472C1511.08 919.021 1510.79 919.504 1510.39 919.92C1509.99 920.332 1509.49 920.654 1508.9 920.886C1508.3 921.114 1507.64 921.227 1506.9 921.227ZM1520.42 921H1518.57L1523.91 906.455H1525.73L1531.07 921H1529.22L1524.88 908.756H1524.76L1520.42 921ZM1521.1 915.318H1528.54V916.881H1521.1V915.318ZM1533.11 921V910.091H1534.73V911.739H1534.84C1535.04 911.199 1535.4 910.761 1535.92 910.425C1536.44 910.089 1537.03 909.92 1537.68 909.92C1537.81 909.92 1537.96 909.923 1538.14 909.928C1538.33 909.932 1538.47 909.939 1538.56 909.949V911.653C1538.51 911.639 1538.38 911.618 1538.17 911.589C1537.97 911.556 1537.76 911.54 1537.54 911.54C1537.01 911.54 1536.54 911.651 1536.12 911.874C1535.71 912.091 1535.38 912.394 1535.14 912.783C1534.9 913.166 1534.78 913.604 1534.78 914.097V921H1533.11ZM1540.55 921V910.091H1542.17V911.739H1542.28C1542.48 911.199 1542.84 910.761 1543.36 910.425C1543.88 910.089 1544.47 909.92 1545.12 909.92C1545.25 909.92 1545.4 909.923 1545.59 909.928C1545.77 909.932 1545.91 909.939 1546 909.949V911.653C1545.95 911.639 1545.82 911.618 1545.61 911.589C1545.41 911.556 1545.2 911.54 1544.98 911.54C1544.45 911.54 1543.98 911.651 1543.56 911.874C1543.15 912.091 1542.82 912.394 1542.58 912.783C1542.34 913.166 1542.23 913.604 1542.23 914.097V921H1540.55ZM1551.2 921.256C1550.51 921.256 1549.88 921.125 1549.32 920.865C1548.76 920.6 1548.31 920.219 1547.98 919.722C1547.65 919.22 1547.48 918.614 1547.48 917.903C1547.48 917.278 1547.6 916.772 1547.85 916.384C1548.1 915.991 1548.42 915.683 1548.84 915.46C1549.25 915.238 1549.7 915.072 1550.2 914.963C1550.7 914.849 1551.21 914.759 1551.71 914.693C1552.38 914.608 1552.91 914.544 1553.32 914.501C1553.74 914.454 1554.04 914.376 1554.23 914.267C1554.43 914.158 1554.53 913.969 1554.53 913.699V913.642C1554.53 912.941 1554.33 912.397 1553.95 912.009C1553.57 911.62 1553 911.426 1552.22 911.426C1551.42 911.426 1550.8 911.601 1550.34 911.952C1549.89 912.302 1549.57 912.676 1549.38 913.074L1547.79 912.506C1548.08 911.843 1548.46 911.327 1548.93 910.957C1549.41 910.583 1549.93 910.323 1550.49 910.176C1551.06 910.025 1551.62 909.949 1552.17 909.949C1552.52 909.949 1552.92 909.991 1553.37 910.077C1553.83 910.157 1554.28 910.325 1554.7 910.581C1555.13 910.837 1555.49 911.223 1555.78 911.739C1556.06 912.255 1556.2 912.946 1556.2 913.812V921H1554.53V919.523H1554.44C1554.33 919.759 1554.14 920.013 1553.87 920.283C1553.61 920.553 1553.25 920.782 1552.81 920.972C1552.37 921.161 1551.84 921.256 1551.2 921.256ZM1551.46 919.75C1552.12 919.75 1552.68 919.62 1553.13 919.359C1553.59 919.099 1553.94 918.763 1554.17 918.351C1554.41 917.939 1554.53 917.506 1554.53 917.051V915.517C1554.45 915.602 1554.3 915.68 1554.06 915.751C1553.82 915.818 1553.55 915.877 1553.23 915.929C1552.92 915.976 1552.62 916.019 1552.33 916.057C1552.04 916.09 1551.81 916.118 1551.63 916.142C1551.19 916.199 1550.78 916.291 1550.41 916.419C1550.03 916.542 1549.73 916.729 1549.5 916.98C1549.27 917.226 1549.16 917.562 1549.16 917.989C1549.16 918.571 1549.37 919.011 1549.8 919.31C1550.24 919.603 1550.79 919.75 1551.46 919.75ZM1560.94 914.438V921H1559.26V910.091H1560.88V911.795H1561.02C1561.28 911.241 1561.67 910.796 1562.19 910.46C1562.71 910.119 1563.38 909.949 1564.2 909.949C1564.94 909.949 1565.59 910.1 1566.14 910.403C1566.7 910.702 1567.13 911.156 1567.44 911.767C1567.74 912.373 1567.9 913.14 1567.9 914.068V921H1566.22V914.182C1566.22 913.325 1566 912.657 1565.55 912.179C1565.11 911.696 1564.5 911.455 1563.72 911.455C1563.19 911.455 1562.71 911.571 1562.29 911.803C1561.87 912.035 1561.54 912.373 1561.3 912.818C1561.06 913.263 1560.94 913.803 1560.94 914.438ZM1575.36 925.318C1574.55 925.318 1573.86 925.214 1573.28 925.006C1572.69 924.802 1572.21 924.532 1571.82 924.196C1571.44 923.865 1571.13 923.509 1570.9 923.131L1572.24 922.193C1572.39 922.392 1572.58 922.619 1572.81 922.875C1573.05 923.135 1573.36 923.36 1573.77 923.55C1574.17 923.744 1574.71 923.841 1575.36 923.841C1576.24 923.841 1576.97 923.628 1577.54 923.202C1578.12 922.776 1578.4 922.108 1578.4 921.199V918.983H1578.26C1578.14 919.182 1577.96 919.428 1577.74 919.722C1577.51 920.01 1577.19 920.268 1576.77 920.496C1576.35 920.718 1575.79 920.83 1575.08 920.83C1574.2 920.83 1573.41 920.621 1572.71 920.205C1572.01 919.788 1571.46 919.182 1571.05 918.386C1570.65 917.591 1570.45 916.625 1570.45 915.489C1570.45 914.371 1570.65 913.398 1571.04 912.57C1571.43 911.736 1571.98 911.092 1572.68 910.638C1573.38 910.179 1574.19 909.949 1575.11 909.949C1575.82 909.949 1576.38 910.067 1576.8 910.304C1577.22 910.536 1577.54 910.801 1577.76 911.099C1577.99 911.393 1578.17 911.634 1578.29 911.824H1578.46V910.091H1580.08V921.312C1580.08 922.25 1579.87 923.012 1579.44 923.599C1579.02 924.191 1578.45 924.625 1577.74 924.899C1577.03 925.179 1576.23 925.318 1575.36 925.318ZM1575.31 919.324C1575.98 919.324 1576.55 919.17 1577.01 918.862C1577.48 918.554 1577.83 918.112 1578.07 917.534C1578.31 916.956 1578.43 916.265 1578.43 915.46C1578.43 914.674 1578.31 913.981 1578.08 913.379C1577.84 912.778 1577.49 912.307 1577.03 911.966C1576.56 911.625 1575.99 911.455 1575.31 911.455C1574.6 911.455 1574 911.634 1573.53 911.994C1573.06 912.354 1572.71 912.837 1572.47 913.443C1572.24 914.049 1572.12 914.722 1572.12 915.46C1572.12 916.218 1572.24 916.888 1572.48 917.47C1572.72 918.048 1573.08 918.502 1573.55 918.834C1574.02 919.161 1574.61 919.324 1575.31 919.324ZM1587.72 921.227C1586.67 921.227 1585.76 920.995 1585 920.531C1584.24 920.062 1583.66 919.409 1583.25 918.571C1582.84 917.728 1582.64 916.748 1582.64 915.631C1582.64 914.513 1582.84 913.528 1583.25 912.676C1583.66 911.819 1584.23 911.152 1584.97 910.673C1585.7 910.19 1586.57 909.949 1587.55 909.949C1588.12 909.949 1588.68 910.044 1589.23 910.233C1589.79 910.422 1590.29 910.73 1590.75 911.156C1591.2 911.578 1591.56 912.136 1591.83 912.832C1592.1 913.528 1592.24 914.385 1592.24 915.403V916.114H1583.83V914.665H1590.53C1590.53 914.049 1590.41 913.5 1590.16 913.017C1589.92 912.534 1589.58 912.153 1589.13 911.874C1588.68 911.594 1588.16 911.455 1587.55 911.455C1586.88 911.455 1586.31 911.62 1585.82 911.952C1585.33 912.278 1584.96 912.705 1584.7 913.23C1584.44 913.756 1584.31 914.319 1584.31 914.92V915.886C1584.31 916.71 1584.45 917.409 1584.74 917.982C1585.03 918.55 1585.43 918.983 1585.94 919.281C1586.45 919.575 1587.04 919.722 1587.72 919.722C1588.16 919.722 1588.56 919.66 1588.91 919.537C1589.27 919.409 1589.58 919.22 1589.84 918.969C1590.11 918.713 1590.31 918.396 1590.45 918.017L1592.07 918.472C1591.9 919.021 1591.61 919.504 1591.21 919.92C1590.81 920.332 1590.31 920.654 1589.72 920.886C1589.13 921.114 1588.46 921.227 1587.72 921.227ZM1594.79 921V910.091H1596.41V911.795H1596.55C1596.78 911.213 1597.14 910.761 1597.65 910.439C1598.16 910.112 1598.77 909.949 1599.48 909.949C1600.2 909.949 1600.79 910.112 1601.27 910.439C1601.76 910.761 1602.13 911.213 1602.4 911.795H1602.52C1602.79 911.232 1603.21 910.785 1603.77 910.453C1604.33 910.117 1605 909.949 1605.78 909.949C1606.76 909.949 1607.56 910.254 1608.18 910.865C1608.8 911.471 1609.11 912.416 1609.11 913.699V921H1607.43V913.699C1607.43 912.894 1607.21 912.319 1606.77 911.973C1606.33 911.627 1605.81 911.455 1605.21 911.455C1604.45 911.455 1603.85 911.687 1603.43 912.151C1603.01 912.61 1602.8 913.192 1602.8 913.898V921H1601.09V913.528C1601.09 912.908 1600.89 912.409 1600.49 912.03C1600.09 911.646 1599.57 911.455 1598.94 911.455C1598.5 911.455 1598.09 911.571 1597.71 911.803C1597.34 912.035 1597.04 912.357 1596.81 912.768C1596.58 913.176 1596.46 913.647 1596.46 914.182V921H1594.79ZM1616.74 921.227C1615.69 921.227 1614.79 920.995 1614.02 920.531C1613.27 920.062 1612.68 919.409 1612.27 918.571C1611.86 917.728 1611.66 916.748 1611.66 915.631C1611.66 914.513 1611.86 913.528 1612.27 912.676C1612.68 911.819 1613.26 911.152 1613.99 910.673C1614.73 910.19 1615.59 909.949 1616.57 909.949C1617.14 909.949 1617.7 910.044 1618.26 910.233C1618.81 910.422 1619.32 910.73 1619.77 911.156C1620.22 911.578 1620.59 912.136 1620.86 912.832C1621.13 913.528 1621.26 914.385 1621.26 915.403V916.114H1612.85V914.665H1619.56C1619.56 914.049 1619.43 913.5 1619.19 913.017C1618.95 912.534 1618.6 912.153 1618.15 911.874C1617.71 911.594 1617.18 911.455 1616.57 911.455C1615.91 911.455 1615.33 911.62 1614.84 911.952C1614.36 912.278 1613.99 912.705 1613.73 913.23C1613.47 913.756 1613.34 914.319 1613.34 914.92V915.886C1613.34 916.71 1613.48 917.409 1613.76 917.982C1614.05 918.55 1614.45 918.983 1614.96 919.281C1615.47 919.575 1616.07 919.722 1616.74 919.722C1617.19 919.722 1617.58 919.66 1617.94 919.537C1618.3 919.409 1618.61 919.22 1618.87 918.969C1619.13 918.713 1619.33 918.396 1619.47 918.017L1621.09 918.472C1620.92 919.021 1620.63 919.504 1620.23 919.92C1619.83 920.332 1619.33 920.654 1618.74 920.886C1618.15 921.114 1617.48 921.227 1616.74 921.227ZM1625.49 914.438V921H1623.81V910.091H1625.43V911.795H1625.57C1625.83 911.241 1626.22 910.796 1626.74 910.46C1627.26 910.119 1627.93 909.949 1628.75 909.949C1629.49 909.949 1630.14 910.1 1630.69 910.403C1631.25 910.702 1631.68 911.156 1631.99 911.767C1632.29 912.373 1632.45 913.14 1632.45 914.068V921H1630.77V914.182C1630.77 913.325 1630.55 912.657 1630.1 912.179C1629.66 911.696 1629.05 911.455 1628.27 911.455C1627.74 911.455 1627.26 911.571 1626.84 911.803C1626.42 912.035 1626.09 912.373 1625.85 912.818C1625.61 913.263 1625.49 913.803 1625.49 914.438ZM1640.25 910.091V911.511H1634.6V910.091H1640.25ZM1636.25 907.477H1637.93V917.875C1637.93 918.348 1637.99 918.704 1638.13 918.94C1638.27 919.172 1638.45 919.329 1638.67 919.409C1638.89 919.485 1639.13 919.523 1639.37 919.523C1639.56 919.523 1639.71 919.513 1639.83 919.494C1639.95 919.471 1640.04 919.452 1640.11 919.438L1640.45 920.943C1640.34 920.986 1640.18 921.028 1639.98 921.071C1639.77 921.118 1639.52 921.142 1639.2 921.142C1638.73 921.142 1638.27 921.04 1637.81 920.837C1637.36 920.633 1636.99 920.323 1636.69 919.906C1636.4 919.49 1636.25 918.964 1636.25 918.33V907.477ZM1650.31 912.534L1648.8 912.96C1648.71 912.709 1648.57 912.465 1648.38 912.229C1648.2 911.987 1647.96 911.788 1647.64 911.632C1647.33 911.476 1646.93 911.398 1646.44 911.398C1645.78 911.398 1645.22 911.552 1644.78 911.859C1644.34 912.162 1644.12 912.548 1644.12 913.017C1644.12 913.434 1644.27 913.763 1644.57 914.004C1644.87 914.246 1645.35 914.447 1645.99 914.608L1647.61 915.006C1648.58 915.242 1649.31 915.605 1649.79 916.092C1650.27 916.575 1650.51 917.198 1650.51 917.96C1650.51 918.585 1650.33 919.144 1649.97 919.636C1649.61 920.129 1649.12 920.517 1648.48 920.801C1647.84 921.085 1647.09 921.227 1646.25 921.227C1645.13 921.227 1644.21 920.986 1643.48 920.503C1642.75 920.02 1642.29 919.314 1642.1 918.386L1643.69 917.989C1643.84 918.576 1644.13 919.016 1644.55 919.31C1644.97 919.603 1645.53 919.75 1646.22 919.75C1647 919.75 1647.62 919.584 1648.08 919.253C1648.54 918.917 1648.77 918.514 1648.77 918.045C1648.77 917.667 1648.64 917.349 1648.38 917.094C1648.11 916.833 1647.7 916.639 1647.15 916.511L1645.34 916.085C1644.34 915.848 1643.6 915.482 1643.13 914.984C1642.67 914.482 1642.44 913.855 1642.44 913.102C1642.44 912.487 1642.61 911.942 1642.96 911.469C1643.31 910.995 1643.78 910.624 1644.38 910.354C1644.99 910.084 1645.68 909.949 1646.44 909.949C1647.52 909.949 1648.37 910.186 1648.99 910.659C1649.61 911.133 1650.05 911.758 1650.31 912.534Z" fill="black"/>
<path d="M1461.76 992V977.455H1466.68C1467.82 977.455 1468.75 977.661 1469.47 978.072C1470.2 978.48 1470.74 979.031 1471.09 979.727C1471.44 980.423 1471.62 981.2 1471.62 982.057C1471.62 982.914 1471.44 983.693 1471.09 984.393C1470.75 985.094 1470.21 985.653 1469.49 986.07C1468.76 986.482 1467.84 986.688 1466.7 986.688H1463.18V985.125H1466.65C1467.43 985.125 1468.06 984.99 1468.53 984.72C1469 984.45 1469.35 984.086 1469.56 983.626C1469.78 983.162 1469.89 982.639 1469.89 982.057C1469.89 981.474 1469.78 980.954 1469.56 980.494C1469.35 980.035 1469 979.675 1468.52 979.415C1468.04 979.15 1467.41 979.017 1466.62 979.017H1463.52V992H1461.76ZM1478.69 992.227C1477.63 992.227 1476.73 991.995 1475.97 991.531C1475.21 991.062 1474.62 990.409 1474.21 989.571C1473.8 988.728 1473.6 987.748 1473.6 986.631C1473.6 985.513 1473.8 984.528 1474.21 983.676C1474.62 982.819 1475.2 982.152 1475.93 981.673C1476.67 981.19 1477.53 980.949 1478.52 980.949C1479.08 980.949 1479.64 981.044 1480.2 981.233C1480.75 981.422 1481.26 981.73 1481.71 982.156C1482.17 982.578 1482.53 983.136 1482.8 983.832C1483.07 984.528 1483.2 985.385 1483.2 986.403V987.114H1474.79V985.665H1481.5C1481.5 985.049 1481.38 984.5 1481.13 984.017C1480.89 983.534 1480.54 983.153 1480.09 982.874C1479.65 982.594 1479.12 982.455 1478.52 982.455C1477.85 982.455 1477.27 982.62 1476.78 982.952C1476.3 983.278 1475.93 983.705 1475.67 984.23C1475.41 984.756 1475.28 985.319 1475.28 985.92V986.886C1475.28 987.71 1475.42 988.409 1475.7 988.982C1475.99 989.55 1476.39 989.983 1476.9 990.281C1477.41 990.575 1478.01 990.722 1478.69 990.722C1479.13 990.722 1479.52 990.66 1479.88 990.537C1480.24 990.409 1480.55 990.22 1480.81 989.969C1481.07 989.713 1481.27 989.396 1481.41 989.017L1483.03 989.472C1482.86 990.021 1482.58 990.504 1482.17 990.92C1481.77 991.332 1481.27 991.654 1480.68 991.886C1480.09 992.114 1479.42 992.227 1478.69 992.227ZM1485.75 992V981.091H1487.37V982.739H1487.49C1487.68 982.199 1488.04 981.761 1488.57 981.425C1489.09 981.089 1489.67 980.92 1490.33 980.92C1490.45 980.92 1490.6 980.923 1490.79 980.928C1490.97 980.932 1491.11 980.939 1491.21 980.949V982.653C1491.15 982.639 1491.02 982.618 1490.82 982.589C1490.62 982.556 1490.41 982.54 1490.18 982.54C1489.65 982.54 1489.18 982.651 1488.76 982.874C1488.35 983.091 1488.03 983.394 1487.78 983.783C1487.55 984.166 1487.43 984.604 1487.43 985.097V992H1485.75ZM1500.92 983.534L1499.42 983.96C1499.32 983.709 1499.18 983.465 1499 983.229C1498.82 982.987 1498.57 982.788 1498.26 982.632C1497.95 982.476 1497.55 982.398 1497.06 982.398C1496.39 982.398 1495.83 982.552 1495.39 982.859C1494.95 983.162 1494.73 983.548 1494.73 984.017C1494.73 984.434 1494.88 984.763 1495.18 985.004C1495.49 985.246 1495.96 985.447 1496.6 985.608L1498.22 986.006C1499.2 986.242 1499.92 986.605 1500.4 987.092C1500.88 987.575 1501.12 988.198 1501.12 988.96C1501.12 989.585 1500.94 990.144 1500.58 990.636C1500.23 991.129 1499.73 991.517 1499.09 991.801C1498.45 992.085 1497.71 992.227 1496.86 992.227C1495.75 992.227 1494.83 991.986 1494.1 991.503C1493.37 991.02 1492.91 990.314 1492.71 989.386L1494.3 988.989C1494.45 989.576 1494.74 990.016 1495.16 990.31C1495.59 990.603 1496.14 990.75 1496.83 990.75C1497.61 990.75 1498.23 990.584 1498.69 990.253C1499.16 989.917 1499.39 989.514 1499.39 989.045C1499.39 988.667 1499.25 988.349 1498.99 988.094C1498.72 987.833 1498.32 987.639 1497.77 987.511L1495.95 987.085C1494.95 986.848 1494.22 986.482 1493.75 985.984C1493.28 985.482 1493.05 984.855 1493.05 984.102C1493.05 983.487 1493.23 982.942 1493.57 982.469C1493.92 981.995 1494.4 981.624 1495 981.354C1495.6 981.084 1496.29 980.949 1497.06 980.949C1498.14 980.949 1498.98 981.186 1499.6 981.659C1500.22 982.133 1500.66 982.758 1500.92 983.534ZM1508.08 992.227C1507.09 992.227 1506.23 991.993 1505.48 991.524C1504.74 991.055 1504.17 990.4 1503.75 989.557C1503.34 988.714 1503.13 987.729 1503.13 986.602C1503.13 985.466 1503.34 984.474 1503.75 983.626C1504.17 982.779 1504.74 982.121 1505.48 981.652C1506.23 981.183 1507.09 980.949 1508.08 980.949C1509.06 980.949 1509.92 981.183 1510.66 981.652C1511.4 982.121 1511.98 982.779 1512.39 983.626C1512.81 984.474 1513.02 985.466 1513.02 986.602C1513.02 987.729 1512.81 988.714 1512.39 989.557C1511.98 990.4 1511.4 991.055 1510.66 991.524C1509.92 991.993 1509.06 992.227 1508.08 992.227ZM1508.08 990.722C1508.82 990.722 1509.44 990.53 1509.92 990.146C1510.4 989.763 1510.76 989.259 1510.99 988.634C1511.23 988.009 1511.34 987.331 1511.34 986.602C1511.34 985.873 1511.23 985.194 1510.99 984.564C1510.76 983.934 1510.4 983.425 1509.92 983.037C1509.44 982.649 1508.82 982.455 1508.08 982.455C1507.33 982.455 1506.71 982.649 1506.23 983.037C1505.75 983.425 1505.39 983.934 1505.16 984.564C1504.92 985.194 1504.81 985.873 1504.81 986.602C1504.81 987.331 1504.92 988.009 1505.16 988.634C1505.39 989.259 1505.75 989.763 1506.23 990.146C1506.71 990.53 1507.33 990.722 1508.08 990.722ZM1517.25 985.438V992H1515.58V981.091H1517.2V982.795H1517.34C1517.59 982.241 1517.98 981.796 1518.5 981.46C1519.02 981.119 1519.7 980.949 1520.52 980.949C1521.26 980.949 1521.91 981.1 1522.46 981.403C1523.01 981.702 1523.44 982.156 1523.75 982.767C1524.06 983.373 1524.21 984.14 1524.21 985.068V992H1522.54V985.182C1522.54 984.325 1522.31 983.657 1521.87 983.179C1521.42 982.696 1520.81 982.455 1520.04 982.455C1519.5 982.455 1519.02 982.571 1518.6 982.803C1518.19 983.035 1517.86 983.373 1517.62 983.818C1517.37 984.263 1517.25 984.803 1517.25 985.438ZM1530.49 992.256C1529.8 992.256 1529.17 992.125 1528.6 991.865C1528.04 991.6 1527.59 991.219 1527.26 990.722C1526.93 990.22 1526.76 989.614 1526.76 988.903C1526.76 988.278 1526.89 987.772 1527.13 987.384C1527.38 986.991 1527.71 986.683 1528.12 986.46C1528.53 986.238 1528.99 986.072 1529.49 985.963C1529.99 985.849 1530.49 985.759 1531 985.693C1531.66 985.608 1532.2 985.544 1532.61 985.501C1533.03 985.454 1533.33 985.376 1533.52 985.267C1533.71 985.158 1533.81 984.969 1533.81 984.699V984.642C1533.81 983.941 1533.62 983.397 1533.24 983.009C1532.86 982.62 1532.28 982.426 1531.51 982.426C1530.71 982.426 1530.08 982.601 1529.63 982.952C1529.17 983.302 1528.85 983.676 1528.67 984.074L1527.08 983.506C1527.36 982.843 1527.74 982.327 1528.21 981.957C1528.69 981.583 1529.21 981.323 1529.78 981.176C1530.34 981.025 1530.9 980.949 1531.45 980.949C1531.8 980.949 1532.21 980.991 1532.66 981.077C1533.12 981.157 1533.56 981.325 1533.99 981.581C1534.42 981.837 1534.78 982.223 1535.06 982.739C1535.34 983.255 1535.49 983.946 1535.49 984.812V992H1533.81V990.523H1533.73C1533.61 990.759 1533.42 991.013 1533.16 991.283C1532.89 991.553 1532.54 991.782 1532.1 991.972C1531.66 992.161 1531.12 992.256 1530.49 992.256ZM1530.74 990.75C1531.41 990.75 1531.96 990.62 1532.42 990.359C1532.88 990.099 1533.22 989.763 1533.46 989.351C1533.69 988.939 1533.81 988.506 1533.81 988.051V986.517C1533.74 986.602 1533.58 986.68 1533.34 986.751C1533.1 986.818 1532.83 986.877 1532.52 986.929C1532.21 986.976 1531.91 987.019 1531.62 987.057C1531.33 987.09 1531.09 987.118 1530.91 987.142C1530.48 987.199 1530.07 987.291 1529.69 987.419C1529.32 987.542 1529.01 987.729 1528.78 987.98C1528.55 988.226 1528.44 988.562 1528.44 988.989C1528.44 989.571 1528.66 990.011 1529.09 990.31C1529.52 990.603 1530.07 990.75 1530.74 990.75ZM1540.22 977.455V992H1538.55V977.455H1540.22ZM1549.74 992H1547.89L1553.24 977.455H1555.05L1560.39 992H1558.55L1554.2 979.756H1554.09L1549.74 992ZM1550.42 986.318H1557.87V987.881H1550.42V986.318ZM1566.55 992.227C1565.64 992.227 1564.84 991.998 1564.14 991.538C1563.45 991.074 1562.9 990.421 1562.51 989.578C1562.12 988.731 1561.92 987.729 1561.92 986.574C1561.92 985.428 1562.12 984.434 1562.51 983.591C1562.9 982.748 1563.45 982.097 1564.15 981.638C1564.85 981.179 1565.66 980.949 1566.58 980.949C1567.29 980.949 1567.85 981.067 1568.26 981.304C1568.68 981.536 1569 981.801 1569.22 982.099C1569.44 982.393 1569.61 982.634 1569.73 982.824H1569.88V977.455H1571.55V992H1569.93V990.324H1569.73C1569.61 990.523 1569.44 990.774 1569.21 991.077C1568.98 991.375 1568.66 991.643 1568.24 991.879C1567.81 992.111 1567.25 992.227 1566.55 992.227ZM1566.78 990.722C1567.45 990.722 1568.02 990.546 1568.48 990.196C1568.95 989.841 1569.3 989.351 1569.54 988.726C1569.78 988.096 1569.9 987.369 1569.9 986.545C1569.9 985.731 1569.79 985.018 1569.55 984.408C1569.31 983.792 1568.96 983.314 1568.5 982.973C1568.03 982.627 1567.46 982.455 1566.78 982.455C1566.07 982.455 1565.48 982.637 1565 983.001C1564.53 983.361 1564.18 983.851 1563.95 984.472C1563.71 985.087 1563.6 985.778 1563.6 986.545C1563.6 987.322 1563.72 988.027 1563.95 988.662C1564.19 989.292 1564.55 989.794 1565.02 990.168C1565.49 990.537 1566.08 990.722 1566.78 990.722ZM1583.77 981.091L1579.74 992H1578.04L1574 981.091H1575.82L1578.83 989.784H1578.95L1581.96 981.091H1583.77ZM1585.99 992V981.091H1587.66V992H1585.99ZM1586.84 979.273C1586.51 979.273 1586.23 979.161 1585.99 978.939C1585.76 978.716 1585.65 978.449 1585.65 978.136C1585.65 977.824 1585.76 977.556 1585.99 977.334C1586.23 977.111 1586.51 977 1586.84 977C1587.17 977 1587.45 977.111 1587.68 977.334C1587.91 977.556 1588.03 977.824 1588.03 978.136C1588.03 978.449 1587.91 978.716 1587.68 978.939C1587.45 979.161 1587.17 979.273 1586.84 979.273ZM1598.46 983.534L1596.95 983.96C1596.86 983.709 1596.72 983.465 1596.54 983.229C1596.36 982.987 1596.11 982.788 1595.8 982.632C1595.48 982.476 1595.08 982.398 1594.6 982.398C1593.93 982.398 1593.37 982.552 1592.93 982.859C1592.49 983.162 1592.27 983.548 1592.27 984.017C1592.27 984.434 1592.42 984.763 1592.72 985.004C1593.02 985.246 1593.5 985.447 1594.14 985.608L1595.76 986.006C1596.74 986.242 1597.46 986.605 1597.94 987.092C1598.42 987.575 1598.66 988.198 1598.66 988.96C1598.66 989.585 1598.48 990.144 1598.12 990.636C1597.76 991.129 1597.27 991.517 1596.63 991.801C1595.99 992.085 1595.25 992.227 1594.4 992.227C1593.29 992.227 1592.36 991.986 1591.64 991.503C1590.91 991.02 1590.44 990.314 1590.25 989.386L1591.84 988.989C1591.99 989.576 1592.28 990.016 1592.7 990.31C1593.13 990.603 1593.68 990.75 1594.37 990.75C1595.15 990.75 1595.77 990.584 1596.23 990.253C1596.69 989.917 1596.93 989.514 1596.93 989.045C1596.93 988.667 1596.79 988.349 1596.53 988.094C1596.26 987.833 1595.86 987.639 1595.31 987.511L1593.49 987.085C1592.49 986.848 1591.76 986.482 1591.29 985.984C1590.82 985.482 1590.59 984.855 1590.59 984.102C1590.59 983.487 1590.76 982.942 1591.11 982.469C1591.46 981.995 1591.94 981.624 1592.54 981.354C1593.14 981.084 1593.83 980.949 1594.6 980.949C1595.68 980.949 1596.52 981.186 1597.14 981.659C1597.76 982.133 1598.2 982.758 1598.46 983.534ZM1605.61 992.227C1604.63 992.227 1603.77 991.993 1603.02 991.524C1602.28 991.055 1601.71 990.4 1601.29 989.557C1600.88 988.714 1600.67 987.729 1600.67 986.602C1600.67 985.466 1600.88 984.474 1601.29 983.626C1601.71 982.779 1602.28 982.121 1603.02 981.652C1603.77 981.183 1604.63 980.949 1605.61 980.949C1606.6 980.949 1607.46 981.183 1608.2 981.652C1608.94 982.121 1609.52 982.779 1609.93 983.626C1610.35 984.474 1610.56 985.466 1610.56 986.602C1610.56 987.729 1610.35 988.714 1609.93 989.557C1609.52 990.4 1608.94 991.055 1608.2 991.524C1607.46 991.993 1606.6 992.227 1605.61 992.227ZM1605.61 990.722C1606.36 990.722 1606.98 990.53 1607.46 990.146C1607.94 989.763 1608.3 989.259 1608.53 988.634C1608.77 988.009 1608.88 987.331 1608.88 986.602C1608.88 985.873 1608.77 985.194 1608.53 984.564C1608.3 983.934 1607.94 983.425 1607.46 983.037C1606.98 982.649 1606.36 982.455 1605.61 982.455C1604.87 982.455 1604.25 982.649 1603.77 983.037C1603.28 983.425 1602.93 983.934 1602.7 984.564C1602.46 985.194 1602.35 985.873 1602.35 986.602C1602.35 987.331 1602.46 988.009 1602.7 988.634C1602.93 989.259 1603.28 989.763 1603.77 990.146C1604.25 990.53 1604.87 990.722 1605.61 990.722ZM1613.12 992V981.091H1614.74V982.739H1614.85C1615.05 982.199 1615.41 981.761 1615.93 981.425C1616.45 981.089 1617.04 980.92 1617.69 980.92C1617.81 980.92 1617.97 980.923 1618.15 980.928C1618.34 980.932 1618.48 980.939 1618.57 980.949V982.653C1618.51 982.639 1618.38 982.618 1618.18 982.589C1617.98 982.556 1617.77 982.54 1617.55 982.54C1617.02 982.54 1616.54 982.651 1616.13 982.874C1615.72 983.091 1615.39 983.394 1615.15 983.783C1614.91 984.166 1614.79 984.604 1614.79 985.097V992H1613.12Z" fill="black"/>
<path d="M1104.66 746.247C1103.91 746.247 1105.79 745.943 1105.99 746.01C1107.12 746.385 1107.95 747.322 1109.05 747.73C1112.17 748.886 1113.65 751.648 1116.4 753.188C1119.99 755.191 1123.16 758.634 1126.25 761.315C1130.32 764.843 1132.52 769 1134.26 773.98C1135.51 777.559 1135.09 781.555 1135.09 785.28C1135.09 790.101 1134.66 793.258 1132.15 797.501C1127.88 804.727 1120.61 809.567 1115.1 815.653C1109.62 821.7 1103.14 826.745 1097.72 832.856C1091.53 839.827 1084.83 846.212 1079.68 854.093C1076.46 859.034 1072.18 864.93 1072.09 871.118C1072.02 875.838 1071.49 880.104 1074.11 884.169C1077.14 888.881 1083.77 892.549 1088.91 894.372C1095.45 896.695 1102 897.872 1108.93 897.872C1117.56 897.872 1124.42 893.503 1131 888.322C1138 882.802 1146.58 872.704 1146.83 863.169C1146.9 860.694 1147.56 857.587 1145 856.229C1142.41 854.859 1139.68 853.642 1136.69 853.559C1129.54 853.361 1121.5 854.762 1118.3 862.072C1116.69 865.747 1116.47 873.222 1117.86 876.962C1120.11 883.039 1123.71 889.606 1128.98 893.601C1140.5 902.344 1158.2 905.13 1172.28 902.974C1185.47 900.954 1197.67 894.446 1210.07 890.902C1215.36 889.39 1221.69 888.262 1227.45 888.262" stroke="black" stroke-width="0.7" stroke-linecap="round"/>
<path d="M1227.03 888.181C1226.2 887.352 1225.29 886.679 1224.37 885.958C1223.99 885.663 1223.65 885.31 1223.26 885.027C1222.93 884.787 1222.6 884.319 1222.22 884.163C1221.43 883.826 1220.82 883.01 1220.03 882.619C1219.71 882.459 1219.41 882.23 1219.15 881.973C1218.83 881.651 1218.4 881.484 1218.06 881.185C1217.62 880.785 1217.02 880.411 1216.49 880.145C1215.88 879.839 1215.35 879.21 1214.79 878.82C1213.9 878.205 1212.9 877.617 1211.95 877.145" stroke="black" stroke-width="0.7" stroke-linecap="round"/>
<path d="M1227.42 888.575C1227.1 888.575 1226.52 889.118 1226.29 889.363C1225.96 889.716 1225.47 890.038 1225.06 890.299C1224.14 890.889 1223.44 891.861 1222.55 892.516C1222.08 892.857 1221.7 893.287 1221.26 893.649C1220.86 893.974 1220.56 894.455 1220.13 894.733C1219.76 894.971 1219.48 895.323 1219.19 895.62C1218.93 895.875 1218.44 896.095 1218.26 896.403C1217.98 896.894 1217.29 897.173 1216.9 897.563C1216.56 897.906 1216.22 898.259 1215.87 898.603C1215.52 898.955 1215.24 899.339 1214.89 899.687C1214.57 900.004 1214.3 900.704 1213.93 900.891" stroke="black" stroke-width="0.7" stroke-linecap="round"/>
</svg>
