<svg width="762" height="118" viewBox="0 0 762 118" fill="none" xmlns="http://www.w3.org/2000/svg">
<g clip-path="url(#clip0_2_3)">
<rect width="762" height="118" fill="white"/>
<mask id="path-1-outside-1_2_3" maskUnits="userSpaceOnUse" x="2" y="1" width="758" height="116" fill="black">
<rect fill="white" x="2" y="1" width="758" height="116"/>
<path d="M66.0519 39C65.7678 35.4489 64.4362 32.679 62.0569 30.6903C59.7132 28.7017 56.1443 27.7074 51.3502 27.7074C48.2963 27.7074 45.7927 28.0803 43.8396 28.826C41.922 29.5362 40.5015 30.5128 39.5782 31.7557C38.6549 32.9986 38.1755 34.419 38.14 36.017C38.069 37.331 38.2998 38.5206 38.8325 39.5859C39.4007 40.6158 40.2884 41.5568 41.4958 42.4091C42.7032 43.2259 44.248 43.9716 46.1301 44.6463C48.0122 45.321 50.2494 45.9247 52.8417 46.4574L61.7906 48.375C67.8275 49.6534 72.9944 51.3402 77.2913 53.4354C81.5882 55.5305 85.1038 57.9986 87.8382 60.8395C90.5725 63.6449 92.5789 66.8054 93.8573 70.321C95.1713 73.8366 95.846 77.6719 95.8815 81.8267C95.846 89 94.0526 95.0724 90.5015 100.044C86.9504 105.016 81.8722 108.798 75.2671 111.39C68.6975 113.982 60.7963 115.278 51.5633 115.278C42.0818 115.278 33.8076 113.876 26.7409 111.07C19.7096 108.265 14.2409 103.95 10.3346 98.1264C6.46387 92.267 4.51074 84.7741 4.47523 75.6477H32.6002C32.7778 78.9858 33.6123 81.7912 35.1038 84.0639C36.5953 86.3366 38.6904 88.0589 41.3893 89.2308C44.1237 90.4027 47.373 90.9886 51.1372 90.9886C54.2977 90.9886 56.9433 90.598 59.074 89.8168C61.2046 89.0355 62.8204 87.9524 63.9213 86.5675C65.0221 85.1825 65.5903 83.6023 65.6258 81.8267C65.5903 80.1577 65.0399 78.7017 63.9745 77.4588C62.9447 76.1804 61.2401 75.044 58.8609 74.0497C56.4816 73.0199 53.2678 72.0611 49.2196 71.1733L38.3531 68.8295C28.694 66.7344 21.0768 63.2365 15.5015 58.3359C9.96174 53.3999 7.20961 46.6705 7.24512 38.1477C7.20961 31.223 9.0562 25.1683 12.7849 19.9837C16.5491 14.7635 21.7515 10.6974 28.3921 7.78551C35.0683 4.87358 42.721 3.41761 51.3502 3.41761C60.157 3.41761 67.7742 4.89133 74.2018 7.83878C80.6294 10.7862 85.5832 14.9411 89.0633 20.3033C92.5789 25.63 94.3545 31.8622 94.39 39H66.0519ZM107.147 114V4.90909H185.77V28.7727H136.764V47.5227H181.721V71.3864H136.764V90.1364H185.557V114H107.147ZM200.458 114V4.90909H247.546C255.643 4.90909 262.727 6.38281 268.8 9.33025C274.872 12.2777 279.595 16.5213 282.969 22.0611C286.342 27.6009 288.029 34.2415 288.029 41.983C288.029 49.7955 286.289 56.3828 282.809 61.745C279.364 67.1072 274.517 71.1555 268.267 73.8899C262.052 76.6243 254.79 77.9915 246.481 77.9915H218.356V54.9801H240.515C243.995 54.9801 246.96 54.554 249.41 53.7017C251.896 52.8139 253.796 51.4112 255.11 49.4936C256.459 47.576 257.134 45.0724 257.134 41.983C257.134 38.858 256.459 36.3189 255.11 34.3658C253.796 32.3771 251.896 30.9212 249.41 29.9979C246.96 29.0391 243.995 28.5597 240.515 28.5597H230.074V114H200.458ZM264.378 63.929L291.651 114H259.478L232.844 63.929H264.378ZM327.114 4.90909L349.486 81.8267H350.338L372.71 4.90909H406.162L370.154 114H329.671L293.662 4.90909H327.114ZM446.285 4.90909V114H416.669V4.90909H446.285ZM562.168 45.8182H532.125C531.912 43.3324 531.344 41.0774 530.421 39.0533C529.533 37.0291 528.29 35.2891 526.692 33.8331C525.13 32.3416 523.23 31.2053 520.992 30.424C518.755 29.6072 516.216 29.1989 513.375 29.1989C508.404 29.1989 504.196 30.4062 500.751 32.821C497.342 35.2358 494.75 38.6981 492.974 43.2081C491.234 47.718 490.364 53.1335 490.364 59.4545C490.364 66.1307 491.252 71.7237 493.027 76.2337C494.838 80.7081 497.448 84.0817 500.858 86.3544C504.267 88.5916 508.368 89.7102 513.162 89.7102C515.897 89.7102 518.347 89.3729 520.513 88.6982C522.679 87.9879 524.561 86.9759 526.159 85.6619C527.757 84.348 529.054 82.7678 530.048 80.9212C531.078 79.0391 531.77 76.9261 532.125 74.5824L562.168 74.7955C561.813 79.4119 560.517 84.1172 558.279 88.9112C556.042 93.6697 552.864 98.0732 548.745 102.121C544.661 106.134 539.6 109.366 533.563 111.816C527.527 114.266 520.513 115.491 512.523 115.491C502.509 115.491 493.524 113.343 485.57 109.046C477.651 104.749 471.383 98.4283 466.767 90.0831C462.186 81.7379 459.895 71.5284 459.895 59.4545C459.895 47.3097 462.239 37.0824 466.926 28.7727C471.614 20.4276 477.935 14.1243 485.889 9.86292C493.844 5.56605 502.722 3.41761 512.523 3.41761C519.412 3.41761 525.751 4.35866 531.539 6.24076C537.328 8.12287 542.406 10.875 546.774 14.4972C551.142 18.0838 554.657 22.505 557.321 27.7607C559.984 33.0163 561.6 39.0355 562.168 45.8182ZM575.604 114V4.90909H654.227V28.7727H605.221V47.5227H650.178V71.3864H605.221V90.1364H654.014V114H575.604ZM727.722 39C727.438 35.4489 726.106 32.679 723.727 30.6903C721.383 28.7017 717.814 27.7074 713.02 27.7074C709.966 27.7074 707.463 28.0803 705.509 28.826C703.592 29.5362 702.171 30.5128 701.248 31.7557C700.325 32.9986 699.845 34.419 699.81 36.017C699.739 37.331 699.97 38.5206 700.502 39.5859C701.071 40.6158 701.958 41.5568 703.166 42.4091C704.373 43.2259 705.918 43.9716 707.8 44.6463C709.682 45.321 711.919 45.9247 714.512 46.4574L723.46 48.375C729.497 49.6534 734.664 51.3402 738.961 53.4354C743.258 55.5305 746.774 57.9986 749.508 60.8395C752.242 63.6449 754.249 66.8054 755.527 70.321C756.841 73.8366 757.516 77.6719 757.551 81.8267C757.516 89 755.723 95.0724 752.171 100.044C748.62 105.016 743.542 108.798 736.937 111.39C730.367 113.982 722.466 115.278 713.233 115.278C703.752 115.278 695.478 113.876 688.411 111.07C681.38 108.265 675.911 103.95 672.005 98.1264C668.134 92.267 666.181 84.7741 666.145 75.6477H694.27C694.448 78.9858 695.282 81.7912 696.774 84.0639C698.265 86.3366 700.36 88.0589 703.059 89.2308C705.794 90.4027 709.043 90.9886 712.807 90.9886C715.968 90.9886 718.613 90.598 720.744 89.8168C722.875 89.0355 724.49 87.9524 725.591 86.5675C726.692 85.1825 727.26 83.6023 727.296 81.8267C727.26 80.1577 726.71 78.7017 725.644 77.4588C724.615 76.1804 722.91 75.044 720.531 74.0497C718.152 73.0199 714.938 72.0611 710.889 71.1733L700.023 68.8295C690.364 66.7344 682.747 63.2365 677.171 58.3359C671.632 53.3999 668.88 46.6705 668.915 38.1477C668.88 31.223 670.726 25.1683 674.455 19.9837C678.219 14.7635 683.421 10.6974 690.062 7.78551C696.738 4.87358 704.391 3.41761 713.02 3.41761C721.827 3.41761 729.444 4.89133 735.872 7.83878C742.299 10.7862 747.253 14.9411 750.733 20.3033C754.249 25.63 756.024 31.8622 756.06 39H727.722Z"/>
</mask>
<path d="M66.0519 39C65.7678 35.4489 64.4362 32.679 62.0569 30.6903C59.7132 28.7017 56.1443 27.7074 51.3502 27.7074C48.2963 27.7074 45.7927 28.0803 43.8396 28.826C41.922 29.5362 40.5015 30.5128 39.5782 31.7557C38.6549 32.9986 38.1755 34.419 38.14 36.017C38.069 37.331 38.2998 38.5206 38.8325 39.5859C39.4007 40.6158 40.2884 41.5568 41.4958 42.4091C42.7032 43.2259 44.248 43.9716 46.1301 44.6463C48.0122 45.321 50.2494 45.9247 52.8417 46.4574L61.7906 48.375C67.8275 49.6534 72.9944 51.3402 77.2913 53.4354C81.5882 55.5305 85.1038 57.9986 87.8382 60.8395C90.5725 63.6449 92.5789 66.8054 93.8573 70.321C95.1713 73.8366 95.846 77.6719 95.8815 81.8267C95.846 89 94.0526 95.0724 90.5015 100.044C86.9504 105.016 81.8722 108.798 75.2671 111.39C68.6975 113.982 60.7963 115.278 51.5633 115.278C42.0818 115.278 33.8076 113.876 26.7409 111.07C19.7096 108.265 14.2409 103.95 10.3346 98.1264C6.46387 92.267 4.51074 84.7741 4.47523 75.6477H32.6002C32.7778 78.9858 33.6123 81.7912 35.1038 84.0639C36.5953 86.3366 38.6904 88.0589 41.3893 89.2308C44.1237 90.4027 47.373 90.9886 51.1372 90.9886C54.2977 90.9886 56.9433 90.598 59.074 89.8168C61.2046 89.0355 62.8204 87.9524 63.9213 86.5675C65.0221 85.1825 65.5903 83.6023 65.6258 81.8267C65.5903 80.1577 65.0399 78.7017 63.9745 77.4588C62.9447 76.1804 61.2401 75.044 58.8609 74.0497C56.4816 73.0199 53.2678 72.0611 49.2196 71.1733L38.3531 68.8295C28.694 66.7344 21.0768 63.2365 15.5015 58.3359C9.96174 53.3999 7.20961 46.6705 7.24512 38.1477C7.20961 31.223 9.0562 25.1683 12.7849 19.9837C16.5491 14.7635 21.7515 10.6974 28.3921 7.78551C35.0683 4.87358 42.721 3.41761 51.3502 3.41761C60.157 3.41761 67.7742 4.89133 74.2018 7.83878C80.6294 10.7862 85.5832 14.9411 89.0633 20.3033C92.5789 25.63 94.3545 31.8622 94.39 39H66.0519ZM107.147 114V4.90909H185.77V28.7727H136.764V47.5227H181.721V71.3864H136.764V90.1364H185.557V114H107.147ZM200.458 114V4.90909H247.546C255.643 4.90909 262.727 6.38281 268.8 9.33025C274.872 12.2777 279.595 16.5213 282.969 22.0611C286.342 27.6009 288.029 34.2415 288.029 41.983C288.029 49.7955 286.289 56.3828 282.809 61.745C279.364 67.1072 274.517 71.1555 268.267 73.8899C262.052 76.6243 254.79 77.9915 246.481 77.9915H218.356V54.9801H240.515C243.995 54.9801 246.96 54.554 249.41 53.7017C251.896 52.8139 253.796 51.4112 255.11 49.4936C256.459 47.576 257.134 45.0724 257.134 41.983C257.134 38.858 256.459 36.3189 255.11 34.3658C253.796 32.3771 251.896 30.9212 249.41 29.9979C246.96 29.0391 243.995 28.5597 240.515 28.5597H230.074V114H200.458ZM264.378 63.929L291.651 114H259.478L232.844 63.929H264.378ZM327.114 4.90909L349.486 81.8267H350.338L372.71 4.90909H406.162L370.154 114H329.671L293.662 4.90909H327.114ZM446.285 4.90909V114H416.669V4.90909H446.285ZM562.168 45.8182H532.125C531.912 43.3324 531.344 41.0774 530.421 39.0533C529.533 37.0291 528.29 35.2891 526.692 33.8331C525.13 32.3416 523.23 31.2053 520.992 30.424C518.755 29.6072 516.216 29.1989 513.375 29.1989C508.404 29.1989 504.196 30.4062 500.751 32.821C497.342 35.2358 494.75 38.6981 492.974 43.2081C491.234 47.718 490.364 53.1335 490.364 59.4545C490.364 66.1307 491.252 71.7237 493.027 76.2337C494.838 80.7081 497.448 84.0817 500.858 86.3544C504.267 88.5916 508.368 89.7102 513.162 89.7102C515.897 89.7102 518.347 89.3729 520.513 88.6982C522.679 87.9879 524.561 86.9759 526.159 85.6619C527.757 84.348 529.054 82.7678 530.048 80.9212C531.078 79.0391 531.77 76.9261 532.125 74.5824L562.168 74.7955C561.813 79.4119 560.517 84.1172 558.279 88.9112C556.042 93.6697 552.864 98.0732 548.745 102.121C544.661 106.134 539.6 109.366 533.563 111.816C527.527 114.266 520.513 115.491 512.523 115.491C502.509 115.491 493.524 113.343 485.57 109.046C477.651 104.749 471.383 98.4283 466.767 90.0831C462.186 81.7379 459.895 71.5284 459.895 59.4545C459.895 47.3097 462.239 37.0824 466.926 28.7727C471.614 20.4276 477.935 14.1243 485.889 9.86292C493.844 5.56605 502.722 3.41761 512.523 3.41761C519.412 3.41761 525.751 4.35866 531.539 6.24076C537.328 8.12287 542.406 10.875 546.774 14.4972C551.142 18.0838 554.657 22.505 557.321 27.7607C559.984 33.0163 561.6 39.0355 562.168 45.8182ZM575.604 114V4.90909H654.227V28.7727H605.221V47.5227H650.178V71.3864H605.221V90.1364H654.014V114H575.604ZM727.722 39C727.438 35.4489 726.106 32.679 723.727 30.6903C721.383 28.7017 717.814 27.7074 713.02 27.7074C709.966 27.7074 707.463 28.0803 705.509 28.826C703.592 29.5362 702.171 30.5128 701.248 31.7557C700.325 32.9986 699.845 34.419 699.81 36.017C699.739 37.331 699.97 38.5206 700.502 39.5859C701.071 40.6158 701.958 41.5568 703.166 42.4091C704.373 43.2259 705.918 43.9716 707.8 44.6463C709.682 45.321 711.919 45.9247 714.512 46.4574L723.46 48.375C729.497 49.6534 734.664 51.3402 738.961 53.4354C743.258 55.5305 746.774 57.9986 749.508 60.8395C752.242 63.6449 754.249 66.8054 755.527 70.321C756.841 73.8366 757.516 77.6719 757.551 81.8267C757.516 89 755.723 95.0724 752.171 100.044C748.62 105.016 743.542 108.798 736.937 111.39C730.367 113.982 722.466 115.278 713.233 115.278C703.752 115.278 695.478 113.876 688.411 111.07C681.38 108.265 675.911 103.95 672.005 98.1264C668.134 92.267 666.181 84.7741 666.145 75.6477H694.27C694.448 78.9858 695.282 81.7912 696.774 84.0639C698.265 86.3366 700.36 88.0589 703.059 89.2308C705.794 90.4027 709.043 90.9886 712.807 90.9886C715.968 90.9886 718.613 90.598 720.744 89.8168C722.875 89.0355 724.49 87.9524 725.591 86.5675C726.692 85.1825 727.26 83.6023 727.296 81.8267C727.26 80.1577 726.71 78.7017 725.644 77.4588C724.615 76.1804 722.91 75.044 720.531 74.0497C718.152 73.0199 714.938 72.0611 710.889 71.1733L700.023 68.8295C690.364 66.7344 682.747 63.2365 677.171 58.3359C671.632 53.3999 668.88 46.6705 668.915 38.1477C668.88 31.223 670.726 25.1683 674.455 19.9837C678.219 14.7635 683.421 10.6974 690.062 7.78551C696.738 4.87358 704.391 3.41761 713.02 3.41761C721.827 3.41761 729.444 4.89133 735.872 7.83878C742.299 10.7862 747.253 14.9411 750.733 20.3033C754.249 25.63 756.024 31.8622 756.06 39H727.722Z" fill="white"/>
<path d="M66.0519 39L64.5567 39.1196L64.6671 40.5H66.0519V39ZM62.0569 30.6903L61.0864 31.8341L61.0949 31.8413L62.0569 30.6903ZM43.8396 28.826L44.3606 30.2326L44.3676 30.23L44.3746 30.2273L43.8396 28.826ZM39.5782 31.7557L38.3741 30.8612L38.3741 30.8612L39.5782 31.7557ZM38.14 36.017L39.6378 36.098L39.6391 36.0742L39.6396 36.0504L38.14 36.017ZM38.8325 39.5859L37.4908 40.2568L37.5044 40.2839L37.5191 40.3106L38.8325 39.5859ZM41.4958 42.4091L40.6308 43.6345L40.643 43.6431L40.6554 43.6515L41.4958 42.4091ZM52.8417 46.4574L53.156 44.9906L53.1436 44.9881L52.8417 46.4574ZM61.7906 48.375L61.4763 49.8417L61.4798 49.8425L61.7906 48.375ZM87.8382 60.8395L86.7574 61.8797L86.764 61.8865L87.8382 60.8395ZM93.8573 70.321L92.4476 70.8337L92.4523 70.8462L93.8573 70.321ZM95.8815 81.8267L97.3815 81.8341L97.3815 81.824L97.3814 81.8139L95.8815 81.8267ZM90.5015 100.044L91.7221 100.916L91.7221 100.916L90.5015 100.044ZM75.2671 111.39L74.7191 109.994L74.7166 109.995L75.2671 111.39ZM26.7409 111.07L26.185 112.464L26.1874 112.464L26.7409 111.07ZM10.3346 98.1264L9.08301 98.9532L9.08887 98.962L10.3346 98.1264ZM4.47523 75.6477V74.1477H2.96938L2.97524 75.6536L4.47523 75.6477ZM32.6002 75.6477L34.0981 75.5681L34.0226 74.1477H32.6002V75.6477ZM35.1038 84.0639L33.8497 84.8869L33.8497 84.8869L35.1038 84.0639ZM41.3893 89.2308L40.7919 90.6067L40.7984 90.6095L41.3893 89.2308ZM59.074 89.8168L59.5903 91.2251L59.5903 91.2251L59.074 89.8168ZM63.9213 86.5675L65.0955 87.5008L65.0955 87.5008L63.9213 86.5675ZM65.6258 81.8267L67.1255 81.8567L67.1261 81.8257L67.1255 81.7948L65.6258 81.8267ZM63.9745 77.4588L62.8064 78.3998L62.8207 78.4176L62.8356 78.435L63.9745 77.4588ZM58.8609 74.0497L58.2651 75.4263L58.2738 75.4301L58.2825 75.4337L58.8609 74.0497ZM49.2196 71.1733L49.5409 69.7081L49.5358 69.707L49.2196 71.1733ZM38.3531 68.8295L38.0351 70.2955L38.0368 70.2958L38.3531 68.8295ZM15.5015 58.3359L14.5036 59.4559L14.5112 59.4626L15.5015 58.3359ZM7.24512 38.1477L8.74517 38.154L8.7451 38.14L7.24512 38.1477ZM12.7849 19.9837L11.5682 19.1063L11.5671 19.1079L12.7849 19.9837ZM28.3921 7.78551L27.7924 6.4106L27.7898 6.41178L28.3921 7.78551ZM74.2018 7.83878L73.5766 9.20225L73.5766 9.20225L74.2018 7.83878ZM89.0633 20.3033L87.805 21.1199L87.8114 21.1295L89.0633 20.3033ZM94.39 39V40.5H95.8975L95.89 38.9925L94.39 39ZM67.5472 38.8804C67.2362 34.9928 65.7538 31.8253 63.0189 29.5394L61.0949 31.8413C63.1185 33.5326 64.2995 35.9049 64.5567 39.1196L67.5472 38.8804ZM63.0274 29.5466C60.2968 27.2297 56.3107 26.2074 51.3502 26.2074V29.2074C55.9778 29.2074 59.1295 30.1737 61.0864 31.8341L63.0274 29.5466ZM51.3502 26.2074C48.1901 26.2074 45.4879 26.591 43.3045 27.4247L44.3746 30.2273C46.0975 29.5695 48.4024 29.2074 51.3502 29.2074V26.2074ZM43.3186 27.4194C41.2142 28.1988 39.5182 29.3211 38.3741 30.8612L40.7823 32.6502C41.4849 31.7045 42.6297 30.8737 44.3606 30.2326L43.3186 27.4194ZM38.3741 30.8612C37.2592 32.3621 36.6826 34.0857 36.6404 35.9837L39.6396 36.0504C39.6685 34.7524 40.0507 33.6351 40.7823 32.6502L38.3741 30.8612ZM36.6422 35.9361C36.5586 37.482 36.8299 38.9348 37.4908 40.2568L40.1741 38.9151C39.7697 38.1063 39.5793 37.1799 39.6378 36.098L36.6422 35.9361ZM37.5191 40.3106C38.2214 41.5834 39.2843 42.6841 40.6308 43.6345L42.3609 41.1836C41.2926 40.4296 40.58 39.6482 40.1458 38.8613L37.5191 40.3106ZM40.6554 43.6515C41.997 44.5591 43.6641 45.3557 45.6239 46.0583L46.6363 43.2343C44.8319 42.5874 43.4094 41.8926 42.3363 41.1667L40.6554 43.6515ZM45.6239 46.0583C47.59 46.7631 49.8989 47.384 52.5398 47.9267L53.1436 44.9881C50.5999 44.4654 48.4344 43.8789 46.6363 43.2343L45.6239 46.0583ZM52.5274 47.9241L61.4763 49.8417L62.1049 46.9083L53.156 44.9907L52.5274 47.9241ZM61.4798 49.8425C67.4295 51.1024 72.4737 52.7551 76.6339 54.7836L77.9487 52.0871C73.5151 49.9253 68.2255 48.2044 62.1013 46.9075L61.4798 49.8425ZM76.6339 54.7836C80.8052 56.8176 84.1678 59.1892 86.7574 61.8797L88.9189 59.7993C86.0397 56.808 82.3711 54.2435 77.9487 52.0871L76.6339 54.7836ZM86.764 61.8865C89.3571 64.5469 91.2454 67.5273 92.4476 70.8336L95.267 69.8084C93.9125 66.0835 91.788 62.7429 88.9123 59.7925L86.764 61.8865ZM92.4523 70.8462C93.6987 74.1812 94.3474 77.841 94.3815 81.8395L97.3814 81.8139C97.3446 77.5027 96.6438 73.4921 95.2624 69.7959L92.4523 70.8462ZM94.3815 81.8193C94.3473 88.738 92.622 94.4946 89.2809 99.1722L91.7221 100.916C95.4833 95.6503 97.3447 89.262 97.3815 81.8341L94.3815 81.8193ZM89.2809 99.1722C85.9243 103.871 81.0986 107.49 74.7191 109.994L75.8151 112.786C82.6459 110.105 87.9764 106.16 91.7221 100.916L89.2809 99.1722ZM74.7166 109.995C68.367 112.5 60.6628 113.778 51.5633 113.778V116.778C60.9297 116.778 69.028 115.464 75.8177 112.785L74.7166 109.995ZM51.5633 113.778C42.2261 113.778 34.1473 112.397 27.2943 109.676L26.1874 112.464C33.4679 115.355 41.9374 116.778 51.5633 116.778V113.778ZM27.2967 109.677C20.5229 106.974 15.3046 102.843 11.5803 97.2909L9.08887 98.962C13.1771 105.057 18.8963 109.555 26.185 112.464L27.2967 109.677ZM11.5862 97.2996C7.91816 91.7471 6.00993 84.5627 5.97522 75.6419L2.97524 75.6536C3.01155 84.9856 5.00958 92.787 9.08304 98.9532L11.5862 97.2996ZM4.47523 77.1477H32.6002V74.1477H4.47523V77.1477ZM31.1023 75.7274C31.2908 79.2699 32.1827 82.3466 33.8497 84.8869L36.3579 83.2409C35.0419 81.2357 34.2648 78.7016 34.0981 75.5681L31.1023 75.7274ZM33.8497 84.8869C35.5148 87.4242 37.848 89.3285 40.7919 90.6067L41.9867 87.8549C39.5329 86.7894 37.6757 85.2491 36.3579 83.2409L33.8497 84.8869ZM40.7984 90.6095C43.762 91.8796 47.2218 92.4886 51.1372 92.4886V89.4886C47.5242 89.4886 44.4854 88.9258 41.9802 87.8521L40.7984 90.6095ZM51.1372 92.4886C54.4098 92.4886 57.2433 92.0857 59.5903 91.2251L58.5576 88.4084C56.6433 89.1104 54.1855 89.4886 51.1372 89.4886V92.4886ZM59.5903 91.2251C61.9077 90.3754 63.781 89.1546 65.0955 87.5008L62.747 85.6341C61.8598 86.7503 60.5015 87.6957 58.5576 88.4084L59.5903 91.2251ZM65.0955 87.5008C66.4017 85.8575 67.0834 83.9596 67.1255 81.8567L64.1261 81.7967C64.0971 83.245 63.6425 84.5076 62.747 85.6341L65.0955 87.5008ZM67.1255 81.7948C67.0827 79.7862 66.4095 77.9947 65.1134 76.4826L62.8356 78.435C63.6703 79.4087 64.0979 80.5291 64.1261 81.8586L67.1255 81.7948ZM65.1427 76.5178C63.8915 74.9646 61.93 73.7066 59.4393 72.6657L58.2825 75.4337C60.5503 76.3815 61.9979 77.3962 62.8064 78.3998L65.1427 76.5178ZM59.4567 72.6731C56.9527 71.5893 53.6346 70.6059 49.5409 69.7081L48.8982 72.6385C52.9011 73.5163 56.0105 74.4505 58.2651 75.4263L59.4567 72.6731ZM49.5358 69.707L38.6693 67.3633L38.0368 70.2958L48.9033 72.6396L49.5358 69.707ZM38.671 67.3636C29.1816 65.3053 21.8224 61.8947 16.4918 57.2093L14.5112 59.4626C20.3312 64.5783 28.2064 68.1635 38.0351 70.2955L38.671 67.3636ZM16.4994 57.216C11.33 52.6099 8.71109 46.3175 8.7451 38.154L5.74513 38.1415C5.70812 47.0235 8.5935 54.1898 14.5036 59.4559L16.4994 57.216ZM8.7451 38.14C8.71107 31.504 10.4748 25.7648 14.0027 20.8595L11.5671 19.1079C7.63756 24.5718 5.70815 30.942 5.74514 38.1554L8.7451 38.14ZM14.0016 20.861C17.5899 15.8847 22.5675 11.9775 28.9945 9.15924L27.7898 6.41178C20.9355 9.4174 15.5083 13.6423 11.5682 19.1063L14.0016 20.861ZM28.9918 9.16041C35.4472 6.34479 42.8898 4.91761 51.3502 4.91761V1.91761C42.5522 1.91761 34.6894 3.40236 27.7924 6.4106L28.9918 9.16041ZM51.3502 4.91761C59.9928 4.91761 67.3871 6.36401 73.5766 9.20225L74.827 6.4753C68.1613 3.41865 60.3213 1.91761 51.3502 1.91761V4.91761ZM73.5766 9.20225C79.7739 12.0441 84.496 16.0212 87.8051 21.1199L90.3215 19.4867C86.6704 13.8609 81.4848 9.5283 74.827 6.4753L73.5766 9.20225ZM87.8114 21.1295C91.148 26.185 92.8558 32.1252 92.89 39.0075L95.89 38.9925C95.8532 31.5992 94.0098 25.0749 90.3152 19.477L87.8114 21.1295ZM94.39 37.5H66.0519V40.5H94.39V37.5ZM107.147 114H105.647V115.5H107.147V114ZM107.147 4.90909V3.40909H105.647V4.90909H107.147ZM185.77 4.90909H187.27V3.40909H185.77V4.90909ZM185.77 28.7727V30.2727H187.27V28.7727H185.77ZM136.764 28.7727V27.2727H135.264V28.7727H136.764ZM136.764 47.5227H135.264V49.0227H136.764V47.5227ZM181.721 47.5227H183.221V46.0227H181.721V47.5227ZM181.721 71.3864V72.8864H183.221V71.3864H181.721ZM136.764 71.3864V69.8864H135.264V71.3864H136.764ZM136.764 90.1364H135.264V91.6364H136.764V90.1364ZM185.557 90.1364H187.057V88.6364H185.557V90.1364ZM185.557 114V115.5H187.057V114H185.557ZM108.647 114V4.90909H105.647V114H108.647ZM107.147 6.40909H185.77V3.40909H107.147V6.40909ZM184.27 4.90909V28.7727H187.27V4.90909H184.27ZM185.77 27.2727H136.764V30.2727H185.77V27.2727ZM135.264 28.7727V47.5227H138.264V28.7727H135.264ZM136.764 49.0227H181.721V46.0227H136.764V49.0227ZM180.221 47.5227V71.3864H183.221V47.5227H180.221ZM181.721 69.8864H136.764V72.8864H181.721V69.8864ZM135.264 71.3864V90.1364H138.264V71.3864H135.264ZM136.764 91.6364H185.557V88.6364H136.764V91.6364ZM184.057 90.1364V114H187.057V90.1364H184.057ZM185.557 112.5H107.147V115.5H185.557V112.5ZM200.458 114H198.958V115.5H200.458V114ZM200.458 4.90909V3.40909H198.958V4.90909H200.458ZM282.969 22.0611L284.25 21.2809L284.25 21.2809L282.969 22.0611ZM282.809 61.745L281.551 60.9284L281.547 60.9343L282.809 61.745ZM268.267 73.8899L267.666 72.5157L267.663 72.5169L268.267 73.8899ZM218.356 77.9915H216.856V79.4915H218.356V77.9915ZM218.356 54.9801V53.4801H216.856V54.9801H218.356ZM249.41 53.7017L249.903 55.1185L249.915 55.1143L249.41 53.7017ZM255.11 49.4936L253.883 48.6304L253.878 48.638L253.873 48.6458L255.11 49.4936ZM255.11 34.3658L253.858 35.1927L253.867 35.2056L253.876 35.2184L255.11 34.3658ZM249.41 29.9979L248.864 31.3947L248.876 31.3995L248.888 31.404L249.41 29.9979ZM230.074 28.5597V27.0597H228.574V28.5597H230.074ZM230.074 114V115.5H231.574V114H230.074ZM264.378 63.929L265.696 63.2115L265.27 62.429H264.378V63.929ZM291.651 114V115.5H294.176L292.968 113.283L291.651 114ZM259.478 114L258.154 114.704L258.577 115.5H259.478V114ZM232.844 63.929V62.429H230.347L231.52 64.6334L232.844 63.929ZM201.958 114V4.90909H198.958V114H201.958ZM200.458 6.40909H247.546V3.40909H200.458V6.40909ZM247.546 6.40909C255.46 6.40909 262.313 7.84916 268.145 10.6797L269.455 7.98081C263.141 4.91646 255.825 3.40909 247.546 3.40909V6.40909ZM268.145 10.6797C273.969 13.5068 278.47 17.5577 281.688 22.8413L284.25 21.2809C280.72 15.4849 275.775 11.0486 269.455 7.98081L268.145 10.6797ZM281.688 22.8413C284.892 28.104 286.529 34.463 286.529 41.983H289.529C289.529 34.0199 287.792 27.0977 284.25 21.2809L281.688 22.8413ZM286.529 41.983C286.529 49.5704 284.841 55.8585 281.551 60.9284L284.067 62.5616C287.737 56.9071 289.529 50.0205 289.529 41.983H286.529ZM281.547 60.9343C278.274 66.0299 273.665 69.8911 267.666 72.5157L268.868 75.2642C275.369 72.42 280.455 68.1846 284.071 62.5557L281.547 60.9343ZM267.663 72.5169C261.676 75.151 254.628 76.4915 246.481 76.4915V79.4915C254.953 79.4915 262.429 78.0976 268.871 75.2629L267.663 72.5169ZM246.481 76.4915H218.356V79.4915H246.481V76.4915ZM219.856 77.9915V54.9801H216.856V77.9915H219.856ZM218.356 56.4801H240.515V53.4801H218.356V56.4801ZM240.515 56.4801C244.109 56.4801 247.251 56.0411 249.903 55.1184L248.918 52.285C246.67 53.0669 243.881 53.4801 240.515 53.4801V56.4801ZM249.915 55.1143C252.656 54.1352 254.831 52.5544 256.347 50.3415L253.873 48.6458C252.761 50.268 251.136 51.4926 248.906 52.2891L249.915 55.1143ZM256.337 50.3568C257.913 48.1172 258.634 45.2843 258.634 41.983H255.634C255.634 44.8606 255.006 47.0347 253.883 48.6304L256.337 50.3568ZM258.634 41.983C258.634 38.6486 257.914 35.7852 256.344 33.5131L253.876 35.2184C255.005 36.8526 255.634 39.0673 255.634 41.983H258.634ZM256.362 33.5389C254.852 31.255 252.682 29.6128 249.933 28.5917L248.888 31.404C251.111 32.2296 252.74 33.4993 253.858 35.1927L256.362 33.5389ZM249.957 28.601C247.286 27.556 244.125 27.0597 240.515 27.0597V30.0597C243.865 30.0597 246.634 30.5222 248.864 31.3947L249.957 28.601ZM240.515 27.0597H230.074V30.0597H240.515V27.0597ZM228.574 28.5597V114H231.574V28.5597H228.574ZM230.074 112.5H200.458V115.5H230.074V112.5ZM263.061 64.6465L290.334 114.717L292.968 113.283L265.696 63.2115L263.061 64.6465ZM291.651 112.5H259.478V115.5H291.651V112.5ZM260.802 113.296L234.169 63.2246L231.52 64.6334L258.154 114.704L260.802 113.296ZM232.844 65.429H264.378V62.429H232.844V65.429ZM327.114 4.90909L328.554 4.49016L328.24 3.40909H327.114V4.90909ZM349.486 81.8267L348.046 82.2456L348.36 83.3267H349.486V81.8267ZM350.338 81.8267V83.3267H351.464L351.778 82.2456L350.338 81.8267ZM372.71 4.90909V3.40909H371.584L371.27 4.49016L372.71 4.90909ZM406.162 4.90909L407.586 5.37925L408.237 3.40909H406.162V4.90909ZM370.154 114V115.5H371.238L371.578 114.47L370.154 114ZM329.671 114L328.246 114.47L328.586 115.5H329.671V114ZM293.662 4.90909V3.40909H291.587L292.238 5.37925L293.662 4.90909ZM325.673 5.32802L348.046 82.2456L350.926 81.4078L328.554 4.49016L325.673 5.32802ZM349.486 83.3267H350.338V80.3267H349.486V83.3267ZM351.778 82.2456L374.151 5.32802L371.27 4.49016L348.898 81.4078L351.778 82.2456ZM372.71 6.40909H406.162V3.40909H372.71V6.40909ZM404.738 4.43892L368.729 113.53L371.578 114.47L407.586 5.37925L404.738 4.43892ZM370.154 112.5H329.671V115.5H370.154V112.5ZM331.095 113.53L295.086 4.43892L292.238 5.37925L328.246 114.47L331.095 113.53ZM293.662 6.40909H327.114V3.40909H293.662V6.40909ZM446.285 4.90909H447.785V3.40909H446.285V4.90909ZM446.285 114V115.5H447.785V114H446.285ZM416.669 114H415.169V115.5H416.669V114ZM416.669 4.90909V3.40909H415.169V4.90909H416.669ZM444.785 4.90909V114H447.785V4.90909H444.785ZM446.285 112.5H416.669V115.5H446.285V112.5ZM418.169 114V4.90909H415.169V114H418.169ZM416.669 6.40909H446.285V3.40909H416.669V6.40909ZM562.168 45.8182V47.3182H563.799L563.663 45.693L562.168 45.8182ZM532.125 45.8182L530.631 45.9463L530.748 47.3182H532.125V45.8182ZM530.421 39.0533L529.047 39.6558L529.051 39.6658L529.056 39.6758L530.421 39.0533ZM526.692 33.8331L525.656 34.9181L525.669 34.9302L525.682 34.9419L526.692 33.8331ZM520.992 30.424L520.478 31.833L520.488 31.8367L520.498 31.8401L520.992 30.424ZM500.751 32.821L499.89 31.5928L499.884 31.597L500.751 32.821ZM492.974 43.2081L491.578 42.6586L491.575 42.6682L492.974 43.2081ZM493.027 76.2337L491.632 76.7832L491.634 76.7898L491.637 76.7965L493.027 76.2337ZM500.858 86.3544L500.025 87.6025L500.035 87.6085L500.858 86.3544ZM520.513 88.6982L520.959 90.1303L520.97 90.127L520.98 90.1235L520.513 88.6982ZM526.159 85.6619L527.112 86.8206L527.112 86.8206L526.159 85.6619ZM530.048 80.9212L528.732 80.2011L528.727 80.21L530.048 80.9212ZM532.125 74.5824L532.136 73.0824L530.837 73.0732L530.642 74.3577L532.125 74.5824ZM562.168 74.7955L563.663 74.9105L563.787 73.3069L562.179 73.2955L562.168 74.7955ZM558.279 88.9112L559.637 89.5494L559.639 89.5455L558.279 88.9112ZM548.745 102.121L549.796 103.191L549.796 103.191L548.745 102.121ZM485.57 109.046L484.854 110.365L484.857 110.366L485.57 109.046ZM466.767 90.0831L465.452 90.8049L465.454 90.8092L466.767 90.0831ZM466.926 28.7727L468.233 29.5097L468.234 29.5073L466.926 28.7727ZM485.889 9.86292L486.598 11.1852L486.602 11.1827L485.889 9.86292ZM531.539 6.24076L532.003 4.81427L532.003 4.81427L531.539 6.24076ZM546.774 14.4972L545.816 15.6518L545.822 15.6564L546.774 14.4972ZM557.321 27.7607L555.983 28.4387L555.983 28.4387L557.321 27.7607ZM562.168 44.3182H532.125V47.3182H562.168V44.3182ZM533.62 45.6901C533.394 43.0539 532.788 40.6288 531.785 38.4308L529.056 39.6758C529.9 41.526 530.431 43.6109 530.631 45.9463L533.62 45.6901ZM531.794 38.4508C530.824 36.2387 529.459 34.3249 527.702 32.7243L525.682 34.9419C527.121 36.2532 528.242 37.8195 529.047 39.6558L531.794 38.4508ZM527.728 32.7481C525.996 31.0951 523.906 29.8527 521.487 29.0079L520.498 31.8401C522.553 32.5578 524.263 33.5882 525.656 34.9181L527.728 32.7481ZM521.507 29.015C519.076 28.1277 516.359 27.6989 513.375 27.6989V30.6989C516.074 30.6989 518.434 31.0868 520.478 31.833L521.507 29.015ZM513.375 27.6989C508.153 27.6989 503.63 28.9708 499.89 31.5928L501.612 34.0493C504.761 31.8417 508.654 30.6989 513.375 30.6989V27.6989ZM499.884 31.597C496.201 34.2061 493.443 37.9217 491.578 42.6586L494.37 43.7576C496.056 39.4746 498.483 36.2655 501.618 34.0451L499.884 31.597ZM491.575 42.6682C489.751 47.3943 488.864 53.0027 488.864 59.4545H491.864C491.864 53.2643 492.717 48.0418 494.373 43.748L491.575 42.6682ZM488.864 59.4545C488.864 66.2526 489.766 72.0457 491.632 76.7832L494.423 75.6842C492.737 71.4017 491.864 66.0088 491.864 59.4545H488.864ZM491.637 76.7965C493.54 81.4993 496.324 85.1345 500.025 87.6025L501.69 85.1063C498.573 83.0288 496.136 79.9169 494.418 75.6709L491.637 76.7965ZM500.035 87.6085C503.729 90.0326 508.128 91.2102 513.162 91.2102V88.2102C508.608 88.2102 504.805 87.1506 501.68 85.1003L500.035 87.6085ZM513.162 91.2102C516.018 91.2102 518.622 90.8581 520.959 90.1303L520.067 87.266C518.071 87.8876 515.775 88.2102 513.162 88.2102V91.2102ZM520.98 90.1235C523.305 89.3612 525.356 88.2642 527.112 86.8206L525.207 84.5033C523.766 85.6875 522.053 86.6147 520.046 87.2728L520.98 90.1235ZM527.112 86.8206C528.863 85.3811 530.283 83.6481 531.369 81.6323L528.727 80.21C527.824 81.8874 526.652 83.3149 525.207 84.5033L527.112 86.8206ZM531.364 81.6412C532.486 79.5897 533.23 77.3063 533.608 74.8071L530.642 74.3577C530.311 76.546 529.669 78.4884 528.732 80.2011L531.364 81.6412ZM532.115 76.0823L562.157 76.2954L562.179 73.2955L532.136 73.0824L532.115 76.0823ZM560.672 74.6804C560.333 79.0933 559.092 83.6233 556.92 88.2769L559.639 89.5455C561.941 84.6111 563.293 79.7306 563.663 74.9105L560.672 74.6804ZM556.922 88.273C554.767 92.8556 551.698 97.1157 547.693 101.052L549.796 103.191C554.03 99.0306 557.317 94.4839 559.637 89.5494L556.922 88.273ZM547.693 101.052C543.767 104.909 538.879 108.04 532.999 110.426L534.128 113.206C540.321 110.692 545.554 107.359 549.796 103.191L547.693 101.052ZM532.999 110.426C527.177 112.789 520.362 113.991 512.523 113.991V116.991C520.664 116.991 527.876 115.743 534.128 113.206L532.999 110.426ZM512.523 113.991C502.73 113.991 493.995 111.893 486.283 107.726L484.857 110.366C493.053 114.793 502.287 116.991 512.523 116.991V113.991ZM486.285 107.728C478.633 103.575 472.566 97.4672 468.079 89.357L465.454 90.8092C470.201 99.3894 476.669 105.923 484.854 110.365L486.285 107.728ZM468.082 89.3613C463.65 81.2889 461.395 71.3424 461.395 59.4545H458.395C458.395 71.7145 460.721 82.1869 465.452 90.8049L468.082 89.3613ZM461.395 59.4545C461.395 47.4988 463.702 37.5411 468.233 29.5097L465.62 28.0357C460.775 36.6237 458.395 47.1205 458.395 59.4545H461.395ZM468.234 29.5073C472.791 21.3953 478.91 15.3034 486.598 11.1851L485.181 8.5407C476.959 12.9452 470.437 19.4598 465.619 28.0381L468.234 29.5073ZM486.602 11.1827C494.32 7.0139 502.949 4.91761 512.523 4.91761V1.91761C502.494 1.91761 493.368 4.11819 485.177 8.54316L486.602 11.1827ZM512.523 4.91761C519.275 4.91761 525.455 5.8398 531.076 7.66725L532.003 4.81427C526.047 2.87752 519.549 1.91761 512.523 1.91761V4.91761ZM531.076 7.66725C536.697 9.49504 541.605 12.1592 545.816 15.6518L547.731 13.3425C543.207 9.5908 537.959 6.75069 532.003 4.81427L531.076 7.66725ZM545.822 15.6564C550.022 19.1055 553.409 23.3604 555.983 28.4387L558.659 27.0826C555.905 21.6496 552.261 17.0621 547.726 13.3379L545.822 15.6564ZM555.983 28.4387C558.546 33.4973 560.119 39.3238 560.673 45.9434L563.663 45.693C563.081 38.7472 561.422 32.5354 558.659 27.0826L555.983 28.4387ZM575.604 114H574.104V115.5H575.604V114ZM575.604 4.90909V3.40909H574.104V4.90909H575.604ZM654.227 4.90909H655.727V3.40909H654.227V4.90909ZM654.227 28.7727V30.2727H655.727V28.7727H654.227ZM605.221 28.7727V27.2727H603.721V28.7727H605.221ZM605.221 47.5227H603.721V49.0227H605.221V47.5227ZM650.178 47.5227H651.678V46.0227H650.178V47.5227ZM650.178 71.3864V72.8864H651.678V71.3864H650.178ZM605.221 71.3864V69.8864H603.721V71.3864H605.221ZM605.221 90.1364H603.721V91.6364H605.221V90.1364ZM654.014 90.1364H655.514V88.6364H654.014V90.1364ZM654.014 114V115.5H655.514V114H654.014ZM577.104 114V4.90909H574.104V114H577.104ZM575.604 6.40909H654.227V3.40909H575.604V6.40909ZM652.727 4.90909V28.7727H655.727V4.90909H652.727ZM654.227 27.2727H605.221V30.2727H654.227V27.2727ZM603.721 28.7727V47.5227H606.721V28.7727H603.721ZM605.221 49.0227H650.178V46.0227H605.221V49.0227ZM648.678 47.5227V71.3864H651.678V47.5227H648.678ZM650.178 69.8864H605.221V72.8864H650.178V69.8864ZM603.721 71.3864V90.1364H606.721V71.3864H603.721ZM605.221 91.6364H654.014V88.6364H605.221V91.6364ZM652.514 90.1364V114H655.514V90.1364H652.514ZM654.014 112.5H575.604V115.5H654.014V112.5ZM727.722 39L726.227 39.1196L726.337 40.5H727.722V39ZM723.727 30.6903L722.756 31.8341L722.765 31.8413L723.727 30.6903ZM705.509 28.826L706.03 30.2326L706.038 30.23L706.045 30.2273L705.509 28.826ZM701.248 31.7557L700.044 30.8612L700.044 30.8612L701.248 31.7557ZM699.81 36.017L701.308 36.098L701.309 36.0742L701.31 36.0504L699.81 36.017ZM700.502 39.5859L699.161 40.2568L699.174 40.2839L699.189 40.3106L700.502 39.5859ZM703.166 42.4091L702.301 43.6345L702.313 43.6431L702.325 43.6515L703.166 42.4091ZM714.512 46.4574L714.826 44.9906L714.814 44.9881L714.512 46.4574ZM723.46 48.375L723.146 49.8417L723.15 49.8425L723.46 48.375ZM749.508 60.8395L748.427 61.8797L748.434 61.8865L749.508 60.8395ZM755.527 70.321L754.118 70.8337L754.122 70.8462L755.527 70.321ZM757.551 81.8267L759.051 81.8341L759.051 81.824L759.051 81.8139L757.551 81.8267ZM752.171 100.044L753.392 100.916L753.392 100.916L752.171 100.044ZM736.937 111.39L736.389 109.994L736.386 109.995L736.937 111.39ZM688.411 111.07L687.855 112.464L687.857 112.464L688.411 111.07ZM672.005 98.1264L670.753 98.9532L670.759 98.962L672.005 98.1264ZM666.145 75.6477V74.1477H664.639L664.645 75.6536L666.145 75.6477ZM694.27 75.6477L695.768 75.5681L695.692 74.1477H694.27V75.6477ZM696.774 84.0639L695.52 84.8869L695.52 84.8869L696.774 84.0639ZM703.059 89.2308L702.462 90.6067L702.468 90.6095L703.059 89.2308ZM720.744 89.8168L721.26 91.2251L721.26 91.2251L720.744 89.8168ZM725.591 86.5675L726.765 87.5008L726.765 87.5008L725.591 86.5675ZM727.296 81.8267L728.795 81.8567L728.796 81.8257L728.795 81.7948L727.296 81.8267ZM725.644 77.4588L724.476 78.3998L724.491 78.4176L724.506 78.435L725.644 77.4588ZM720.531 74.0497L719.935 75.4263L719.944 75.4301L719.952 75.4337L720.531 74.0497ZM710.889 71.1733L711.211 69.7081L711.206 69.707L710.889 71.1733ZM700.023 68.8295L699.705 70.2955L699.707 70.2958L700.023 68.8295ZM677.171 58.3359L676.174 59.4559L676.181 59.4626L677.171 58.3359ZM668.915 38.1477L670.415 38.154L670.415 38.14L668.915 38.1477ZM674.455 19.9837L673.238 19.1063L673.237 19.1079L674.455 19.9837ZM690.062 7.78551L689.462 6.4106L689.46 6.41178L690.062 7.78551ZM735.872 7.83878L735.246 9.20225L735.246 9.20225L735.872 7.83878ZM750.733 20.3033L749.475 21.1199L749.481 21.1295L750.733 20.3033ZM756.06 39V40.5H757.567L757.56 38.9925L756.06 39ZM729.217 38.8804C728.906 34.9928 727.424 31.8253 724.689 29.5394L722.765 31.8413C724.788 33.5326 725.969 35.9049 726.227 39.1196L729.217 38.8804ZM724.697 29.5466C721.967 27.2297 717.981 26.2074 713.02 26.2074V29.2074C717.648 29.2074 720.799 30.1737 722.756 31.8341L724.697 29.5466ZM713.02 26.2074C709.86 26.2074 707.158 26.591 704.974 27.4247L706.045 30.2273C707.767 29.5695 710.072 29.2074 713.02 29.2074V26.2074ZM704.989 27.4194C702.884 28.1988 701.188 29.3211 700.044 30.8612L702.452 32.6502C703.155 31.7045 704.3 30.8737 706.03 30.2326L704.989 27.4194ZM700.044 30.8612C698.929 32.3621 698.352 34.0857 698.31 35.9837L701.31 36.0504C701.338 34.7524 701.721 33.6351 702.452 32.6502L700.044 30.8612ZM698.312 35.9361C698.229 37.482 698.5 38.9348 699.161 40.2568L701.844 38.9151C701.44 38.1063 701.249 37.1799 701.308 36.098L698.312 35.9361ZM699.189 40.3106C699.891 41.5834 700.954 42.6841 702.301 43.6345L704.031 41.1836C702.963 40.4296 702.25 39.6482 701.816 38.8613L699.189 40.3106ZM702.325 43.6515C703.667 44.5591 705.334 45.3557 707.294 46.0583L708.306 43.2343C706.502 42.5874 705.079 41.8926 704.006 41.1667L702.325 43.6515ZM707.294 46.0583C709.26 46.7631 711.569 47.384 714.21 47.9267L714.814 44.9881C712.27 44.4654 710.104 43.8789 708.306 43.2343L707.294 46.0583ZM714.197 47.9241L723.146 49.8417L723.775 46.9083L714.826 44.9907L714.197 47.9241ZM723.15 49.8425C729.099 51.1024 734.144 52.7551 738.304 54.7836L739.619 52.0871C735.185 49.9253 729.895 48.2044 723.771 46.9075L723.15 49.8425ZM738.304 54.7836C742.475 56.8176 745.838 59.1892 748.427 61.8797L750.589 59.7993C747.71 56.808 744.041 54.2435 739.619 52.0871L738.304 54.7836ZM748.434 61.8865C751.027 64.5469 752.915 67.5273 754.118 70.8336L756.937 69.8084C755.582 66.0835 753.458 62.7429 750.582 59.7925L748.434 61.8865ZM754.122 70.8462C755.369 74.1812 756.017 77.841 756.051 81.8395L759.051 81.8139C759.015 77.5027 758.314 73.4921 756.932 69.7959L754.122 70.8462ZM756.051 81.8193C756.017 88.738 754.292 94.4946 750.951 99.1722L753.392 100.916C757.153 95.6503 759.015 89.262 759.051 81.8341L756.051 81.8193ZM750.951 99.1722C747.594 103.871 742.769 107.49 736.389 109.994L737.485 112.786C744.316 110.105 749.646 106.16 753.392 100.916L750.951 99.1722ZM736.386 109.995C730.037 112.5 722.333 113.778 713.233 113.778V116.778C722.6 116.778 730.698 115.464 737.488 112.785L736.386 109.995ZM713.233 113.778C703.896 113.778 695.817 112.397 688.964 109.676L687.857 112.464C695.138 115.355 703.607 116.778 713.233 116.778V113.778ZM688.967 109.677C682.193 106.974 676.974 102.843 673.25 97.2909L670.759 98.962C674.847 105.057 680.566 109.555 687.855 112.464L688.967 109.677ZM673.256 97.2996C669.588 91.7471 667.68 84.5627 667.645 75.6419L664.645 75.6536C664.681 84.9856 666.679 92.787 670.753 98.9532L673.256 97.2996ZM666.145 77.1477H694.27V74.1477H666.145V77.1477ZM692.772 75.7274C692.961 79.2699 693.853 82.3466 695.52 84.8869L698.028 83.2409C696.712 81.2357 695.935 78.7016 695.768 75.5681L692.772 75.7274ZM695.52 84.8869C697.185 87.4242 699.518 89.3285 702.462 90.6067L703.657 87.8549C701.203 86.7894 699.346 85.2491 698.028 83.2409L695.52 84.8869ZM702.468 90.6095C705.432 91.8796 708.892 92.4886 712.807 92.4886V89.4886C709.194 89.4886 706.155 88.9258 703.65 87.8521L702.468 90.6095ZM712.807 92.4886C716.08 92.4886 718.913 92.0857 721.26 91.2251L720.227 88.4084C718.313 89.1104 715.855 89.4886 712.807 89.4886V92.4886ZM721.26 91.2251C723.578 90.3754 725.451 89.1546 726.765 87.5008L724.417 85.6341C723.53 86.7503 722.171 87.6957 720.227 88.4084L721.26 91.2251ZM726.765 87.5008C728.072 85.8575 728.753 83.9596 728.795 81.8567L725.796 81.7967C725.767 83.245 725.312 84.5076 724.417 85.6341L726.765 87.5008ZM728.795 81.7948C728.753 79.7862 728.079 77.9947 726.783 76.4826L724.506 78.435C725.34 79.4087 725.768 80.5291 725.796 81.8586L728.795 81.7948ZM726.813 76.5178C725.561 74.9646 723.6 73.7066 721.109 72.6657L719.952 75.4337C722.22 76.3815 723.668 77.3962 724.476 78.3998L726.813 76.5178ZM721.127 72.6731C718.623 71.5893 715.305 70.6059 711.211 69.7081L710.568 72.6385C714.571 73.5163 717.68 74.4505 719.935 75.4263L721.127 72.6731ZM711.206 69.707L700.339 67.3633L699.707 70.2958L710.573 72.6396L711.206 69.707ZM700.341 67.3636C690.851 65.3053 683.492 61.8947 678.162 57.2093L676.181 59.4626C682.001 64.5783 689.876 68.1635 699.705 70.2955L700.341 67.3636ZM678.169 57.216C673 52.6099 670.381 46.3175 670.415 38.154L667.415 38.1415C667.378 47.0235 670.263 54.1898 676.174 59.4559L678.169 57.216ZM670.415 38.14C670.381 31.504 672.145 25.7648 675.673 20.8595L673.237 19.1079C669.307 24.5718 667.378 30.942 667.415 38.1554L670.415 38.14ZM675.671 20.861C679.26 15.8847 684.237 11.9775 690.664 9.15924L689.46 6.41178C682.605 9.4174 677.178 13.6423 673.238 19.1063L675.671 20.861ZM690.662 9.16041C697.117 6.34479 704.56 4.91761 713.02 4.91761V1.91761C704.222 1.91761 696.359 3.40236 689.462 6.4106L690.662 9.16041ZM713.02 4.91761C721.663 4.91761 729.057 6.36401 735.246 9.20225L736.497 6.4753C729.831 3.41865 721.991 1.91761 713.02 1.91761V4.91761ZM735.246 9.20225C741.444 12.0441 746.166 16.0212 749.475 21.1199L751.991 19.4867C748.34 13.8609 743.155 9.5283 736.497 6.4753L735.246 9.20225ZM749.481 21.1295C752.818 26.185 754.526 32.1252 754.56 39.0075L757.56 38.9925C757.523 31.5992 755.68 25.0749 751.985 19.477L749.481 21.1295ZM756.06 37.5H727.722V40.5H756.06V37.5Z" fill="#0061C0" fill-opacity="0.6" mask="url(#path-1-outside-1_2_3)"/>
</g>
<defs>
<clipPath id="clip0_2_3">
<rect width="762" height="118" fill="white"/>
</clipPath>
</defs>
</svg>
