<svg width="762" height="124" viewBox="0 0 762 124" fill="none" xmlns="http://www.w3.org/2000/svg">
<g clip-path="url(#clip0_2_3)">
<rect width="762" height="124" fill="white"/>
<mask id="path-1-outside-1_2_3" maskUnits="userSpaceOnUse" x="2" y="4" width="757" height="116" fill="black">
<rect fill="white" x="2" y="4" width="757" height="116"/>
<path d="M65.8381 42C65.554 38.4489 64.2223 35.679 61.843 33.6903C59.4993 31.7017 55.9304 30.7074 51.1364 30.7074C48.0824 30.7074 45.5788 31.0803 43.6257 31.826C41.7081 32.5362 40.2876 33.5128 39.3643 34.7557C38.4411 35.9986 37.9616 37.419 37.9261 39.017C37.8551 40.331 38.0859 41.5206 38.6186 42.5859C39.1868 43.6158 40.0746 44.5568 41.282 45.4091C42.4893 46.2259 44.0341 46.9716 45.9162 47.6463C47.7983 48.321 50.0355 48.9247 52.6278 49.4574L61.5767 51.375C67.6136 52.6534 72.7805 54.3402 77.0774 56.4354C81.3743 58.5305 84.8899 60.9986 87.6243 63.8395C90.3587 66.6449 92.3651 69.8054 93.6435 73.321C94.9574 76.8366 95.6321 80.6719 95.6676 84.8267C95.6321 92 93.8388 98.0724 90.2876 103.044C86.7365 108.016 81.6584 111.798 75.0533 114.39C68.4837 116.982 60.5824 118.278 51.3494 118.278C41.8679 118.278 33.5938 116.876 26.527 114.07C19.4957 111.265 14.027 106.95 10.1207 101.126C6.25 95.267 4.29688 87.7741 4.26136 78.6477H32.3864C32.5639 81.9858 33.3984 84.7912 34.8899 87.0639C36.3814 89.3366 38.4766 91.0589 41.1754 92.2308C43.9098 93.4027 47.1591 93.9886 50.9233 93.9886C54.0838 93.9886 56.7294 93.598 58.8601 92.8168C60.9908 92.0355 62.6065 90.9524 63.7074 89.5675C64.8082 88.1825 65.3764 86.6023 65.4119 84.8267C65.3764 83.1577 64.826 81.7017 63.7607 80.4588C62.7308 79.1804 61.0263 78.044 58.647 77.0497C56.2678 76.0199 53.054 75.0611 49.0057 74.1733L38.1392 71.8295C28.4801 69.7344 20.8629 66.2365 15.2876 61.3359C9.74787 56.3999 6.99574 49.6705 7.03125 41.1477C6.99574 34.223 8.84233 28.1683 12.571 22.9837C16.3352 17.7635 21.5376 13.6974 28.1783 10.7855C34.8544 7.87358 42.5071 6.41761 51.1364 6.41761C59.9432 6.41761 67.5604 7.89133 73.9879 10.8388C80.4155 13.7862 85.3693 17.9411 88.8494 23.3033C92.3651 28.63 94.1406 34.8622 94.1761 42H65.8381ZM106.934 117V7.90909H185.556V31.7727H136.55V50.5227H181.507V74.3864H136.55V93.1364H185.343V117H106.934ZM200.244 117V7.90909H247.332C255.429 7.90909 262.513 9.38281 268.586 12.3303C274.658 15.2777 279.381 19.5213 282.755 25.0611C286.128 30.6009 287.815 37.2415 287.815 44.983C287.815 52.7955 286.075 59.3828 282.595 64.745C279.15 70.1072 274.303 74.1555 268.053 76.8899C261.839 79.6243 254.577 80.9915 246.267 80.9915H218.142V57.9801H240.301C243.781 57.9801 246.746 57.554 249.197 56.7017C251.682 55.8139 253.582 54.4112 254.896 52.4936C256.246 50.576 256.92 48.0724 256.92 44.983C256.92 41.858 256.246 39.3189 254.896 37.3658C253.582 35.3771 251.682 33.9212 249.197 32.9979C246.746 32.0391 243.781 31.5597 240.301 31.5597H229.861V117H200.244ZM264.165 66.929L291.437 117H259.264L232.631 66.929H264.165ZM326.9 7.90909L349.272 84.8267H350.124L372.496 7.90909H405.948L369.94 117H329.457L293.448 7.90909H326.9ZM446.072 7.90909V117H416.455V7.90909H446.072ZM561.954 48.8182H531.911C531.698 46.3324 531.13 44.0774 530.207 42.0533C529.319 40.0291 528.076 38.2891 526.478 36.8331C524.916 35.3416 523.016 34.2053 520.779 33.424C518.541 32.6072 516.002 32.1989 513.161 32.1989C508.19 32.1989 503.982 33.4062 500.537 35.821C497.128 38.2358 494.536 41.6981 492.76 46.2081C491.02 50.718 490.15 56.1335 490.15 62.4545C490.15 69.1307 491.038 74.7237 492.813 79.2337C494.624 83.7081 497.235 87.0817 500.644 89.3544C504.053 91.5916 508.154 92.7102 512.948 92.7102C515.683 92.7102 518.133 92.3729 520.299 91.6982C522.465 90.9879 524.347 89.9759 525.945 88.6619C527.544 87.348 528.84 85.7678 529.834 83.9212C530.864 82.0391 531.556 79.9261 531.911 77.5824L561.954 77.7955C561.599 82.4119 560.303 87.1172 558.066 91.9112C555.828 96.6697 552.65 101.073 548.531 105.121C544.447 109.134 539.387 112.366 533.35 114.816C527.313 117.266 520.299 118.491 512.309 118.491C502.295 118.491 493.311 116.343 485.356 112.046C477.437 107.749 471.169 101.428 466.553 93.0831C461.972 84.7379 459.681 74.5284 459.681 62.4545C459.681 50.3097 462.025 40.0824 466.713 31.7727C471.4 23.4276 477.721 17.1243 485.676 12.8629C493.63 8.56605 502.508 6.41761 512.309 6.41761C519.198 6.41761 525.537 7.35866 531.325 9.24076C537.114 11.1229 542.192 13.875 546.56 17.4972C550.928 21.0838 554.443 25.505 557.107 30.7607C559.77 36.0163 561.386 42.0355 561.954 48.8182ZM575.391 117V7.90909H654.013V31.7727H605.007V50.5227H649.964V74.3864H605.007V93.1364H653.8V117H575.391ZM727.508 42C727.224 38.4489 725.892 35.679 723.513 33.6903C721.169 31.7017 717.6 30.7074 712.806 30.7074C709.752 30.7074 707.249 31.0803 705.296 31.826C703.378 32.5362 701.958 33.5128 701.034 34.7557C700.111 35.9986 699.632 37.419 699.596 39.017C699.525 40.331 699.756 41.5206 700.289 42.5859C700.857 43.6158 701.744 44.5568 702.952 45.4091C704.159 46.2259 705.704 46.9716 707.586 47.6463C709.468 48.321 711.705 48.9247 714.298 49.4574L723.247 51.375C729.284 52.6534 734.45 54.3402 738.747 56.4354C743.044 58.5305 746.56 60.9986 749.294 63.8395C752.029 66.6449 754.035 69.8054 755.313 73.321C756.627 76.8366 757.302 80.6719 757.338 84.8267C757.302 92 755.509 98.0724 751.958 103.044C748.406 108.016 743.328 111.798 736.723 114.39C730.154 116.982 722.252 118.278 713.019 118.278C703.538 118.278 695.264 116.876 688.197 114.07C681.166 111.265 675.697 106.95 671.791 101.126C667.92 95.267 665.967 87.7741 665.931 78.6477H694.056C694.234 81.9858 695.068 84.7912 696.56 87.0639C698.051 89.3366 700.146 91.0589 702.845 92.2308C705.58 93.4027 708.829 93.9886 712.593 93.9886C715.754 93.9886 718.399 93.598 720.53 92.8168C722.661 92.0355 724.276 90.9524 725.377 89.5675C726.478 88.1825 727.046 86.6023 727.082 84.8267C727.046 83.1577 726.496 81.7017 725.431 80.4588C724.401 79.1804 722.696 78.044 720.317 77.0497C717.938 76.0199 714.724 75.0611 710.676 74.1733L699.809 71.8295C690.15 69.7344 682.533 66.2365 676.958 61.3359C671.418 56.3999 668.666 49.6705 668.701 41.1477C668.666 34.223 670.512 28.1683 674.241 22.9837C678.005 17.7635 683.208 13.6974 689.848 10.7855C696.524 7.87358 704.177 6.41761 712.806 6.41761C721.613 6.41761 729.23 7.89133 735.658 10.8388C742.085 13.7862 747.039 17.9411 750.519 23.3033C754.035 28.63 755.811 34.8622 755.846 42H727.508Z"/>
</mask>
<path d="M65.8381 42C65.554 38.4489 64.2223 35.679 61.843 33.6903C59.4993 31.7017 55.9304 30.7074 51.1364 30.7074C48.0824 30.7074 45.5788 31.0803 43.6257 31.826C41.7081 32.5362 40.2876 33.5128 39.3643 34.7557C38.4411 35.9986 37.9616 37.419 37.9261 39.017C37.8551 40.331 38.0859 41.5206 38.6186 42.5859C39.1868 43.6158 40.0746 44.5568 41.282 45.4091C42.4893 46.2259 44.0341 46.9716 45.9162 47.6463C47.7983 48.321 50.0355 48.9247 52.6278 49.4574L61.5767 51.375C67.6136 52.6534 72.7805 54.3402 77.0774 56.4354C81.3743 58.5305 84.8899 60.9986 87.6243 63.8395C90.3587 66.6449 92.3651 69.8054 93.6435 73.321C94.9574 76.8366 95.6321 80.6719 95.6676 84.8267C95.6321 92 93.8388 98.0724 90.2876 103.044C86.7365 108.016 81.6584 111.798 75.0533 114.39C68.4837 116.982 60.5824 118.278 51.3494 118.278C41.8679 118.278 33.5938 116.876 26.527 114.07C19.4957 111.265 14.027 106.95 10.1207 101.126C6.25 95.267 4.29688 87.7741 4.26136 78.6477H32.3864C32.5639 81.9858 33.3984 84.7912 34.8899 87.0639C36.3814 89.3366 38.4766 91.0589 41.1754 92.2308C43.9098 93.4027 47.1591 93.9886 50.9233 93.9886C54.0838 93.9886 56.7294 93.598 58.8601 92.8168C60.9908 92.0355 62.6065 90.9524 63.7074 89.5675C64.8082 88.1825 65.3764 86.6023 65.4119 84.8267C65.3764 83.1577 64.826 81.7017 63.7607 80.4588C62.7308 79.1804 61.0263 78.044 58.647 77.0497C56.2678 76.0199 53.054 75.0611 49.0057 74.1733L38.1392 71.8295C28.4801 69.7344 20.8629 66.2365 15.2876 61.3359C9.74787 56.3999 6.99574 49.6705 7.03125 41.1477C6.99574 34.223 8.84233 28.1683 12.571 22.9837C16.3352 17.7635 21.5376 13.6974 28.1783 10.7855C34.8544 7.87358 42.5071 6.41761 51.1364 6.41761C59.9432 6.41761 67.5604 7.89133 73.9879 10.8388C80.4155 13.7862 85.3693 17.9411 88.8494 23.3033C92.3651 28.63 94.1406 34.8622 94.1761 42H65.8381ZM106.934 117V7.90909H185.556V31.7727H136.55V50.5227H181.507V74.3864H136.55V93.1364H185.343V117H106.934ZM200.244 117V7.90909H247.332C255.429 7.90909 262.513 9.38281 268.586 12.3303C274.658 15.2777 279.381 19.5213 282.755 25.0611C286.128 30.6009 287.815 37.2415 287.815 44.983C287.815 52.7955 286.075 59.3828 282.595 64.745C279.15 70.1072 274.303 74.1555 268.053 76.8899C261.839 79.6243 254.577 80.9915 246.267 80.9915H218.142V57.9801H240.301C243.781 57.9801 246.746 57.554 249.197 56.7017C251.682 55.8139 253.582 54.4112 254.896 52.4936C256.246 50.576 256.92 48.0724 256.92 44.983C256.92 41.858 256.246 39.3189 254.896 37.3658C253.582 35.3771 251.682 33.9212 249.197 32.9979C246.746 32.0391 243.781 31.5597 240.301 31.5597H229.861V117H200.244ZM264.165 66.929L291.437 117H259.264L232.631 66.929H264.165ZM326.9 7.90909L349.272 84.8267H350.124L372.496 7.90909H405.948L369.94 117H329.457L293.448 7.90909H326.9ZM446.072 7.90909V117H416.455V7.90909H446.072ZM561.954 48.8182H531.911C531.698 46.3324 531.13 44.0774 530.207 42.0533C529.319 40.0291 528.076 38.2891 526.478 36.8331C524.916 35.3416 523.016 34.2053 520.779 33.424C518.541 32.6072 516.002 32.1989 513.161 32.1989C508.19 32.1989 503.982 33.4062 500.537 35.821C497.128 38.2358 494.536 41.6981 492.76 46.2081C491.02 50.718 490.15 56.1335 490.15 62.4545C490.15 69.1307 491.038 74.7237 492.813 79.2337C494.624 83.7081 497.235 87.0817 500.644 89.3544C504.053 91.5916 508.154 92.7102 512.948 92.7102C515.683 92.7102 518.133 92.3729 520.299 91.6982C522.465 90.9879 524.347 89.9759 525.945 88.6619C527.544 87.348 528.84 85.7678 529.834 83.9212C530.864 82.0391 531.556 79.9261 531.911 77.5824L561.954 77.7955C561.599 82.4119 560.303 87.1172 558.066 91.9112C555.828 96.6697 552.65 101.073 548.531 105.121C544.447 109.134 539.387 112.366 533.35 114.816C527.313 117.266 520.299 118.491 512.309 118.491C502.295 118.491 493.311 116.343 485.356 112.046C477.437 107.749 471.169 101.428 466.553 93.0831C461.972 84.7379 459.681 74.5284 459.681 62.4545C459.681 50.3097 462.025 40.0824 466.713 31.7727C471.4 23.4276 477.721 17.1243 485.676 12.8629C493.63 8.56605 502.508 6.41761 512.309 6.41761C519.198 6.41761 525.537 7.35866 531.325 9.24076C537.114 11.1229 542.192 13.875 546.56 17.4972C550.928 21.0838 554.443 25.505 557.107 30.7607C559.77 36.0163 561.386 42.0355 561.954 48.8182ZM575.391 117V7.90909H654.013V31.7727H605.007V50.5227H649.964V74.3864H605.007V93.1364H653.8V117H575.391ZM727.508 42C727.224 38.4489 725.892 35.679 723.513 33.6903C721.169 31.7017 717.6 30.7074 712.806 30.7074C709.752 30.7074 707.249 31.0803 705.296 31.826C703.378 32.5362 701.958 33.5128 701.034 34.7557C700.111 35.9986 699.632 37.419 699.596 39.017C699.525 40.331 699.756 41.5206 700.289 42.5859C700.857 43.6158 701.744 44.5568 702.952 45.4091C704.159 46.2259 705.704 46.9716 707.586 47.6463C709.468 48.321 711.705 48.9247 714.298 49.4574L723.247 51.375C729.284 52.6534 734.45 54.3402 738.747 56.4354C743.044 58.5305 746.56 60.9986 749.294 63.8395C752.029 66.6449 754.035 69.8054 755.313 73.321C756.627 76.8366 757.302 80.6719 757.338 84.8267C757.302 92 755.509 98.0724 751.958 103.044C748.406 108.016 743.328 111.798 736.723 114.39C730.154 116.982 722.252 118.278 713.019 118.278C703.538 118.278 695.264 116.876 688.197 114.07C681.166 111.265 675.697 106.95 671.791 101.126C667.92 95.267 665.967 87.7741 665.931 78.6477H694.056C694.234 81.9858 695.068 84.7912 696.56 87.0639C698.051 89.3366 700.146 91.0589 702.845 92.2308C705.58 93.4027 708.829 93.9886 712.593 93.9886C715.754 93.9886 718.399 93.598 720.53 92.8168C722.661 92.0355 724.276 90.9524 725.377 89.5675C726.478 88.1825 727.046 86.6023 727.082 84.8267C727.046 83.1577 726.496 81.7017 725.431 80.4588C724.401 79.1804 722.696 78.044 720.317 77.0497C717.938 76.0199 714.724 75.0611 710.676 74.1733L699.809 71.8295C690.15 69.7344 682.533 66.2365 676.958 61.3359C671.418 56.3999 668.666 49.6705 668.701 41.1477C668.666 34.223 670.512 28.1683 674.241 22.9837C678.005 17.7635 683.208 13.6974 689.848 10.7855C696.524 7.87358 704.177 6.41761 712.806 6.41761C721.613 6.41761 729.23 7.89133 735.658 10.8388C742.085 13.7862 747.039 17.9411 750.519 23.3033C754.035 28.63 755.811 34.8622 755.846 42H727.508Z" fill="white"/>
<path d="M65.8381 42L64.3428 42.1196L64.4533 43.5H65.8381V42ZM61.843 33.6903L60.8725 34.8341L60.8811 34.8413L61.843 33.6903ZM43.6257 31.826L44.1467 33.2326L44.1537 33.23L44.1608 33.2273L43.6257 31.826ZM39.3643 34.7557L38.1602 33.8612L38.1602 33.8612L39.3643 34.7557ZM37.9261 39.017L39.4239 39.098L39.4252 39.0742L39.4258 39.0504L37.9261 39.017ZM38.6186 42.5859L37.277 43.2568L37.2906 43.2839L37.3052 43.3106L38.6186 42.5859ZM41.282 45.4091L40.4169 46.6345L40.4291 46.6431L40.4415 46.6515L41.282 45.4091ZM52.6278 49.4574L52.9421 47.9906L52.9298 47.9881L52.6278 49.4574ZM61.5767 51.375L61.2624 52.8417L61.266 52.8425L61.5767 51.375ZM87.6243 63.8395L86.5435 64.8797L86.5501 64.8865L87.6243 63.8395ZM93.6435 73.321L92.2337 73.8337L92.2384 73.8462L93.6435 73.321ZM95.6676 84.8267L97.1676 84.8341L97.1677 84.824L97.1676 84.8139L95.6676 84.8267ZM90.2876 103.044L91.5082 103.916L91.5082 103.916L90.2876 103.044ZM75.0533 114.39L74.5053 112.994L74.5027 112.995L75.0533 114.39ZM26.527 114.07L25.9711 115.464L25.9735 115.464L26.527 114.07ZM10.1207 101.126L8.86914 101.953L8.87501 101.962L10.1207 101.126ZM4.26136 78.6477V77.1477H2.75552L2.76138 78.6536L4.26136 78.6477ZM32.3864 78.6477L33.8842 78.5681L33.8087 77.1477H32.3864V78.6477ZM34.8899 87.0639L33.6358 87.8869L33.6358 87.8869L34.8899 87.0639ZM41.1754 92.2308L40.578 93.6067L40.5845 93.6095L41.1754 92.2308ZM58.8601 92.8168L59.3765 94.2251L59.3765 94.2251L58.8601 92.8168ZM63.7074 89.5675L64.8816 90.5008L64.8816 90.5008L63.7074 89.5675ZM65.4119 84.8267L66.9116 84.8567L66.9123 84.8257L66.9116 84.7948L65.4119 84.8267ZM63.7607 80.4588L62.5925 81.3998L62.6069 81.4176L62.6218 81.435L63.7607 80.4588ZM58.647 77.0497L58.0512 78.4263L58.0599 78.4301L58.0686 78.4337L58.647 77.0497ZM49.0057 74.1733L49.327 72.7081L49.3219 72.707L49.0057 74.1733ZM38.1392 71.8295L37.8212 73.2955L37.8229 73.2958L38.1392 71.8295ZM15.2876 61.3359L14.2897 62.4559L14.2973 62.4626L15.2876 61.3359ZM7.03125 41.1477L8.5313 41.154L8.53123 41.14L7.03125 41.1477ZM12.571 22.9837L11.3543 22.1063L11.3532 22.1079L12.571 22.9837ZM28.1783 10.7855L27.5786 9.4106L27.5759 9.41178L28.1783 10.7855ZM73.9879 10.8388L73.3627 12.2023L73.3627 12.2023L73.9879 10.8388ZM88.8494 23.3033L87.5912 24.1199L87.5975 24.1295L88.8494 23.3033ZM94.1761 42V43.5H95.6836L95.6761 41.9925L94.1761 42ZM67.3333 41.8804C67.0223 37.9928 65.5399 34.8253 62.805 32.5394L60.8811 34.8413C62.9047 36.5326 64.0857 38.9049 64.3428 42.1196L67.3333 41.8804ZM62.8135 32.5466C60.0829 30.2297 56.0968 29.2074 51.1364 29.2074V32.2074C55.764 32.2074 58.9157 33.1737 60.8726 34.8341L62.8135 32.5466ZM51.1364 29.2074C47.9763 29.2074 45.2741 29.591 43.0907 30.4247L44.1608 33.2273C45.8836 32.5695 48.1885 32.2074 51.1364 32.2074V29.2074ZM43.1047 30.4194C41.0003 31.1988 39.3043 32.3211 38.1602 33.8612L40.5685 35.6502C41.271 34.7045 42.4158 33.8737 44.1467 33.2326L43.1047 30.4194ZM38.1602 33.8612C37.0453 35.3621 36.4687 37.0857 36.4265 38.9837L39.4258 39.0504C39.4546 37.7524 39.8368 36.6351 40.5685 35.6502L38.1602 33.8612ZM36.4283 38.9361C36.3448 40.482 36.616 41.9348 37.277 43.2568L39.9603 41.9151C39.5559 41.1063 39.3655 40.1799 39.4239 39.098L36.4283 38.9361ZM37.3052 43.3106C38.0075 44.5834 39.0704 45.6841 40.4169 46.6345L42.147 44.1836C41.0787 43.4296 40.3661 42.6482 39.932 41.8613L37.3052 43.3106ZM40.4415 46.6515C41.7831 47.5591 43.4502 48.3557 45.41 49.0583L46.4224 46.2343C44.618 45.5874 43.1956 44.8926 42.1224 44.1667L40.4415 46.6515ZM45.41 49.0583C47.3761 49.7631 49.685 50.384 52.3259 50.9267L52.9298 47.9881C50.386 47.4654 48.2205 46.8789 46.4224 46.2343L45.41 49.0583ZM52.3135 50.9241L61.2624 52.8417L61.891 49.9083L52.9421 47.9907L52.3135 50.9241ZM61.266 52.8425C67.2157 54.1024 72.2599 55.7551 76.42 57.7836L77.7348 55.0871C73.3012 52.9253 68.0116 51.2044 61.8875 49.9075L61.266 52.8425ZM76.42 57.7836C80.5914 59.8176 83.954 62.1892 86.5436 64.8797L88.705 62.7993C85.8259 59.808 82.1572 57.2435 77.7348 55.0871L76.42 57.7836ZM86.5501 64.8865C89.1432 67.5469 91.0315 70.5273 92.2338 73.8336L95.0532 72.8084C93.6986 69.0835 91.5741 65.7429 88.6985 62.7925L86.5501 64.8865ZM92.2384 73.8462C93.4848 77.1812 94.1335 80.841 94.1677 84.8395L97.1676 84.8139C97.1307 80.5027 96.4299 76.4921 95.0485 72.7959L92.2384 73.8462ZM94.1676 84.8193C94.1334 91.738 92.4082 97.4946 89.067 102.172L91.5082 103.916C95.2694 98.6503 97.1308 92.262 97.1676 84.8341L94.1676 84.8193ZM89.067 102.172C85.7105 106.871 80.8847 110.49 74.5053 112.994L75.6013 115.786C82.432 113.105 87.7625 109.16 91.5082 103.916L89.067 102.172ZM74.5027 112.995C68.1532 115.5 60.4489 116.778 51.3494 116.778V119.778C60.7159 119.778 68.8142 118.464 75.6038 115.785L74.5027 112.995ZM51.3494 116.778C42.0123 116.778 33.9335 115.397 27.0804 112.676L25.9735 115.464C33.254 118.355 41.7235 119.778 51.3494 119.778V116.778ZM27.0829 112.677C20.3091 109.974 15.0907 105.843 11.3665 100.291L8.87501 101.962C12.9633 108.057 18.6824 112.555 25.9711 115.464L27.0829 112.677ZM11.3723 100.3C7.70429 94.7471 5.79606 87.5627 5.76135 78.6419L2.76138 78.6536C2.79769 87.9856 4.79571 95.787 8.86917 101.953L11.3723 100.3ZM4.26136 80.1477H32.3864V77.1477H4.26136V80.1477ZM30.8885 78.7274C31.0769 82.2699 31.9688 85.3466 33.6358 87.8869L36.144 86.2409C34.8281 84.2357 34.0509 81.7016 33.8842 78.5681L30.8885 78.7274ZM33.6358 87.8869C35.3009 90.4242 37.6341 92.3285 40.578 93.6067L41.7729 90.8549C39.319 89.7894 37.4619 88.2491 36.144 86.2409L33.6358 87.8869ZM40.5845 93.6095C43.5481 94.8796 47.0079 95.4886 50.9233 95.4886V92.4886C47.3103 92.4886 44.2715 91.9258 41.7663 90.8521L40.5845 93.6095ZM50.9233 95.4886C54.196 95.4886 57.0294 95.0857 59.3765 94.2251L58.3437 91.4084C56.4294 92.1104 53.9716 92.4886 50.9233 92.4886V95.4886ZM59.3765 94.2251C61.6939 93.3754 63.5671 92.1546 64.8816 90.5008L62.5332 88.6341C61.646 89.7503 60.2877 90.6957 58.3437 91.4084L59.3765 94.2251ZM64.8816 90.5008C66.1879 88.8575 66.8696 86.9596 66.9116 84.8567L63.9122 84.7967C63.8833 86.245 63.4286 87.5076 62.5332 88.6341L64.8816 90.5008ZM66.9116 84.7948C66.8689 82.7862 66.1956 80.9947 64.8995 79.4826L62.6218 81.435C63.4564 82.4087 63.884 83.5291 63.9123 84.8586L66.9116 84.7948ZM64.9288 79.5178C63.6776 77.9646 61.7161 76.7066 59.2254 75.6657L58.0686 78.4337C60.3364 79.3815 61.784 80.3962 62.5925 81.3998L64.9288 79.5178ZM59.2429 75.6731C56.7388 74.5893 53.4207 73.6059 49.327 72.7081L48.6844 75.6385C52.6872 76.5163 55.7967 77.4505 58.0512 78.4263L59.2429 75.6731ZM49.3219 72.707L38.4555 70.3633L37.8229 73.2958L48.6894 75.6396L49.3219 72.707ZM38.4572 70.3636C28.9677 68.3053 21.6085 64.8947 16.2779 60.2093L14.2973 62.4626C20.1174 67.5783 27.9925 71.1635 37.8212 73.2955L38.4572 70.3636ZM16.2855 60.216C11.1161 55.6099 8.49722 49.3175 8.53124 41.154L5.53126 41.1415C5.49425 50.0235 8.37963 57.1898 14.2898 62.4559L16.2855 60.216ZM8.53123 41.14C8.4972 34.504 10.261 28.7648 13.7888 23.8595L11.3532 22.1079C7.42369 27.5718 5.49428 33.942 5.53127 41.1554L8.53123 41.14ZM13.7877 23.861C17.376 18.8847 22.3537 14.9775 28.7807 12.1592L27.5759 9.41178C20.7216 12.4174 15.2944 16.6423 11.3543 22.1063L13.7877 23.861ZM28.778 12.1604C35.2333 9.34479 42.6759 7.91761 51.1364 7.91761V4.91761C42.3383 4.91761 34.4755 6.40236 27.5786 9.4106L28.778 12.1604ZM51.1364 7.91761C59.7789 7.91761 67.1733 9.36401 73.3627 12.2023L74.6132 9.4753C67.9475 6.41865 60.1075 4.91761 51.1364 4.91761V7.91761ZM73.3627 12.2023C79.5601 15.0441 84.2821 19.0212 87.5912 24.1199L90.1077 22.4867C86.4565 16.8609 81.2709 12.5283 74.6132 9.4753L73.3627 12.2023ZM87.5975 24.1295C90.9341 29.185 92.6419 35.1252 92.6762 42.0075L95.6761 41.9925C95.6393 34.5992 93.796 28.0749 90.1013 22.477L87.5975 24.1295ZM94.1761 40.5H65.8381V43.5H94.1761V40.5ZM106.934 117H105.434V118.5H106.934V117ZM106.934 7.90909V6.40909H105.434V7.90909H106.934ZM185.556 7.90909H187.056V6.40909H185.556V7.90909ZM185.556 31.7727V33.2727H187.056V31.7727H185.556ZM136.55 31.7727V30.2727H135.05V31.7727H136.55ZM136.55 50.5227H135.05V52.0227H136.55V50.5227ZM181.507 50.5227H183.007V49.0227H181.507V50.5227ZM181.507 74.3864V75.8864H183.007V74.3864H181.507ZM136.55 74.3864V72.8864H135.05V74.3864H136.55ZM136.55 93.1364H135.05V94.6364H136.55V93.1364ZM185.343 93.1364H186.843V91.6364H185.343V93.1364ZM185.343 117V118.5H186.843V117H185.343ZM108.434 117V7.90909H105.434V117H108.434ZM106.934 9.40909H185.556V6.40909H106.934V9.40909ZM184.056 7.90909V31.7727H187.056V7.90909H184.056ZM185.556 30.2727H136.55V33.2727H185.556V30.2727ZM135.05 31.7727V50.5227H138.05V31.7727H135.05ZM136.55 52.0227H181.507V49.0227H136.55V52.0227ZM180.007 50.5227V74.3864H183.007V50.5227H180.007ZM181.507 72.8864H136.55V75.8864H181.507V72.8864ZM135.05 74.3864V93.1364H138.05V74.3864H135.05ZM136.55 94.6364H185.343V91.6364H136.55V94.6364ZM183.843 93.1364V117H186.843V93.1364H183.843ZM185.343 115.5H106.934V118.5H185.343V115.5ZM200.244 117H198.744V118.5H200.244V117ZM200.244 7.90909V6.40909H198.744V7.90909H200.244ZM282.755 25.0611L284.036 24.2809L284.036 24.2809L282.755 25.0611ZM282.595 64.745L281.337 63.9284L281.333 63.9343L282.595 64.745ZM268.053 76.8899L267.452 75.5157L267.449 75.5169L268.053 76.8899ZM218.142 80.9915H216.642V82.4915H218.142V80.9915ZM218.142 57.9801V56.4801H216.642V57.9801H218.142ZM249.197 56.7017L249.689 58.1185L249.701 58.1143L249.197 56.7017ZM254.896 52.4936L253.669 51.6304L253.664 51.638L253.659 51.6458L254.896 52.4936ZM254.896 37.3658L253.645 38.1927L253.653 38.2056L253.662 38.2184L254.896 37.3658ZM249.197 32.9979L248.65 34.3947L248.662 34.3995L248.674 34.404L249.197 32.9979ZM229.861 31.5597V30.0597H228.361V31.5597H229.861ZM229.861 117V118.5H231.361V117H229.861ZM264.165 66.929L265.482 66.2115L265.056 65.429H264.165V66.929ZM291.437 117V118.5H293.962L292.755 116.283L291.437 117ZM259.264 117L257.94 117.704L258.363 118.5H259.264V117ZM232.631 66.929V65.429H230.134L231.306 67.6334L232.631 66.929ZM201.744 117V7.90909H198.744V117H201.744ZM200.244 9.40909H247.332V6.40909H200.244V9.40909ZM247.332 9.40909C255.247 9.40909 262.099 10.8492 267.931 13.6797L269.241 10.9808C262.927 7.91646 255.611 6.40909 247.332 6.40909V9.40909ZM267.931 13.6797C273.755 16.5068 278.256 20.5577 281.474 25.8413L284.036 24.2809C280.506 18.4849 275.561 14.0486 269.241 10.9808L267.931 13.6797ZM281.474 25.8413C284.679 31.104 286.315 37.463 286.315 44.983H289.315C289.315 37.0199 287.578 30.0977 284.036 24.2809L281.474 25.8413ZM286.315 44.983C286.315 52.5704 284.627 58.8585 281.337 63.9284L283.853 65.5616C287.523 59.9071 289.315 53.0205 289.315 44.983H286.315ZM281.333 63.9343C278.06 69.0299 273.451 72.8911 267.452 75.5157L268.654 78.2642C275.155 75.42 280.241 71.1846 283.857 65.5557L281.333 63.9343ZM267.449 75.5169C261.462 78.151 254.414 79.4915 246.267 79.4915V82.4915C254.739 82.4915 262.215 81.0976 268.657 78.2629L267.449 75.5169ZM246.267 79.4915H218.142V82.4915H246.267V79.4915ZM219.642 80.9915V57.9801H216.642V80.9915H219.642ZM218.142 59.4801H240.301V56.4801H218.142V59.4801ZM240.301 59.4801C243.895 59.4801 247.037 59.0411 249.689 58.1184L248.704 55.285C246.456 56.0669 243.667 56.4801 240.301 56.4801V59.4801ZM249.701 58.1143C252.443 57.1352 254.617 55.5544 256.134 53.3415L253.659 51.6458C252.547 53.268 250.922 54.4926 248.692 55.2891L249.701 58.1143ZM256.123 53.3568C257.699 51.1172 258.42 48.2843 258.42 44.983H255.42C255.42 47.8606 254.792 50.0347 253.669 51.6304L256.123 53.3568ZM258.42 44.983C258.42 41.6486 257.7 38.7852 256.13 36.5131L253.662 38.2184C254.791 39.8526 255.42 42.0673 255.42 44.983H258.42ZM256.148 36.5389C254.639 34.255 252.468 32.6128 249.719 31.5917L248.674 34.404C250.897 35.2296 252.526 36.4993 253.645 38.1927L256.148 36.5389ZM249.743 31.601C247.072 30.556 243.911 30.0597 240.301 30.0597V33.0597C243.651 33.0597 246.42 33.5222 248.65 34.3947L249.743 31.601ZM240.301 30.0597H229.861V33.0597H240.301V30.0597ZM228.361 31.5597V117H231.361V31.5597H228.361ZM229.861 115.5H200.244V118.5H229.861V115.5ZM262.847 67.6465L290.12 117.717L292.755 116.283L265.482 66.2115L262.847 67.6465ZM291.437 115.5H259.264V118.5H291.437V115.5ZM260.588 116.296L233.955 66.2246L231.306 67.6334L257.94 117.704L260.588 116.296ZM232.631 68.429H264.165V65.429H232.631V68.429ZM326.9 7.90909L328.34 7.49016L328.026 6.40909H326.9V7.90909ZM349.272 84.8267L347.832 85.2456L348.146 86.3267H349.272V84.8267ZM350.124 84.8267V86.3267H351.25L351.565 85.2456L350.124 84.8267ZM372.496 7.90909V6.40909H371.371L371.056 7.49016L372.496 7.90909ZM405.948 7.90909L407.373 8.37925L408.023 6.40909H405.948V7.90909ZM369.94 117V118.5H371.024L371.364 117.47L369.94 117ZM329.457 117L328.032 117.47L328.372 118.5H329.457V117ZM293.448 7.90909V6.40909H291.373L292.024 8.37925L293.448 7.90909ZM325.46 8.32802L347.832 85.2456L350.712 84.4078L328.34 7.49016L325.46 8.32802ZM349.272 86.3267H350.124V83.3267H349.272V86.3267ZM351.565 85.2456L373.937 8.32802L371.056 7.49016L348.684 84.4078L351.565 85.2456ZM372.496 9.40909H405.948V6.40909H372.496V9.40909ZM404.524 7.43892L368.515 116.53L371.364 117.47L407.373 8.37925L404.524 7.43892ZM369.94 115.5H329.457V118.5H369.94V115.5ZM330.881 116.53L294.873 7.43892L292.024 8.37925L328.032 117.47L330.881 116.53ZM293.448 9.40909H326.9V6.40909H293.448V9.40909ZM446.072 7.90909H447.572V6.40909H446.072V7.90909ZM446.072 117V118.5H447.572V117H446.072ZM416.455 117H414.955V118.5H416.455V117ZM416.455 7.90909V6.40909H414.955V7.90909H416.455ZM444.572 7.90909V117H447.572V7.90909H444.572ZM446.072 115.5H416.455V118.5H446.072V115.5ZM417.955 117V7.90909H414.955V117H417.955ZM416.455 9.40909H446.072V6.40909H416.455V9.40909ZM561.954 48.8182V50.3182H563.585L563.449 48.693L561.954 48.8182ZM531.911 48.8182L530.417 48.9463L530.534 50.3182H531.911V48.8182ZM530.207 42.0533L528.833 42.6558L528.838 42.6658L528.842 42.6758L530.207 42.0533ZM526.478 36.8331L525.442 37.9181L525.455 37.9302L525.468 37.9419L526.478 36.8331ZM520.779 33.424L520.264 34.833L520.274 34.8367L520.284 34.8401L520.779 33.424ZM500.537 35.821L499.676 34.5928L499.67 34.597L500.537 35.821ZM492.76 46.2081L491.364 45.6586L491.361 45.6682L492.76 46.2081ZM492.813 79.2337L491.418 79.7832L491.42 79.7898L491.423 79.7965L492.813 79.2337ZM500.644 89.3544L499.812 90.6025L499.821 90.6085L500.644 89.3544ZM520.299 91.6982L520.745 93.1303L520.756 93.127L520.767 93.1235L520.299 91.6982ZM525.945 88.6619L526.898 89.8206L526.898 89.8206L525.945 88.6619ZM529.834 83.9212L528.518 83.2011L528.513 83.21L529.834 83.9212ZM531.911 77.5824L531.922 76.0824L530.623 76.0732L530.428 77.3577L531.911 77.5824ZM561.954 77.7955L563.45 77.9105L563.573 76.3069L561.965 76.2955L561.954 77.7955ZM558.066 91.9112L559.423 92.5494L559.425 92.5455L558.066 91.9112ZM548.531 105.121L549.582 106.191L549.582 106.191L548.531 105.121ZM485.356 112.046L484.641 113.365L484.643 113.366L485.356 112.046ZM466.553 93.0831L465.238 93.8049L465.24 93.8092L466.553 93.0831ZM466.713 31.7727L468.019 32.5097L468.02 32.5073L466.713 31.7727ZM485.676 12.8629L486.384 14.1852L486.389 14.1827L485.676 12.8629ZM531.325 9.24076L531.789 7.81427L531.789 7.81427L531.325 9.24076ZM546.56 17.4972L545.602 18.6518L545.608 18.6564L546.56 17.4972ZM557.107 30.7607L555.769 31.4387L555.769 31.4387L557.107 30.7607ZM561.954 47.3182H531.911V50.3182H561.954V47.3182ZM533.406 48.6901C533.18 46.0539 532.574 43.6288 531.572 41.4308L528.842 42.6758C529.686 44.526 530.217 46.6109 530.417 48.9463L533.406 48.6901ZM531.581 41.4508C530.61 39.2387 529.245 37.3249 527.488 35.7243L525.468 37.9419C526.907 39.2532 528.028 40.8195 528.833 42.6558L531.581 41.4508ZM527.514 35.7481C525.782 34.0951 523.692 32.8527 521.273 32.0079L520.284 34.8401C522.339 35.5578 524.049 36.5882 525.442 37.9181L527.514 35.7481ZM521.293 32.015C518.863 31.1277 516.145 30.6989 513.161 30.6989V33.6989C515.86 33.6989 518.22 34.0868 520.264 34.833L521.293 32.015ZM513.161 30.6989C507.939 30.6989 503.416 31.9708 499.676 34.5928L501.398 37.0493C504.547 34.8417 508.44 33.6989 513.161 33.6989V30.6989ZM499.67 34.597C495.987 37.2061 493.229 40.9217 491.364 45.6586L494.156 46.7576C495.842 42.4746 498.269 39.2655 501.404 37.0451L499.67 34.597ZM491.361 45.6682C489.537 50.3943 488.65 56.0027 488.65 62.4545H491.65C491.65 56.2643 492.503 51.0418 494.16 46.748L491.361 45.6682ZM488.65 62.4545C488.65 69.2526 489.553 75.0457 491.418 79.7832L494.209 78.6842C492.523 74.4017 491.65 69.0088 491.65 62.4545H488.65ZM491.423 79.7965C493.327 84.4993 496.11 88.1345 499.812 90.6025L501.476 88.1063C498.359 86.0288 495.922 82.9169 494.204 78.6709L491.423 79.7965ZM499.821 90.6085C503.515 93.0326 507.914 94.2102 512.948 94.2102V91.2102C508.394 91.2102 504.591 90.1506 501.467 88.1003L499.821 90.6085ZM512.948 94.2102C515.804 94.2102 518.409 93.8581 520.745 93.1303L519.853 90.266C517.857 90.8876 515.561 91.2102 512.948 91.2102V94.2102ZM520.767 93.1235C523.092 92.3612 525.142 91.2642 526.898 89.8206L524.993 87.5033C523.553 88.6875 521.839 89.6147 519.832 90.2728L520.767 93.1235ZM526.898 89.8206C528.649 88.3811 530.069 86.6481 531.155 84.6323L528.513 83.21C527.61 84.8874 526.438 86.3149 524.993 87.5033L526.898 89.8206ZM531.15 84.6412C532.272 82.5897 533.016 80.3063 533.394 77.8071L530.428 77.3577C530.097 79.546 529.455 81.4884 528.518 83.2011L531.15 84.6412ZM531.901 79.0823L561.943 79.2954L561.965 76.2955L531.922 76.0824L531.901 79.0823ZM560.458 77.6804C560.119 82.0933 558.878 86.6233 556.706 91.2769L559.425 92.5455C561.728 87.6111 563.079 82.7306 563.45 77.9105L560.458 77.6804ZM556.708 91.273C554.554 95.8556 551.484 100.116 547.479 104.052L549.582 106.191C553.816 102.031 557.103 97.4839 559.423 92.5494L556.708 91.273ZM547.479 104.052C543.553 107.909 538.666 111.04 532.785 113.426L533.914 116.206C540.108 113.692 545.34 110.359 549.582 106.191L547.479 104.052ZM532.785 113.426C526.963 115.789 520.148 116.991 512.309 116.991V119.991C520.45 119.991 527.662 118.743 533.914 116.206L532.785 113.426ZM512.309 116.991C502.517 116.991 493.782 114.893 486.069 110.726L484.643 113.366C492.839 117.793 502.073 119.991 512.309 119.991V116.991ZM486.071 110.728C478.419 106.575 472.352 100.467 467.865 92.357L465.24 93.8092C469.987 102.389 476.455 108.923 484.641 113.365L486.071 110.728ZM467.868 92.3613C463.436 84.2889 461.181 74.3424 461.181 62.4545H458.181C458.181 74.7145 460.507 85.1869 465.238 93.8049L467.868 92.3613ZM461.181 62.4545C461.181 50.4988 463.488 40.5411 468.019 32.5097L465.406 31.0357C460.562 39.6237 458.181 50.1205 458.181 62.4545H461.181ZM468.02 32.5073C472.577 24.3953 478.697 18.3034 486.384 14.1851L484.967 11.5407C476.746 15.9452 470.223 22.4598 465.405 31.0381L468.02 32.5073ZM486.389 14.1827C494.106 10.0139 502.735 7.91761 512.309 7.91761V4.91761C502.281 4.91761 493.154 7.11819 484.963 11.5432L486.389 14.1827ZM512.309 7.91761C519.061 7.91761 525.241 8.8398 530.862 10.6672L531.789 7.81427C525.833 5.87752 519.335 4.91761 512.309 4.91761V7.91761ZM530.862 10.6672C536.483 12.495 541.391 15.1592 545.602 18.6518L547.517 16.3425C542.993 12.5908 537.745 9.75069 531.789 7.81427L530.862 10.6672ZM545.608 18.6564C549.808 22.1055 553.195 26.3604 555.769 31.4387L558.445 30.0826C555.691 24.6496 552.047 20.0621 547.512 16.3379L545.608 18.6564ZM555.769 31.4387C558.332 36.4973 559.905 42.3238 560.459 48.9434L563.449 48.693C562.867 41.7472 561.208 35.5354 558.445 30.0826L555.769 31.4387ZM575.391 117H573.891V118.5H575.391V117ZM575.391 7.90909V6.40909H573.891V7.90909H575.391ZM654.013 7.90909H655.513V6.40909H654.013V7.90909ZM654.013 31.7727V33.2727H655.513V31.7727H654.013ZM605.007 31.7727V30.2727H603.507V31.7727H605.007ZM605.007 50.5227H603.507V52.0227H605.007V50.5227ZM649.964 50.5227H651.464V49.0227H649.964V50.5227ZM649.964 74.3864V75.8864H651.464V74.3864H649.964ZM605.007 74.3864V72.8864H603.507V74.3864H605.007ZM605.007 93.1364H603.507V94.6364H605.007V93.1364ZM653.8 93.1364H655.3V91.6364H653.8V93.1364ZM653.8 117V118.5H655.3V117H653.8ZM576.891 117V7.90909H573.891V117H576.891ZM575.391 9.40909H654.013V6.40909H575.391V9.40909ZM652.513 7.90909V31.7727H655.513V7.90909H652.513ZM654.013 30.2727H605.007V33.2727H654.013V30.2727ZM603.507 31.7727V50.5227H606.507V31.7727H603.507ZM605.007 52.0227H649.964V49.0227H605.007V52.0227ZM648.464 50.5227V74.3864H651.464V50.5227H648.464ZM649.964 72.8864H605.007V75.8864H649.964V72.8864ZM603.507 74.3864V93.1364H606.507V74.3864H603.507ZM605.007 94.6364H653.8V91.6364H605.007V94.6364ZM652.3 93.1364V117H655.3V93.1364H652.3ZM653.8 115.5H575.391V118.5H653.8V115.5ZM727.508 42L726.013 42.1196L726.123 43.5H727.508V42ZM723.513 33.6903L722.542 34.8341L722.551 34.8413L723.513 33.6903ZM705.296 31.826L705.817 33.2326L705.824 33.23L705.831 33.2273L705.296 31.826ZM701.034 34.7557L699.83 33.8612L699.83 33.8612L701.034 34.7557ZM699.596 39.017L701.094 39.098L701.095 39.0742L701.096 39.0504L699.596 39.017ZM700.289 42.5859L698.947 43.2568L698.96 43.2839L698.975 43.3106L700.289 42.5859ZM702.952 45.4091L702.087 46.6345L702.099 46.6431L702.111 46.6515L702.952 45.4091ZM714.298 49.4574L714.612 47.9906L714.6 47.9881L714.298 49.4574ZM723.247 51.375L722.932 52.8417L722.936 52.8425L723.247 51.375ZM749.294 63.8395L748.213 64.8797L748.22 64.8865L749.294 63.8395ZM755.313 73.321L753.904 73.8337L753.908 73.8462L755.313 73.321ZM757.338 84.8267L758.838 84.8341L758.838 84.824L758.837 84.8139L757.338 84.8267ZM751.958 103.044L753.178 103.916L753.178 103.916L751.958 103.044ZM736.723 114.39L736.175 112.994L736.173 112.995L736.723 114.39ZM688.197 114.07L687.641 115.464L687.643 115.464L688.197 114.07ZM671.791 101.126L670.539 101.953L670.545 101.962L671.791 101.126ZM665.931 78.6477V77.1477H664.425L664.431 78.6536L665.931 78.6477ZM694.056 78.6477L695.554 78.5681L695.479 77.1477H694.056V78.6477ZM696.56 87.0639L695.306 87.8869L695.306 87.8869L696.56 87.0639ZM702.845 92.2308L702.248 93.6067L702.254 93.6095L702.845 92.2308ZM720.53 92.8168L721.046 94.2251L721.046 94.2251L720.53 92.8168ZM725.377 89.5675L726.552 90.5008L726.552 90.5008L725.377 89.5675ZM727.082 84.8267L728.582 84.8567L728.582 84.8257L728.582 84.7948L727.082 84.8267ZM725.431 80.4588L724.262 81.3998L724.277 81.4176L724.292 81.435L725.431 80.4588ZM720.317 77.0497L719.721 78.4263L719.73 78.4301L719.739 78.4337L720.317 77.0497ZM710.676 74.1733L710.997 72.7081L710.992 72.707L710.676 74.1733ZM699.809 71.8295L699.491 73.2955L699.493 73.2958L699.809 71.8295ZM676.958 61.3359L675.96 62.4559L675.967 62.4626L676.958 61.3359ZM668.701 41.1477L670.201 41.154L670.201 41.14L668.701 41.1477ZM674.241 22.9837L673.024 22.1063L673.023 22.1079L674.241 22.9837ZM689.848 10.7855L689.248 9.4106L689.246 9.41178L689.848 10.7855ZM735.658 10.8388L735.033 12.2023L735.033 12.2023L735.658 10.8388ZM750.519 23.3033L749.261 24.1199L749.267 24.1295L750.519 23.3033ZM755.846 42V43.5H757.354L757.346 41.9925L755.846 42ZM729.003 41.8804C728.692 37.9928 727.21 34.8253 724.475 32.5394L722.551 34.8413C724.575 36.5326 725.756 38.9049 726.013 42.1196L729.003 41.8804ZM724.483 32.5466C721.753 30.2297 717.767 29.2074 712.806 29.2074V32.2074C717.434 32.2074 720.586 33.1737 722.542 34.8341L724.483 32.5466ZM712.806 29.2074C709.646 29.2074 706.944 29.591 704.761 30.4247L705.831 33.2273C707.554 32.5695 709.858 32.2074 712.806 32.2074V29.2074ZM704.775 30.4194C702.67 31.1988 700.974 32.3211 699.83 33.8612L702.238 35.6502C702.941 34.7045 704.086 33.8737 705.817 33.2326L704.775 30.4194ZM699.83 33.8612C698.715 35.3621 698.139 37.0857 698.096 38.9837L701.096 39.0504C701.125 37.7524 701.507 36.6351 702.238 35.6502L699.83 33.8612ZM698.098 38.9361C698.015 40.482 698.286 41.9348 698.947 43.2568L701.63 41.9151C701.226 41.1063 701.035 40.1799 701.094 39.098L698.098 38.9361ZM698.975 43.3106C699.677 44.5834 700.74 45.6841 702.087 46.6345L703.817 44.1836C702.749 43.4296 702.036 42.6482 701.602 41.8613L698.975 43.3106ZM702.111 46.6515C703.453 47.5591 705.12 48.3557 707.08 49.0583L708.092 46.2343C706.288 45.5874 704.865 44.8926 703.792 44.1667L702.111 46.6515ZM707.08 49.0583C709.046 49.7631 711.355 50.384 713.996 50.9267L714.6 47.9881C712.056 47.4654 709.89 46.8789 708.092 46.2343L707.08 49.0583ZM713.983 50.9241L722.932 52.8417L723.561 49.9083L714.612 47.9907L713.983 50.9241ZM722.936 52.8425C728.886 54.1024 733.93 55.7551 738.09 57.7836L739.405 55.0871C734.971 52.9253 729.682 51.2044 723.557 49.9075L722.936 52.8425ZM738.09 57.7836C742.261 59.8176 745.624 62.1892 748.213 64.8797L750.375 62.7993C747.496 59.808 743.827 57.2435 739.405 55.0871L738.09 57.7836ZM748.22 64.8865C750.813 67.5469 752.701 70.5273 753.904 73.8336L756.723 72.8084C755.369 69.0835 753.244 65.7429 750.368 62.7925L748.22 64.8865ZM753.908 73.8462C755.155 77.1812 755.803 80.841 755.838 84.8395L758.837 84.8139C758.801 80.5027 758.1 76.4921 756.718 72.7959L753.908 73.8462ZM755.838 84.8193C755.803 91.738 754.078 97.4946 750.737 102.172L753.178 103.916C756.939 98.6503 758.801 92.262 758.838 84.8341L755.838 84.8193ZM750.737 102.172C747.38 106.871 742.555 110.49 736.175 112.994L737.271 115.786C744.102 113.105 749.432 109.16 753.178 103.916L750.737 102.172ZM736.173 112.995C729.823 115.5 722.119 116.778 713.019 116.778V119.778C722.386 119.778 730.484 118.464 737.274 115.785L736.173 112.995ZM713.019 116.778C703.682 116.778 695.603 115.397 688.75 112.676L687.643 115.464C694.924 118.355 703.393 119.778 713.019 119.778V116.778ZM688.753 112.677C681.979 109.974 676.761 105.843 673.036 100.291L670.545 101.962C674.633 108.057 680.352 112.555 687.641 115.464L688.753 112.677ZM673.042 100.3C669.374 94.7471 667.466 87.5627 667.431 78.6419L664.431 78.6536C664.468 87.9856 666.466 95.787 670.539 101.953L673.042 100.3ZM665.931 80.1477H694.056V77.1477H665.931V80.1477ZM692.558 78.7274C692.747 82.2699 693.639 85.3466 695.306 87.8869L697.814 86.2409C696.498 84.2357 695.721 81.7016 695.554 78.5681L692.558 78.7274ZM695.306 87.8869C696.971 90.4242 699.304 92.3285 702.248 93.6067L703.443 90.8549C700.989 89.7894 699.132 88.2491 697.814 86.2409L695.306 87.8869ZM702.254 93.6095C705.218 94.8796 708.678 95.4886 712.593 95.4886V92.4886C708.98 92.4886 705.941 91.9258 703.436 90.8521L702.254 93.6095ZM712.593 95.4886C715.866 95.4886 718.699 95.0857 721.046 94.2251L720.014 91.4084C718.099 92.1104 715.642 92.4886 712.593 92.4886V95.4886ZM721.046 94.2251C723.364 93.3754 725.237 92.1546 726.552 90.5008L724.203 88.6341C723.316 89.7503 721.958 90.6957 720.014 91.4084L721.046 94.2251ZM726.552 90.5008C727.858 88.8575 728.539 86.9596 728.582 84.8567L725.582 84.7967C725.553 86.245 725.099 87.5076 724.203 88.6341L726.552 90.5008ZM728.582 84.7948C728.539 82.7862 727.866 80.9947 726.569 79.4826L724.292 81.435C725.126 82.4087 725.554 83.5291 725.582 84.8586L728.582 84.7948ZM726.599 79.5178C725.348 77.9646 723.386 76.7066 720.895 75.6657L719.739 78.4337C722.006 79.3815 723.454 80.3962 724.262 81.3998L726.599 79.5178ZM720.913 75.6731C718.409 74.5893 715.091 73.6059 710.997 72.7081L710.354 75.6385C714.357 76.5163 717.467 77.4505 719.721 78.4263L720.913 75.6731ZM710.992 72.707L700.125 70.3633L699.493 73.2958L710.359 75.6396L710.992 72.707ZM700.127 70.3636C690.638 68.3053 683.278 64.8947 677.948 60.2093L675.967 62.4626C681.787 67.5783 689.662 71.1635 699.491 73.2955L700.127 70.3636ZM677.955 60.216C672.786 55.6099 670.167 49.3175 670.201 41.154L667.201 41.1415C667.164 50.0235 670.05 57.1898 675.96 62.4559L677.955 60.216ZM670.201 41.14C670.167 34.504 671.931 28.7648 675.459 23.8595L673.023 22.1079C669.094 27.5718 667.164 33.942 667.201 41.1554L670.201 41.14ZM675.458 23.861C679.046 18.8847 684.024 14.9775 690.451 12.1592L689.246 9.41178C682.392 12.4174 676.964 16.6423 673.024 22.1063L675.458 23.861ZM690.448 12.1604C696.903 9.34479 704.346 7.91761 712.806 7.91761V4.91761C704.008 4.91761 696.145 6.40236 689.248 9.4106L690.448 12.1604ZM712.806 7.91761C721.449 7.91761 728.843 9.36401 735.033 12.2023L736.283 9.4753C729.617 6.41865 721.777 4.91761 712.806 4.91761V7.91761ZM735.033 12.2023C741.23 15.0441 745.952 19.0212 749.261 24.1199L751.778 22.4867C748.126 16.8609 742.941 12.5283 736.283 9.4753L735.033 12.2023ZM749.267 24.1295C752.604 29.185 754.312 35.1252 754.346 42.0075L757.346 41.9925C757.309 34.5992 755.466 28.0749 751.771 22.477L749.267 24.1295ZM755.846 40.5H727.508V43.5H755.846V40.5Z" fill="#0061C0" mask="url(#path-1-outside-1_2_3)"/>
</g>
<defs>
<clipPath id="clip0_2_3">
<rect width="762" height="124" fill="white"/>
</clipPath>
</defs>
</svg>
