<svg width="50" height="42" viewBox="0 0 50 42" fill="none" xmlns="http://www.w3.org/2000/svg">
<path d="M25.0314 23.179L7.97165 40.9837C6.79252 42.2144 4.88585 42.2144 3.71927 40.9837L0.884345 38.025C-0.294782 36.7944 -0.294782 34.8044 0.884345 33.5869L12.9767 20.9664L0.884345 8.34599C-0.294782 7.11537 -0.294782 5.12542 0.884345 3.90789L3.70672 0.922969C4.88585 -0.307656 6.79252 -0.307656 7.95911 0.922969L25.0188 18.7278C26.2105 19.9584 26.2105 21.9483 25.0314 23.179ZM49.1157 18.7278L32.0559 0.922969C30.8768 -0.307656 28.9701 -0.307656 27.8036 0.922969L24.9686 3.88171C23.7895 5.11233 23.7895 7.10228 24.9686 8.31981L37.061 20.9403L24.9686 33.5607C23.7895 34.7913 23.7895 36.7813 24.9686 37.9988L27.8036 40.9576C28.9827 42.1882 30.8894 42.1882 32.0559 40.9576L49.1157 23.1528C50.2948 21.9483 50.2948 19.9584 49.1157 18.7278Z" fill="black"/>
</svg>
