<svg width="200" height="239" viewBox="0 0 200 239" fill="none" xmlns="http://www.w3.org/2000/svg">
<path d="M150.902 110.979C149.4 107.983 147.714 104.857 145.864 101.661L145.685 101.353L145.456 101.625L119.484 132.546L119.212 132.182L117.904 130.44C116.776 128.938 115.162 126.787 113.214 124.195C109.32 119.011 104.095 112.059 98.7728 104.992C88.1331 90.8615 77.0969 76.2535 75.5448 74.3883L75.3488 74.1526L75.1574 74.3921C53.5277 101.455 42.6071 117.375 42.6071 135.468C42.6071 153.589 49.1843 168.245 59.8159 178.37C70.4456 188.494 85.1143 194.075 101.277 194.075C114.216 194.075 126.191 189.869 135.902 182.775C157.998 166.641 163.158 135.387 150.902 110.979ZM150.902 110.979L150.684 111.088L150.902 110.979C150.902 110.979 150.902 110.979 150.902 110.979ZM119.143 51.9398L119.336 52.2178L119.545 51.9511C126.921 42.5232 135.239 33.137 144.446 24.2037C160.521 39.8279 174.33 60.3583 184.13 80.0857C193.969 99.8917 199.75 118.853 199.75 131.205C199.75 190.373 155.073 238.304 100 238.304C44.9268 238.304 0.25 190.373 0.25 131.205C0.25 114.58 8.00856 92.4437 21.2675 69.1384C34.4872 45.9021 53.1584 21.5321 75 0.348155C92.0068 16.8438 107.024 34.5176 119.143 51.9398Z" fill="black" stroke="#FFB4E6" stroke-width="0.5"/>
</svg>
